<?xml version="1.0" encoding="UTF-8"?>
<svg width="700pt" height="700pt" version="1.1" viewBox="0 0 700 700" xmlns="http://www.w3.org/2000/svg" xmlns:xlink="http://www.w3.org/1999/xlink">
 <defs>
  <symbol id="l" overflow="visible">
   <path d="m26.047-1.5625c-1.3359 0.69922-2.7305 1.2266-4.1875 1.5781-1.4609 0.35156-2.9805 0.53125-4.5625 0.53125-4.7188 0-8.4609-1.3164-11.219-3.9531-2.7617-2.6445-4.1406-6.2227-4.1406-10.734 0-4.5391 1.3789-8.1289 4.1406-10.766 2.7578-2.6328 6.5-3.9531 11.219-3.9531 1.582 0 3.1016 0.17969 4.5625 0.53125 1.457 0.35547 2.8516 0.88281 4.1875 1.5781v5.8594c-1.3555-0.92578-2.6875-1.6016-4-2.0312-1.3125-0.42578-2.6992-0.64062-4.1562-0.64062-2.6172 0-4.668 0.83984-6.1562 2.5156-1.4922 1.668-2.2344 3.9688-2.2344 6.9062 0 2.918 0.74219 5.2148 2.2344 6.8906 1.4883 1.668 3.5391 2.5 6.1562 2.5 1.457 0 2.8438-0.21094 4.1562-0.64062 1.3125-0.42578 2.6445-1.1016 4-2.0312z"/>
  </symbol>
  <symbol id="c" overflow="visible">
   <path d="m19.062-15.469c-0.59375-0.28125-1.1875-0.48828-1.7812-0.625-0.58594-0.13281-1.1719-0.20312-1.7656-0.20312-1.75 0-3.1016 0.5625-4.0469 1.6875-0.9375 1.1172-1.4062 2.7188-1.4062 4.8125v9.7969h-6.7969v-21.266h6.7969v3.4844c0.875-1.3828 1.8789-2.3945 3.0156-3.0312 1.1328-0.64453 2.4883-0.96875 4.0625-0.96875 0.22656 0 0.47266 0.011719 0.73438 0.03125 0.26953 0.023438 0.66016 0.0625 1.1719 0.125z"/>
  </symbol>
  <symbol id="b" overflow="visible">
   <path d="m24.5-10.688v1.9375h-15.891c0.15625 1.5938 0.72656 2.793 1.7188 3.5938 0.98828 0.79297 2.3672 1.1875 4.1406 1.1875 1.4258 0 2.8906-0.20703 4.3906-0.625 1.5-0.42578 3.0391-1.0703 4.625-1.9375v5.2344c-1.6055 0.61719-3.2148 1.0742-4.8281 1.375-1.6055 0.3125-3.2109 0.46875-4.8125 0.46875-3.8438 0-6.8359-0.97266-8.9688-2.9219-2.1367-1.957-3.2031-4.7031-3.2031-8.2344 0-3.4688 1.0469-6.1953 3.1406-8.1875 2.0938-1.9883 4.9766-2.9844 8.6562-2.9844 3.3438 0 6.0156 1.0078 8.0156 3.0156 2.0078 2.0117 3.0156 4.7031 3.0156 8.0781zm-6.9844-2.2656c0-1.2891-0.38281-2.332-1.1406-3.125-0.75-0.78906-1.7344-1.1875-2.9531-1.1875-1.3125 0-2.3828 0.37109-3.2031 1.1094-0.82422 0.74219-1.3398 1.8086-1.5469 3.2031z"/>
  </symbol>
  <symbol id="e" overflow="visible">
   <path d="m12.797-9.5781c-1.418 0-2.4844 0.24609-3.2031 0.73438-0.71094 0.48047-1.0625 1.1875-1.0625 2.125 0 0.85547 0.28516 1.5273 0.85938 2.0156 0.57031 0.49219 1.375 0.73438 2.4062 0.73438 1.2695 0 2.3438-0.45703 3.2188-1.375 0.875-0.91406 1.3125-2.0664 1.3125-3.4531v-0.78125zm10.391-2.5625v12.141h-6.8594v-3.1562c-0.90625 1.293-1.9336 2.2344-3.0781 2.8281-1.1367 0.58203-2.5234 0.875-4.1562 0.875-2.1992 0-3.9844-0.64062-5.3594-1.9219s-2.0625-2.9453-2.0625-5c0-2.5 0.85156-4.3281 2.5625-5.4844 1.7188-1.1641 4.4141-1.75 8.0938-1.75h4v-0.53125c0-1.082-0.42969-1.875-1.2812-2.375-0.84375-0.5-2.1641-0.75-3.9531-0.75-1.4609 0-2.8203 0.14844-4.0781 0.4375-1.25 0.29297-2.4141 0.73047-3.4844 1.3125v-5.1875c1.457-0.35156 2.9219-0.61719 4.3906-0.79688 1.4688-0.1875 2.9375-0.28125 4.4062-0.28125 3.832 0 6.5977 0.75781 8.2969 2.2656 1.707 1.5117 2.5625 3.9688 2.5625 7.375z"/>
  </symbol>
  <symbol id="a" overflow="visible">
   <path d="m10.688-27.312v6.0469h7.0156v4.8594h-7.0156v9.0156c0 0.99219 0.19531 1.6641 0.59375 2.0156 0.39453 0.34375 1.1719 0.51562 2.3281 0.51562h3.5v4.8594h-5.8281c-2.6875 0-4.5938-0.55469-5.7188-1.6719-1.1172-1.125-1.6719-3.0312-1.6719-5.7188v-9.0156h-3.375v-4.8594h3.375v-6.0469z"/>
  </symbol>
  <symbol id="o" overflow="visible">
   <path d="m17.734-18.156v-11.391h6.8438v29.547h-6.8438v-3.0781c-0.9375 1.25-1.9688 2.168-3.0938 2.75s-2.4297 0.875-3.9062 0.875c-2.625 0-4.7812-1.0391-6.4688-3.125-1.6797-2.082-2.5156-4.7578-2.5156-8.0312 0-3.2812 0.83594-5.9609 2.5156-8.0469 1.6875-2.082 3.8438-3.125 6.4688-3.125 1.4688 0 2.7656 0.29688 3.8906 0.89062 1.1328 0.58594 2.1719 1.4961 3.1094 2.7344zm-4.4844 13.766c1.457 0 2.5664-0.53125 3.3281-1.5938 0.76953-1.0625 1.1562-2.6016 1.1562-4.625 0-2.0312-0.38672-3.5781-1.1562-4.6406-0.76172-1.0625-1.8711-1.5938-3.3281-1.5938-1.4375 0-2.543 0.53125-3.3125 1.5938-0.76172 1.0625-1.1406 2.6094-1.1406 4.6406 0 2.0234 0.37891 3.5625 1.1406 4.625 0.76953 1.0625 1.875 1.5938 3.3125 1.5938z"/>
  </symbol>
  <symbol id="n" overflow="visible">
   <path d="m14.578-4.3906c1.457 0 2.5664-0.53125 3.3281-1.5938 0.76953-1.0625 1.1562-2.6016 1.1562-4.625 0-2.0312-0.38672-3.5781-1.1562-4.6406-0.76172-1.0625-1.8711-1.5938-3.3281-1.5938-1.4492 0-2.5625 0.53906-3.3438 1.6094-0.78125 1.0625-1.1719 2.6055-1.1719 4.625 0 2.0117 0.39062 3.5547 1.1719 4.625 0.78125 1.0625 1.8945 1.5938 3.3438 1.5938zm-4.5156-13.766c0.9375-1.2383 1.9727-2.1484 3.1094-2.7344 1.1445-0.59375 2.457-0.89062 3.9375-0.89062 2.625 0 4.7734 1.043 6.4531 3.125 1.6875 2.0859 2.5312 4.7656 2.5312 8.0469 0 3.2734-0.84375 5.9492-2.5312 8.0312-1.6797 2.0859-3.8281 3.125-6.4531 3.125-1.4805 0-2.793-0.29297-3.9375-0.875-1.1367-0.59375-2.1719-1.5078-3.1094-2.75v3.0781h-6.7969v-29.547h6.7969z"/>
  </symbol>
  <symbol id="m" overflow="visible">
   <path d="m0.46875-21.266h6.7969l5.7188 14.422 4.8594-14.422h6.8125l-8.9531 23.281c-0.89844 2.3633-1.9453 4.0156-3.1406 4.9531-1.1992 0.94531-2.7773 1.4219-4.7344 1.4219h-3.9375v-4.4531h2.125c1.1562 0 1.9922-0.1875 2.5156-0.5625 0.53125-0.36719 0.94141-1.0234 1.2344-1.9688l0.1875-0.59375z"/>
  </symbol>
  <symbol id="d" overflow="visible">
   <path d="m24.656-12.953v12.953h-6.8438v-9.875c0-1.8633-0.042969-3.1406-0.125-3.8281-0.085938-0.69531-0.22656-1.2109-0.42188-1.5469-0.27344-0.4375-0.63672-0.78125-1.0938-1.0312-0.44922-0.25-0.96484-0.375-1.5469-0.375-1.418 0-2.5312 0.54688-3.3438 1.6406s-1.2188 2.6094-1.2188 4.5469v10.469h-6.7969v-29.547h6.7969v11.391c1.0312-1.2383 2.1172-2.1484 3.2656-2.7344 1.1562-0.59375 2.4258-0.89062 3.8125-0.89062 2.457 0 4.3203 0.75781 5.5938 2.2656 1.2812 1.5 1.9219 3.6875 1.9219 6.5625z"/>
  </symbol>
  <symbol id="k" overflow="visible">
   <path d="m20.453-20.609v5.5469c-0.92969-0.63281-1.8555-1.1016-2.7812-1.4062-0.92969-0.30078-1.8906-0.45312-2.8906-0.45312-1.9062 0-3.3906 0.55859-4.4531 1.6719-1.0547 1.1055-1.5781 2.6523-1.5781 4.6406 0 1.9805 0.52344 3.5273 1.5781 4.6406 1.0625 1.1055 2.5469 1.6562 4.4531 1.6562 1.0625 0 2.0664-0.15625 3.0156-0.46875 0.95703-0.32031 1.8438-0.78906 2.6562-1.4062v5.5625c-1.0625 0.39844-2.1406 0.6875-3.2344 0.875-1.0938 0.19531-2.1953 0.29688-3.2969 0.29688-3.8359 0-6.8359-0.98438-9-2.9531-2.168-1.9688-3.25-4.7031-3.25-8.2031 0-3.5078 1.082-6.25 3.25-8.2188 2.1641-1.9688 5.1641-2.9531 9-2.9531 1.1133 0 2.2109 0.10156 3.2969 0.29688 1.082 0.19922 2.1602 0.49219 3.2344 0.875z"/>
  </symbol>
  <symbol id="g" overflow="visible">
   <path d="m3.2656-21.266h6.7969v21.266h-6.7969zm0-8.2812h6.7969v5.5469h-6.7969z"/>
  </symbol>
  <symbol id="j" overflow="visible">
   <path d="m3.5625-28.344h12.141c3.6016 0 6.3672 0.80469 8.2969 2.4062 1.9375 1.5938 2.9062 3.8711 2.9062 6.8281 0 2.9805-0.96875 5.2734-2.9062 6.875-1.9297 1.5938-4.6953 2.3906-8.2969 2.3906h-4.8281v9.8438h-7.3125zm7.3125 5.2969v7.9062h4.0469c1.4141 0 2.5078-0.34375 3.2812-1.0312 0.78125-0.6875 1.1719-1.6641 1.1719-2.9375 0-1.2578-0.39062-2.2266-1.1719-2.9062-0.77344-0.6875-1.8672-1.0312-3.2812-1.0312z"/>
  </symbol>
  <symbol id="u" overflow="visible">
   <path d="m10.062-3.0781v11.172h-6.7969v-29.359h6.7969v3.1094c0.9375-1.2383 1.9727-2.1484 3.1094-2.7344 1.1445-0.59375 2.457-0.89062 3.9375-0.89062 2.625 0 4.7734 1.043 6.4531 3.125 1.6875 2.0859 2.5312 4.7656 2.5312 8.0469 0 3.2734-0.84375 5.9492-2.5312 8.0312-1.6797 2.0859-3.8281 3.125-6.4531 3.125-1.4805 0-2.793-0.29297-3.9375-0.875-1.1367-0.59375-2.1719-1.5078-3.1094-2.75zm4.5156-13.766c-1.4492 0-2.5625 0.53906-3.3438 1.6094-0.78125 1.0625-1.1719 2.6055-1.1719 4.625 0 2.0117 0.39062 3.5547 1.1719 4.625 0.78125 1.0625 1.8945 1.5938 3.3438 1.5938 1.457 0 2.5664-0.53125 3.3281-1.5938 0.76953-1.0625 1.1562-2.6016 1.1562-4.625 0-2.0312-0.38672-3.5781-1.1562-4.6406-0.76172-1.0625-1.8711-1.5938-3.3281-1.5938z"/>
  </symbol>
  <symbol id="i" overflow="visible">
   <path d="m22.984-17.734c0.85156-1.3203 1.8672-2.3281 3.0469-3.0156 1.1875-0.6875 2.4922-1.0312 3.9219-1.0312 2.4375 0 4.2969 0.75781 5.5781 2.2656 1.2812 1.5 1.9219 3.6875 1.9219 6.5625v12.953h-6.8438v-11.094c0.007813-0.16406 0.019531-0.33594 0.03125-0.51562 0.007813-0.17578 0.015625-0.42578 0.015625-0.75 0-1.5078-0.22656-2.6016-0.67188-3.2812-0.44922-0.67578-1.1641-1.0156-2.1406-1.0156-1.293 0-2.293 0.53125-3 1.5938-0.69922 1.0625-1.0625 2.6055-1.0938 4.625v10.438h-6.8281v-11.094c0-2.3516-0.20312-3.8672-0.60938-4.5469-0.40625-0.67578-1.1328-1.0156-2.1719-1.0156-1.3047 0-2.3086 0.53906-3.0156 1.6094-0.71094 1.0742-1.0625 2.6016-1.0625 4.5781v10.469h-6.8281v-21.266h6.8281v3.1094c0.83203-1.1953 1.7891-2.0977 2.875-2.7031 1.082-0.61328 2.2734-0.92188 3.5781-0.92188 1.4688 0 2.7656 0.35547 3.8906 1.0625 1.1328 0.71094 1.9922 1.7031 2.5781 2.9844z"/>
  </symbol>
  <symbol id="h" overflow="visible">
   <path d="m3.0312-8.2812v-12.984h6.8438v2.125c0 1.1562-0.007812 2.6055-0.015625 4.3438-0.011719 1.7422-0.015625 2.9023-0.015625 3.4844 0 1.7109 0.039062 2.9375 0.125 3.6875 0.09375 0.75 0.24219 1.2969 0.45312 1.6406 0.28125 0.44922 0.64453 0.79297 1.0938 1.0312 0.44531 0.24219 0.96094 0.35938 1.5469 0.35938 1.4141 0 2.5312-0.53906 3.3438-1.625 0.8125-1.0938 1.2188-2.6094 1.2188-4.5469v-10.5h6.7969v21.266h-6.7969v-3.0781c-1.0312 1.2422-2.1211 2.1562-3.2656 2.75-1.1484 0.58203-2.4062 0.875-3.7812 0.875-2.4609 0-4.3359-0.75-5.625-2.25-1.2812-1.5078-1.9219-3.7031-1.9219-6.5781z"/>
  </symbol>
  <symbol id="t" overflow="visible">
   <path d="m3.2656-29.547h6.7969v16.078l7.8281-7.7969h7.8906l-10.375 9.7656 11.203 11.5h-8.25l-8.2969-8.875v8.875h-6.7969z"/>
  </symbol>
  <symbol id="s" overflow="visible">
   <path d="m17.266-29.547v4.4688h-3.7656c-0.96094 0-1.6328 0.17188-2.0156 0.51562-0.375 0.34375-0.5625 0.94922-0.5625 1.8125v1.4844h5.8125v4.8594h-5.8125v16.406h-6.7969v-16.406h-3.3906v-4.8594h3.3906v-1.4844c0-2.3125 0.64453-4.0195 1.9375-5.125 1.2891-1.1133 3.2891-1.6719 6-1.6719z"/>
  </symbol>
  <symbol id="f" overflow="visible">
   <path d="m13.391-16.922c-1.5117 0-2.6641 0.54297-3.4531 1.625-0.79297 1.0859-1.1875 2.6484-1.1875 4.6875 0 2.0312 0.39453 3.5898 1.1875 4.6719 0.78906 1.0859 1.9414 1.625 3.4531 1.625 1.4766 0 2.6094-0.53906 3.3906-1.625 0.78906-1.082 1.1875-2.6406 1.1875-4.6719 0-2.0391-0.39844-3.6016-1.1875-4.6875-0.78125-1.082-1.9141-1.625-3.3906-1.625zm0-4.8594c3.6562 0 6.5078 0.99219 8.5625 2.9688 2.0625 1.9688 3.0938 4.7031 3.0938 8.2031 0 3.4922-1.0312 6.2266-3.0938 8.2031-2.0547 1.9688-4.9062 2.9531-8.5625 2.9531-3.6797 0-6.5547-0.98438-8.625-2.9531-2.0625-1.9766-3.0938-4.7109-3.0938-8.2031 0-3.5 1.0312-6.2344 3.0938-8.2031 2.0703-1.9766 4.9453-2.9688 8.625-2.9688z"/>
  </symbol>
  <symbol id="r" overflow="visible">
   <path d="m3.5625-28.344h8.1719l10.312 19.438v-19.438h6.9375v28.344h-8.1719l-10.312-19.453v19.453h-6.9375z"/>
  </symbol>
  <symbol id="q" overflow="visible">
   <path d="m24.656-12.953v12.953h-6.8438v-9.9062c0-1.8438-0.042969-3.1094-0.125-3.7969-0.085938-0.69531-0.22656-1.2109-0.42188-1.5469-0.27344-0.4375-0.63672-0.78125-1.0938-1.0312-0.44922-0.25-0.96484-0.375-1.5469-0.375-1.418 0-2.5312 0.54688-3.3438 1.6406s-1.2188 2.6094-1.2188 4.5469v10.469h-6.7969v-21.266h6.7969v3.1094c1.0312-1.2383 2.1172-2.1484 3.2656-2.7344 1.1562-0.59375 2.4258-0.89062 3.8125-0.89062 2.457 0 4.3203 0.75781 5.5938 2.2656 1.2812 1.5 1.9219 3.6875 1.9219 6.5625z"/>
  </symbol>
  <symbol id="p" overflow="visible">
   <path d="m3.2656-21.266h6.7969v20.891c0 2.8438-0.68359 5.0156-2.0469 6.5156-1.3672 1.5-3.3516 2.25-5.9531 2.25h-3.3594v-4.4531h1.1875c1.2891 0 2.1758-0.29297 2.6562-0.875 0.47656-0.58594 0.71875-1.7305 0.71875-3.4375zm0-8.2812h6.7969v5.5469h-6.7969z"/>
  </symbol>
 </defs>
 <g>
  <path d="m73.578 286.96c-7.1562 32.977 10.188 52.188 17.035 58.332-1.3984 2.4883-2.4102 5.3672-2.957 8.4766-6.457 2.1797-11.199 8.2461-11.199 15.477 0 9.0234 7.3125 16.332 16.332 16.332 9.0234 0 16.332-7.3125 16.332-16.332 0-6.6875-4.043-12.445-9.8008-14.934 1.3203-5.2891 5.0547-8.5547 11.277-9.8789 2.332 6.1445 8.2461 10.5 15.246 10.5 9.0234 0 16.332-7.3125 16.332-16.332 0-9.0234-7.3125-16.332-16.332-16.332-6.9219 0-12.832 4.3555-15.168 10.422-4.5898 0.69922-8.6328 2.1797-11.977 4.2773-4.5898-3.9648-19.832-19.68-13.844-47.602 5.5234-25.434 29.633-35 37.645-37.488 2.5664 5.7539 8.2461 9.7227 14.934 9.7227 9.0234 0 16.332-7.3125 16.332-16.332 0-9.0234-7.3125-16.332-16.332-16.332-7.1562 0-13.223 4.668-15.398 11.043-4.7461 1.2461-40.758 11.516-48.457 46.98zm52.266 46.824c2.6445 0 4.7461 2.1797 4.7461 4.7461 0 2.6445-2.1797 4.7461-4.7461 4.7461-2.6445 0-4.7461-2.1016-4.7461-4.7461v-0.54297c0.23438-2.3398 2.2578-4.2031 4.7461-4.2031zm-32.977 40.211c-2.6445 0-4.7461-2.1797-4.7461-4.7461s2.1016-4.668 4.5898-4.7461h0.23437 0.078126 0.15625c2.4883 0.15625 4.4336 2.2539 4.4336 4.7461-0.003906 2.6445-2.1016 4.7461-4.7461 4.7461zm44.566-133.47c2.6445 0 4.7461 2.1797 4.7461 4.7461 0 2.5664-2.1797 4.7461-4.7461 4.7461s-4.7461-2.1797-4.7461-4.7461c0-2.5664 2.1016-4.7461 4.7461-4.7461z"/>
  <path d="m339.5 96.406c-9.0234 0-16.332 7.3125-16.332 16.332 0 1.6328 0.23438 3.1875 0.69922 4.668-2.4102 1.9453-5.0547 4.2773-7.8555 6.9219-3.5781-2.4102-10.188-6.5352-18.121-9.957-0.69922-8.3984-7.6992-15.012-16.254-15.012-9.0234 0-16.332 7.3125-16.332 16.332 0 9.0234 7.3125 16.332 16.332 16.332 5.2891 0 9.957-2.5664 12.988-6.457 5.3672 2.4102 10.035 5.2109 13.145 7.2344-7.9336 8.7109-16.023 19.832-21.855 33.133-8.4766 19.133-11.043 35.543-11.59 47.055-5.9883 2.4102-10.188 8.2461-10.188 15.09 0 9.0234 7.3125 16.332 16.332 16.332 9.0234 0 16.332-7.3125 16.332-16.332 0-7.0781-4.5898-13.145-10.891-15.398 0.54297-10.344 2.957-25.043 10.578-42.156 9.1016-20.609 24.266-35.543 34.457-43.867 2.4883 1.5547 5.4453 2.4883 8.6328 2.4883 9.0234 0 16.332-7.3125 16.332-16.332s-7.3867-16.406-16.41-16.406zm-59.035 136.34c-2.6445 0-4.7461-2.1797-4.7461-4.7461 0-2.4883 1.8672-4.5117 4.2773-4.7461h0.46484c2.6445 0 4.7461 2.1797 4.7461 4.7461 0.003907 2.5664-2.0977 4.7461-4.7422 4.7461zm1.168-112.39c-2.6445 0-4.7461-2.1797-4.7461-4.7461 0-2.6445 2.1797-4.7461 4.7461-4.7461 2.6445 0 4.7461 2.1797 4.7461 4.7461 0 2.6484-2.1016 4.7461-4.7461 4.7461zm57.867-2.875c-1.5547 0-2.957-0.77734-3.8125-1.9453-0.54297-0.77734-0.93359-1.7109-0.93359-2.8008 0-2.6445 2.1797-4.7461 4.7461-4.7461s4.7461 2.1797 4.7461 4.7461c0.074218 2.6445-2.1016 4.7461-4.7461 4.7461z"/>
  <path d="m154.23 290.93c-0.23438-0.85547-0.46484-1.7109-0.85547-2.5664-1.7891-3.9648-4.9766-7.0781-9.0234-8.6328-4.043-1.5547-8.4766-1.4766-12.445 0.3125-3.9648 1.7891-7.0781 4.9766-8.6328 9.0234-1.5547 4.043-1.4766 8.4766 0.3125 12.445 1.7891 3.9648 4.9766 7.0781 9.0234 8.6328 1.9453 0.77734 3.8906 1.0898 5.9102 1.0898 2.2539 0 4.5117-0.46484 6.6094-1.3984 3.5-1.5547 6.2227-4.1992 7.8555-7.3906 3.5 0.69922 6.6875 1.7891 9.6445 3.3438 0 0.078126-0.078124 0.15625-0.078124 0.23438-1.5547 4.043-1.4766 8.4766 0.3125 12.445 2.7227 6.0664 8.7109 9.7227 14.934 9.7227 2.1797 0 4.4336-0.46484 6.5352-1.3984 8.2461-3.6562 11.977-13.301 8.3203-21.543-1.7891-3.9648-4.9766-7.0781-9.0234-8.6328-4.043-1.5547-8.4766-1.4766-12.445 0.3125-0.15625 0.078124-0.23438 0.15625-0.39062 0.15625-4.9766-2.9688-10.496-5.0703-16.562-6.1562zm-13.844 8.3984c-1.168 0.54297-2.4883 0.54297-3.6562 0.078125s-2.1016-1.3203-2.6445-2.4883c-1.0898-2.4102 0-5.2109 2.4102-6.3008 0.62109-0.3125 1.2461-0.39063 1.9453-0.39063 0.62109 0 1.168 0.078126 1.7109 0.3125 1.168 0.46484 2.1016 1.3203 2.6445 2.4883 0.54297 1.168 0.54297 2.4883 0.078125 3.6562-0.39062 1.168-1.3242 2.1016-2.4883 2.6445zm37.254 7.8555c1.8672 0 3.5781 1.0898 4.3555 2.8789 1.0898 2.4102 0 5.2109-2.4102 6.3008-2.4102 1.0898-5.2109 0-6.3008-2.4102-0.54297-1.168-0.54297-2.4883-0.078124-3.6562 0.46484-1.168 1.3203-2.1016 2.4883-2.6445 0.62109-0.3125 1.3242-0.46875 1.9453-0.46875z"/>
  <path d="m700 286.57c0-8.3984-6.3789-15.398-14.621-16.254-6.1445-20.066-20.066-53.82-49.855-82.68-29.945-29.012-51.645-41.922-65.488-47.68-0.62109-8.3984-7.6992-15.012-16.254-15.012-2.0234 0-3.9648 0.39063-5.7539 1.0898-12.602-12.68-37.102-32.59-76.145-44.723-41.922-12.988-68.91-13.609-85.09-11.355-2.8047-4.3516-7.7812-7.1523-13.383-7.1523-5.832 0-10.965 3.1094-13.844 7.7773-23.488-3.8906-72.723-8.168-116.98 13.688-2.8789-2.4102-6.5352-3.8906-10.578-3.8906-7.6992 0-14.078 5.2891-15.867 12.445-21.777 3.6562-65.957 14.855-99.09 48.457-1.8672-0.77734-3.9648-1.168-6.1445-1.168-8.3984 0-15.246 6.3008-16.18 14.465-15.012 5.1328-39.82 17.344-62.766 45.109-23.801 28.855-25.898 57.168-24.344 73.812-4.5859 2.8047-7.6211 7.9375-7.6211 13.695 0 4.9766 2.2539 9.4102 5.7539 12.445-2.4883 9.1797-4.3555 22.09-2.1797 36.945 3.0352 20.766 13.145 40.133 30.102 57.633 23.645 24.422 56.156 31.109 84.543 31.109 17.812 0 34.066-2.6445 45.422-5.1328 2.4883 3.9648 6.6875 6.6875 11.512 7.3906 4.4336 24.266 18.977 42.312 39.668 49.234 0.15625 8.8672 7.3906 16.023 16.332 16.023 4.8984 0 9.332-2.1797 12.289-5.6797 7 2.332 17.344 3.9648 27.609 3.9648 3.5 0 6.9219-0.23438 10.266-0.62109 16.957-2.1797 32.977-10.578 42.391-18.512 1.9453 0.77734 4.043 1.2461 6.2227 1.2461 1.9453 0 3.7344-0.39063 5.4453-0.93359 5.0547 7.4648 17.344 22.398 39.434 29.555 7.2344 2.332 15.867 3.4219 24.344 3.4219 9.8789 0 19.68-1.3984 27.066-3.6562 2.8789 2.6445 6.6875 4.1992 10.891 4.1992 3.8125 0 7.3125-1.3203 10.109-3.5 8.0898 3.4219 30.332 11.512 62.223 11.512 4.1211 0 8.3203-0.15625 12.754-0.39062 2.7227 5.2109 8.168 8.8672 14.465 8.8672 7.9336 0 14.543-5.7539 16.023-13.223 10.344-2.332 20.766-5.5234 31.035-9.4883 15.789-6.1445 29.711-14.621 41.301-25.199 1.9453 0.85547 4.1211 1.3203 6.457 1.3203 9.0234 0 16.332-7.3125 16.332-16.332 0-3.2656-1.0117-6.3008-2.6445-8.8672 19.68-30.645 20.766-61.602 20.844-65.41 3.0352-2.957 4.8984-7.0781 4.8984-11.59v-0.3125c7.6992-3.5 14.934-10.578 20.066-19.832 5.2109-9.4102 12.602-28.777 4.8203-55.922 2.5742-2.8789 4.207-6.6875 4.207-10.891zm-11.512 0c0 1.6328-0.77734 3.0352-2.0234 3.8906-0.23438 0.078124-0.39062 0.23437-0.54297 0.3125-0.62109 0.3125-1.3984 0.54297-2.1797 0.54297-2.6445 0-4.7461-2.1797-4.7461-4.7461 0-2.2539 1.5547-4.1211 3.5781-4.5898h0.15625 0.078125c0.3125-0.078125 0.62109-0.078125 0.93359-0.078125 2.5703-0.15234 4.7461 2.0273 4.7461 4.668zm-129.89-145.29c0 2.6445-2.1797 4.7461-4.7461 4.7461-2.6445 0-4.7461-2.1797-4.7461-4.7461s2.1797-4.7461 4.7461-4.7461c2.6445-0.078124 4.7461 2.1016 4.7461 4.7461zm-185.19-66.969c2.2539 0 4.1211 1.5547 4.668 3.6562v0.078125c0.078125 0.30859 0.078125 0.69922 0.078125 1.0898 0 2.6445-2.1797 4.7461-4.7461 4.7461-2.6445 0-4.7461-2.1797-4.7461-4.7461 0-0.3125 0-0.62109 0.078126-0.85547v-0.15625-0.078125c0.46875-2.1016 2.4141-3.7344 4.668-3.7344zm-141.4 17.578c2.6445 0 4.7461 2.1797 4.7461 4.7461s-2.1797 4.7461-4.7461 4.7461c-2.6445 0-4.7461-2.1797-4.7461-4.7461 0-2.5703 2.1016-4.7461 4.7461-4.7461zm-121.1 59.734c2.6445 0 4.7461 2.1797 4.7461 4.7461 0 2.6445-2.1797 4.7461-4.7461 4.7461-2.6445 0-4.7461-2.1797-4.7461-4.7461 0.003907-2.6484 2.1016-4.7461 4.7461-4.7461zm-94.578 140.39c-2.6445 0-4.7461-2.1797-4.7461-4.7461 0-2.2539 1.6328-4.1992 3.7344-4.668h0.078126c0.3125-0.078124 0.69922-0.078124 1.0117-0.078124 2.6445 0 4.7461 2.1797 4.7461 4.7461-0.078125 2.5703-2.1797 4.7461-4.8242 4.7461zm156.26 119.47c0-2.6445 2.1797-4.7461 4.7461-4.7461 2.5664 0 4.7461 2.1797 4.7461 4.7461 0 2.1016-1.3984 3.9648-3.3438 4.5898-0.078125 0-0.15625 0-0.15625 0.078125-0.39062 0.078125-0.85547 0.15625-1.2461 0.15625-2.5703-0.003906-4.7461-2.1797-4.7461-4.8242zm58.566 69.922c-2.6445 0-4.7461-2.1797-4.7461-4.7461s2.1797-4.7461 4.7461-4.7461c2.6445 0 4.7461 2.1797 4.7461 4.7461-0.003906 2.5664-2.1016 4.7461-4.7461 4.7461zm94.031-24.344c0-2.6445 2.1797-4.7461 4.7461-4.7461s4.668 2.0234 4.7461 4.5117v0.078125 0.23438c0 2.6445-2.1797 4.7461-4.7461 4.7461-2.5664-0.003907-4.7461-2.1797-4.7461-4.8242zm53.277 33.988c-19.988-6.5352-30.723-20.766-34.145-26.133 0.46484-0.77734 0.77734-1.6328 1.0898-2.4883 14.934-0.77734 38.965-4.5898 61.68-18.977 1.7109 1.2461 3.7344 2.1797 5.832 2.7227 2.332 11.746 6.3789 22.711 12.133 32.746-2.5664 2.8789-4.1211 6.6875-4.1211 10.812 0 0.54297 0 1.0898 0.078125 1.6328-11.902 3.0273-30.18 3.6484-42.547-0.31641zm33.445-60.746c0-2.6445 2.1797-4.7461 4.7461-4.7461 2.4102 0 4.4336 1.8672 4.7461 4.1992v0.62109c0 2.6445-2.1797 4.7461-4.7461 4.7461-1.6328 0-3.0352-0.85547-3.9648-2.1016-0.078125-0.078126-0.15625-0.23438-0.23438-0.3125-0.3125-0.77344-0.54688-1.5508-0.54688-2.4062zm25.277 64.168c-1.6328 0-3.1094-0.85547-3.9648-2.1016-0.078125-0.15625-0.15625-0.3125-0.3125-0.46484-0.3125-0.62109-0.54297-1.3984-0.54297-2.1797 0-2.6445 2.1797-4.7461 4.7461-4.7461 2.6445 0 4.7461 2.1797 4.7461 4.7461 0.074219 2.5664-2.0273 4.7461-4.6719 4.7461zm99.559 16.332c-2.6445 0-4.7461-2.1797-4.7461-4.7461 0-2.6445 2.1797-4.7461 4.7461-4.7461 2.6445 0 4.7461 2.1797 4.7461 4.7461-0.003907 2.6484-2.1016 4.7461-4.7461 4.7461zm42.855-21.934c-9.5664 3.6562-19.211 6.6875-28.855 8.8672-2.8789-4.7461-8.0898-8.0117-14-8.0117-7.6211 0-14 5.2891-15.789 12.289-21.777 1.3984-39.512-1.4766-50.867-4.2773-7.6211-1.8672-13.301-3.8906-16.879-5.2891 0.15625-0.93359 0.23437-1.8672 0.23437-2.8008 0-9.0234-7.3125-16.332-16.332-16.332-0.69922 0-1.3203 0.078125-1.9453 0.15625-5.0547-8.7891-8.7109-18.434-10.891-28.777 3.5781-1.9453 6.3789-5.2109 7.7773-9.1016h0.77734c10.965 0 25.59-0.77734 40.523-3.8125 20.145-4.1211 36.09-11.434 47.445-21.699 1.6328 0.54297 3.4219 0.85547 5.2109 0.85547 6.8438 0 12.754-4.2773 15.168-10.266 15.09-0.39062 38.812-3.2656 58.879-15.711 2.6445 1.7891 5.7539 2.8008 9.1016 2.8008 6.2227 0 11.59-3.5 14.391-8.6328 3.1094 0.23438 6.6094 0.39062 10.5 0.39062 1.7109 0 3.5 0 5.3672-0.078125 2.332 5.9883 8.0898 10.266 14.855 10.422-0.85547 9.7227-4.4336 31.965-18.355 53.898-1.3984-0.39062-2.8008-0.62109-4.3555-0.62109-9.0234 0-16.332 7.3125-16.332 16.332 0 2.4883 0.54297 4.8203 1.5547 6.9219-10.508 9.4102-22.953 16.957-37.184 22.477zm-56.234-98.309c0.15625-0.078125 0.39062-0.15625 0.54297-0.3125 0.62109-0.3125 1.3984-0.54297 2.1016-0.54297 2.6445 0 4.7461 2.1797 4.7461 4.7461 0 2.6445-2.1797 4.7461-4.7461 4.7461-1.0117 0-1.8672-0.3125-2.6445-0.77734-0.078126-0.078125-0.15625-0.15625-0.23438-0.15625-1.168-0.85547-1.8672-2.2539-1.8672-3.8125-0.078125-1.5586 0.77734-3.0352 2.1016-3.8906-0.078126 0-0.078126 0 0 0zm90.531-18.668c0 0.15625-0.078126 0.3125-0.078126 0.46484-0.46484 2.1797-2.4102 3.8125-4.668 3.8125-1.5547 0-2.957-0.77734-3.8125-1.8672 0 0 0-0.078126-0.078125-0.078126-0.54297-0.77734-0.93359-1.7891-0.93359-2.8008 0-2.6445 2.1797-4.7461 4.7461-4.7461 2.5664 0 4.7461 2.1797 4.7461 4.7461 0.078126 0.15625 0.078126 0.3125 0.078126 0.46875zm45.422 1.6328c0 2.6445-2.1797 4.7461-4.7461 4.7461-2.6445 0-4.7461-2.1016-4.7461-4.7461v-0.15625c0.078125-2.5664 2.1797-4.668 4.7461-4.668 2.5703 0.082031 4.7461 2.1797 4.7461 4.8242zm-27.844 90.688c-2.6445 0-4.7461-2.1797-4.7461-4.7461 0-2.6445 2.1797-4.7461 4.7461-4.7461 2.5664 0 4.7461 2.1797 4.7461 4.7461 0.078125 2.5703-2.1016 4.7461-4.7461 4.7461zm49.391-116.43c-4.3555 7.8555-9.8008 12.523-14.312 14.699-2.957-3.1875-7.2344-5.2891-11.977-5.2891-7 0-12.91 4.4336-15.246 10.578-5.3672 0.23437-10.266 0.078124-14.312-0.23438-1.7109-7.1562-8.168-12.523-15.867-12.523-9.0234 0-16.332 7.3125-16.332 16.332 0 1.3984 0.23438 2.7227 0.54297 4.043-17.5 10.656-38.344 13.223-52.035 13.609-2.2539-6.3008-8.2461-10.812-15.32-10.812-0.77734 0-1.4766 0.078125-2.1797 0.15625-3.3438-8.168-4.4336-16.102-4.8203-19.832 12.133-6.1445 22.168-15.09 30.023-26.68 20.145-29.555 14.156-64.945 9.2539-82.367 3.3438-2.957 5.4453-7.3125 5.4453-12.133 0-9.0234-7.3125-16.332-16.332-16.332-9.0234 0-16.332 7.3125-16.332 16.332 0 9.0234 7.3125 16.332 16.332 16.332h0.078124c4.3555 15.945 9.1016 46.59-8.0117 71.711-13.145 19.289-32.512 29.633-59.188 31.656-22.012 1.6328-45.188-2.957-59.734-6.2227-1.0898-7.9336-7.9336-14-16.102-14-9.0234 0-16.332 7.3125-16.332 16.332 0 9.0234 7.3125 16.332 16.332 16.332 5.6797 0 10.734-2.957 13.609-7.3906 12.91 2.8789 32.434 6.8438 52.578 6.8438 3.5 0 7-0.15625 10.5-0.39062 9.6445-0.69922 18.59-2.4883 26.754-5.2891 0.69922 5.2109 2.2539 12.832 5.6797 20.688-2.4102 2.8789-3.9648 6.5352-3.9648 10.578 0 2.8789 0.77734 5.6016 2.1016 8.0117-22.246 18.977-60.355 21.543-80.035 21.465-2.4883-5.9102-8.2461-10.035-15.09-10.035-9.0234 0-16.332 7.3125-16.332 16.332 0 1.168 0.15625 2.332 0.39062 3.4219-20.379 12.91-42.078 16.41-55.688 17.109-2.4883-5.9102-8.2461-10.109-15.09-10.109-9.0234 0-16.332 7.3125-16.332 16.332 0 2.5664 0.62109 4.8984 1.6328 7.0781-7.4648 5.9102-20.688 13.145-35.465 15.09-10.812 1.3984-24.5-0.23438-32.355-2.7227-0.078126-8.9453-7.3906-16.18-16.332-16.18-4.9766 0-9.4102 2.2539-12.367 5.7539-16.879-5.5234-28.699-20.609-32.355-40.91 4.3555-2.957 7.3125-7.9336 7.3125-13.609 0-5.5234-2.7227-10.344-6.9219-13.301 2.7227-13.844 9.0234-27.535 18.512-39.977 4.2773-5.6016 8.8672-10.5 13.609-14.621 2.5664 1.6328 5.5234 2.5664 8.7891 2.5664 9.0234 0 16.332-7.3125 16.332-16.332v-0.15625c9.5664-2.7227 17.578-2.332 22.09-1.7109 0.39062 8.168 1.6328 25.977 4.8984 38.812-3.1094 2.957-5.0547 7.1562-5.0547 11.746 0 2.5664 0.62109 4.9766 1.6328 7.0781-6.0664 5.832-10.656 12.133-14 17.422-0.93359-0.15625-1.9453-0.3125-2.957-0.3125-9.0234 0-16.332 7.3125-16.332 16.332 0 9.0234 7.3125 16.332 16.332 16.332 9.0234 0 16.332-7.3125 16.332-16.332 0-3.8125-1.3203-7.3125-3.5-10.035 2.957-4.7461 7.0781-10.344 12.523-15.477 1.9453 0.77734 4.043 1.2461 6.3008 1.2461 8.3203 0 15.168-6.2227 16.18-14.234 0.46484-0.15625 1.0117-0.23438 1.4766-0.39063 17.656-4.043 35.543 0.93359 46.898 5.4453-0.078125 0.69922-0.15625 1.3984-0.15625 2.1797 0 9.0234 7.3125 16.332 16.332 16.332 9.0234 0 16.332-7.3125 16.332-16.332 0-9.0234-7.3125-16.332-16.332-16.332-4.043 0-7.7773 1.4766-10.656 3.9648-12.68-5.2109-33.754-11.355-54.988-6.457-0.54297 0.15625-1.0898 0.23438-1.6328 0.39062-2.957-4.3555-7.8555-7.1562-13.535-7.1562h-0.54297c-3.1875-13.609-4.1211-33.289-4.2773-37.957 2.8789-5.9883 32.199-32.977 67.199-35.234 2.957 4.1211 7.7773 6.7656 13.223 6.7656 7.0781 0 13.145-4.5898 15.398-10.891 43.012-4.9766 76.066 1.4766 86.723 4.043-1.0117 5.6797 0 10.656 1.168 14.156-4.1211 2.957-6.9219 7.7773-6.9219 13.301 0 9.0234 7.3125 16.332 16.332 16.332 9.0234 0 16.332-7.3125 16.332-16.332 0-8.3984-6.3789-15.32-14.543-16.18-0.93359-2.4883-2.1016-7.0781-0.15625-12.133 1.7891-4.5898 5.6016-7.7773 11.434-9.332 2.0234-0.54297 3.9648-0.85547 5.6016-1.0117 2.4102 5.9883 8.2461 10.266 15.168 10.266 9.0234 0 16.332-7.3125 16.332-16.332 0-9.0234-7.3125-16.332-16.332-16.332-7.0781 0-13.066 4.5117-15.32 10.812-2.2539 0.15625-5.0547 0.54297-8.0117 1.3203-7.1562 1.8672-12.754 5.5234-16.41 10.656-9.4102-2.4102-44.332-10.109-91.465-4.8203-2.2539-5.5234-7.3906-9.4883-13.609-10.109-2.2539-7.1562-4.5117-16.879-4.8984-27.457-0.54297-14.699 2.4883-27.766 9.1016-38.812 2.957-4.9766 6.3008-9.5664 9.8789-13.609 2.0234 0.85547 4.1992 1.3984 6.6094 1.3984 9.0234 0 16.332-7.3125 16.332-16.332 0-9.0234-7.3125-16.332-16.332-16.332-9.0234 0-16.332 7.3125-16.332 16.332 0 2.4102 0.54297 4.7461 1.4766 6.8438-4.1992 4.668-8.0898 9.957-11.59 15.711-7.2344 12.055-17.188 37.566-5.4453 75.289-3.5781 2.6445-6.0664 6.6875-6.6094 11.355-20.688 1.8672-38.344 10.891-49.855 18.512-9.1016 5.9883-18.512 14-23.023 20.457-5.7539-0.93359-16.332-1.5547-28.934 2.1797-1.7109-1.9453-3.8906-3.4219-6.3789-4.3555-0.23438-14.078-4.1211-37.254-22.789-61.367-27.922-36.012-5.3672-63.312-4.4336-64.477 0.3125-0.39063 0.54297-0.69922 0.77734-1.168 1.7891-1.4766 8.0117-6.1445 15.246-8.5547 2.2539 6.3008 8.2461 10.812 15.32 10.812 9.0234 0 16.332-7.3125 16.332-16.332 0-9.0234-7.3125-16.332-16.332-16.332-6.6875 0-12.367 4.043-14.934 9.7227-9.0234 2.0234-16.879 7.1562-20.922 10.109-34.145-12.754-63.699 5.1328-72.41 11.199-2.1016-1.0117-4.5117-1.6328-7-1.6328-9.0234 0-16.332 7.3125-16.332 16.332 0 9.0234 7.3125 16.332 16.332 16.332 9.0234 0 16.332-7.3125 16.332-16.332 0-2.1797-0.46484-4.2773-1.2461-6.2227 8.2461-5.4453 30.723-17.734 56.312-10.188-2.4102 4.043-5.4453 10.109-7.1562 17.891-2.8789 12.988-2.6445 33.211 14.934 55.844 16.645 21.465 20.145 41.922 20.379 54.289-6.1445 2.332-10.5 8.2461-10.5 15.246 0 1.5547 0.23438 3.0352 0.62109 4.4336-5.6797 4.7461-10.965 10.422-15.945 16.879-10.344 13.609-17.422 28.777-20.535 44.102-7.3125 0.77734-13.223 6.457-14.312 13.688-27.301 5.9883-84.699 13.066-119.31-22.711-31.266-32.277-30.102-64.168-25.277-82.754 8.7891-0.23438 15.945-7.3906 15.945-16.254 0-8.0898-5.9102-14.777-13.609-16.102-1.168-14.777 1.168-39.121 21.855-64.168 20.766-25.121 43.012-36.398 56.777-41.223 2.957 4.1992 7.8555 6.9219 13.301 6.9219 9.0234 0 16.332-7.3125 16.332-16.332 0-2.6445-0.62109-5.0547-1.7109-7.3125 30.566-30.801 71.477-41.301 92.012-44.801 2.7227 5.2109 8.168 8.7109 14.391 8.7109 9.0234 0 16.332-7.3125 16.332-16.332 0-0.77734-0.078125-1.5547-0.15625-2.332 41.066-20.066 87.035-16.18 109.2-12.523 1.3203 7.6992 8.0117 13.535 16.023 13.535 8.2461 0 15.09-6.2227 16.18-14.156 13.379-1.7109 38.578-1.4766 79.023 11.121 36.168 11.199 59.035 29.477 70.855 41.301-1.2461 2.2539-1.9453 4.8984-1.9453 7.6211 0 9.0234 7.3125 16.332 16.332 16.332 5.2891 0 9.957-2.5664 12.988-6.457 22.477 9.7227 47.367 31.891 60.746 44.879 27.766 26.832 40.91 58.41 46.668 77.312-4.1211 2.957-6.8438 7.7773-6.8438 13.301 0 9.0234 7.3125 16.332 16.332 16.332 0.54297 0 1.0117 0 1.5547-0.078125 5.75 22.258-0.082032 37.734-4.2812 45.281zm-131.6-105.93c-0.54297 0.23438-1.168 0.39063-1.7891 0.39063-2.6445 0-4.7461-2.1797-4.7461-4.7461s2.1797-4.7461 4.7461-4.7461c2.6445 0 4.7461 2.1797 4.7461 4.7461 0 1.9414-1.168 3.5742-2.957 4.3555 0.078125 0 0 0 0 0zm-144.74 116.12c-2.6445 0-4.7461-2.1797-4.7461-4.7461 0-2.6445 2.1797-4.7461 4.7461-4.7461 2.6445 0 4.7461 2.1797 4.7461 4.7461-0.003906 2.5664-2.1797 4.7461-4.7461 4.7461zm-180.52-25.199c-0.078125-0.078126-0.15625-0.23438-0.23438-0.3125l-0.078125-0.078126c-0.46484-0.77734-0.77734-1.6328-0.77734-2.5664 0-2.5664 2.1016-4.668 4.668-4.7461h0.078125 0.15625c2.6445 0 4.7461 2.1797 4.7461 4.7461 0 2.6445-2.1797 4.7461-4.7461 4.7461-1.5586 0.078125-2.957-0.625-3.8125-1.7891zm63.156 45.809c0 2.6445-2.1797 4.7461-4.7461 4.7461-2.6445 0-4.7461-2.1797-4.7461-4.7461 0-2.6445 2.1797-4.7461 4.7461-4.7461 2.6445 0.003906 4.7461 2.1016 4.7461 4.7461zm-36.402 35.777c2.6445 0 4.7461 2.1797 4.7461 4.7461 0 2.6445-2.1797 4.7461-4.7461 4.7461-2.6445 0-4.7461-2.1797-4.7461-4.7461 0.003907-2.5664 2.1797-4.7461 4.7461-4.7461zm112.39-31.266c2.6445 0 4.7461 2.1797 4.7461 4.7461 0 2.6445-2.1797 4.7461-4.7461 4.7461-2.6445 0-4.7461-2.1797-4.7461-4.7461-0.078126-2.5664 2.1016-4.7461 4.7461-4.7461zm-0.46484-103.29c-0.15625 2.4883-2.2539 4.5117-4.7461 4.5117-1.9453 0-3.6562-1.168-4.3555-2.8789-0.078125-0.15625-0.15625-0.3125-0.15625-0.54297-0.15625-0.46484-0.23438-0.93359-0.23438-1.3984 0-2.6445 2.1797-4.7461 4.7461-4.7461s4.7461 2.1016 4.7461 4.668v0.38672zm107.95 31.891c2.6445 0 4.7461 2.1797 4.7461 4.7461 0 2.6445-2.1797 4.7461-4.7461 4.7461-2.6445 0-4.7461-2.1797-4.7461-4.7461-0.074219-2.6484 2.1016-4.7461 4.7461-4.7461zm28.934-39.98c0-2.6445 2.1797-4.7461 4.7461-4.7461 2.6445 0 4.7461 2.1797 4.7461 4.7461 0 2.6445-2.1797 4.7461-4.7461 4.7461-2.6445 0.078124-4.7461-2.1016-4.7461-4.7461zm-124.21-103.21c0-2.6445 2.1797-4.7461 4.7461-4.7461 2.6445 0 4.7461 2.1797 4.7461 4.7461 0 2.6445-2.1797 4.7461-4.7461 4.7461-2.6445 0.078125-4.7461-2.1016-4.7461-4.7461zm-137.75 0.23438c2.6445 0 4.7461 2.1797 4.7461 4.7461 0 2.6445-2.1797 4.7461-4.7461 4.7461s-4.7461-2.1797-4.7461-4.7461c-0.074219-2.5664 2.1016-4.7461 4.7461-4.7461zm-110.44 34.301c0 2.6445-2.1797 4.7461-4.7461 4.7461s-4.7461-2.1797-4.7461-4.7461c0-2.5664 2.1797-4.7461 4.7461-4.7461s4.7461 2.1016 4.7461 4.7461z"/>
  <path d="m629.3 235.08c0-8.8672-7.1562-16.102-15.945-16.254-7.0781-13.688-17.578-22.246-26.523-27.379 0-0.3125 0.078125-0.54297 0.078125-0.85547 0-9.0234-7.3125-16.332-16.332-16.332-9.0234 0-16.332 7.3125-16.332 16.332 0 9.0234 7.3125 16.332 16.332 16.332 4.5117 0 8.6328-1.8672 11.59-4.8203 6.8438 4.1211 14.699 10.734 20.223 20.688-3.5 2.957-5.6797 7.3906-5.6797 12.367 0 9.0234 7.3125 16.332 16.332 16.332 8.9453-0.074219 16.258-7.3867 16.258-16.41zm-58.723-39.742c-2.6445 0-4.7461-2.1797-4.7461-4.7461s2.1797-4.7461 4.7461-4.7461c2.6445 0 4.7461 2.1797 4.7461 4.7461 0 0.62109-0.15625 1.2461-0.3125 1.7891 0 0.078126-0.078125 0.078126-0.078125 0.15625-0.77734 1.6328-2.4102 2.8008-4.3555 2.8008zm37.645 39.742c0-2.6445 2.1797-4.7461 4.7461-4.7461 2.6445 0 4.7461 2.1797 4.7461 4.7461 0 2.5664-2.1797 4.7461-4.7461 4.7461-2.6484 0.078125-4.7461-2.1016-4.7461-4.7461z"/>
  <path d="m509.21 141.29c-1.5547 0-3.1094 0.23438-4.5898 0.69922-24.891-25.043-61.055-29.32-66.109-29.789-2.0234-6.6875-8.2461-11.59-15.633-11.59-9.0234 0-16.332 7.3125-16.332 16.332 0 9.0234 7.3125 16.332 16.332 16.332 6.5352 0 12.211-3.8906 14.777-9.4883 4.8984 0.54297 36.168 4.668 57.711 25.355-1.5547 2.4883-2.4883 5.4453-2.4883 8.5547 0 9.0234 7.3125 16.332 16.332 16.332 9.0234 0 16.332-7.3125 16.332-16.332 0-9.0195-7.3086-16.406-16.332-16.406zm-86.332-19.602c-2.6445 0-4.7461-2.1797-4.7461-4.7461 0-2.6445 2.1797-4.7461 4.7461-4.7461 2.6445 0 4.7461 2.1797 4.7461 4.7461 0.074219 2.5664-2.1016 4.7461-4.7461 4.7461zm86.332 40.676c-2.6445 0-4.7461-2.1797-4.7461-4.7461 0-2.6445 2.1797-4.7461 4.7461-4.7461 2.6445 0 4.7461 2.1797 4.7461 4.7461 0.078125 2.6484-2.1016 4.7461-4.7461 4.7461z"/>
  <path d="m640.04 312.94c0.078125-6.5352-0.69922-14.855-3.6562-23.723 3.5781-3.0352 5.832-7.4648 5.832-12.445 0-9.0234-7.3125-16.332-16.332-16.332-9.0234 0-16.332 7.3125-16.332 16.332 0 8.8672 7.0781 16.102 15.945 16.254 2.2539 6.8438 3.0352 13.223 3.0352 18.434-7.1562 1.7109-12.523 8.168-12.523 15.867 0 9.0234 7.3125 16.332 16.332 16.332 9.0234 0 16.332-7.3125 16.332-16.332-0.078125-6.2188-3.5781-11.664-8.6328-14.387zm-18.98-36.242c0-2.6445 2.1797-4.7461 4.7461-4.7461 2.6445 0 4.7461 2.1797 4.7461 4.7461 0 2.0234-1.2461 3.7344-3.0352 4.4336-0.15625 0-0.23438 0.078125-0.39062 0.15625-0.46484 0.15625-0.93359 0.23438-1.3984 0.23438-2.4883-0.082031-4.668-2.1797-4.668-4.8242zm11.199 55.375c-2.6445 0-4.7461-2.1797-4.7461-4.7461 0-2.5664 2.1797-4.7461 4.7461-4.7461 0.23438 0 0.46484 0 0.69922 0.078125 0.078125 0 0.23438 0 0.3125 0.078125 2.1797 0.46484 3.8125 2.4102 3.8125 4.668 0 2.4922-2.1797 4.668-4.8242 4.668z"/>
  <path d="m506.8 194.56c-3.5 0-6.6875 1.0898-9.332 2.957-12.523-6.2227-40.602-15.09-64.09 13.766-0.85547-0.15625-1.7109-0.23438-2.6445-0.23438-9.0234 0-16.332 7.3125-16.332 16.332 0 9.0234 7.3125 16.332 16.332 16.332 9.0234 0 16.332-7.3125 16.332-16.332 0-3.8125-1.3203-7.3906-3.5781-10.188 8.3203-9.5664 17.891-14.391 28.621-14.465 7.3906 0 14.078 2.2539 18.82 4.4336-0.3125 1.168-0.46484 2.4102-0.46484 3.7344 0 9.0234 7.3125 16.332 16.332 16.332 9.0234 0 16.332-7.3125 16.332-16.332 0.003906-9.0273-7.3828-16.336-16.328-16.336zm-76.066 37.566c-2.6445 0-4.7461-2.1797-4.7461-4.7461 0-2.5664 2.1797-4.7461 4.7461-4.7461 2.6445 0 4.7461 2.1797 4.7461 4.7461-0.003907 2.5664-2.1016 4.7461-4.7461 4.7461zm76.066-16.488c-2.6445 0-4.7461-2.1797-4.7461-4.7461 0-1.0117 0.3125-1.8672 0.77734-2.6445 0.078125-0.15625 0.23438-0.23438 0.3125-0.39062 0.85547-1.0117 2.1797-1.7109 3.6562-1.7109 2.6445 0 4.7461 2.1797 4.7461 4.7461-0.003906 2.5664-2.1016 4.7461-4.7461 4.7461z"/>
  <path d="m589.48 415.61c-9.0234 0-16.332 7.3125-16.332 16.332 0 0.62109 0 1.168 0.078125 1.7891-12.211 5.6797-32.898 14.156-58.41 20.066-2.8789-4.668-8.0117-7.7773-13.844-7.7773-9.0234 0-16.332 7.3125-16.332 16.332 0 9.0234 7.3125 16.332 16.332 16.332 8.0898 0 14.777-5.832 16.023-13.535 26.988-6.1445 48.766-15.168 61.445-21.078 2.8789 2.6445 6.7656 4.2773 10.965 4.2773 9.0234 0 16.332-7.3125 16.332-16.332 0.078125-9.0938-7.3125-16.406-16.258-16.406zm-88.512 51.488c-2.6445 0-4.7461-2.1797-4.7461-4.7461 0-2.6445 2.1797-4.7461 4.7461-4.7461 2.6445 0 4.7461 2.1797 4.7461 4.7461 0 2.5703-2.1016 4.7461-4.7461 4.7461zm88.512-30.41c-2.6445 0-4.7461-2.1797-4.7461-4.7461 0-2.6445 2.1797-4.7461 4.7461-4.7461 2.6445 0 4.7461 2.1797 4.7461 4.7461 0 2.6445-2.1016 4.7461-4.7461 4.7461z"/>
 </g>
</svg>
