<?xml version="1.0" encoding="UTF-8"?><svg id="Layer_1" xmlns="http://www.w3.org/2000/svg" viewBox="0 0 600 600"><path d="m102.22,296c-5.11,23.55,7.28,37.28,12.17,41.67-1,1.78-1.72,3.83-2.11,6.05-4.61,1.56-8,5.89-8,11.05,0,6.45,5.22,11.67,11.67,11.67s11.67-5.22,11.67-11.67c0-4.78-2.89-8.89-7-10.67.94-3.78,3.61-6.11,8.05-7.06,1.67,4.39,5.89,7.5,10.89,7.5,6.45,0,11.67-5.22,11.67-11.67s-5.22-11.67-11.67-11.67c-4.94,0-9.17,3.11-10.83,7.44-3.28.5-6.17,1.56-8.55,3.06-3.28-2.83-14.17-14.06-9.89-34,3.95-18.17,21.17-25,26.89-26.78,1.83,4.11,5.89,6.94,10.67,6.94,6.45,0,11.67-5.22,11.67-11.67s-5.22-11.67-11.67-11.67c-5.11,0-9.44,3.33-11,7.89-3.39.89-29.11,8.23-34.61,33.56h0Zm37.53,33.45c1.89,0,3.39,1.56,3.39,3.39,0,2.29-2.29,4.01-4.59,3.18-1.35-.49-2.19-1.84-2.19-3.28v-.28c.17-1.67,1.61-3,3.39-3h0Zm-23.76,28.56c-1.89,0-3.39-1.56-3.39-3.39s1.5-3.33,3.28-3.39h.33c1.78.11,3.17,1.61,3.17,3.39,0,1.89-1.5,3.39-3.39,3.39h0Zm31.83-95.17c1.89,0,3.39,1.56,3.39,3.39s-1.56,3.39-3.39,3.39-3.39-1.56-3.39-3.39,1.5-3.39,3.39-3.39Z"/><path d="m292.16,159.89c-6.45,0-11.67,5.22-11.67,11.67,0,1.17.17,2.28.5,3.33-1.72,1.39-3.61,3.06-5.61,4.94-2.56-1.72-7.28-4.67-12.94-7.11-.5-6-5.5-10.72-11.61-10.72-6.45,0-11.67,5.22-11.67,11.67s5.22,11.67,11.67,11.67c3.78,0,7.11-1.83,9.28-4.61,3.83,1.72,7.17,3.72,9.39,5.17-5.67,6.22-11.44,14.17-15.61,23.67-6.05,13.67-7.89,25.39-8.28,33.61-4.28,1.72-7.28,5.89-7.28,10.78,0,6.45,5.22,11.67,11.67,11.67s11.67-5.22,11.67-11.67c0-5.06-3.28-9.39-7.78-11,.39-7.39,2.11-17.89,7.56-30.11,6.5-14.72,17.33-25.39,24.61-31.33,1.78,1.11,3.89,1.78,6.17,1.78,6.45,0,11.67-5.22,11.67-11.67s-5.28-11.72-11.72-11.72h0Zm-42.17,97.4c-1.89,0-3.39-1.56-3.39-3.39s1.33-3.22,3.06-3.39h.33c1.89,0,3.39,1.56,3.39,3.39,0,1.83-1.5,3.39-3.39,3.39h0Zm.83-80.29c-1.89,0-3.39-1.56-3.39-3.39s1.56-3.39,3.39-3.39,3.39,1.56,3.39,3.39-1.5,3.39-3.39,3.39Zm41.33-2.05c-1.11,0-2.11-.56-2.72-1.39-.39-.56-.67-1.22-.67-2,0-1.89,1.56-3.39,3.39-3.39s3.39,1.56,3.39,3.39c.05,1.89-1.5,3.39-3.39,3.39Z"/><path d="m159.83,298.84c-.17-.61-.33-1.22-.61-1.83-1.28-2.83-3.55-5.06-6.45-6.17-2.89-1.11-6.05-1.05-8.89.22-2.83,1.28-5.06,3.55-6.17,6.45-1.11,2.89-1.05,6.05.22,8.89,1.28,2.83,3.55,5.06,6.45,6.17,1.39.56,2.78.78,4.22.78,1.61,0,3.22-.33,4.72-1,2.5-1.11,4.44-3,5.61-5.28,2.5.5,4.78,1.28,6.89,2.39,0,.06-.06.11-.06.17-1.11,2.89-1.05,6.05.22,8.89,1.94,4.33,6.22,6.94,10.67,6.94,1.56,0,3.17-.33,4.67-1,5.89-2.61,8.55-9.5,5.94-15.39-1.28-2.83-3.55-5.06-6.45-6.17-2.89-1.11-6.05-1.05-8.89.22-.11.06-.17.11-.28.11-3.55-2.12-7.5-3.62-11.83-4.4h0Zm-9.89,6c-.83.39-1.78.39-2.61.06s-1.5-.94-1.89-1.78c-.78-1.72,0-3.72,1.72-4.5.44-.22.89-.28,1.39-.28.44,0,.83.06,1.22.22.83.33,1.5.94,1.89,1.78.39.83.39,1.78.06,2.61-.28.83-.95,1.5-1.78,1.89h0Zm26.61,5.61c1.33,0,2.56.78,3.11,2.06.78,1.72,0,3.72-1.72,4.5-1.72.78-3.72,0-4.5-1.72-.39-.83-.39-1.78-.06-2.61.33-.83.94-1.5,1.78-1.89.44-.22.95-.33,1.39-.33h0Z"/><path d="m550,295.72c0-6-4.56-11-10.44-11.61-4.39-14.33-14.33-38.44-35.61-59.06-21.39-20.72-36.89-29.94-46.78-34.06-.44-6-5.5-10.72-11.61-10.72-1.45,0-2.83.28-4.11.78-9-9.06-26.5-23.28-54.39-31.94-29.94-9.28-49.22-9.72-60.78-8.11-2-3.11-5.56-5.11-9.56-5.11s-7.83,2.22-9.89,5.56c-16.78-2.78-51.94-5.83-83.56,9.78-2.06-1.72-4.67-2.78-7.56-2.78-5.5,0-10.06,3.78-11.33,8.89-15.55,2.61-47.11,10.61-70.78,34.61-1.33-.56-2.83-.83-4.39-.83-6,0-10.89,4.5-11.56,10.33-10.72,3.67-28.44,12.39-44.83,32.22-17,20.61-18.5,40.83-17.39,52.72-3.28,2-5.44,5.67-5.44,9.78,0,3.55,1.61,6.72,4.11,8.89-1.78,6.56-3.11,15.78-1.56,26.39,2.17,14.83,9.39,28.67,21.5,41.17,16.89,17.44,40.11,22.22,60.39,22.22,12.72,0,24.33-1.89,32.44-3.67,1.78,2.83,4.78,4.78,8.22,5.28,3.17,17.33,13.55,30.22,28.33,35.17.11,6.33,5.28,11.44,11.67,11.44,3.5,0,6.67-1.56,8.78-4.06,5,1.67,12.39,2.83,19.72,2.83,2.5,0,4.94-.17,7.33-.44,12.11-1.56,23.55-7.56,30.28-13.22,1.39.56,2.89.89,4.44.89,1.39,0,2.67-.28,3.89-.67,3.61,5.33,12.39,16,28.17,21.11,5.17,1.67,11.33,2.44,17.39,2.44,7.06,0,14.06-1,19.33-2.61,2.06,1.89,4.78,3,7.78,3,2.72,0,5.22-.94,7.22-2.5,5.78,2.44,21.67,8.22,44.44,8.22,2.94,0,5.94-.11,9.11-.28,1.94,3.72,5.83,6.33,10.33,6.33,5.67,0,10.39-4.11,11.44-9.44,7.39-1.67,14.83-3.95,22.17-6.78,11.28-4.39,21.22-10.44,29.5-18,2.08.91,4.52,1.2,7.16.69,3.14-.6,5.89-2.56,7.45-5.35,2.56-4.56,1.91-9.04-.23-12.4,14.06-21.89,14.83-44,14.89-46.72,2.17-2.11,3.5-5.06,3.5-8.28v-.22c5.5-2.5,10.67-7.56,14.33-14.17,3.72-6.72,9-20.55,3.44-39.94,1.84-2.06,3-4.78,3-7.78h0Zm-8.56.21c0,1.17-.56,2.17-1.45,2.78-.17.06-.28.17-.39.22-.44.22-1,.39-1.56.39-1.89,0-3.39-1.56-3.39-3.39,0-1.61,1.11-2.94,2.56-3.28h.17c.22-.06.44-.06.67-.06,1.84-.11,3.39,1.45,3.39,3.33h0Zm-92.78-103.99c0,1.89-1.56,3.39-3.39,3.39s-3.39-1.56-3.39-3.39,1.56-3.39,3.39-3.39c1.89-.06,3.39,1.5,3.39,3.39Zm-131.94-47.71c1.55,0,2.84,1.07,3.21,2.52v.05c.05.21.05.48.05.75,0,1.82-1.5,3.27-3.27,3.27s-3.27-1.5-3.27-3.27c0-.22,0-.43.05-.59v-.16c.32-1.45,1.66-2.57,3.21-2.57h0Zm-101.34,12.43c1.89,0,3.39,1.56,3.39,3.39s-1.56,3.39-3.39,3.39-3.39-1.56-3.39-3.39,1.5-3.39,3.39-3.39Zm-86.5,42.67c1.89,0,3.39,1.56,3.39,3.39s-1.56,3.39-3.39,3.39-3.39-1.56-3.39-3.39c0-1.89,1.5-3.39,3.39-3.39Zm-67.56,100.05c-1.89,0-3.39-1.56-3.39-3.39,0-1.61,1.17-3,2.67-3.33h.06c.22-.06.5-.06.72-.06,1.89,0,3.39,1.56,3.39,3.39-.06,1.84-1.56,3.39-3.45,3.39h0Zm111.61,85.57c0-1.89,1.56-3.39,3.39-3.39s3.39,1.56,3.39,3.39c0,1.5-1,2.83-2.39,3.28-.06,0-.11,0-.11.06-.28.06-.61.11-.89.11-1.84,0-3.39-1.56-3.39-3.45h0Zm41.83,49.94c-1.89,0-3.39-1.56-3.39-3.39s1.56-3.39,3.39-3.39,3.39,1.56,3.39,3.39c0,1.83-1.5,3.39-3.39,3.39Zm66.95-17.39c0-1.89,1.56-3.39,3.39-3.39s3.33,1.45,3.39,3.22v.22c0,1.89-1.56,3.39-3.39,3.39-1.83,0-3.39-1.56-3.39-3.45Zm38.27,24.28c-14.28-4.67-21.94-14.83-24.39-18.67.33-.56.56-1.17.78-1.78,10.67-.56,27.83-3.28,44.06-13.55,1.22.89,2.67,1.56,4.17,1.94,1.67,8.39,4.56,16.22,8.67,23.39-1.83,2.06-2.94,4.78-2.94,7.72,0,.39,0,.78.06,1.17-8.5,2.16-21.56,2.61-30.39-.23h0Zm23.87-43.39c0-1.89,1.56-3.39,3.39-3.39,1.72,0,3.17,1.33,3.39,3v.44c0,1.89-1.56,3.39-3.39,3.39-1.17,0-2.17-.61-2.83-1.5-.06-.06-.11-.17-.17-.22-.22-.55-.39-1.11-.39-1.72h0Zm18.07,45.83c-1.17,0-2.22-.61-2.83-1.5-.06-.11-.11-.22-.22-.33-.22-.44-.39-1-.39-1.56,0-1.89,1.56-3.39,3.39-3.39s3.39,1.56,3.39,3.39c.05,1.83-1.45,3.39-3.34,3.39h0Zm71.11,11.67c-1.89,0-3.39-1.56-3.39-3.39s1.56-3.39,3.39-3.39,3.39,1.56,3.39,3.39c0,1.89-1.5,3.39-3.39,3.39Zm30.61-15.89c-6.83,2.61-13.72,4.78-20.61,6.33-2.06-3.39-5.78-5.72-10-5.72-5.44,0-10,3.78-11.28,8.78-15.55,1-28.22-1.05-36.33-3.06-5.44-1.33-9.5-2.78-12.06-3.78.11-.67.17-1.33.17-2,0-6.45-5.22-11.67-11.67-11.67-.5,0-.94.06-1.39.11-3.61-6.28-6.22-13.17-7.78-20.55,2.56-1.39,4.56-3.72,5.56-6.5h.56c7.83,0,18.28-.56,28.94-2.72,14.39-2.94,25.78-8.17,33.89-15.5,1.17.39,2.44.61,3.72.61,4.89,0,9.11-3.06,10.83-7.33,10.78-.28,27.72-2.33,42.06-11.22,1.89,1.28,4.11,2,6.5,2,4.44,0,8.28-2.5,10.28-6.17,2.22.17,4.72.28,7.5.28,1.22,0,2.5,0,3.83-.06,1.67,4.28,5.78,7.33,10.61,7.44-.61,6.94-3.17,22.83-13.11,38.5-1.08-.3-2.17-.47-3.4-.44-6.13.15-11.2,5.18-11.37,11.31-.05,1.91.34,3.7,1.11,5.29-7.51,6.72-16.39,12.11-26.56,16.05h0Zm-40.17-70.2c.11-.06.28-.11.39-.22.44-.22,1-.39,1.5-.39,1.89,0,3.39,1.56,3.39,3.39s-1.56,3.39-3.39,3.39c-.72,0-1.33-.22-1.89-.56-.06-.06-.11-.11-.17-.11-.83-.61-1.33-1.61-1.33-2.72-.06-1.11.56-2.17,1.5-2.78q-.06,0,0,0h0Zm64.66-13.13c0,.11-.06.22-.06.33-.33,1.56-1.72,2.72-3.33,2.72-1.11,0-2.11-.56-2.72-1.33,0,0,0-.06-.06-.06-.39-.56-.67-1.28-.67-2,0-1.89,1.56-3.39,3.39-3.39s3.39,1.56,3.39,3.39c.06.11.06.22.06.33h0Zm32.12,1.17c0,2.4-2.51,4.17-4.91,3.04-1.17-.55-1.87-1.8-1.87-3.09v-.06c.06-1.83,1.56-3.33,3.39-3.33,1.84.06,3.39,1.56,3.39,3.45h0Zm-19.57,64.78c-1.89,0-3.39-1.56-3.39-3.39s1.56-3.39,3.39-3.39,3.39,1.56,3.39,3.39c.06,1.84-1.5,3.39-3.39,3.39Zm36.86-83.17c-3.12,5.63-7.03,8.98-10.26,10.54-2.12-2.29-5.19-3.79-8.59-3.79-5.02,0-9.26,3.18-10.93,7.59-3.85.17-7.36.06-10.26-.17-1.23-5.13-5.86-8.98-11.38-8.98-6.47,0-11.71,5.24-11.71,11.71,0,1,.17,1.95.39,2.9-12.55,7.64-27.5,9.48-37.32,9.76-1.62-4.52-5.91-7.75-10.99-7.75-.56,0-1.06.06-1.56.11-2.4-5.86-3.18-11.55-3.46-14.22,8.7-4.41,15.9-10.82,21.53-19.13,14.45-21.19,10.15-46.57,6.64-59.07,3.27-2.89,4.88-7.64,3.28-12.56-1.16-3.58-4.09-6.37-7.71-7.38-9.46-2.65-17.85,6.27-14.24,15.79,1.66,4.37,5.97,7.17,10.64,7.17h.27c3.12,11.43,6.53,33.41-5.75,51.43-9.43,13.83-23.32,21.25-42.45,22.7-15.79,1.17-32.41-2.12-42.84-4.46-.95-6.95-8.07-11.9-15.55-9.37-3.51,1.19-6.25,4.1-7.24,7.67-2.21,7.92,3.68,15.08,11.24,15.08,4.07,0,7.7-2.12,9.76-5.3,9.26,2.06,23.26,4.91,37.71,4.91,2.51,0,5.02-.11,7.53-.28,6.92-.5,13.33-1.78,19.19-3.79.5,3.74,1.62,9.2,4.07,14.84-1.73,2.06-2.84,4.69-2.84,7.59,0,2.06.56,4.02,1.51,5.75-15.95,13.61-43.28,15.45-57.4,15.39-1.78-4.24-5.91-7.2-10.82-7.2-6.47,0-11.71,5.24-11.71,11.71,0,.84.11,1.67.28,2.45-14.61,9.26-30.18,11.77-39.94,12.27-2.12-5.02-7.53-8.32-13.62-6.93-4.36,1-7.75,4.54-8.65,8.93-.59,2.85-.12,5.31.91,7.54-5.35,4.24-14.84,9.43-25.43,10.82-7.75,1-17.57-.17-23.2-1.95-.06-6.41-5.3-11.6-11.71-11.6-3.57,0-6.75,1.62-8.87,4.13-12.1-3.96-20.58-14.78-23.2-29.34,3.12-2.12,5.24-5.69,5.24-9.76s-1.95-7.42-4.96-9.54c1.95-9.93,6.47-19.75,13.28-28.67,3.07-4.02,6.36-7.53,9.76-10.49,2.68,1.7,5.95,2.35,9.63,1.41,4.99-1.27,8.38-5.91,8.38-11.06v-.34c6.86-1.95,12.61-1.67,15.84-1.23.28,5.86,1.17,18.63,3.51,27.83-2.23,2.12-3.62,5.13-3.62,8.42,0,1.84.45,3.57,1.17,5.08-4.35,4.18-7.64,8.7-10.04,12.49-.67-.11-1.4-.22-2.12-.22-7.61,0-13.52,7.26-11.2,15.23,1.07,3.69,4.01,6.62,7.7,7.69,7.97,2.31,15.21-3.6,15.21-11.21,0-2.73-.95-5.24-2.51-7.2,2.12-3.4,5.08-7.42,8.98-11.1,1.4.56,2.9.89,4.52.89,5.97,0,10.88-4.46,11.6-10.21.33-.11.73-.17,1.06-.28,12.66-2.9,25.49.67,33.63,3.91-.18,1.58-.35,3.16,1.22,6.57s4.55,5.84,8.16,6.5c8.48,1.56,15.71-6.02,13.55-14.57-1.04-4.08-4.31-7.29-8.4-8.29s-7.82.12-10.56,2.49c-9.09-3.74-24.21-8.14-39.43-4.63-.39.11-.78.17-1.17.28-2.12-3.12-5.63-5.13-9.71-5.13h-.39c-2.29-9.76-2.96-23.87-3.07-27.22,2.06-4.29,23.09-23.65,48.19-25.27,2.12,2.96,5.58,4.85,9.48,4.85,5.08,0,9.43-3.29,11.04-7.81,30.85-3.57,54.55,1.06,62.19,2.9-.73,4.07,0,7.64.84,10.15-3.76,2.7-5.99,7.57-4.49,12.88,1.13,4,4.4,7.11,8.45,8.05,7.69,1.77,14.5-4.01,14.5-11.39,0-6.02-4.57-10.99-10.43-11.6-.67-1.78-1.51-5.08-.11-8.7,1.28-3.29,4.02-5.58,8.2-6.69,1.45-.39,2.84-.61,4.02-.73,2.09,5.19,7.76,8.58,14.06,6.95,3.8-.98,6.86-3.92,7.99-7.68,2.41-8.02-3.53-15.34-11.17-15.34-5.08,0-9.37,3.24-10.99,7.75-1.62.11-3.62.39-5.75.95-5.13,1.34-9.15,3.96-11.77,7.64-6.75-1.73-31.79-7.25-65.59-3.46-1.62-3.96-5.3-6.8-9.76-7.25-1.62-5.13-3.24-12.1-3.51-19.69-.39-10.54,1.78-19.91,6.53-27.83,2.12-3.57,4.52-6.86,7.08-9.76,2.1.89,4.43,1.31,7.17.75,4.24-.86,7.72-4.03,8.84-8.21,2.12-7.87-3.75-14.97-11.27-14.97-6.47,0-11.71,5.24-11.71,11.71,0,1.73.39,3.4,1.06,4.91-3.01,3.35-5.8,7.14-8.31,11.27-5.19,8.65-12.33,26.94-3.91,53.99-2.57,1.9-4.35,4.8-4.74,8.14-14.84,1.34-27.5,7.81-35.75,13.28-6.53,4.29-13.28,10.04-16.51,14.67-4.13-.67-11.71-1.11-20.75,1.56-1.23-1.4-2.79-2.45-4.57-3.12-.17-10.1-2.96-26.72-16.34-44.01-20.02-25.83-3.85-45.4-3.18-46.24.22-.28.39-.5.56-.84,1.28-1.06,5.75-4.41,10.93-6.13,1.94,5.42,7.74,9,14.11,7.35,4.07-1.06,7.27-4.34,8.24-8.43,1.84-7.72-3.97-14.59-11.37-14.59-4.8,0-8.87,2.9-10.71,6.97-6.47,1.45-12.1,5.13-15,7.25-24.49-9.15-45.68,3.68-51.93,8.03-1.51-.73-3.24-1.17-5.02-1.17-7.61,0-13.52,7.26-11.2,15.23,1.07,3.69,4.01,6.62,7.7,7.69,7.97,2.31,15.21-3.6,15.21-11.21,0-1.56-.33-3.07-.89-4.46,5.91-3.91,22.03-12.72,40.38-7.31-1.73,2.9-3.91,7.25-5.13,12.83-2.06,9.31-1.9,23.82,10.71,40.05,11.94,15.39,14.45,30.06,14.61,38.93-4.41,1.67-7.53,5.91-7.53,10.93,0,1.11.17,2.18.45,3.18-4.07,3.4-7.86,7.47-11.43,12.1-7.42,9.76-12.49,20.64-14.73,31.63-5.24.56-9.48,4.63-10.26,9.82-19.58,4.29-60.74,9.37-85.56-16.29-22.42-23.15-21.59-46.02-18.13-59.35,6.3-.17,11.43-5.3,11.43-11.66,0-5.8-4.24-10.6-9.76-11.55-.84-10.6.84-28.06,15.67-46.02,14.89-18.02,30.85-26.1,40.72-29.56,2.89,4.1,8.37,6.24,13.9,4.15,4-1.51,6.8-5.24,7.27-9.49.27-2.46-.18-4.64-1.15-6.65,21.92-22.09,51.26-29.62,65.99-32.13,1.95,3.74,5.86,6.25,10.32,6.25,6.47,0,11.71-5.24,11.71-11.71,0-.56-.06-1.11-.11-1.67,29.45-14.39,62.42-11.6,78.31-8.98.95,5.52,5.75,9.71,11.49,9.71s10.82-4.46,11.6-10.15c9.59-1.23,27.67-1.06,56.67,7.98,25.94,8.03,42.34,21.14,50.81,29.62-.89,1.62-1.4,3.51-1.4,5.47,0,6.47,5.24,11.71,11.71,11.71,3.79,0,7.14-1.84,9.31-4.63,16.12,6.97,33.97,22.87,43.56,32.18,19.91,19.24,29.34,41.89,33.47,55.44-3.94,2.83-6.1,8.03-4.22,13.64,1.54,4.6,5.97,7.63,10.82,7.61.48,0,.86,0,1.32-.06,4.12,15.96-.06,27.06-3.07,32.47h0Zm-95.58-75.35c-.39.17-.83.28-1.28.28-2.2,0-3.88-2.12-3.26-4.32.35-1.25,1.43-2.21,2.71-2.42,2.14-.34,3.94,1.34,3.94,3.35,0,1.39-.83,2.55-2.11,3.11.06,0,0,0,0,0h0Zm-103.39,82.64c-1.89,0-3.39-1.56-3.39-3.39s1.56-3.39,3.39-3.39,3.39,1.56,3.39,3.39c0,1.83-1.56,3.39-3.39,3.39Zm-128.94-17.85c-.06-.06-.11-.17-.17-.22l-.06-.06c-.65-1.08-.88-2.38.15-3.89.59-.86,1.6-1.33,2.64-1.33h.05s.11,0,.11,0c1.89,0,3.39,1.56,3.39,3.39s-1.56,3.39-3.39,3.39c-1.11.06-2.11-.45-2.72-1.28h0Zm45.11,32.58c0,1.89-1.56,3.39-3.39,3.39s-3.39-1.56-3.39-3.39,1.56-3.39,3.39-3.39c1.89,0,3.39,1.5,3.39,3.39Zm-26,25.55c1.89,0,3.39,1.56,3.39,3.39s-1.56,3.39-3.39,3.39-3.39-1.56-3.39-3.39c0-1.83,1.56-3.39,3.39-3.39Zm80.28-22.33c1.89,0,3.39,1.56,3.39,3.39s-1.56,3.39-3.39,3.39-3.39-1.56-3.39-3.39c-.06-1.83,1.5-3.39,3.39-3.39Zm-.55-73.78c-.11,1.78-1.61,3.22-3.39,3.22-1.39,0-2.61-.83-3.11-2.06-.06-.11-.11-.22-.11-.39-.11-.33-.17-.67-.17-1,0-2.29,2.29-4.01,4.59-3.18,1.35.49,2.19,1.84,2.19,3.28v.12s0,0,0,0Zm77.32,22.78c1.89,0,3.39,1.56,3.39,3.39s-1.56,3.39-3.39,3.39-3.39-1.56-3.39-3.39c-.05-1.89,1.5-3.39,3.39-3.39Zm20.67-28.56c0-1.89,1.56-3.39,3.39-3.39s3.39,1.56,3.39,3.39-1.56,3.39-3.39,3.39c-1.89.06-3.39-1.5-3.39-3.39Zm-88.72-73.72c0-1.89,1.56-3.39,3.39-3.39s3.39,1.56,3.39,3.39-1.56,3.39-3.39,3.39c-1.89.06-3.39-1.5-3.39-3.39Zm-98.39.17c1.89,0,3.39,1.56,3.39,3.39s-1.56,3.39-3.39,3.39-3.39-1.56-3.39-3.39c-.05-1.83,1.5-3.39,3.39-3.39Zm-78.89,24.5c0,1.89-1.56,3.39-3.39,3.39s-3.39-1.56-3.39-3.39,1.56-3.39,3.39-3.39,3.39,1.5,3.39,3.39Z"/><path d="m499.16,258.94c0-6.33-5.11-11.5-11.39-11.61-5.06-9.78-12.56-15.89-18.94-19.56,0-.22.06-.39.06-.61,0-6.45-5.22-11.67-11.67-11.67s-11.67,5.22-11.67,11.67,5.22,11.67,11.67,11.67c3.22,0,6.17-1.33,8.28-3.44,4.89,2.94,10.5,7.67,14.44,14.78-2.5,2.11-4.06,5.28-4.06,8.83,0,6.45,5.22,11.67,11.67,11.67,6.39-.05,11.61-5.28,11.61-11.72h0Zm-41.94-28.39c-1.89,0-3.39-1.56-3.39-3.39s1.56-3.39,3.39-3.39,3.39,1.56,3.39,3.39c0,.44-.11.89-.22,1.28,0,.06-.06.06-.06.11-.56,1.17-1.72,2-3.11,2h0Zm26.89,28.39c0-1.89,1.56-3.39,3.39-3.39s3.39,1.56,3.39,3.39-1.56,3.39-3.39,3.39c-1.89.06-3.39-1.5-3.39-3.39Z"/><path d="m413.38,191.95c-1.11,0-2.22.17-3.28.5-17.78-17.89-43.61-20.94-47.22-21.28-1.45-4.78-5.89-8.28-11.17-8.28-6.45,0-11.67,5.22-11.67,11.67s5.22,11.67,11.67,11.67c4.67,0,8.72-2.78,10.55-6.78,3.5.39,25.83,3.33,41.22,18.11-1.11,1.78-1.78,3.89-1.78,6.11,0,6.45,5.22,11.67,11.67,11.67s11.67-5.22,11.67-11.67-5.22-11.72-11.67-11.72h0Zm-61.67-14c-1.89,0-3.39-1.56-3.39-3.39s1.56-3.39,3.39-3.39,3.39,1.56,3.39,3.39c.05,1.83-1.5,3.39-3.39,3.39Zm61.67,29.05c-1.89,0-3.39-1.56-3.39-3.39s1.56-3.39,3.39-3.39,3.39,1.56,3.39,3.39c.06,1.89-1.5,3.39-3.39,3.39h0Z"/><path d="m506.83,314.56c.06-4.67-.5-10.61-2.61-16.94,2.56-2.17,4.17-5.33,4.17-8.89,0-6.45-5.22-11.67-11.67-11.67s-11.67,5.22-11.67,11.67,5.06,11.5,11.39,11.61c1.61,4.89,2.17,9.44,2.17,13.17-5.11,1.22-8.94,5.83-8.94,11.33,0,6.45,5.22,11.67,11.67,11.67s11.67-5.22,11.67-11.67c-.06-4.44-2.56-8.33-6.17-10.28h0Zm-13.56-25.89c0-1.89,1.56-3.39,3.39-3.39s3.39,1.56,3.39,3.39c0,1.45-.89,2.67-2.17,3.17-.11,0-.17.06-.28.11-.33.11-.67.17-1,.17-1.78-.06-3.33-1.56-3.33-3.45h0Zm8,39.55c-1.89,0-3.39-1.56-3.39-3.39s1.56-3.39,3.39-3.39c.17,0,.33,0,.5.06.06,0,.17,0,.22.06,1.56.33,2.72,1.72,2.72,3.33,0,1.78-1.56,3.33-3.45,3.33h0Z"/><path d="m411.66,230c-2.5,0-4.78.78-6.67,2.11-8.94-4.44-29-10.78-45.78,9.83-.61-.11-1.22-.17-1.89-.17-6.45,0-11.67,5.22-11.67,11.67s5.22,11.67,11.67,11.67,11.67-5.22,11.67-11.67c0-2.72-.94-5.28-2.56-7.28,5.94-6.83,12.78-10.28,20.44-10.33,5.28,0,10.06,1.61,13.44,3.17-.22.83-.33,1.72-.33,2.67,0,6.45,5.22,11.67,11.67,11.67s11.67-5.22,11.67-11.67c0-6.45-5.27-11.67-11.66-11.67h0Zm-54.33,26.83c-1.89,0-3.39-1.56-3.39-3.39s1.56-3.39,3.39-3.39,3.39,1.56,3.39,3.39c0,1.83-1.5,3.39-3.39,3.39Zm54.33-11.78c-1.89,0-3.39-1.56-3.39-3.39,0-.72.22-1.33.56-1.89.06-.11.17-.17.22-.28.61-.72,1.56-1.22,2.61-1.22,1.89,0,3.39,1.56,3.39,3.39,0,1.83-1.5,3.39-3.39,3.39h0Z"/><path d="m470.72,387.89c-6.45,0-11.67,5.22-11.67,11.67,0,.44,0,.83.06,1.28-8.72,4.06-23.5,10.11-41.72,14.33-2.06-3.33-5.72-5.56-9.89-5.56-6.45,0-11.67,5.22-11.67,11.67s5.22,11.67,11.67,11.67c5.78,0,10.55-4.17,11.44-9.67,19.28-4.39,34.83-10.83,43.89-15.06,2.06,1.89,4.83,3.06,7.83,3.06,6.45,0,11.67-5.22,11.67-11.67.06-6.5-5.22-11.72-11.61-11.72h0Zm-63.22,36.78c-1.89,0-3.39-1.56-3.39-3.39s1.56-3.39,3.39-3.39,3.39,1.56,3.39,3.39-1.5,3.39-3.39,3.39Zm63.22-21.72c-1.89,0-3.39-1.56-3.39-3.39s1.56-3.39,3.39-3.39,3.39,1.56,3.39,3.39-1.5,3.39-3.39,3.39Z"/></svg>