<?xml version="1.0" encoding="UTF-8"?>
<svg width="700pt" height="700pt" version="1.1" viewBox="0 0 700 700" xmlns="http://www.w3.org/2000/svg" xmlns:xlink="http://www.w3.org/1999/xlink">
 <defs>
  <symbol id="v" overflow="visible">
   <path d="m3.7188-0.21875c-0.1875 0.09375-0.38672 0.16797-0.59375 0.21875-0.21094 0.050781-0.42969 0.078125-0.65625 0.078125-0.66797 0-1.1992-0.1875-1.5938-0.5625-0.39844-0.375-0.59375-0.89062-0.59375-1.5469 0-0.64453 0.19531-1.1562 0.59375-1.5312 0.39453-0.375 0.92578-0.5625 1.5938-0.5625 0.22656 0 0.44531 0.027344 0.65625 0.078125 0.20703 0.054687 0.40625 0.125 0.59375 0.21875v0.84375c-0.1875-0.13281-0.375-0.23438-0.5625-0.29688s-0.38672-0.09375-0.59375-0.09375c-0.375 0-0.67188 0.12109-0.89062 0.35938-0.21094 0.24219-0.3125 0.57031-0.3125 0.98438 0 0.42969 0.10156 0.76172 0.3125 1 0.21875 0.24219 0.51562 0.35938 0.89062 0.35938 0.20703 0 0.40625-0.03125 0.59375-0.09375s0.375-0.16016 0.5625-0.29688z"/>
  </symbol>
  <symbol id="d" overflow="visible">
   <path d="m2.7344-2.2188c-0.09375-0.03125-0.18359-0.054688-0.26562-0.078125-0.085938-0.019531-0.16797-0.03125-0.25-0.03125-0.25 0-0.44531 0.085937-0.57812 0.25-0.13672 0.15625-0.20312 0.38281-0.20312 0.67188v1.4062h-0.96875v-3.0469h0.96875v0.5c0.125-0.19531 0.26562-0.33594 0.42188-0.42188 0.16406-0.09375 0.36328-0.14062 0.59375-0.14062h0.09375c0.039063 0 0.097656 0.007813 0.17188 0.015625z"/>
  </symbol>
  <symbol id="b" overflow="visible">
   <path d="m3.5-1.5312v0.28125h-2.2656c0.019531 0.23047 0.097656 0.40234 0.23438 0.51562 0.14453 0.11719 0.34375 0.17188 0.59375 0.17188 0.20703 0 0.41406-0.03125 0.625-0.09375 0.21875-0.0625 0.44141-0.15625 0.67188-0.28125v0.75c-0.23047 0.09375-0.46094 0.16406-0.6875 0.20312-0.23047 0.039062-0.46094 0.0625-0.6875 0.0625-0.55469 0-0.98438-0.14062-1.2969-0.42188-0.30469-0.28125-0.45312-0.67188-0.45312-1.1719s0.14844-0.89062 0.45312-1.1719c0.30078-0.28125 0.71094-0.42188 1.2344-0.42188 0.47656 0 0.85938 0.14844 1.1406 0.4375 0.28906 0.28125 0.4375 0.66406 0.4375 1.1406zm-1-0.32812c0-0.17578-0.054688-0.32031-0.15625-0.4375-0.10547-0.11328-0.24609-0.17188-0.42188-0.17188-0.1875 0-0.34375 0.054688-0.46875 0.15625-0.11719 0.10547-0.1875 0.25781-0.21875 0.45312z"/>
  </symbol>
  <symbol id="l" overflow="visible">
   <path d="m1.8281-1.375c-0.19922 0-0.35156 0.039062-0.45312 0.10938-0.10547 0.074219-0.15625 0.17188-0.15625 0.29688s0.039062 0.22656 0.125 0.29688c0.082031 0.074219 0.19531 0.10938 0.34375 0.10938 0.1875 0 0.33594-0.066406 0.45312-0.20312 0.125-0.13281 0.1875-0.29688 0.1875-0.48438v-0.125zm1.4844-0.35938v1.7344h-0.98438v-0.45312c-0.125 0.1875-0.27344 0.32422-0.4375 0.40625-0.15625 0.082031-0.35547 0.125-0.59375 0.125-0.3125 0-0.57031-0.085938-0.76562-0.26562-0.19922-0.1875-0.29688-0.42578-0.29688-0.71875 0-0.36328 0.11719-0.62891 0.35938-0.79688 0.25-0.16406 0.64062-0.25 1.1719-0.25h0.5625v-0.078125c0-0.14453-0.0625-0.25391-0.1875-0.32812-0.11719-0.070313-0.29688-0.10938-0.54688-0.10938-0.21094 0-0.40625 0.023438-0.59375 0.0625-0.17969 0.042969-0.34375 0.10547-0.5 0.1875v-0.73438c0.20703-0.050781 0.41406-0.085937 0.625-0.10938 0.21875-0.03125 0.42969-0.046875 0.64062-0.046875 0.53906 0 0.92969 0.10938 1.1719 0.32812 0.25 0.21094 0.375 0.55859 0.375 1.0469z"/>
  </symbol>
  <symbol id="a" overflow="visible">
   <path d="m1.5312-3.9062v0.85938h1v0.70312h-1v1.2812c0 0.14844 0.023438 0.24609 0.078125 0.29688 0.0625 0.042969 0.17578 0.0625 0.34375 0.0625h0.5v0.70312h-0.84375c-0.38672 0-0.65625-0.078125-0.8125-0.23438-0.15625-0.16406-0.23438-0.44141-0.23438-0.82812v-1.2812h-0.48438v-0.70312h0.48438v-0.85938z"/>
  </symbol>
  <symbol id="f" overflow="visible">
   <path d="m2.5312-2.5938v-1.625h0.98438v4.2188h-0.98438v-0.4375c-0.13672 0.17969-0.28125 0.30859-0.4375 0.39062-0.15625 0.082031-0.34375 0.125-0.5625 0.125-0.375 0-0.68359-0.14453-0.92188-0.4375-0.24219-0.30078-0.35938-0.6875-0.35938-1.1562s0.11719-0.84766 0.35938-1.1406c0.23828-0.30078 0.54688-0.45312 0.92188-0.45312 0.20703 0 0.39062 0.042969 0.54688 0.125 0.16406 0.085937 0.31641 0.21484 0.45312 0.39062zm-0.64062 1.9688c0.20703 0 0.36328-0.070312 0.46875-0.21875 0.11328-0.15625 0.17188-0.37891 0.17188-0.67188 0-0.28906-0.058594-0.50781-0.17188-0.65625-0.10547-0.15625-0.26172-0.23438-0.46875-0.23438-0.19922 0-0.35547 0.078125-0.46875 0.23438-0.11719 0.14844-0.17188 0.36719-0.17188 0.65625 0 0.29297 0.054688 0.51562 0.17188 0.67188 0.11328 0.14844 0.26953 0.21875 0.46875 0.21875z"/>
  </symbol>
  <symbol id="k" overflow="visible">
   <path d="m2.0938-0.625c0.19531 0 0.35156-0.070312 0.46875-0.21875 0.11328-0.15625 0.17188-0.37891 0.17188-0.67188 0-0.28906-0.058594-0.50781-0.17188-0.65625-0.11719-0.15625-0.27344-0.23438-0.46875-0.23438-0.21094 0-0.37109 0.078125-0.48438 0.23438-0.11719 0.14844-0.17188 0.36719-0.17188 0.65625 0 0.28125 0.054688 0.5 0.17188 0.65625 0.11328 0.15625 0.27344 0.23438 0.48438 0.23438zm-0.65625-1.9688c0.13281-0.17578 0.28125-0.30469 0.4375-0.39062 0.16406-0.082031 0.35938-0.125 0.57812-0.125 0.375 0 0.67969 0.15234 0.92188 0.45312 0.23828 0.29297 0.35938 0.67188 0.35938 1.1406s-0.12109 0.85547-0.35938 1.1562c-0.24219 0.29297-0.54688 0.4375-0.92188 0.4375-0.21875 0-0.41406-0.042969-0.57812-0.125-0.15625-0.082031-0.30469-0.21094-0.4375-0.39062v0.4375h-0.96875v-4.2188h0.96875z"/>
  </symbol>
  <symbol id="e" overflow="visible">
   <path d="m0.0625-3.0469h0.98438l0.8125 2.0625 0.6875-2.0625h0.98438l-1.2812 3.3281c-0.13672 0.34375-0.28906 0.58203-0.45312 0.71875-0.16797 0.13281-0.39062 0.20312-0.67188 0.20312h-0.5625v-0.64062h0.29688c0.16406 0 0.28516-0.027344 0.35938-0.078125 0.070312-0.054687 0.12891-0.14844 0.17188-0.28125l0.03125-0.09375z"/>
  </symbol>
  <symbol id="j" overflow="visible">
   <path d="m2.9688-0.73438h-1.625l-0.26562 0.73438h-1.0469l1.5-4.0625h1.25l1.5 4.0625h-1.0469zm-1.375-0.75h1.1094l-0.54688-1.625z"/>
  </symbol>
  <symbol id="i" overflow="visible">
   <path d="m3.2812-2.5312c0.125-0.1875 0.26953-0.32812 0.4375-0.42188 0.17578-0.10156 0.36328-0.15625 0.5625-0.15625 0.35156 0 0.61719 0.10938 0.79688 0.32812 0.1875 0.21094 0.28125 0.51562 0.28125 0.92188v1.8594h-0.98438v-1.5938-0.0625c0.007812-0.03125 0.015625-0.066406 0.015625-0.10938 0-0.21875-0.039063-0.375-0.10938-0.46875-0.0625-0.09375-0.16406-0.14062-0.29688-0.14062-0.1875 0-0.33594 0.078125-0.4375 0.23438-0.09375 0.14844-0.14844 0.35938-0.15625 0.64062v1.5h-0.96875v-1.5938c0-0.33203-0.03125-0.54688-0.09375-0.64062-0.054687-0.09375-0.15234-0.14062-0.29688-0.14062-0.1875 0-0.33594 0.078125-0.4375 0.23438-0.10547 0.14844-0.15625 0.35938-0.15625 0.64062v1.5h-0.96875v-3.0469h0.96875v0.45312c0.125-0.17578 0.25781-0.30469 0.40625-0.39062 0.15625-0.082031 0.32812-0.125 0.51562-0.125 0.20703 0 0.39062 0.054687 0.54688 0.15625 0.16406 0.09375 0.28906 0.23438 0.375 0.42188z"/>
  </symbol>
  <symbol id="h" overflow="visible">
   <path d="m3.5312-1.8594v1.8594h-0.98438v-1.4062c0-0.26953-0.007813-0.45312-0.015625-0.54688-0.011719-0.10156-0.03125-0.17969-0.0625-0.23438-0.042969-0.0625-0.09375-0.10938-0.15625-0.14062s-0.13672-0.046875-0.21875-0.046875c-0.21094 0-0.37109 0.078125-0.48438 0.23438-0.11719 0.15625-0.17188 0.37109-0.17188 0.64062v1.5h-0.96875v-4.2188h0.96875v1.625c0.14453-0.17578 0.30078-0.30469 0.46875-0.39062 0.16406-0.082031 0.34766-0.125 0.54688-0.125 0.35156 0 0.61719 0.10938 0.79688 0.32812 0.1875 0.21094 0.28125 0.51562 0.28125 0.92188z"/>
  </symbol>
  <symbol id="u" overflow="visible">
   <path d="m2.8438-2.9531v0.75c-0.21094-0.09375-0.41406-0.16016-0.60938-0.20312-0.1875-0.039062-0.37109-0.0625-0.54688-0.0625-0.17969 0-0.3125 0.027344-0.40625 0.078125-0.09375 0.042969-0.14062 0.10938-0.14062 0.20312 0 0.085938 0.03125 0.14844 0.09375 0.1875 0.070313 0.042969 0.19531 0.070312 0.375 0.078125l0.17188 0.03125c0.5 0.0625 0.83203 0.16797 1 0.3125 0.17578 0.14844 0.26562 0.375 0.26562 0.6875 0 0.32422-0.12109 0.57031-0.35938 0.73438-0.24219 0.15625-0.59375 0.23438-1.0625 0.23438-0.21094 0-0.42188-0.015625-0.64062-0.046875-0.21094-0.03125-0.42969-0.078125-0.65625-0.14062v-0.73438c0.19531 0.09375 0.39453 0.16797 0.59375 0.21875 0.20703 0.042969 0.41406 0.0625 0.625 0.0625 0.19531 0 0.34375-0.023438 0.4375-0.078125 0.09375-0.050781 0.14062-0.12891 0.14062-0.23438 0-0.09375-0.039062-0.16016-0.10938-0.20312-0.0625-0.039063-0.19531-0.070313-0.39062-0.09375l-0.17188-0.015625c-0.42969-0.0625-0.73047-0.16406-0.90625-0.3125-0.17969-0.14453-0.26562-0.36719-0.26562-0.67188 0-0.3125 0.10938-0.54688 0.32812-0.70312 0.22656-0.15625 0.57031-0.23438 1.0312-0.23438 0.17578 0 0.36328 0.015625 0.5625 0.046875 0.19531 0.023438 0.41016 0.058594 0.64062 0.10938z"/>
  </symbol>
  <symbol id="t" overflow="visible">
   <path d="m3.3281-3.9219v0.85938c-0.21875-0.10156-0.4375-0.17969-0.65625-0.23438-0.21094-0.050781-0.40625-0.078125-0.59375-0.078125-0.25 0-0.4375 0.039062-0.5625 0.10938-0.11719 0.0625-0.17188 0.16797-0.17188 0.3125 0 0.11719 0.039062 0.20312 0.125 0.26562 0.082031 0.054688 0.22656 0.10547 0.4375 0.15625l0.45312 0.078125c0.44531 0.09375 0.76562 0.23438 0.95312 0.42188s0.28125 0.44922 0.28125 0.78125c0 0.44922-0.13672 0.78125-0.40625 1-0.26172 0.21875-0.66406 0.32812-1.2031 0.32812-0.26172 0-0.52344-0.027344-0.78125-0.078125-0.25-0.039062-0.50781-0.11328-0.76562-0.21875v-0.875c0.25781 0.13672 0.50781 0.24219 0.75 0.3125 0.23828 0.074219 0.47266 0.10938 0.70312 0.10938 0.22656 0 0.39844-0.035156 0.51562-0.10938 0.125-0.082031 0.1875-0.19531 0.1875-0.34375 0-0.125-0.042969-0.21875-0.125-0.28125-0.085938-0.070312-0.25-0.13281-0.5-0.1875l-0.40625-0.09375c-0.39844-0.082031-0.6875-0.21875-0.875-0.40625-0.1875-0.19531-0.28125-0.45703-0.28125-0.78125 0-0.40625 0.12891-0.71094 0.39062-0.92188 0.25781-0.21875 0.63281-0.32812 1.125-0.32812 0.21875 0 0.44141 0.015625 0.67188 0.046875 0.23828 0.03125 0.48438 0.085937 0.73438 0.15625z"/>
  </symbol>
  <symbol id="g" overflow="visible">
   <path d="m0.4375-1.1875v-1.8594h0.96875v0.3125 0.625 0.48438c0 0.25 0.003906 0.43359 0.015625 0.54688 0.007813 0.10547 0.03125 0.17969 0.0625 0.21875 0.039063 0.0625 0.09375 0.11719 0.15625 0.15625 0.070313 0.03125 0.14844 0.046875 0.23438 0.046875 0.19531 0 0.35156-0.078125 0.46875-0.23438 0.11328-0.15625 0.17188-0.375 0.17188-0.65625v-1.5h0.98438v3.0469h-0.98438v-0.4375c-0.14844 0.17969-0.30469 0.30859-0.46875 0.39062-0.15625 0.082031-0.33594 0.125-0.53125 0.125-0.35547 0-0.625-0.10156-0.8125-0.3125-0.17969-0.21875-0.26562-0.53516-0.26562-0.95312z"/>
  </symbol>
  <symbol id="s" overflow="visible">
   <path d="m0.46875-3.0469h0.96875v3.0469h-0.96875zm0-1.1719h0.96875v0.78125h-0.96875z"/>
  </symbol>
  <symbol id="c" overflow="visible">
   <path d="m1.9219-2.4219c-0.21875 0-0.38672 0.078125-0.5 0.23438-0.11719 0.15625-0.17188 0.38281-0.17188 0.67188 0 0.29297 0.054688 0.51562 0.17188 0.67188 0.11328 0.15625 0.28125 0.23438 0.5 0.23438 0.20703 0 0.36328-0.078125 0.46875-0.23438 0.11328-0.15625 0.17188-0.37891 0.17188-0.67188 0-0.28906-0.058594-0.51562-0.17188-0.67188-0.10547-0.15625-0.26172-0.23438-0.46875-0.23438zm0-0.6875c0.51953 0 0.92578 0.14062 1.2188 0.42188 0.28906 0.28125 0.4375 0.67188 0.4375 1.1719s-0.14844 0.89062-0.4375 1.1719c-0.29297 0.28125-0.69922 0.42188-1.2188 0.42188-0.53125 0-0.94922-0.14062-1.25-0.42188-0.29297-0.28125-0.4375-0.67188-0.4375-1.1719s0.14453-0.89062 0.4375-1.1719c0.30078-0.28125 0.71875-0.42188 1.25-0.42188z"/>
  </symbol>
  <symbol id="r" overflow="visible">
   <path d="m2.4688-4.2188v0.625h-0.53125c-0.14844 0-0.24609 0.027344-0.29688 0.078125-0.054687 0.054687-0.078125 0.14062-0.078125 0.26562v0.20312h0.82812v0.70312h-0.82812v2.3438h-0.96875v-2.3438h-0.48438v-0.70312h0.48438v-0.20312c0-0.33203 0.085938-0.57812 0.26562-0.73438 0.1875-0.15625 0.47266-0.23438 0.85938-0.23438z"/>
  </symbol>
  <symbol id="q" overflow="visible">
   <path d="m0.51562-4.0625h1.1562l1.4844 2.7812v-2.7812h0.98438v4.0625h-1.1562l-1.4844-2.7812v2.7812h-0.98438z"/>
  </symbol>
  <symbol id="p" overflow="visible">
   <path d="m3.5312-1.8594v1.8594h-0.98438v-1.4219c0-0.25781-0.007813-0.4375-0.015625-0.53125-0.011719-0.10156-0.03125-0.17969-0.0625-0.23438-0.042969-0.0625-0.09375-0.10938-0.15625-0.14062s-0.13672-0.046875-0.21875-0.046875c-0.21094 0-0.37109 0.078125-0.48438 0.23438-0.11719 0.15625-0.17188 0.37109-0.17188 0.64062v1.5h-0.96875v-3.0469h0.96875v0.45312c0.14453-0.17578 0.30078-0.30469 0.46875-0.39062 0.16406-0.082031 0.34766-0.125 0.54688-0.125 0.35156 0 0.61719 0.10938 0.79688 0.32812 0.1875 0.21094 0.28125 0.51562 0.28125 0.92188z"/>
  </symbol>
  <symbol id="o" overflow="visible">
   <path d="m0.51562-4.0625h1.7344c0.50781 0 0.89844 0.11719 1.1719 0.34375 0.28125 0.23047 0.42188 0.55859 0.42188 0.98438 0 0.42969-0.14062 0.75781-0.42188 0.98438-0.27344 0.23047-0.66406 0.34375-1.1719 0.34375h-0.6875v1.4062h-1.0469zm1.0469 0.76562v1.125h0.57812c0.19531 0 0.34766-0.046875 0.45312-0.14062 0.11328-0.09375 0.17188-0.23438 0.17188-0.42188 0-0.17578-0.058594-0.3125-0.17188-0.40625-0.10547-0.10156-0.25781-0.15625-0.45312-0.15625z"/>
  </symbol>
  <symbol id="n" overflow="visible">
   <path d="m0.46875-3.0469h0.96875v3c0 0.40625-0.10156 0.71094-0.29688 0.92188-0.1875 0.21875-0.46875 0.32812-0.84375 0.32812h-0.48438v-0.64062h0.17188c0.1875 0 0.3125-0.042969 0.375-0.125 0.070313-0.085938 0.10938-0.24609 0.10938-0.48438zm0-1.1719h0.96875v0.78125h-0.96875z"/>
  </symbol>
  <symbol id="m" overflow="visible">
   <path d="m2.9219-2.9531v0.79688c-0.125-0.09375-0.25781-0.16016-0.39062-0.20312-0.13672-0.039063-0.27734-0.0625-0.42188-0.0625-0.27344 0-0.48438 0.085937-0.64062 0.25-0.14844 0.15625-0.21875 0.375-0.21875 0.65625s0.070312 0.50781 0.21875 0.67188c0.15625 0.15625 0.36719 0.23438 0.64062 0.23438 0.15625 0 0.30078-0.019531 0.4375-0.0625 0.13281-0.050781 0.25781-0.125 0.375-0.21875v0.79688c-0.14844 0.0625-0.29688 0.10156-0.45312 0.125-0.15625 0.03125-0.32031 0.046875-0.48438 0.046875-0.54297 0-0.96875-0.14062-1.2812-0.42188s-0.46875-0.67188-0.46875-1.1719 0.15625-0.89062 0.46875-1.1719 0.73828-0.42188 1.2812-0.42188c0.16406 0 0.32031 0.015625 0.46875 0.046875 0.15625 0.023438 0.3125 0.058594 0.46875 0.10938z"/>
  </symbol>
 </defs>
 <g>
  <path d="m309.79 189.77c-1.9219-1.5234-4.7188-1.2031-6.2461 0.72266l-40.449 51.027c-1.2812 1.6172-1.2812 3.9062 0 5.5234l40.449 51.027c0.87891 1.1055 2.1758 1.6836 3.4844 1.6836 0.96875 0 1.9414-0.3125 2.7578-0.96094 1.9219-1.5273 2.2461-4.3203 0.72266-6.2461l-38.262-48.27 38.262-48.27c1.5273-1.9219 1.2031-4.7148-0.71875-6.2383z"/>
  <path d="m421.74 241.52-40.449-51.027c-1.5234-1.9219-4.3203-2.2461-6.2461-0.72266-1.9219 1.5273-2.2461 4.3203-0.72266 6.2461l38.262 48.27-38.262 48.27c-1.5234 1.9219-1.1992 4.7188 0.72266 6.2461 0.81641 0.64844 1.793 0.96094 2.7578 0.96094 1.3086 0 2.6094-0.57812 3.4844-1.6836l40.449-51.027c1.2891-1.6289 1.2891-3.9141 0.003906-5.5312z"/>
  <path d="m358.85 188.99c-2.3555-0.69922-4.8281 0.64062-5.5273 2.9922l-30.336 102.06c-0.69922 2.3516 0.64062 4.8281 2.9922 5.5273 0.42188 0.125 0.84766 0.1875 1.2695 0.1875 1.918 0 3.6836-1.25 4.2578-3.1797l30.336-102.06c0.69922-2.3555-0.64062-4.8281-2.9922-5.5273z"/>
  <path d="m595.22 311.28c-1.5547 0-3.082 0.11328-4.5859 0.3125l-22.695-85.895c12.664-5.2461 21.609-17.809 21.609-32.441 0-19.332-15.602-35.062-34.781-35.062-6.6602 0-12.887 1.8984-18.184 5.1875l-83.141-104.06c6.0039-6.3047 9.707-14.852 9.707-24.262 0-19.332-15.602-35.063-34.781-35.063-19.18 0-34.781 15.73-34.781 35.063 0 1.293 0.074218 2.5703 0.21094 3.8242l-205.96 50.047c-5-13.191-17.68-22.594-32.5-22.594-19.18 0-34.781 15.73-34.781 35.062 0 15.316 9.7969 28.363 23.406 33.125l-36.508 176.87c-0.88281-0.066406-1.7734-0.11328-2.6758-0.11328-19.18 0-34.781 15.727-34.781 35.059 0 19.332 15.602 35.062 34.781 35.062 7.9883 0 15.352-2.7383 21.23-7.3203l128.23 129.42c-4.5625 5.9297-7.2852 13.367-7.2852 21.438 0 19.332 15.602 35.062 34.781 35.062 19.18 0 34.781-15.73 34.781-35.062 0-2.4922-0.26172-4.9219-0.75391-7.2656l152.28-53.613c5.7148 11.488 17.508 19.398 31.105 19.398 19.18 0 34.781-15.73 34.781-35.062 0-8.3906-2.9414-16.102-7.8359-22.141l48.602-51.633c5.7578 4.2539 12.852 6.7773 20.52 6.7773 19.18 0 34.781-15.73 34.781-35.062-0.003906-19.332-15.605-35.059-34.785-35.059zm-132.07-66.996c0-8.1719-0.80859-16.156-2.3359-23.879l61.426-14.762c3.5977 9.5664 11.227 17.145 20.789 20.613l-40.812 187.23c-6.793-0.37891-13.688 1.2617-20.664 4.6953l-61.777-80.449c26.496-22.367 43.375-55.953 43.375-93.445zm-120.73 112.92c-61.672 0-111.84-50.656-111.84-112.92s50.172-112.92 111.84-112.92c61.672 0 111.84 50.656 111.84 112.92 0.003907 62.27-50.172 112.92-111.84 112.92zm187.28-188.21c-6.0039 6.3047-9.707 14.852-9.707 24.262 0 1.2617 0.070313 2.5117 0.19922 3.7383l-61.418 14.758c-9.5625-34.773-34.062-63.34-66.062-78.195l26.562-64.656c2.9023 0.79297 5.9492 1.2227 9.0977 1.2227 6.6602 0 12.887-1.9023 18.184-5.1875zm-339.79-71.418 205.96-50.043c2.875 7.5898 8.2969 13.922 15.207 17.93l-26.562 64.652c-13.113-4.9375-27.297-7.6445-42.098-7.6445-37.648 0-71.328 17.48-93.484 44.816l-63.434-48.449c3.5625-5.9453 5.9023-12.559 4.4141-21.262zm-37.246 38.773c9.7109 0.29688 18.797-3.6914 27.484-10.406l63.438 48.449c-13.797 19.797-21.906 43.906-21.906 69.891 0 15.352 2.8359 30.043 7.9961 43.582l-94.902 40.758c-4.1641-7.1328-10.75-12.652-18.617-15.406zm-20.387 231.43c4.5625-5.9336 7.2852-13.367 7.2852-21.438 0-3.3047-0.46484-6.5-1.3164-9.5352l94.898-40.758c15.168 32.461 44.129 57.121 79.219 66.223l-27.617 127.75c-0.98828-0.085938-1.9883-0.14062-3.0039-0.14062-7.9883 0-15.352 2.7383-21.23 7.3203zm332.85 87.891-152.28 53.613c-3.9922-8.0273-10.949-14.305-19.418-17.359l27.613-127.74c6.9375 1.2539 14.082 1.9102 21.375 1.9102 26.234 0 50.535-8.4883 70.359-22.883l61.766 80.438c-6.2812 6.3477-10.172 15.102-10.172 24.754 0.003906 2.4883 0.26562 4.918 0.75781 7.2656zm54.547-35.555c-2.6641-1.9688-5.6172-3.5664-8.7773-4.7148l40.812-187.23 7.6484-0.17188 22.695 85.895c-12.664 5.2461-21.609 17.809-21.609 32.441 0 8.3906 2.9414 16.098 7.8359 22.141z"/>
 </g>
</svg>
