<?xml version="1.0" encoding="UTF-8"?><svg id="Layer_1" xmlns="http://www.w3.org/2000/svg" viewBox="0 0 600 600"><defs><style>.cls-1{fill:#fff;}</style></defs><g><path d="m264.14,219.23c-1.72-1.36-4.21-1.07-5.58.65l-36.12,45.56c-1.14,1.44-1.14,3.49,0,4.93l36.12,45.56c.78.99,1.94,1.5,3.11,1.5.86,0,1.73-.28,2.46-.86,1.72-1.36,2.01-3.86.65-5.58l-34.16-43.1,34.16-43.1c1.36-1.72,1.07-4.21-.64-5.57h0Z"/><path d="m364.1,265.44l-36.12-45.56c-1.36-1.72-3.86-2.01-5.58-.65-1.72,1.36-2.01,3.86-.65,5.58l34.16,43.1-34.16,43.1c-1.36,1.72-1.07,4.21.65,5.58.73.58,1.6.86,2.46.86,1.17,0,2.33-.52,3.11-1.5l36.12-45.56c1.15-1.45,1.15-3.49,0-4.94h0Z"/><path d="m307.95,218.53c-2.1-.62-4.31.57-4.94,2.67l-27.09,91.12c-.62,2.1.57,4.31,2.67,4.94.38.11.76.17,1.13.17,1.71,0,3.29-1.12,3.8-2.84l27.09-91.12c.62-2.1-.57-4.31-2.67-4.94h0Z"/><path d="m518.99,327.72c-1.39,0-2.75.1-4.09.28l-20.26-76.69c11.31-4.68,19.29-15.9,19.29-28.96,0-17.26-13.93-31.31-31.05-31.31-5.95,0-11.51,1.69-16.24,4.63l-74.23-92.91c5.36-5.63,8.67-13.26,8.67-21.66,0-17.26-13.93-31.31-31.05-31.31s-31.05,14.04-31.05,31.31c0,1.15.07,2.29.19,3.41l-183.89,44.68c-4.46-11.78-15.79-20.17-29.02-20.17-17.13,0-31.05,14.04-31.05,31.31,0,13.67,8.75,25.32,20.9,29.58l-32.6,157.92c-.79-.06-1.58-.1-2.39-.1-17.13,0-31.05,14.04-31.05,31.3s13.93,31.31,31.05,31.31c7.13,0,13.71-2.44,18.96-6.54l114.49,115.55c-4.07,5.29-6.5,11.93-6.5,19.14,0,17.26,13.93,31.31,31.05,31.31s31.05-14.04,31.05-31.31c0-2.23-.23-4.39-.67-6.49l135.97-47.87c5.1,10.26,15.63,17.32,27.77,17.32,17.13,0,31.05-14.04,31.05-31.31,0-7.49-2.63-14.38-7-19.77l43.39-46.1c5.14,3.8,11.48,6.05,18.32,6.05,17.13,0,31.05-14.04,31.05-31.31,0-17.26-13.93-31.3-31.06-31.3h0Zm-117.92-59.82c0-7.3-.72-14.42-2.09-21.32l54.84-13.18c3.21,8.54,10.02,15.31,18.56,18.4l-36.44,167.17c-6.07-.34-12.22,1.13-18.45,4.19l-55.16-71.83c23.66-19.97,38.73-49.96,38.73-83.43h0Zm-107.8,100.82c-55.06,0-99.86-45.23-99.86-100.82s44.8-100.82,99.86-100.82,99.86,45.23,99.86,100.82c0,55.6-44.8,100.82-99.86,100.82Zm167.22-168.04c-5.36,5.63-8.67,13.26-8.67,21.66,0,1.13.06,2.24.18,3.34l-54.84,13.18c-8.54-31.05-30.41-56.55-58.98-69.82l23.72-57.73c2.59.71,5.31,1.09,8.12,1.09,5.95,0,11.51-1.7,16.24-4.63l74.24,92.91Zm-303.39-63.77l183.89-44.68c2.57,6.78,7.41,12.43,13.58,16.01l-23.72,57.72c-11.71-4.41-24.37-6.83-37.59-6.83-33.61,0-63.69,15.61-83.47,40.01l-56.64-43.26c3.18-5.31,5.27-11.21,3.94-18.98h0Zm-33.26,34.62c8.67.27,16.78-3.3,24.54-9.29l56.64,43.26c-12.32,17.68-19.56,39.2-19.56,62.4,0,13.71,2.53,26.82,7.14,38.91l-84.73,36.39c-3.72-6.37-9.6-11.3-16.62-13.76l32.6-157.92Zm-18.2,206.63c4.07-5.3,6.5-11.93,6.5-19.14,0-2.95-.42-5.8-1.18-8.51l84.73-36.39c13.54,28.98,39.4,51,70.73,59.13l-24.66,114.06c-.88-.08-1.78-.13-2.68-.13-7.13,0-13.71,2.44-18.96,6.54l-114.5-115.55Zm297.19,78.47l-135.97,47.87c-3.56-7.17-9.78-12.77-17.34-15.5l24.65-114.05c6.19,1.12,12.57,1.71,19.08,1.71,23.42,0,45.12-7.58,62.82-20.43l55.15,71.82c-5.61,5.67-9.08,13.48-9.08,22.1,0,2.22.24,4.39.68,6.49h0Zm48.7-31.74c-2.38-1.76-5.02-3.18-7.84-4.21l36.44-167.17,6.83-.15,20.26,76.69c-11.31,4.68-19.29,15.9-19.29,28.96,0,7.49,2.63,14.37,7,19.77l-43.4,46.11Z"/></g><g><circle class="cls-1" cx="126.46" cy="140.71" r="27"/><path d="m126.46,117.21c12.96,0,23.5,10.54,23.5,23.5s-10.54,23.5-23.5,23.5-23.5-10.54-23.5-23.5,10.54-23.5,23.5-23.5m0-7c-16.84,0-30.5,13.66-30.5,30.5s13.66,30.5,30.5,30.5,30.5-13.66,30.5-30.5-13.66-30.5-30.5-30.5h0Z"/></g><g><circle class="cls-1" cx="80.46" cy="358.71" r="27"/><path d="m80.46,335.21c12.96,0,23.5,10.54,23.5,23.5s-10.54,23.5-23.5,23.5-23.5-10.54-23.5-23.5,10.54-23.5,23.5-23.5m0-7c-16.84,0-30.5,13.66-30.5,30.5s13.66,30.5,30.5,30.5,30.5-13.66,30.5-30.5-13.66-30.5-30.5-30.5h0Z"/></g><g><circle class="cls-1" cx="239.46" cy="519.71" r="27"/><path d="m239.46,496.21c12.96,0,23.5,10.54,23.5,23.5s-10.54,23.5-23.5,23.5-23.5-10.54-23.5-23.5,10.54-23.5,23.5-23.5m0-7c-16.84,0-30.5,13.66-30.5,30.5s13.66,30.5,30.5,30.5,30.5-13.66,30.5-30.5-13.66-30.5-30.5-30.5h0Z"/></g><g><circle class="cls-1" cx="433.46" cy="450.71" r="27"/><path d="m433.46,427.21c12.96,0,23.5,10.54,23.5,23.5s-10.54,23.5-23.5,23.5-23.5-10.54-23.5-23.5,10.54-23.5,23.5-23.5m0-7c-16.84,0-30.5,13.66-30.5,30.5s13.66,30.5,30.5,30.5,30.5-13.66,30.5-30.5-13.66-30.5-30.5-30.5h0Z"/></g><g><circle class="cls-1" cx="519.46" cy="358.71" r="27"/><path d="m519.46,335.21c12.96,0,23.5,10.54,23.5,23.5s-10.54,23.5-23.5,23.5-23.5-10.54-23.5-23.5,10.54-23.5,23.5-23.5m0-7c-16.84,0-30.5,13.66-30.5,30.5s13.66,30.5,30.5,30.5,30.5-13.66,30.5-30.5-13.66-30.5-30.5-30.5h0Z"/></g><g><circle class="cls-1" cx="369.46" cy="80.71" r="27"/><path d="m369.46,57.21c12.96,0,23.5,10.54,23.5,23.5s-10.54,23.5-23.5,23.5-23.5-10.54-23.5-23.5,10.54-23.5,23.5-23.5m0-7c-16.84,0-30.5,13.66-30.5,30.5s13.66,30.5,30.5,30.5,30.5-13.66,30.5-30.5-13.66-30.5-30.5-30.5h0Z"/></g><g><circle class="cls-1" cx="483.46" cy="222.71" r="27"/><path d="m483.46,199.21c12.96,0,23.5,10.54,23.5,23.5s-10.54,23.5-23.5,23.5-23.5-10.54-23.5-23.5,10.54-23.5,23.5-23.5m0-7c-16.84,0-30.5,13.66-30.5,30.5s13.66,30.5,30.5,30.5,30.5-13.66,30.5-30.5-13.66-30.5-30.5-30.5h0Z"/></g></svg>