<?xml version="1.0" encoding="UTF-8"?><svg id="Layer_1" xmlns="http://www.w3.org/2000/svg" viewBox="0 0 600 600"><defs><style>.cls-1{fill:#fff;}.cls-2{stroke:#fff;stroke-miterlimit:10;stroke-width:2.67px;}</style></defs><path class="cls-2" d="m184.46,186.75c-4.85,0-8.64-4.5-7.45-9.54.82-3.45,4.03-5.8,7.57-5.8h107.13c3.54,0,6.75,2.35,7.57,5.8,1.19,5.05-2.6,9.54-7.45,9.54h-107.37Zm0,242.52c-4.85,0-8.64-4.5-7.45-9.54.82-3.45,4.03-5.8,7.57-5.8h107.13c3.54,0,6.75,2.35,7.57,5.8,1.19,5.05-2.6,9.54-7.45,9.54h-107.37Zm105.86-159.24c-4.85,0-8.64-4.5-7.45-9.54.82-3.45,4.02-5.8,7.57-5.8h137.81c3.54,0,6.75,2.35,7.57,5.8,1.2,5.05-2.6,9.54-7.45,9.54h-138.05Zm0,75.97c-4.85,0-8.64-4.5-7.45-9.54.82-3.45,4.02-5.8,7.57-5.8h137.81c3.54,0,6.75,2.35,7.57,5.8,1.2,5.05-2.6,9.54-7.45,9.54h-138.05Z"/><g><g><path d="m471.55,527c-2.29,0-4.49-1.22-6.19-3.44-2.66-3.47-3.5-8.62-2.2-13.44,1.25-4.64,4.66-7.76,8.47-7.78,16.14-.06,29.26-16.71,29.26-37.13v-52.89c0-39.92,10.2-78.64,28.71-109.04l.86-1.41-.95-1.34c-19.1-26.91-29.62-62.54-29.62-100.32v-67.87c0-19.12-12.32-34.68-27.45-34.68-2.23,0-4.38-1.17-6.06-3.29-2.62-3.3-3.57-8.28-2.48-12.98,1.15-4.94,4.73-8.39,8.7-8.39,24.99.14,45.29,26.77,45.29,59.35v67.87c0,35.4,11.35,68.7,31.15,91.36,1.88,2.17,3.04,5.44,3.17,8.98.14,3.52-.8,6.95-2.58,9.4-19.83,27.43-30.75,63.81-30.75,102.44v52.81c0,34.07-21.24,61.79-47.35,61.79Z"/><path class="cls-1" d="m472.61,75.5h.03c23.58.14,42.77,25.64,42.77,56.85v67.87c0,36,11.58,69.9,31.76,92.98,1.5,1.73,2.46,4.51,2.57,7.45.11,2.93-.67,5.86-2.11,7.85-20.13,27.85-31.22,64.75-31.22,103.9v52.81c0,32.69-20.12,59.29-44.85,59.29-2.02,0-3.5-1.54-4.2-2.46-1.72-2.25-3.09-6.39-1.77-11.26.94-3.48,3.44-5.92,6.07-5.93,17.51-.06,31.75-17.84,31.75-39.63v-52.89c0-19.84,2.46-39.23,7.32-57.63,4.83-18.27,11.9-35.13,21.03-50.11l1.71-2.81-1.9-2.68c-18.8-26.49-29.15-61.61-29.15-98.87v-67.87c0-20.5-13.44-37.18-29.95-37.18-1.96,0-3.41-1.47-4.11-2.34-1.69-2.13-3.11-6.1-2-10.86.89-3.8,3.46-6.46,6.27-6.46m0-5c-5.05,0-9.68,4.08-11.14,10.33-2.34,10.05,3.52,19.33,10.97,19.33,13.74,0,24.95,14.46,24.95,32.18v67.87c0,38.36,10.85,74.67,30.08,101.77-18.8,30.87-29.08,69.52-29.08,110.34v52.89c0,19.1-12.03,34.57-26.77,34.63-4.82.02-9.29,3.76-10.88,9.63-2.79,10.31,3.17,20.03,10.8,20.03,27.49,0,49.85-28.84,49.85-64.29v-52.81c0-38.14,10.74-73.95,30.27-100.97,2.11-2.91,3.21-6.9,3.05-10.97-.16-4.07-1.53-7.92-3.79-10.53-19.43-22.23-30.54-54.92-30.54-89.71v-67.87c0-34.02-21.39-61.7-47.74-61.85-.02,0-.04,0-.05,0h0Z"/></g><g><path d="m129.14,525.68c-10.02,0-19.53-4.22-27.5-12.2-11.31-11.33-17.78-28.41-17.75-46.86v-54.33l-.03-.2c-.03-.19-3.07-18.87-8.64-40.6-7.52-29.36-15.83-50.06-24.71-61.5-1.88-2.49-2.89-5.9-2.74-9.33.1-3.47,1.33-6.71,3.39-8.94,8.87-9.51,17.07-27.76,24.38-54.22,5.4-19.55,8.29-36.6,8.32-36.77l.03-.21v-68.08c0-32.72,20.39-59.35,45.45-59.35,2.39,0,4.65,1.31,6.38,3.7,2.71,3.74,3.36,9.17,1.72,14.15-1.37,4.14-4.53,6.81-8.07,6.81-15.17,0-27.48,15.56-27.48,34.68v67.87c0,37.78-10.52,73.41-29.62,100.32l-.95,1.34.86,1.41c18.52,30.4,28.71,69.12,28.71,109.04v54.13c0,19.4,12.48,35.42,27.82,35.7,4.53.08,8.35,4.48,8.88,10.23.38,4.07-.81,8.04-3.18,10.64-1.07,1.17-2.85,2.57-5.28,2.57h0Z"/><path class="cls-1" d="m129.35,75.59c2.11,0,3.63,1.67,4.35,2.66,1.76,2.43,3.04,6.84,1.37,11.9-1.02,3.09-3.26,5.09-5.72,5.09-16.52,0-29.95,16.68-29.95,37.18v67.87c0,37.27-10.35,72.38-29.15,98.87l-1.9,2.68,1.71,2.81c9.13,14.98,16.2,31.84,21.03,50.11,4.86,18.39,7.32,37.78,7.32,57.63v54.13c0,9.85,3,19.2,8.44,26.33,5.73,7.5,13.48,11.72,21.83,11.87,2.81.05,5.98,3.04,6.44,7.96.31,3.38-.64,6.64-2.54,8.72-.73.8-1.92,1.76-3.43,1.76-9.34,0-18.24-3.97-25.73-11.47-10.85-10.86-17.05-27.3-17.02-45.1v-54.53l-.06-.4c-.5-3.07-12.4-75.55-33.82-103.21-1.52-2.03-2.36-4.91-2.24-7.72v-.04s0-.04,0-.04c.08-2.84,1.07-5.49,2.71-7.26,21.5-23.06,32.87-89.48,33.34-92.29l.07-.41v-68.29c0-31.35,19.27-56.85,42.95-56.85m0-5c-26.45,0-47.95,27.73-47.95,61.85v67.87s-11.34,67.48-32.07,89.71c-2.42,2.61-3.94,6.39-4.05,10.53-.17,4.07,1.07,8.06,3.27,10.97,20.89,26.95,32.85,100.97,32.85,100.97v54.13c-.06,33.91,21.39,61.57,47.75,61.57h0c6.5,0,11.74-7.36,10.95-15.94-.67-7.23-5.68-12.4-11.32-12.5-14.05-.26-25.37-15.09-25.37-33.2v-54.13c0-40.82-10.27-79.47-29.08-110.34,19.23-27.09,30.08-63.34,30.08-101.77v-67.87c0-17.72,11.21-32.18,24.95-32.18h.03c4.48,0,8.68-3.21,10.44-8.52,3.54-10.71-2.56-21.13-10.47-21.13h0Z"/></g></g></svg>