<?xml version="1.0" encoding="UTF-8"?>
<svg width="700pt" height="700pt" version="1.1" viewBox="0 0 700 700" xmlns="http://www.w3.org/2000/svg" xmlns:xlink="http://www.w3.org/1999/xlink">
 <defs>
  <symbol id="o" overflow="visible">
   <path d="m34.734-2.0781c-1.7812 0.92969-3.6484 1.625-5.5938 2.0938-1.9375 0.47656-3.9648 0.71875-6.0781 0.71875-6.293 0-11.281-1.7578-14.969-5.2812-3.6797-3.5195-5.5156-8.2891-5.5156-14.312 0-6.0508 1.8359-10.832 5.5156-14.344 3.6875-3.5195 8.6758-5.2812 14.969-5.2812 2.1133 0 4.1406 0.23438 6.0781 0.70312 1.9453 0.46875 3.8125 1.1719 5.5938 2.1094v7.8125c-1.8047-1.2266-3.5859-2.1289-5.3438-2.7031-1.75-0.57031-3.5938-0.85938-5.5312-0.85938-3.4805 0-6.2188 1.1172-8.2188 3.3438-1.9922 2.2305-2.9844 5.3047-2.9844 9.2188 0 3.8984 0.99219 6.9609 2.9844 9.1875 2 2.2305 4.7383 3.3438 8.2188 3.3438 1.9375 0 3.7812-0.28516 5.5312-0.85938 1.7578-0.57031 3.5391-1.4766 5.3438-2.7188z"/>
  </symbol>
  <symbol id="b" overflow="visible">
   <path d="m25.422-20.641c-0.79297-0.36328-1.5859-0.63281-2.375-0.8125-0.78125-0.17578-1.5703-0.26562-2.3594-0.26562-2.3359 0-4.1328 0.74609-5.3906 2.2344-1.25 1.4922-1.875 3.6328-1.875 6.4219v13.062h-9.0625v-28.359h9.0625v4.6562c1.1641-1.8516 2.5039-3.207 4.0156-4.0625 1.5078-0.85156 3.3164-1.2812 5.4219-1.2812 0.3125 0 0.64453 0.015625 1 0.046875 0.35156 0.023438 0.86328 0.074219 1.5312 0.15625z"/>
  </symbol>
  <symbol id="a" overflow="visible">
   <path d="m32.672-14.25v2.5781h-21.203c0.21875 2.125 0.98438 3.7188 2.2969 4.7812 1.3203 1.0625 3.1641 1.5938 5.5312 1.5938 1.9062 0 3.8594-0.28125 5.8594-0.84375s4.0547-1.4141 6.1719-2.5625v6.9844c-2.1484 0.8125-4.293 1.4219-6.4375 1.8281-2.1484 0.41406-4.293 0.625-6.4375 0.625-5.125 0-9.1094-1.3008-11.953-3.9062-2.8438-2.6133-4.2656-6.2734-4.2656-10.984 0-4.625 1.3945-8.2578 4.1875-10.906 2.7891-2.6562 6.6328-3.9844 11.531-3.9844 4.457 0 8.0234 1.3438 10.703 4.0312 2.6758 2.6875 4.0156 6.2773 4.0156 10.766zm-9.3281-3.0156c0-1.7266-0.50781-3.1172-1.5156-4.1719-1-1.0508-2.3086-1.5781-3.9219-1.5781-1.7617 0-3.1875 0.49609-4.2812 1.4844-1.0938 0.98047-1.7773 2.4023-2.0469 4.2656z"/>
  </symbol>
  <symbol id="h" overflow="visible">
   <path d="m17.062-12.766c-1.8867 0-3.3086 0.32422-4.2656 0.96875-0.94922 0.63672-1.4219 1.5781-1.4219 2.8281 0 1.1562 0.37891 2.0586 1.1406 2.7031 0.76953 0.64844 1.8359 0.96875 3.2031 0.96875 1.707 0 3.1445-0.60938 4.3125-1.8281 1.1641-1.2266 1.75-2.7578 1.75-4.5938v-1.0469zm13.859-3.4219v16.188h-9.1406v-4.2031c-1.2188 1.7188-2.5898 2.9766-4.1094 3.7656-1.5234 0.78125-3.3711 1.1719-5.5469 1.1719-2.9375 0-5.3242-0.85156-7.1562-2.5625-1.8242-1.7188-2.7344-3.9453-2.7344-6.6875 0-3.3203 1.1406-5.7578 3.4219-7.3125 2.2891-1.5508 5.8828-2.3281 10.781-2.3281h5.3438v-0.70312c0-1.4375-0.57031-2.4883-1.7031-3.1562-1.125-0.66406-2.8906-1-5.2969-1-1.9375 0-3.7461 0.19531-5.4219 0.57812-1.668 0.38672-3.2188 0.96875-4.6562 1.75v-6.9062c1.9453-0.47656 3.8984-0.83594 5.8594-1.0781 1.957-0.25 3.9141-0.375 5.875-0.375 5.1133 0 8.8047 1.0117 11.078 3.0312 2.2695 2.0117 3.4062 5.2891 3.4062 9.8281z"/>
  </symbol>
  <symbol id="g" overflow="visible">
   <path d="m14.25-36.406v8.0469h9.3438v6.4844h-9.3438v12.031c0 1.3125 0.25781 2.2031 0.78125 2.6719 0.53125 0.46094 1.5703 0.6875 3.125 0.6875h4.6562v6.4844h-7.7656c-3.5859 0-6.125-0.74219-7.625-2.2344-1.4922-1.5-2.2344-4.0352-2.2344-7.6094v-12.031h-4.5v-6.4844h4.5v-8.0469z"/>
  </symbol>
  <symbol id="c" overflow="visible">
   <path d="m23.656-24.203v-15.203h9.1094v39.406h-9.1094v-4.1094c-1.25 1.6797-2.6328 2.9062-4.1406 3.6875-1.5 0.76953-3.2344 1.1562-5.2031 1.1562-3.5 0-6.375-1.3828-8.625-4.1562-2.2422-2.7812-3.3594-6.3594-3.3594-10.734s1.1172-7.9453 3.3594-10.719c2.25-2.7812 5.125-4.1719 8.625-4.1719 1.957 0 3.6914 0.39844 5.2031 1.1875 1.5078 0.78125 2.8906 2 4.1406 3.6562zm-5.9844 18.359c1.9453 0 3.4297-0.70703 4.4531-2.125 1.0195-1.4258 1.5312-3.4883 1.5312-6.1875 0-2.6953-0.51172-4.7539-1.5312-6.1719-1.0234-1.4141-2.5078-2.125-4.4531-2.125-1.9297 0-3.4023 0.71094-4.4219 2.125-1.0234 1.418-1.5312 3.4766-1.5312 6.1719 0 2.6992 0.50781 4.7617 1.5312 6.1875 1.0195 1.418 2.4922 2.125 4.4219 2.125z"/>
  </symbol>
  <symbol id="f" overflow="visible">
   <path d="m19.453-5.8438c1.9375 0 3.4141-0.70703 4.4375-2.125 1.0195-1.4258 1.5312-3.4883 1.5312-6.1875 0-2.6953-0.51172-4.7539-1.5312-6.1719-1.0234-1.4141-2.5-2.125-4.4375-2.125-1.9492 0-3.4453 0.71484-4.4844 2.1406-1.0312 1.418-1.5469 3.4688-1.5469 6.1562s0.51562 4.7461 1.5469 6.1719c1.0391 1.4297 2.5352 2.1406 4.4844 2.1406zm-6.0312-18.359c1.25-1.6562 2.6328-2.875 4.1562-3.6562 1.5195-0.78906 3.2656-1.1875 5.2344-1.1875 3.5 0 6.3672 1.3906 8.6094 4.1719 2.25 2.7734 3.375 6.3438 3.375 10.719s-1.125 7.9531-3.375 10.734c-2.2422 2.7734-5.1094 4.1562-8.6094 4.1562-1.9688 0-3.7148-0.39062-5.2344-1.1719-1.5234-0.78906-2.9062-2.0156-4.1562-3.6719v4.1094h-9.0625v-39.406h9.0625z"/>
  </symbol>
  <symbol id="e" overflow="visible">
   <path d="m0.64062-28.359h9.0625l7.6094 19.25 6.4844-19.25h9.0781l-11.938 31.047c-1.1992 3.1562-2.5938 5.3594-4.1875 6.6094-1.5938 1.2578-3.6992 1.8906-6.3125 1.8906h-5.25v-5.9531h2.8438c1.5312 0 2.6445-0.24609 3.3438-0.73438 0.70703-0.49219 1.2539-1.3672 1.6406-2.625l0.25-0.78125z"/>
  </symbol>
  <symbol id="d" overflow="visible">
   <path d="m27.703-6.8906h-15.25l-2.4062 6.8906h-9.7969l14-37.812h11.625l14 37.812h-9.7969zm-12.812-7.0156h10.359l-5.1719-15.031z"/>
  </symbol>
  <symbol id="n" overflow="visible">
   <path d="m32.875-17.266v17.266h-9.125v-13.219c0-2.4453-0.058594-4.1328-0.17188-5.0625-0.10547-0.92578-0.29297-1.6094-0.5625-2.0469-0.35547-0.59375-0.83984-1.0508-1.4531-1.375-0.60547-0.33203-1.293-0.5-2.0625-0.5-1.8984 0-3.3867 0.73047-4.4688 2.1875-1.0742 1.4609-1.6094 3.4805-1.6094 6.0625v13.953h-9.0625v-28.359h9.0625v4.1562c1.3633-1.6562 2.8125-2.875 4.3438-3.6562 1.5391-0.78906 3.2383-1.1875 5.0938-1.1875 3.2812 0 5.7695 1.0078 7.4688 3.0156 1.6953 2.0117 2.5469 4.9336 2.5469 8.7656z"/>
  </symbol>
  <symbol id="m" overflow="visible">
   <path d="m4.3594-28.359h9.0625v27.859c0 3.7891-0.91406 6.6875-2.7344 8.6875-1.8242 2-4.4648 3-7.9219 3h-4.4844v-5.9531h1.5625c1.7266 0 2.9102-0.39062 3.5469-1.1719 0.64453-0.77344 0.96875-2.293 0.96875-4.5625zm0-11.047h9.0625v7.4062h-9.0625z"/>
  </symbol>
  <symbol id="l" overflow="visible">
   <path d="m26.516-27.469v6.875c-1.9492-0.80078-3.8242-1.4062-5.625-1.8125-1.8047-0.40625-3.5078-0.60938-5.1094-0.60938-1.7305 0-3.0117 0.21875-3.8438 0.65625-0.83594 0.42969-1.25 1.0859-1.25 1.9688 0 0.73047 0.3125 1.293 0.9375 1.6875 0.63281 0.38672 1.7734 0.66797 3.4219 0.84375l1.5938 0.23438c4.6328 0.59375 7.7539 1.5703 9.3594 2.9219 1.6016 1.3438 2.4062 3.4609 2.4062 6.3438 0 3.0234-1.1172 5.293-3.3438 6.8125-2.2305 1.5234-5.5547 2.2812-9.9688 2.2812-1.875 0-3.8125-0.15234-5.8125-0.45312-2-0.28906-4.0586-0.72656-6.1719-1.3125v-6.8906c1.8125 0.875 3.6641 1.5312 5.5625 1.9688 1.8945 0.4375 3.8203 0.65625 5.7812 0.65625 1.7812 0 3.1133-0.24219 4-0.73438 0.89453-0.48828 1.3438-1.2109 1.3438-2.1719 0-0.8125-0.30859-1.4141-0.92188-1.8125-0.61719-0.39453-1.8438-0.70312-3.6875-0.92188l-1.5938-0.20312c-4.0312-0.50781-6.8594-1.4453-8.4844-2.8125-1.6172-1.3633-2.4219-3.4414-2.4219-6.2344 0-3 1.0234-5.2227 3.0781-6.6719 2.0625-1.457 5.2227-2.1875 9.4844-2.1875 1.6641 0 3.4141 0.13281 5.25 0.39062 1.8438 0.25 3.8477 0.64844 6.0156 1.1875z"/>
  </symbol>
  <symbol id="k" overflow="visible">
   <path d="m4.7656-37.812h9.75v13.812l14.047-13.812h11.312l-18.203 17.906 20.078 19.906h-12.203l-15.031-14.891v14.891h-9.75z"/>
  </symbol>
  <symbol id="j" overflow="visible">
   <path d="m4.3594-28.359h9.0625v28.359h-9.0625zm0-11.047h9.0625v7.4062h-9.0625z"/>
  </symbol>
  <symbol id="i" overflow="visible">
   <path d="m30.641-23.656c1.1445-1.75 2.5039-3.082 4.0781-4 1.582-0.92578 3.3203-1.3906 5.2188-1.3906 3.25 0 5.7266 1.0078 7.4375 3.0156 1.707 2.0117 2.5625 4.9336 2.5625 8.7656v17.266h-9.125v-14.781c0.019531-0.22656 0.035156-0.45703 0.046875-0.6875 0.007813-0.23828 0.015625-0.57812 0.015625-1.0156 0-2.0078-0.29688-3.4609-0.89062-4.3594-0.59375-0.90625-1.5469-1.3594-2.8594-1.3594-1.7188 0-3.0469 0.71094-3.9844 2.125-0.9375 1.418-1.4297 3.4688-1.4688 6.1562v13.922h-9.1094v-14.781c0-3.1445-0.27344-5.1641-0.8125-6.0625-0.54297-0.90625-1.5078-1.3594-2.8906-1.3594-1.7422 0-3.0859 0.71484-4.0312 2.1406-0.9375 1.4297-1.4062 3.4648-1.4062 6.1094v13.953h-9.1094v-28.359h9.1094v4.1562c1.1133-1.6016 2.3906-2.8125 3.8281-3.625 1.4453-0.8125 3.0391-1.2188 4.7812-1.2188 1.957 0 3.6875 0.47656 5.1875 1.4219 1.5 0.94922 2.6406 2.2734 3.4219 3.9688z"/>
  </symbol>
 </defs>
 <g>
  <path d="m18.148 290.37c-13.828 0-13.828-20.742 0-20.742 28.637 0 51.852-23.215 51.852-51.852v-155.55c0-34.363 27.859-62.223 62.223-62.223h10.371c5.7266 0 10.371 4.6445 10.371 10.371 0 5.7266-4.6445 10.371-10.371 10.371h-10.371c-22.91 0-41.48 18.57-41.48 41.48v155.55c0 26.406-14.102 49.52-35.184 62.223 21.082 12.703 35.184 35.816 35.184 62.223v155.55c0 22.91 18.57 41.48 41.48 41.48h10.371c5.7266 0 10.371 4.6445 10.371 10.371 0 5.7266-4.6445 10.371-10.371 10.371h-10.371c-34.363 0-62.223-27.859-62.223-62.223v-155.55c0-28.637-23.215-51.852-51.852-51.852zm663.7 0c-28.637 0-51.852 23.215-51.852 51.852v155.55c0 34.363-27.859 62.223-62.223 62.223h-10.371c-5.7266 0-10.371-4.6445-10.371-10.371 0-5.7266 4.6445-10.371 10.371-10.371h10.371c22.91 0 41.48-18.57 41.48-41.48v-155.55c0-26.406 14.102-49.52 35.184-62.223-21.082-12.703-35.184-35.816-35.184-62.223v-155.55c0-22.91-18.57-41.48-41.48-41.48h-10.371c-5.7266 0-10.371-4.6445-10.371-10.371 0-5.7266 4.6445-10.371 10.371-10.371h10.371c34.363 0 62.223 27.859 62.223 62.223v155.55c0 28.637 23.215 51.852 51.852 51.852 13.828 0 13.828 20.742 0 20.742zm-497.78-165.93c-5.7266 0-10.371-4.6445-10.371-10.371 0-5.7266 4.6445-10.371 10.371-10.371h145.18c5.7305 0 10.371 4.6445 10.371 10.371 0 5.7266-4.6406 10.371-10.371 10.371zm0 331.85c-5.7266 0-10.371-4.6445-10.371-10.371 0-5.7266 4.6445-10.371 10.371-10.371h145.18c5.7305 0 10.371 4.6445 10.371 10.371 0 5.7266-4.6406 10.371-10.371 10.371zm145.18-217.78c-5.7266 0-10.367-4.6445-10.367-10.371 0-5.7266 4.6406-10.371 10.367-10.371h186.67c5.7266 0 10.371 4.6445 10.371 10.371 0 5.7266-4.6445 10.371-10.371 10.371zm0 103.7c-5.7266 0-10.367-4.6445-10.367-10.371 0-5.7266 4.6406-10.371 10.367-10.371h186.67c5.7266 0 10.371 4.6445 10.371 10.371 0 5.7266-4.6445 10.371-10.371 10.371z"/>
 </g>
</svg>
