<?xml version="1.0" encoding="UTF-8"?><svg id="Layer_1" xmlns="http://www.w3.org/2000/svg" viewBox="0 0 600 600"><defs><style>.cls-1{stroke:#fff;stroke-miterlimit:10;stroke-width:4px;}</style></defs><path class="cls-1" d="m440.54,260.95c-.07-.04-.13-.09-.21-.12l-127.03-64.15c-1.99-1.01-4.08-1.77-6.22-2.3v-73.51h14.19c7.8,0,14.15-6.34,14.15-14.14v-42.67c0-7.75-6.3-14.05-14.05-14.05h-42.76c-7.75,0-14.05,6.3-14.05,14.05v42.67c0,7.81,6.33,14.14,14.14,14.14h13.26v73.06c-2.14.54-4.23,1.3-6.22,2.3l-127.03,64.22c-.07.04-.14.09-.21.13-2.63,1.11-4.48,3.72-4.48,6.75v59.14c0,2.13.29,4.2.85,6.18-.54,1.02-.85,2.18-.85,3.41v58.92c0,2.13.29,4.2.85,6.17-.54,1.02-.85,2.18-.85,3.41v58.92c0,8.62,4.78,16.39,12.48,20.29l129.55,65.43c1.09.54,2.27.81,3.46.81s2.39-.27,3.48-.82l129.54-65.42c7.7-3.89,12.48-11.66,12.48-20.28v-59.01c0-1.23-.31-2.39-.85-3.41.55-1.97.85-4.05.85-6.16v-58.82c0-1.23-.31-2.39-.85-3.41.55-1.97.85-4.04.85-6.16v-58.82c0-3.03-1.85-5.63-4.48-6.74h0Zm-161.8-154.26v-41.57h41.57v41.57h-41.57Zm14.18,424.22l-119.33-60.27c-2.74-1.38-4.44-4.14-4.44-7.22v-47.23l123.77,62.51v52.2Zm-.42-137.09l-59.67-30.14c-3.61-1.82-8.02-.37-9.84,3.23-1.82,3.61-.37,8.02,3.23,9.84l66.7,33.47v51.76l-119.33-60.09c-2.74-1.38-4.44-4.14-4.44-7.2v-47.1h0l27.72,14.07c1.05.54,2.17.79,3.28.79,2.66,0,5.23-1.47,6.51-4.02,1.81-3.61.37-8.02-3.22-9.84l-29.89-15.17c-2.72-1.38-4.4-4.13-4.4-7.19v-46.98l122.82,62.33v52.23h.53Zm7.32-64.65l-121.83-61.53,114.93-57.83v12.43c-.42,4.04,2.86,7.32,6.91,7.32s7.32-3.28,7.27-7.32v-12.43l114.56,57.83-121.83,61.53Zm130.09,65.81c.66,3.06-1.04,5.82-3.77,7.19l-40.78,20.59c-3.61,1.82-5.06,6.23-3.23,9.84,1.29,2.55,3.87,4.02,6.54,4.02,1.11,0,2.24-.25,3.3-.79l38.88-19.5v47.01c0,3.07-1.7,5.83-4.44,7.22l-119.33,60.27v-52.15l55.59-28.05c3.61-1.82,5.06-6.23,3.23-9.84-1.82-3.61-6.23-5.06-9.84-3.23l-48.04,24.71v-52.45l121.88-61.55v46.71Zm.95-68.49c0,3.07-1.7,5.83-4.44,7.21l-119.33,60.27v-52.08l123.77-62.51v47.11Z"/><path class="cls-1" d="m292.91,250.24v18.24c0,3.9,3.01,7.32,6.91,7.41,4,.1,7.27-3.11,7.27-7.09v-18.9c0-3.97-3.27-7.18-7.27-7.08-3.9.1-6.91,3.51-6.91,7.41Z"/><path class="cls-1" d="m395,140.7h2.78v34.35c0,3.5,2.35,6.65,5.76,7.41,4.96,1.1,9.36-2.51,9.36-7.12v-34.64h2.87c7.81,0,14.14-6.33,14.14-14.14v-20.85c0-7.81-6.33-14.14-14.14-14.14h-20.86c-7.81,0-14.14,6.33-14.14,14.14v20.77c0,7.85,6.38,14.23,14.22,14.23h0Zm-.05-34.01h19.84v19.84h-19.84v-19.84Z"/><path class="cls-1" d="m504.1,155.82h-11.87c-7.81,0-14.14,6.33-14.14,14.14v11.76c0,7.31,5.81,13.34,13.23,14.07v38.54c0,3.9,3.01,7.32,6.91,7.41s7.27-3.11,7.27-7.09v-38.87c6.89-.72,12.28-6.76,12.28-14.07v-11.76c0-7.79-6.13-14.14-13.67-14.14h0Zm-.5,24.56h-10.39v-10.39h10.39v10.39Z"/><path class="cls-1" d="m498.41,255.59c-3.92,0-7.09,3.28-7.09,7.32v124.34c0,4.04,3.17,7.32,7.08,7.32s7.09-3.28,7.09-7.32v-124.34c0-4.04-3.17-7.32-7.08-7.32h0Z"/><path class="cls-1" d="m490.38,421.11v20.14c0,3.23,2.01,6.2,5.09,7.17,5.22,1.66,10.03-2.19,10.03-7.16v-20.16c0-4.98-4.82-8.84-10.04-7.16-3.07.98-5.08,3.95-5.08,7.17Z"/><path class="cls-1" d="m184.32,140.7h2.78v34.41c0,3.25,2.04,6.26,5.16,7.19,5.19,1.55,9.96-2.17,9.96-6.96v-34.64h2.87c7.81,0,14.14-6.33,14.14-14.14v-20.86c0-7.81-6.33-14.14-14.14-14.14h-20.86c-7.81,0-14.14,6.33-14.14,14.14v20.77c0,7.85,6.38,14.23,14.23,14.23h0Zm-.05-34.01h19.84v19.84h-19.84v-19.84Z"/><path class="cls-1" d="m194.65,192.94c-4.17,0-7.56,3.39-7.56,7.56v12.15c0,3.23,2.01,6.19,5.09,7.17,5.22,1.66,10.03-2.19,10.03-7.16v-12.16c0-4.17-3.39-7.56-7.56-7.56h0Z"/><path class="cls-1" d="m107.29,155.82h-10.93c-7.81,0-14.14,6.33-14.14,14.14v11.76c0,7.31,5.39,13.34,12.28,14.07v38.54c0,3.9,3.01,7.32,6.91,7.41s7.27-3.11,7.27-7.09v-38.87c6.89-.72,12.28-6.76,12.28-14.07v-11.76c0-7.79-6.13-14.14-13.67-14.14h0Zm-.5,24.56h-10.39v-10.39h10.39v10.39Z"/><path class="cls-1" d="m101.6,255.59c-3.92,0-7.09,3.28-7.09,7.32v124.24c0,3.65,2.61,6.94,6.23,7.37,4.3.52,7.94-2.94,7.94-7.27v-124.34c0-4.04-3.17-7.32-7.08-7.32h0Z"/></svg>