<?xml version="1.0" encoding="UTF-8"?>
<svg width="700pt" height="700pt" version="1.1" viewBox="0 0 700 700" xmlns="http://www.w3.org/2000/svg" xmlns:xlink="http://www.w3.org/1999/xlink">
 <defs>
  <symbol id="s" overflow="visible">
   <path d="m3.6562-0.21875c-0.1875 0.09375-0.38672 0.16797-0.59375 0.21875-0.19922 0.050781-0.40625 0.078125-0.625 0.078125-0.66797 0-1.1992-0.17969-1.5938-0.54688-0.38672-0.375-0.57812-0.87891-0.57812-1.5156 0-0.64453 0.19141-1.1484 0.57812-1.5156 0.39453-0.375 0.92578-0.5625 1.5938-0.5625 0.21875 0 0.42578 0.027344 0.625 0.078125 0.20703 0.054687 0.40625 0.125 0.59375 0.21875v0.82812c-0.1875-0.125-0.375-0.21875-0.5625-0.28125-0.17969-0.0625-0.37109-0.09375-0.57812-0.09375-0.36719 0-0.65625 0.12109-0.875 0.35938-0.21094 0.23047-0.3125 0.55469-0.3125 0.96875 0 0.40625 0.10156 0.73047 0.3125 0.96875 0.21875 0.23047 0.50781 0.34375 0.875 0.34375 0.20703 0 0.39844-0.023437 0.57812-0.078125 0.1875-0.0625 0.375-0.16016 0.5625-0.29688z"/>
  </symbol>
  <symbol id="b" overflow="visible">
   <path d="m2.6875-2.1719c-0.085938-0.039063-0.16797-0.070313-0.25-0.09375-0.085938-0.019531-0.16797-0.03125-0.25-0.03125-0.25 0-0.44531 0.085937-0.57812 0.25-0.125 0.15625-0.1875 0.38281-0.1875 0.67188v1.375h-0.96875v-2.9844h0.96875v0.48438c0.11328-0.19531 0.25-0.33594 0.40625-0.42188 0.16406-0.09375 0.35938-0.14062 0.57812-0.14062h0.10938c0.039063 0 0.09375 0.007812 0.15625 0.015625z"/>
  </symbol>
  <symbol id="a" overflow="visible">
   <path d="m3.4375-1.5v0.26562h-2.2344c0.03125 0.23047 0.11328 0.40234 0.25 0.51562 0.13281 0.10547 0.32812 0.15625 0.57812 0.15625 0.20703 0 0.41406-0.023438 0.625-0.078125 0.20703-0.0625 0.42188-0.15625 0.64062-0.28125v0.73438c-0.21875 0.09375-0.44531 0.16406-0.67188 0.20312-0.23047 0.039062-0.45312 0.0625-0.67188 0.0625-0.54297 0-0.96484-0.13281-1.2656-0.40625-0.30469-0.28125-0.45312-0.67188-0.45312-1.1719 0-0.47656 0.14453-0.85938 0.4375-1.1406 0.30078-0.28125 0.70703-0.42188 1.2188-0.42188 0.46875 0 0.84375 0.14062 1.125 0.42188s0.42188 0.66406 0.42188 1.1406zm-0.96875-0.32812c0-0.17578-0.058594-0.31641-0.17188-0.42188-0.10547-0.11328-0.24219-0.17188-0.40625-0.17188-0.1875 0-0.33984 0.054687-0.45312 0.15625-0.11719 0.10547-0.1875 0.25-0.21875 0.4375z"/>
  </symbol>
  <symbol id="e" overflow="visible">
   <path d="m1.7969-1.3438c-0.19922 0-0.35156 0.039062-0.45312 0.10938-0.09375 0.0625-0.14062 0.16406-0.14062 0.29688 0 0.11719 0.035156 0.21094 0.10938 0.28125 0.082031 0.0625 0.19531 0.09375 0.34375 0.09375 0.17578 0 0.32812-0.0625 0.45312-0.1875s0.1875-0.28516 0.1875-0.48438v-0.10938zm1.4688-0.35938v1.7031h-0.96875v-0.4375c-0.125 0.17969-0.27344 0.30859-0.4375 0.39062-0.15625 0.082031-0.35156 0.125-0.57812 0.125-0.3125 0-0.57031-0.085938-0.76562-0.26562-0.1875-0.1875-0.28125-0.42188-0.28125-0.70312 0-0.35156 0.11719-0.61328 0.35938-0.78125 0.23828-0.16406 0.61719-0.25 1.1406-0.25h0.5625v-0.0625c0-0.15625-0.0625-0.26562-0.1875-0.32812-0.11719-0.070312-0.29688-0.10938-0.54688-0.10938-0.21094 0-0.40234 0.023437-0.57812 0.0625-0.17969 0.042969-0.33984 0.10156-0.48438 0.17188v-0.71875c0.19531-0.050781 0.39844-0.085938 0.60938-0.10938 0.20703-0.03125 0.41406-0.046875 0.625-0.046875 0.53906 0 0.92969 0.10938 1.1719 0.32812 0.23828 0.21094 0.35938 0.55469 0.35938 1.0312z"/>
  </symbol>
  <symbol id="c" overflow="visible">
   <path d="m1.5-3.8438v0.85938h0.98438v0.67188h-0.98438v1.2812c0 0.13672 0.023438 0.23047 0.078125 0.28125 0.0625 0.042969 0.17578 0.0625 0.34375 0.0625h0.48438v0.6875h-0.8125c-0.38672 0-0.65625-0.078125-0.8125-0.23438s-0.23438-0.42188-0.23438-0.79688v-1.2812h-0.46875v-0.67188h0.46875v-0.85938z"/>
  </symbol>
  <symbol id="k" overflow="visible">
   <path d="m2.5-2.5469v-1.6094h0.95312v4.1562h-0.95312v-0.4375c-0.13672 0.17969-0.28125 0.30859-0.4375 0.39062-0.15625 0.082031-0.33984 0.125-0.54688 0.125-0.375 0-0.68359-0.14453-0.92188-0.4375-0.23047-0.28906-0.34375-0.67188-0.34375-1.1406 0-0.45703 0.11328-0.83203 0.34375-1.125 0.23828-0.28906 0.54688-0.4375 0.92188-0.4375 0.19531 0 0.375 0.042969 0.53125 0.125 0.16406 0.085938 0.31641 0.21484 0.45312 0.39062zm-0.64062 1.9375c0.20703 0 0.36328-0.070313 0.46875-0.21875 0.11328-0.15625 0.17188-0.37891 0.17188-0.67188 0-0.28125-0.058594-0.49219-0.17188-0.64062-0.10547-0.15625-0.26172-0.23438-0.46875-0.23438-0.19922 0-0.35547 0.078125-0.46875 0.23438-0.10547 0.14844-0.15625 0.35938-0.15625 0.64062 0 0.29297 0.050781 0.51562 0.15625 0.67188 0.11328 0.14844 0.26953 0.21875 0.46875 0.21875z"/>
  </symbol>
  <symbol id="j" overflow="visible">
   <path d="m2.0469-0.60938c0.20703 0 0.36328-0.070313 0.46875-0.21875 0.11328-0.15625 0.17188-0.37891 0.17188-0.67188 0-0.28125-0.058594-0.49219-0.17188-0.64062-0.10547-0.15625-0.26172-0.23438-0.46875-0.23438-0.19922 0-0.35547 0.078125-0.46875 0.23438-0.10547 0.14844-0.15625 0.35938-0.15625 0.64062 0 0.29297 0.050781 0.51562 0.15625 0.67188 0.11328 0.14844 0.26953 0.21875 0.46875 0.21875zm-0.625-1.9375c0.125-0.17578 0.26562-0.30469 0.42188-0.39062 0.16406-0.082031 0.35156-0.125 0.5625-0.125 0.36328 0 0.66406 0.14844 0.90625 0.4375 0.23828 0.29297 0.35938 0.66797 0.35938 1.125 0 0.46875-0.12109 0.85156-0.35938 1.1406-0.24219 0.29297-0.54297 0.4375-0.90625 0.4375-0.21094 0-0.39844-0.042969-0.5625-0.125-0.15625-0.082031-0.29688-0.21094-0.42188-0.39062v0.4375h-0.96875v-4.1562h0.96875z"/>
  </symbol>
  <symbol id="i" overflow="visible">
   <path d="m0.0625-2.9844h0.95312l0.8125 2.0156 0.6875-2.0156h0.95312l-1.2656 3.2656c-0.125 0.33203-0.27344 0.56641-0.4375 0.70312-0.16797 0.13281-0.39062 0.20312-0.67188 0.20312h-0.54688v-0.64062h0.29688c0.16406 0 0.28516-0.027344 0.35938-0.078125 0.070313-0.054688 0.12891-0.14062 0.17188-0.26562l0.03125-0.09375z"/>
  </symbol>
  <symbol id="h" overflow="visible">
   <path d="m2.9219-0.71875h-1.6094l-0.25 0.71875h-1.0312l1.4688-3.9844h1.2344l1.4688 3.9844h-1.0312zm-1.3594-0.75h1.0938l-0.53125-1.5781z"/>
  </symbol>
  <symbol id="g" overflow="visible">
   <path d="m0.45312-2.9844h0.96875v2.9375c0 0.39453-0.10156 0.69531-0.29688 0.90625-0.1875 0.21875-0.46484 0.32812-0.82812 0.32812h-0.48438v-0.64062h0.17188c0.17578 0 0.29688-0.042969 0.35938-0.125 0.070312-0.074219 0.10938-0.23047 0.10938-0.46875zm0-1.1719h0.96875v0.78125h-0.96875z"/>
  </symbol>
  <symbol id="f" overflow="visible">
   <path d="m3.4688-1.8281v1.8281h-0.96875v-1.3906c0-0.25781-0.007812-0.4375-0.015625-0.53125-0.011719-0.10156-0.03125-0.17578-0.0625-0.21875-0.03125-0.0625-0.085937-0.10938-0.15625-0.14062-0.0625-0.039062-0.13281-0.0625-0.20312-0.0625-0.21094 0-0.37109 0.078125-0.48438 0.23438-0.10547 0.15625-0.15625 0.37109-0.15625 0.64062v1.4688h-0.96875v-2.9844h0.96875v0.4375c0.13281-0.17578 0.28516-0.30469 0.45312-0.39062 0.16406-0.082031 0.34375-0.125 0.53125-0.125 0.34375 0 0.60156 0.10938 0.78125 0.32812 0.1875 0.21094 0.28125 0.51172 0.28125 0.90625z"/>
  </symbol>
  <symbol id="r" overflow="visible">
   <path d="m2.4219-4.1562v0.625h-0.51562c-0.13672 0-0.23438 0.027344-0.29688 0.078125-0.054687 0.054687-0.078125 0.13672-0.078125 0.25v0.21875h0.82812v0.67188h-0.82812v2.3125h-0.95312v-2.3125h-0.46875v-0.67188h0.46875v-0.21875c0-0.32031 0.085937-0.5625 0.26562-0.71875 0.1875-0.15625 0.47266-0.23438 0.85938-0.23438z"/>
  </symbol>
  <symbol id="d" overflow="visible">
   <path d="m1.875-2.375c-0.21094 0-0.37109 0.078125-0.48438 0.23438-0.10547 0.14844-0.15625 0.35938-0.15625 0.64062 0 0.29297 0.050781 0.51562 0.15625 0.67188 0.11328 0.14844 0.27344 0.21875 0.48438 0.21875 0.20703 0 0.36719-0.070313 0.48438-0.21875 0.11328-0.15625 0.17188-0.37891 0.17188-0.67188 0-0.28125-0.058594-0.49219-0.17188-0.64062-0.11719-0.15625-0.27734-0.23438-0.48438-0.23438zm0-0.6875c0.51953 0 0.92188 0.14062 1.2031 0.42188 0.28906 0.27344 0.4375 0.65234 0.4375 1.1406 0 0.5-0.14844 0.89062-0.4375 1.1719-0.28125 0.27344-0.68359 0.40625-1.2031 0.40625-0.51172 0-0.91406-0.13281-1.2031-0.40625-0.29297-0.28125-0.4375-0.67188-0.4375-1.1719 0-0.48828 0.14453-0.86719 0.4375-1.1406 0.28906-0.28125 0.69141-0.42188 1.2031-0.42188z"/>
  </symbol>
  <symbol id="q" overflow="visible">
   <path d="m3.2344-2.5c0.11328-0.17578 0.25391-0.3125 0.42188-0.40625 0.16406-0.10156 0.35156-0.15625 0.5625-0.15625 0.33203 0 0.58594 0.10938 0.76562 0.32812 0.1875 0.21094 0.28125 0.51172 0.28125 0.90625v1.8281h-0.96875v-1.5625c0.007813-0.019531 0.015625-0.039062 0.015625-0.0625v-0.10938c0-0.21875-0.03125-0.375-0.09375-0.46875s-0.16406-0.14062-0.29688-0.14062c-0.1875 0-0.33594 0.078125-0.4375 0.23438-0.09375 0.14844-0.14062 0.35938-0.14062 0.64062v1.4688h-0.96875v-1.5625c0-0.33203-0.03125-0.54688-0.09375-0.64062-0.054688-0.09375-0.15234-0.14062-0.29688-0.14062-0.17969 0-0.32031 0.078125-0.42188 0.23438-0.09375 0.14844-0.14062 0.35938-0.14062 0.64062v1.4688h-0.96875v-2.9844h0.96875v0.4375c0.11328-0.17578 0.24219-0.30469 0.39062-0.39062 0.15625-0.082031 0.32812-0.125 0.51562-0.125 0.20703 0 0.39062 0.054688 0.54688 0.15625 0.15625 0.09375 0.27344 0.23047 0.35938 0.40625z"/>
  </symbol>
  <symbol id="p" overflow="visible">
   <path d="m3.4688-1.8281v1.8281h-0.96875v-1.3906c0-0.25781-0.007812-0.4375-0.015625-0.53125-0.011719-0.10156-0.03125-0.17578-0.0625-0.21875-0.03125-0.0625-0.085937-0.10938-0.15625-0.14062-0.0625-0.039062-0.13281-0.0625-0.20312-0.0625-0.21094 0-0.37109 0.078125-0.48438 0.23438-0.10547 0.15625-0.15625 0.37109-0.15625 0.64062v1.4688h-0.96875v-4.1562h0.96875v1.6094c0.13281-0.17578 0.28516-0.30469 0.45312-0.39062 0.16406-0.082031 0.34375-0.125 0.53125-0.125 0.34375 0 0.60156 0.10938 0.78125 0.32812 0.1875 0.21094 0.28125 0.51172 0.28125 0.90625z"/>
  </symbol>
  <symbol id="o" overflow="visible">
   <path d="m0.5-3.9844h1.1562l1.4375 2.7344v-2.7344h0.98438v3.9844h-1.1562l-1.4375-2.7344v2.7344h-0.98438z"/>
  </symbol>
  <symbol id="n" overflow="visible">
   <path d="m0.42188-1.1719v-1.8125h0.96875v0.29688 0.60938 0.48438c0 0.24219 0.003906 0.41797 0.015625 0.53125 0.007812 0.10547 0.03125 0.17969 0.0625 0.21875 0.039062 0.0625 0.09375 0.11719 0.15625 0.15625 0.0625 0.03125 0.13281 0.046875 0.21875 0.046875 0.19531 0 0.35156-0.078125 0.46875-0.23438 0.11328-0.15625 0.17188-0.36719 0.17188-0.64062v-1.4688h0.95312v2.9844h-0.95312v-0.4375c-0.14844 0.17969-0.30469 0.30859-0.46875 0.39062-0.15625 0.082031-0.33594 0.125-0.53125 0.125-0.34375 0-0.60938-0.10156-0.79688-0.3125-0.17969-0.21875-0.26562-0.53125-0.26562-0.9375z"/>
  </symbol>
  <symbol id="m" overflow="visible">
   <path d="m0.5-3.9844h1.7031c0.50781 0 0.89844 0.11719 1.1719 0.34375 0.26953 0.21875 0.40625 0.53906 0.40625 0.95312 0 0.41797-0.13672 0.74219-0.40625 0.96875-0.27344 0.21875-0.66406 0.32812-1.1719 0.32812h-0.67188v1.3906h-1.0312zm1.0312 0.75v1.1094h0.5625c0.19531 0 0.34766-0.046875 0.45312-0.14062 0.11328-0.10156 0.17188-0.24219 0.17188-0.42188 0-0.17578-0.058594-0.3125-0.17188-0.40625-0.10547-0.09375-0.25781-0.14062-0.45312-0.14062z"/>
  </symbol>
  <symbol id="l" overflow="visible">
   <path d="m2.875-2.8906v0.76562c-0.125-0.082031-0.25781-0.14453-0.39062-0.1875-0.13672-0.039062-0.27344-0.0625-0.40625-0.0625-0.27344 0-0.48047 0.078125-0.625 0.23438-0.14844 0.15625-0.21875 0.37109-0.21875 0.64062 0 0.28125 0.070313 0.5 0.21875 0.65625 0.14453 0.15625 0.35156 0.23438 0.625 0.23438 0.14453 0 0.28516-0.019531 0.42188-0.0625 0.13281-0.039063 0.25781-0.10938 0.375-0.20312v0.78125c-0.14844 0.0625-0.29688 0.10156-0.45312 0.125-0.15625 0.03125-0.3125 0.046875-0.46875 0.046875-0.54297 0-0.96484-0.13281-1.2656-0.40625-0.30469-0.28125-0.45312-0.67188-0.45312-1.1719 0-0.48828 0.14844-0.86719 0.45312-1.1406 0.30078-0.28125 0.72266-0.42188 1.2656-0.42188 0.15625 0 0.3125 0.015625 0.46875 0.046875 0.15625 0.023437 0.30469 0.0625 0.45312 0.125z"/>
  </symbol>
 </defs>
 <g>
  <path d="m406.02 195.86c0 5.1523 4.1719 9.3359 9.3359 9.3359h93.371c5.1641 0 9.3359-4.1836 9.3359-9.3359 0-5.1523-4.1719-9.3359-9.3359-9.3359h-93.371c-5.1641 0-9.3359 4.1836-9.3359 9.3359z"/>
  <path d="m462.05 251.89c0 5.1523 4.1719 9.3359 9.3359 9.3359h56.023c5.1641 0 9.3359-4.1836 9.3359-9.3359 0-5.1523-4.1719-9.3359-9.3359-9.3359h-56.023c-5.1641-0.003906-9.3359 4.1797-9.3359 9.3359z"/>
  <path d="m452.71 149.18c5.1641 0 9.3359-4.1836 9.3359-9.3359s-4.1719-9.3359-9.3359-9.3359h-18.676c-5.1641 0-9.3359 4.1836-9.3359 9.3359s4.1719 9.3359 9.3359 9.3359z"/>
  <path d="m340.66 242.55c-5.1641 0-9.3359 4.1836-9.3359 9.3359 0 5.1523 4.1719 9.3359 9.3359 9.3359h93.371c5.1641 0 9.3359-4.1836 9.3359-9.3359 0-5.1523-4.1719-9.3359-9.3359-9.3359z"/>
  <path d="m387.35 503.99h-177.4c-15.445 0-28.012-12.566-28.012-28.012v-429.51c0-5.1523-4.1719-9.3359-9.3359-9.3359-25.742 0-46.688 20.941-46.688 46.688 0 5.1523 4.1719 9.3359 9.3359 9.3359 5.1641 0 9.3359-4.1836 9.3359-9.3359 0-12.176 7.8047-22.559 18.676-26.414v418.57c0 25.742 20.941 46.688 46.688 46.688h177.4c5.1641 0 9.3359-4.1836 9.3359-9.3359 0-5.1562-4.1719-9.3398-9.3359-9.3398z"/>
  <path d="m247.29 205.2h130.72c5.1641 0 9.3359-4.1836 9.3359-9.3359 0-5.1523-4.1719-9.3359-9.3359-9.3359h-130.72c-5.1641 0-9.3359 4.1836-9.3359 9.3359 0 5.1562 4.1719 9.3359 9.3359 9.3359z"/>
  <path d="m247.29 149.18h37.348c5.1641 0 9.3359-4.1836 9.3359-9.3359s-4.1719-9.3359-9.3359-9.3359h-37.348c-5.1641 0-9.3359 4.1836-9.3359 9.3359s4.1719 9.3359 9.3359 9.3359z"/>
  <path d="m396.68 130.5h-74.695c-5.1641 0-9.3359 4.1836-9.3359 9.3359s4.1719 9.3359 9.3359 9.3359h74.695c5.1641 0 9.3359-4.1836 9.3359-9.3359 0.003907-5.1523-4.1719-9.3359-9.3359-9.3359z"/>
  <path d="m527.41 0h-354.81c-46.227 0-83.855 37.523-84.035 83.707v0.21484l0.003906 0.11328v0.11328c0.12109 29.777 16.191 57.516 42.008 72.457 4.4648 2.5781 10.168 1.0547 12.754-3.3984 2.5938-4.4648 1.0547-10.176-3.3984-12.754-20.133-11.668-32.652-33.309-32.691-56.531 0.066406-35.984 29.355-65.246 65.359-65.246h354.81c36.031 0 65.359 29.32 65.359 65.359v392.16c0 4.7344-1.3242 9.4883-3.8203 13.727-2.6055 4.4453-1.1289 10.168 3.3125 12.781 1.4922 0.87891 3.1172 1.2891 4.7266 1.2891 3.2031 0 6.3203-1.6445 8.0586-4.6016 4.1836-7.1055 6.3945-15.125 6.3945-23.195l0.003906-392.16c0-46.34-37.691-84.035-84.031-84.035z"/>
  <path d="m555.41 429.29c0-30.898-25.125-56.023-56.023-56.023s-56.023 25.125-56.023 56.023c0 30.898 25.125 56.023 56.023 56.023s56.023-25.125 56.023-56.023zm-56.02 37.348c-20.598 0-37.348-16.75-37.348-37.348 0-20.598 16.75-37.348 37.348-37.348 20.598 0 37.348 16.75 37.348 37.348 0 20.598-16.75 37.348-37.348 37.348z"/>
  <path d="m482.54 494.66c-4.4531-2.5781-10.168-1.0469-12.754 3.418l-20.102 34.836-3.1914-4.8164c-1.6133-2.457-4.293-4.0039-7.2266-4.1719l-5.7695-0.34766 20.438-35.387c2.5781-4.4648 1.0469-10.176-3.418-12.754-4.4648-2.5859-10.176-1.0547-12.766 3.418l-27.984 48.469c-1.6133 2.8008-1.6602 6.2461-0.13281 9.0938 1.5312 2.8477 4.4258 4.707 7.6641 4.8906l16.18 0.96875 8.9336 13.531c1.7266 2.625 4.6602 4.1914 7.7891 4.1914h0.28906c3.2227-0.10156 6.1797-1.8672 7.8047-4.668l27.664-47.918c2.5859-4.4609 1.0547-10.18-3.418-12.754z"/>
  <path d="m561.28 479.29c-2.5859-4.4727-8.3086-6.0039-12.754-3.418-4.4727 2.5781-6.0039 8.293-3.4258 12.754l20.195 34.949-5.7695 0.34766c-2.9297 0.17578-5.6094 1.7266-7.2344 4.1719l-3.1758 4.8164-20-34.66c-2.5938-4.4648-8.3086-5.9922-12.766-3.418-4.4648 2.5781-5.9922 8.293-3.418 12.754l27.562 47.742c1.625 2.8008 4.5859 4.5664 7.8047 4.668h0.28906c3.1172 0 6.0586-1.5703 7.7969-4.1914l8.9258-13.52 16.172-0.98047c3.2383-0.1875 6.1328-2.0469 7.6641-4.8906 1.5312-2.8477 1.4766-6.293-0.12891-9.0938z"/>
  <path d="m247.29 261.22h56.023c5.1641 0 9.3359-4.1836 9.3359-9.3359 0-5.1523-4.1719-9.3359-9.3359-9.3359h-56.023c-5.1641 0-9.3359 4.1836-9.3359 9.3359 0 5.1523 4.1719 9.3359 9.3359 9.3359z"/>
  <path d="m247.29 317.25h112.04c5.1641 0 9.3359-4.1836 9.3359-9.3359s-4.1719-9.3359-9.3359-9.3359h-112.04c-5.1641 0-9.3359 4.1836-9.3359 9.3359s4.1719 9.3359 9.3359 9.3359z"/>
  <path d="m248.28 433.46c2.2969 4.6133 7.9102 6.4805 12.52 4.1836 4.6133-2.3047 6.4883-7.918 4.1719-12.531-9.2422-18.488-11.316-35.07-5.5664-44.379 3.0625-4.957 8.4023-7.4688 15.891-7.4688 4.4531 0 6.1172 1.5312 7.1602 3.0273 6.957 10.027 0.34766 40.57-6.5742 59.055-1.5391 4.1172 0 8.75 3.6953 11.129 3.6797 2.3633 8.543 1.8477 11.652-1.25 3.9883-3.9766 8.3086-7.9453 12.074-11.168v4.5664c0 3.7734 2.2695 7.1797 5.7617 8.6172 3.4922 1.457 7.4961 0.65234 10.176-2.0156 4.2656-4.2578 9.2148-8.4336 13.379-11.438-0.11328 0.23438-0.22266 0.45703-0.33594 0.67188-1.4297 2.8945-1.2695 6.332 0.42969 9.0742 1.7109 2.7461 4.707 4.4258 7.9375 4.4258h37.348c5.1641 0 9.3359-4.1836 9.3359-9.3359s-4.1719-9.3359-9.3359-9.3359h-24.305c0.75781-4.4453 0.57031-8.9648-1.6797-12.605-2.3828-3.8555-6.5273-6.0703-11.363-6.0703-5.7695 0-12.559 3.5117-18.758 7.8633-0.47656-4.0703-2.8867-7.4219-6.5469-8.9336-2.4922-1.0273-5.707-2.3711-13.5 2.3047 3.0703-16.086 3.9688-34.633-4.043-46.191-3.5-5.0508-10.242-11.062-22.512-11.062-13.988 0-25.277 5.7969-31.781 16.332-9.3008 15.066-7.5742 37.855 4.7695 62.535z"/>
  <path d="m499.39 307.91c0-5.1523-4.1719-9.3359-9.3359-9.3359h-93.371c-5.1641 0-9.3359 4.1836-9.3359 9.3359s4.1719 9.3359 9.3359 9.3359h93.371c5.1602 0 9.3359-4.1836 9.3359-9.3359z"/>
 </g>
</svg>
