<?xml version="1.0" encoding="UTF-8"?><svg id="Layer_1" xmlns="http://www.w3.org/2000/svg" viewBox="0 0 600 600"><defs><style>.cls-1{fill:#fff;}</style></defs><g><g><path d="m239.19,143.54c-6.94,0-13.17-4.36-15.86-11.1-3.38-9.02.89-18.56,9.92-22.18,2.06-.77,4.18-1.17,6.28-1.17,6.94,0,13.17,4.36,15.86,11.1,3.38,9.02-.89,18.56-9.92,22.18-2.06.77-4.18,1.17-6.28,1.17h0Z"/><path class="cls-1" d="m239.54,109.59c6.74,0,12.78,4.23,15.39,10.77,3.28,8.77-.86,18.04-9.61,21.54-2.01.76-4.07,1.14-6.12,1.14-6.74,0-12.78-4.23-15.39-10.77-3.28-8.77.86-18.04,9.61-21.54,2.01-.76,4.07-1.14,6.12-1.14m0-1c-2.11,0-4.29.38-6.47,1.2-9,3.6-13.8,13.22-10.2,22.83,2.78,6.96,9.15,11.42,16.32,11.42,2.11,0,4.29-.38,6.47-1.2,9-3.6,13.8-13.22,10.2-22.83-2.78-6.96-9.15-11.42-16.32-11.42h0Z"/></g><g><path d="m495.93,362.83c-6.94,0-13.17-4.36-15.86-11.1-3.38-9.02.89-18.56,9.92-22.18,1.94-.78,3.97-1.17,6.04-1.17,6.98,0,13.45,4.46,16.1,11.1,3.38,9.02-.89,18.56-9.92,22.18-2.06.77-4.18,1.17-6.28,1.17h0Z"/><path class="cls-1" d="m496.03,328.88c6.78,0,13.06,4.34,15.63,10.77,3.28,8.77-.86,18.04-9.61,21.54-2.01.76-4.07,1.14-6.12,1.14-6.74,0-12.78-4.23-15.39-10.77-3.28-8.77.86-18.04,9.63-21.55,1.88-.75,3.85-1.13,5.86-1.13m0-1c-2.08,0-4.19.39-6.23,1.21h0c-9,3.6-13.8,13.22-10.2,22.83,2.78,6.96,9.15,11.42,16.32,11.42,2.11,0,4.29-.38,6.47-1.2,9-3.6,13.8-13.22,10.2-22.83-2.78-6.96-9.5-11.42-16.56-11.42h0Z"/></g><g><path d="m191.21,475.18c-6.94,0-13.17-4.36-15.86-11.1-3.38-9.02.89-18.56,9.92-22.18,1.93-.77,3.97-1.17,6.04-1.17,6.98,0,13.45,4.46,16.1,11.1,3.38,9.02-.88,18.56-9.92,22.18-2.06.77-4.18,1.17-6.28,1.17h0Z"/><path class="cls-1" d="m191.31,441.23c6.78,0,13.06,4.33,15.63,10.77,3.28,8.77-.86,18.04-9.61,21.54-2.01.76-4.07,1.14-6.12,1.14-6.74,0-12.78-4.23-15.39-10.77-3.28-8.77.86-18.04,9.63-21.55,1.88-.75,3.85-1.13,5.86-1.13m0-1c-2.08,0-4.18.38-6.23,1.2-9,3.6-13.8,13.22-10.2,22.83,2.78,6.96,9.15,11.42,16.32,11.42,2.11,0,4.29-.38,6.47-1.2,9-3.6,13.8-13.22,10.2-22.83-2.78-6.96-9.5-11.42-16.57-11.42h0Z"/></g><g><path d="m101.83,296.74c-6.94,0-13.17-4.36-15.86-11.1-3.38-9.02.89-18.56,9.92-22.18,1.83-.61,3.77-.93,5.73-.93,7.33,0,13.77,4.26,16.41,10.86,3.38,9.02-.89,18.56-9.92,22.18-2.06.77-4.18,1.17-6.28,1.17h0Z"/><path class="cls-1" d="m101.63,263.03c7.12,0,13.38,4.14,15.94,10.53,3.28,8.77-.86,18.04-9.61,21.54-2.01.76-4.07,1.14-6.12,1.14-6.74,0-12.78-4.23-15.39-10.77-3.28-8.76.85-18.02,9.6-21.54,1.8-.6,3.68-.9,5.58-.9m0-1c-1.98,0-3.98.31-5.92.96-9,3.6-13.8,13.22-10.2,22.83,2.78,6.96,9.15,11.42,16.32,11.42,2.11,0,4.29-.38,6.47-1.2,9-3.6,13.8-13.22,10.2-22.83-2.82-7.06-9.7-11.18-16.87-11.18h0Z"/></g><g><path d="m478.61,274.29c-9.46,0-18.23-6.19-21.33-15.06-4.13-11.8,1.81-24.72,13.51-29.41,2.46-.86,5.04-1.3,7.64-1.3,9.58,0,18.1,5.83,21.7,14.84,4.12,11.78-1.81,24.7-13.52,29.39-2.56,1.02-5.25,1.54-8,1.54h0Z"/><path class="cls-1" d="m478.43,229.01c9.38,0,17.71,5.7,21.22,14.49,4.04,11.55-1.77,24.19-13.22,28.78-2.5,1-5.13,1.51-7.82,1.51-9.25,0-17.82-6.06-20.86-14.73-4.04-11.55,1.77-24.19,13.18-28.77,2.43-.85,4.95-1.28,7.49-1.28m0-1c-2.6,0-5.24.43-7.83,1.34-12,4.81-18,18.03-13.8,30.04,3.26,9.33,12.31,15.4,21.8,15.4,2.74,0,5.51-.5,8.19-1.58,12-4.81,18-18.03,13.8-30.04-3.77-9.43-12.7-15.16-22.17-15.16h0Z"/></g><g><path d="m273.83,549.21c-9.58,0-18.1-5.83-21.7-14.84-4.12-11.78,1.81-24.7,13.52-29.39,2.17-.73,4.35-1.17,5.81-1.17h.42l22.94-138.45-.45-.11c-4.91-1.23-10.23-3.67-14.23-6.53l-.38-.27-37.12,45.71.2.31c1.16,1.74,2.36,3.54,2.94,5.29,4.17,11.92-2.01,25.38-13.49,29.41-2.48.87-5.06,1.31-7.66,1.31-9.58,0-18.1-5.83-21.7-14.84-4.12-11.78,1.81-24.7,13.52-29.39,2.47-.99,5.13-1.49,7.9-1.49,3.28,0,6.64.72,9.71,2.09l.35.15,37.12-45.1-.32-.32c-4.99-4.99-8.65-10.69-11.89-18.46-2.95-7.1-4.15-14.29-3.56-21.4l.04-.46-44.65-7.35-.14.39c-4.82,13.41-17.46,22.42-31.43,22.42-1.93,0-3.88-.17-5.8-.52-18.32-2.96-30.78-20.49-27.79-39.08,2.6-16.11,17.04-28.26,33.6-28.26,1.81,0,3.63.15,5.42.44,16.44,2.94,28.37,16.88,28.37,33.15v.42l44.67,7.35.1-.46c1.05-4.72,3.06-9.3,6.53-14.86l.23-.37L109.53,156.03l-.31.21c-1.75,1.17-3.54,2.37-5.28,2.95-2.49.87-5.06,1.31-7.67,1.31-9.58,0-18.1-5.83-21.7-14.84-4.16-11.89,2.02-25.36,13.5-29.38,2.48-.87,5.06-1.31,7.66-1.31,9.58,0,18.1,5.83,21.7,14.84,2.18,5.45,1.96,11.88-.59,17.64l-.15.35,154.8,129.11.32-.32c4.06-4.07,8.21-7.09,13.07-9.52l.4-.2-9.28-25.42-.39.05c-.84.1-1.69.15-2.53.15-9.39,0-17.8-5.96-20.93-14.84-4.13-11.8,1.81-24.72,13.51-29.41,2.46-.86,5.04-1.3,7.64-1.3,9.58,0,18.1,5.83,21.7,14.84,3.46,9.81.15,20.45-8.22,26.44l-.31.22,9.29,25.45.46-.15c5.32-1.78,10.77-1.78,16.04-1.78h.42l30.12-178.62-.33-.17c-2.69-1.35-6.19-3.95-7.54-8.7-3.39-9.07.87-18.61,9.9-22.23,2.06-.77,4.18-1.17,6.29-1.17,6.94,0,13.17,4.36,15.86,11.1,3.37,8.99-.86,18.5-9.83,22.15-.63.02-1.12.18-1.56.32-.42.14-.82.27-1.34.27h-.42l-30.14,178.72.46.1c4.71,1.05,9.29,3.07,14.84,6.54l.37.23,32.93-40.32-.27-.32c-6.62-7.84-9.42-17.98-7.69-27.83,2.6-16.12,17.04-28.27,33.6-28.27,1.81,0,3.63.15,5.42.44,18.31,2.96,30.77,20.49,27.78,39.08-2.6,16.11-17.04,28.26-33.6,28.26-1.81,0-3.63-.15-5.42-.44-4.13-.59-7.75-2.41-11.25-4.16l-.36-.18-33.53,40.91.32.32c5.8,5.81,9.68,11.84,11.88,18.43,2.97,7.13,4.16,14.33,3.57,21.43l-.04.46,55.42,9.15.16-.35c2.29-5.16,6.88-9.33,12.93-11.75,2.46-.86,5.04-1.3,7.64-1.3,9.58,0,18.1,5.83,21.7,14.84,4.16,11.89-2.02,25.36-13.5,29.38-2.48.87-5.06,1.31-7.66,1.31-9.58,0-18.1-5.83-21.7-14.84-.73-2.17-1.17-4.36-1.17-5.82v-.42l-55.47-9.16-.1.46c-1.05,4.72-3.06,9.3-6.53,14.86l-.23.37,163.25,135.15.32-.32c.3-.3.59-.41,1.08-.6.33-.12.71-.27,1.18-.51,2.02-.76,4.14-1.15,6.25-1.15,6.88,0,13.05,4.28,15.78,10.91l.07.19c1.7,4.25,1.54,8.73-.44,12.6s-5.54,6.63-10.01,7.75c-2.12.79-4.24,1.19-6.35,1.19-6.94,0-13.17-4.36-15.86-11.1-1.16-4.09-1.17-8.14.01-11.67l.11-.33-163.2-135.11-.32.37c-3.03,3.54-7.17,6.55-13.04,9.49l-.4.2,27.29,73.5.4-.06c2.07-.29,4.16-.44,6.23-.44s4.16.15,6.23.44c18.3,2.96,30.76,20.49,27.77,39.08-2.6,16.11-17.04,28.26-33.6,28.26-1.81,0-3.63-.15-5.42-.44-18.31-2.96-30.77-20.49-27.78-39.08,1.74-9.85,7.55-18.27,15.95-23.08l.37-.21-27.31-73.55-.46.15c-3.98,1.33-8.01,2-11.99,2-1.32,0-2.67-.07-3.99-.22l-.47-.05-22.93,137.8.31.17c5.71,3.18,9.56,7.42,11.77,12.97,4.12,11.78-1.82,24.7-13.52,29.39-2.46.86-5.04,1.3-7.64,1.3Z"/><path class="cls-1" d="m351.11,49.71v1c6.74,0,12.78,4.23,15.39,10.77,3.26,8.72-.81,17.92-9.47,21.49-.66.03-1.16.2-1.61.35-.42.14-.75.25-1.18.25h-.85l-.14.83-29.99,177.84-.16.94.93.21c4.65,1.04,9.18,3.04,14.68,6.48l.75.47.56-.68,32.39-39.65.53-.64-.54-.63c-6.52-7.72-9.29-17.72-7.58-27.43,2.56-15.87,16.79-27.84,33.1-27.84,1.78,0,3.58.14,5.34.43,8.7,1.41,16.35,6.22,21.54,13.56,5.17,7.31,7.24,16.17,5.83,24.95-2.56,15.87-16.79,27.84-33.1,27.84-1.78,0-3.58-.14-5.36-.43-4.04-.58-7.47-2.3-11.09-4.11l-.71-.36-.51.62-32.99,40.25-.57.7.64.64c5.74,5.75,9.59,11.72,11.75,18.23v.03s.03.03.03.03c2.92,7.02,4.11,14.14,3.53,21.16l-.08.92.91.15,54.59,9.01.76.13.31-.71c2.24-5.04,6.73-9.12,12.61-11.48,2.43-.85,4.95-1.28,7.49-1.28,9.38,0,17.71,5.7,21.22,14.49,4.08,11.66-1.96,24.83-13.18,28.77-2.43.85-4.95,1.28-7.49,1.28-9.37,0-17.7-5.69-21.23-14.5-.71-2.14-1.14-4.26-1.14-5.67v-.85l-.84-.14-54.59-9.01-.93-.15-.21.92c-1.03,4.66-3.03,9.2-6.47,14.71l-.46.74.67.56,162.56,134.58.7.58.64-.65c.21-.21.42-.3.91-.48.31-.12.7-.27,1.18-.5,2-.74,4.04-1.12,6.07-1.12,6.66,0,12.64,4.14,15.3,10.56l.09.22c1.64,4.11,1.49,8.44-.43,12.19-1.92,3.75-5.36,6.41-9.68,7.49h-.06s-.05.03-.05.03c-2.01.76-4.07,1.14-6.12,1.14-6.72,0-12.75-4.21-15.38-10.74-1.14-4.02-1.14-7.95,0-11.38l.22-.65-.53-.44-162.56-134.58-.76-.63-.64.75c-2.98,3.49-7.07,6.46-12.88,9.37l-.8.4.31.84,26.99,72.7.28.76.8-.11c2.04-.29,4.12-.44,6.16-.44s4.11.15,6.14.44c8.7,1.41,16.35,6.22,21.54,13.56,5.17,7.31,7.24,16.17,5.83,24.95-2.56,15.87-16.79,27.84-33.1,27.84-1.78,0-3.58-.14-5.34-.43-8.7-1.41-16.35-6.22-21.54-13.56-5.17-7.31-7.24-16.17-5.83-24.93,1.71-9.71,7.44-18,15.71-22.74l.74-.42-.3-.79-26.99-72.7-.34-.91-.92.31c-3.93,1.31-7.91,1.98-11.83,1.98-1.31,0-2.63-.07-3.94-.22l-.94-.1-.16.93-22.79,136.98-.12.7.62.34c5.61,3.12,9.39,7.28,11.54,12.67,4.04,11.55-1.77,24.19-13.18,28.77-2.43.85-4.95,1.28-7.49,1.28-9.38,0-17.71-5.7-21.22-14.49-4.04-11.54,1.76-24.17,13.2-28.77,2.14-.72,4.25-1.14,5.65-1.14h.85l.14-.84,22.79-137.57.15-.91-.89-.22c-4.86-1.22-10.11-3.63-14.06-6.45l-.77-.55-.59.73-36.59,45.06-.46.57.41.61c1.14,1.72,2.33,3.49,2.89,5.18,4.08,11.66-1.96,24.83-13.18,28.77-2.43.85-4.95,1.28-7.49,1.28-9.38,0-17.71-5.7-21.22-14.49-4.04-11.55,1.77-24.19,13.22-28.78,2.42-.97,5.01-1.46,7.71-1.46,3.21,0,6.5.71,9.5,2.04l.7.31.48-.59,36.59-44.46.58-.7-.64-.64c-4.94-4.95-8.57-10.59-11.78-18.3-2.92-7.02-4.11-14.14-3.53-21.16l.08-.92-.91-.15-43.79-7.21-.82-.14-.28.78c-4.75,13.21-17.2,22.09-30.96,22.09-1.9,0-3.82-.17-5.73-.51-8.7-1.41-16.35-6.22-21.54-13.56-5.17-7.31-7.24-16.17-5.83-24.95,2.56-15.87,16.79-27.84,33.1-27.84,1.78,0,3.58.14,5.33.43,16.21,2.9,27.97,16.63,27.97,32.66v.85l.84.14,43.79,7.21.93.15.21-.92c1.04-4.66,3.03-9.2,6.47-14.71l.46-.74-.67-.56-154.76-127.97-.57-.47-.62.41c-1.71,1.15-3.49,2.33-5.17,2.89-2.43.85-4.95,1.28-7.49,1.28-9.38,0-17.71-5.7-21.22-14.49-4.08-11.66,1.96-24.83,13.18-28.77,2.43-.85,4.95-1.28,7.49-1.28,9.38,0,17.71,5.7,21.24,14.53,2.13,5.33,1.92,11.61-.58,17.25l-.31.69.58.48,154.16,128.57.7.59.65-.65c4.02-4.03,8.13-7.02,12.94-9.43l.8-.4-.31-.84-9-24.63-.27-.74-.79.09c-.82.1-1.65.15-2.47.15-9.18,0-17.4-5.83-20.46-14.5-4.04-11.55,1.77-24.19,13.18-28.77,2.43-.85,4.95-1.28,7.49-1.28,9.38,0,17.71,5.7,21.22,14.49,3.39,9.62.16,20.02-8.04,25.89l-.62.44.26.71,9,24.63.33.91.92-.31c5.25-1.75,10.41-1.75,15.88-1.75h.85l.14-.83,29.99-177.84.12-.73-.66-.33c-2.6-1.3-5.98-3.82-7.29-8.39v-.04s-.03-.04-.03-.04c-3.28-8.77.86-18.04,9.61-21.54,2.01-.76,4.07-1.14,6.12-1.14v-1m0,0c-2.11,0-4.29.38-6.47,1.2-9,3.6-13.8,13.22-10.2,22.83,1.2,4.21,4.2,7.21,7.8,9.01l-29.99,177.84c-5.4,0-10.79,0-16.2,1.8l-9-24.63c8.4-6.01,12-16.82,8.4-27.04-3.76-9.43-12.7-15.16-22.17-15.16-2.6,0-5.24.43-7.83,1.34-12,4.81-18,18.02-13.8,30.04,3.29,9.35,12.11,15.17,21.4,15.17.86,0,1.73-.05,2.59-.15l9,24.63c-4.8,2.4-9,5.41-13.2,9.61L117.3,147.65c2.4-5.41,3-12.01.6-18.03-3.76-9.43-12.7-15.16-22.17-15.16-2.6,0-5.24.43-7.83,1.34-12,4.21-18,18.03-13.8,30.04,3.76,9.43,12.7,15.16,22.17,15.16,2.6,0,5.24-.43,7.83-1.34,1.8-.6,3.6-1.8,5.4-3l154.76,127.97c-3,4.81-5.4,9.61-6.6,15.02l-43.79-7.21c0-16.22-12-30.64-28.79-33.64-1.84-.3-3.68-.44-5.5-.44-16.52,0-31.39,11.9-34.09,28.68-3,18.62,9.6,36.65,28.19,39.65,1.98.35,3.95.53,5.89.53,14.45,0,27.14-9.51,31.91-22.75l43.79,7.21c-.6,7.21.6,14.42,3.6,21.63s6.6,13.22,12,18.62l-36.59,44.46c-3.03-1.35-6.44-2.13-9.91-2.13-2.71,0-5.45.48-8.08,1.53-12,4.81-18,18.03-13.8,30.04,3.76,9.43,12.7,15.16,22.17,15.16,2.6,0,5.24-.43,7.83-1.34,12-4.21,18-18.03,13.8-30.04-.6-1.8-1.8-3.6-3-5.41l36.59-45.06c4.2,3,9.6,5.41,14.4,6.61l-22.79,137.57c-1.8,0-4.2.6-6,1.2-12,4.81-18,18.03-13.8,30.04,3.76,9.43,12.7,15.16,22.17,15.16,2.6,0,5.24-.43,7.83-1.34,12-4.81,18-18.03,13.8-30.04-2.4-6.01-6.6-10.21-12-13.22l22.79-136.98c1.35.15,2.7.22,4.05.22,4.05,0,8.1-.67,12.15-2.03l26.99,72.7c-8.4,4.81-14.4,13.22-16.2,23.43-3,18.62,9.6,36.65,28.19,39.65,1.84.3,3.68.44,5.5.44,16.52,0,31.39-11.9,34.09-28.68,3-18.62-9.6-36.65-28.19-39.65-2.1-.3-4.2-.45-6.3-.45s-4.2.15-6.3.45l-26.99-72.7c4.8-2.4,9.6-5.41,13.2-9.61l162.56,134.58c-1.2,3.6-1.2,7.81,0,12.02,2.78,6.96,9.15,11.42,16.32,11.42,2.11,0,4.29-.38,6.47-1.2,9.59-2.4,14.39-12.01,10.79-21.03h0c-2.78-6.96-9.15-11.41-16.32-11.41-2.11,0-4.29.38-6.47,1.2-1.2.6-1.8.6-2.4,1.2l-162.56-134.58c3-4.81,5.4-9.61,6.6-15.02l54.59,9.01c0,1.8.6,4.21,1.2,6.01,3.76,9.43,12.7,15.16,22.17,15.16,2.6,0,5.24-.43,7.83-1.34,12-4.21,18-18.02,13.8-30.04-3.76-9.43-12.7-15.16-22.17-15.16-2.6,0-5.24.43-7.83,1.34-6,2.4-10.79,6.61-13.2,12.01l-54.59-9.01c.6-7.21-.6-14.42-3.6-21.63-2.4-7.21-6.6-13.22-12-18.62l32.99-40.25c3.6,1.8,7.2,3.6,11.4,4.21,1.84.3,3.68.44,5.5.44,16.52,0,31.39-11.9,34.09-28.68,3-18.62-9.6-36.65-28.19-39.65-1.84-.3-3.68-.44-5.5-.44-16.52,0-31.39,11.9-34.09,28.68-1.8,10.21,1.2,20.43,7.8,28.24l-32.39,39.65c-4.8-3-9.6-5.41-15-6.61l29.99-177.84c1.2,0,1.8-.6,3-.6,9-3.6,13.8-13.22,10.2-22.83-2.78-6.96-9.15-11.42-16.32-11.42h0Z"/></g></g><g><circle class="cls-1" cx="178.91" cy="293.41" r="32.5"/><path d="m178.91,264.41c15.99,0,29,13.01,29,29s-13.01,29-29,29-29-13.01-29-29,13.01-29,29-29m0-7c-19.88,0-36,16.12-36,36s16.12,36,36,36,36-16.12,36-36-16.12-36-36-36h0Z"/></g><g><circle class="cls-1" cx="397.91" cy="205.41" r="32.5"/><path d="m397.91,176.41c15.99,0,29,13.01,29,29s-13.01,29-29,29-29-13.01-29-29,13.01-29,29-29m0-7c-19.88,0-36,16.12-36,36s16.12,36,36,36,36-16.12,36-36-16.12-36-36-36h0Z"/></g><g><circle class="cls-1" cx="366.91" cy="468.41" r="32.5"/><path d="m366.91,439.41c15.99,0,29,13.01,29,29s-13.01,29-29,29-29-13.01-29-29,13.01-29,29-29m0-7c-19.88,0-36,16.12-36,36s16.12,36,36,36,36-16.12,36-36-16.12-36-36-36h0Z"/></g><g><circle class="cls-1" cx="101.91" cy="279.41" r="13.5"/><path d="m101.91,269.41c5.51,0,10,4.49,10,10s-4.49,10-10,10-10-4.49-10-10,4.49-10,10-10m0-7c-9.39,0-17,7.61-17,17s7.61,17,17,17,17-7.61,17-17-7.61-17-17-17h0Z"/></g><g><circle class="cls-1" cx="239.41" cy="125.91" r="14"/><path d="m239.41,115.41c5.79,0,10.5,4.71,10.5,10.5s-4.71,10.5-10.5,10.5-10.5-4.71-10.5-10.5,4.71-10.5,10.5-10.5m0-7c-9.66,0-17.5,7.83-17.5,17.5s7.84,17.5,17.5,17.5,17.5-7.83,17.5-17.5-7.84-17.5-17.5-17.5h0Z"/></g><g><circle class="cls-1" cx="191.41" cy="457.91" r="14"/><path d="m191.41,447.41c5.79,0,10.5,4.71,10.5,10.5s-4.71,10.5-10.5,10.5-10.5-4.71-10.5-10.5,4.71-10.5,10.5-10.5m0-7c-9.66,0-17.5,7.83-17.5,17.5s7.84,17.5,17.5,17.5,17.5-7.83,17.5-17.5-7.84-17.5-17.5-17.5h0Z"/></g><g><circle class="cls-1" cx="496.41" cy="345.91" r="14"/><path d="m496.41,335.41c5.79,0,10.5,4.71,10.5,10.5s-4.71,10.5-10.5,10.5-10.5-4.71-10.5-10.5,4.71-10.5,10.5-10.5m0-7c-9.66,0-17.5,7.83-17.5,17.5s7.84,17.5,17.5,17.5,17.5-7.83,17.5-17.5-7.84-17.5-17.5-17.5h0Z"/></g><g><circle class="cls-1" cx="526.41" cy="492.91" r="14"/><path d="m526.41,482.41c5.79,0,10.5,4.71,10.5,10.5s-4.71,10.5-10.5,10.5-10.5-4.71-10.5-10.5,4.71-10.5,10.5-10.5m0-7c-9.66,0-17.5,7.83-17.5,17.5s7.84,17.5,17.5,17.5,17.5-7.83,17.5-17.5-7.84-17.5-17.5-17.5h0Z"/></g><g><circle class="cls-1" cx="351.41" cy="66.91" r="14"/><path d="m351.41,56.41c5.79,0,10.5,4.71,10.5,10.5s-4.71,10.5-10.5,10.5-10.5-4.71-10.5-10.5,4.71-10.5,10.5-10.5m0-7c-9.66,0-17.5,7.83-17.5,17.5s7.84,17.5,17.5,17.5,17.5-7.83,17.5-17.5-7.84-17.5-17.5-17.5h0Z"/></g><g><circle class="cls-1" cx="272.91" cy="218.41" r="19.5"/><path d="m272.91,202.41c8.82,0,16,7.18,16,16s-7.18,16-16,16-16-7.18-16-16,7.18-16,16-16m0-7c-12.7,0-23,10.3-23,23s10.3,23,23,23,23-10.3,23-23-10.3-23-23-23h0Z"/></g><g><circle class="cls-1" cx="438.91" cy="335.41" r="19.5"/><path d="m438.91,319.41c8.82,0,16,7.18,16,16s-7.18,16-16,16-16-7.18-16-16,7.18-16,16-16m0-7c-12.7,0-23,10.3-23,23s10.3,23,23,23,23-10.3,23-23-10.3-23-23-23h0Z"/></g><g><circle class="cls-1" cx="478.91" cy="251.41" r="19.5"/><path d="m478.91,235.41c8.82,0,16,7.18,16,16s-7.18,16-16,16-16-7.18-16-16,7.18-16,16-16m0-7c-12.7,0-23,10.3-23,23s10.3,23,23,23,23-10.3,23-23-10.3-23-23-23h0Z"/></g><g><circle class="cls-1" cx="272.91" cy="527.41" r="19.5"/><path d="m272.91,511.41c8.82,0,16,7.18,16,16s-7.18,16-16,16-16-7.18-16-16,7.18-16,16-16m0-7c-12.7,0-23,10.3-23,23s10.3,23,23,23,23-10.3,23-23-10.3-23-23-23h0Z"/></g><g><circle class="cls-1" cx="223.91" cy="417.41" r="19.5"/><path d="m223.91,401.41c8.82,0,16,7.18,16,16s-7.18,16-16,16-16-7.18-16-16,7.18-16,16-16m0-7c-12.7,0-23,10.3-23,23s10.3,23,23,23,23-10.3,23-23-10.3-23-23-23h0Z"/></g><g><circle class="cls-1" cx="95.91" cy="137.41" r="19.5"/><path d="m95.91,121.41c8.82,0,16,7.18,16,16s-7.18,16-16,16-16-7.18-16-16,7.18-16,16-16m0-7c-12.7,0-23,10.3-23,23s10.3,23,23,23,23-10.3,23-23-10.3-23-23-23h0Z"/></g><g><circle class="cls-1" cx="309.41" cy="314.91" r="49"/><path d="m309.41,269.41c25.09,0,45.5,20.41,45.5,45.5s-20.41,45.5-45.5,45.5-45.5-20.41-45.5-45.5,20.41-45.5,45.5-45.5m0-7c-28.99,0-52.5,23.51-52.5,52.5s23.51,52.5,52.5,52.5,52.5-23.51,52.5-52.5-23.51-52.5-52.5-52.5h0Z"/></g></svg>