<?xml version="1.0" encoding="UTF-8"?><svg id="Layer_1" xmlns="http://www.w3.org/2000/svg" viewBox="0 0 600 600"><defs><style>.cls-1{fill:#fff;}</style></defs><g><path d="m300,547.5c-12.9,0-25.04-5.03-34.17-14.15l-199.21-199.19c-9.1-9.1-14.12-21.24-14.12-34.17s5.01-25.06,14.12-34.17l199.21-199.2c9.1-9.1,21.24-14.12,34.17-14.12s25.07,5.01,34.17,14.12l199.22,199.19c9.1,9.1,14.12,21.24,14.12,34.17s-5.01,25.06-14.12,34.17l-199.22,199.2c-9.13,9.13-21.26,14.15-34.17,14.15Zm-83.03-85.24l60.04,60.1c6.14,6.11,14.29,9.47,22.96,9.47s16.83-3.36,22.96-9.47l199.38-199.36c6.13-6.13,9.51-14.28,9.51-22.95s-3.38-16.82-9.51-22.95l-199.37-199.36c-5.99-6.04-14.35-9.51-22.93-9.51s-16.8,3.38-22.93,9.51l-200.09,200.07v.03c-5.65,6.02-8.74,13.85-8.74,22.18s3.36,16.82,9.47,22.93l128,128.04,65.58-65.58-.94-1.66c-3.17-5.57-4.85-11.85-4.85-18.15s1.66-12.54,4.8-18.05l.96-1.69-30.79-29.71-.5,20.95c-.12,4.34-3.61,7.75-7.95,7.75h-.26c-2.05-.06-4.03-.94-5.5-2.49-1.47-1.54-2.25-3.55-2.19-5.66l.94-40.52c.08-4.27,3.48-7.67,7.74-7.75l40.52-.94h.2c4.34,0,7.83,3.41,7.95,7.76.12,4.37-3.37,8.02-7.76,8.15l-22.9.57,31.77,30.69,1.62-.92c5.5-3.11,11.7-4.75,17.95-4.75s12.54,1.63,18.15,4.84l1.66.95,58.83-58.88-.93-1.65c-3.53-6.25-5.12-13.37-4.6-20.58,1.28-17.5,15.38-32,32.82-33.73,1.24-.12,2.5-.18,3.73-.18,10.32,0,20.23,4.4,27.18,12.08,7.04,7.78,10.34,17.84,9.28,28.33-1.75,17.48-16.31,31.57-33.86,32.79-.87.06-1.74.09-2.6.09-6.43,0-12.54-1.63-18.15-4.84l-1.66-.95-58.83,58.83.93,1.65c3.64,6.45,5.21,13.79,4.54,21.24-1.4,15.52-12.96,28.81-28.1,32.3-2.77.64-5.6.96-8.39.96-6.24,0-12.42-1.62-17.85-4.7l-1.65-.93-65.62,65.62Zm85.07-117.46c-11.43,0-20.73,9.3-20.73,20.73s9.3,20.73,20.73,20.73,20.73-9.3,20.73-20.73-9.3-20.73-20.73-20.73Zm109.64-109.05c-11.43,0-20.73,9.3-20.73,20.73s9.29,20.73,20.72,20.73,20.74-9.3,20.74-20.73-9.3-20.73-20.73-20.73Z"/><path class="cls-1" d="m299.99,55c12.26,0,23.77,4.75,32.4,13.38l199.22,199.19c8.63,8.63,13.38,20.14,13.38,32.4s-4.75,23.77-13.38,32.4l-199.22,199.2c-8.66,8.66-20.16,13.42-32.4,13.42s-23.74-4.77-32.4-13.42l-199.21-199.19c-8.63-8.63-13.38-20.14-13.38-32.4,0-12.26,4.75-23.77,13.38-32.4l199.21-199.2c8.63-8.63,20.14-13.38,32.4-13.38m-225.43,221.79c-5.71,6.39-8.83,14.57-8.83,23.24,0,9.35,3.62,18.12,10.21,24.7l126.23,126.28,3.54,3.54,3.54-3.54,62.47-62.46,2.7-2.7-1.89-3.31c-2.96-5.2-4.52-11.05-4.52-16.92s1.55-11.67,4.47-16.81l1.92-3.38-2.79-2.7-25.3-24.41-8.2-7.91-.27,11.39-.37,15.24c-.08,2.99-2.48,5.33-5.45,5.33h-.18c-1.44-.05-2.77-.66-3.77-1.71-1.01-1.06-1.54-2.43-1.5-3.89l.94-40.53c.05-2.91,2.38-5.23,5.31-5.29l40.45-.94h.21c2.98,0,5.37,2.34,5.45,5.33.08,3-2.31,5.5-5.32,5.58l-16.94.42-11.94.3,8.59,8.3,26.13,25.24,2.68,2.59,3.25-1.84c5.12-2.89,10.9-4.42,16.72-4.42s11.68,1.52,16.9,4.51l3.32,1.9,2.7-2.71,56.14-56.19,2.68-2.69-1.87-3.31c-3.29-5.82-4.77-12.45-4.28-19.17,1.19-16.3,14.33-29.81,30.57-31.42,1.16-.11,2.33-.17,3.48-.17,9.62,0,18.85,4.11,25.32,11.26,6.56,7.25,9.63,16.62,8.65,26.4-1.63,16.28-15.19,29.41-31.54,30.54-.81.06-1.63.08-2.43.08-5.99,0-11.68-1.52-16.9-4.51l-3.32-1.9-2.7,2.7-56.14,56.13-2.69,2.69,1.87,3.31c3.39,6.01,4.85,12.85,4.23,19.78-1.3,14.46-12.07,26.83-26.17,30.08-2.59.6-5.22.9-7.83.9-5.81,0-11.56-1.51-16.62-4.37l-3.31-1.87-2.69,2.69-62.51,62.51-3.53,3.53,3.53,3.54,58.29,58.34c6.61,6.58,15.39,10.2,24.72,10.2s18.12-3.62,24.73-10.2l199.37-199.36c6.6-6.6,10.24-15.38,10.24-24.72s-3.64-18.11-10.24-24.72l-199.36-199.34c-6.46-6.52-15.47-10.26-24.72-10.26s-18.1,3.64-24.7,10.24l-199.36,199.34-1.37,1.38v.08m337.1,2.91h0c12.81,0,23.23-10.42,23.23-23.23s-10.42-23.23-23.23-23.23-23.23,10.42-23.23,23.23,10.42,23.23,23.22,23.23m-109.63,109.05c12.81,0,23.23-10.42,23.23-23.23s-10.42-23.23-23.23-23.23-23.23,10.42-23.23,23.23,10.42,23.23,23.23,23.23m-2.04-338.75c-13.02,0-26.04,4.95-35.94,14.85l-199.21,199.2c-19.8,19.8-19.8,52.07,0,71.87l199.21,199.19c9.92,9.92,22.93,14.89,35.93,14.89s26.01-4.96,35.93-14.89l199.22-199.2c19.8-19.8,19.8-52.07,0-71.87l-199.22-199.19c-9.9-9.9-22.92-14.85-35.94-14.85h0Zm-94.29,397.47l-126.23-126.28c-11.66-11.65-11.66-30.68,0-42.33h0s199.36-199.35,199.36-199.35c5.85-5.85,13.54-8.78,21.17-8.78s15.37,2.93,21.17,8.78l199.37,199.36c11.7,11.7,11.7,30.66,0,42.36l-199.37,199.36c-5.85,5.83-13.52,8.74-21.2,8.74s-15.34-2.91-21.2-8.74l-58.28-58.33,62.51-62.51c5.64,3.19,12.18,5.02,19.08,5.02,2.93,0,5.93-.33,8.95-1.03,16.34-3.76,28.53-17.81,30.03-34.51.75-8.32-1.12-16.07-4.86-22.69l56.14-56.13c5.75,3.29,12.33,5.18,19.39,5.18.92,0,1.84-.03,2.77-.1,18.86-1.31,34.29-16.22,36.17-35.03,2.34-23.38-16.04-43.16-38.95-43.16-1.31,0-2.64.06-3.98.2-18.77,1.86-33.69,17.22-35.06,36.03-.59,8.06,1.28,15.56,4.91,21.99l-56.14,56.19c-5.75-3.29-12.33-5.18-19.39-5.18s-13.54,1.88-19.18,5.07l-26.13-25.24,16.94-.42c5.75-.16,10.35-4.91,10.19-10.71-.16-5.7-4.81-10.19-10.45-10.19h-.26l-40.51.94c-5.59.1-10.09,4.6-10.19,10.19l-.94,40.51c-.16,5.75,4.44,10.56,10.19,10.71h.26c5.64,0,10.29-4.49,10.45-10.19l.37-15.26,25.3,24.41c-3.24,5.7-5.12,12.28-5.12,19.28s1.93,13.69,5.18,19.39l-62.47,62.46h0Zm205.96-172.77c-10.08,0-18.22-8.2-18.22-18.23s8.15-18.23,18.23-18.23,18.23,8.15,18.23,18.23-8.15,18.23-18.23,18.23h0Zm-109.63,109.05c-10.08,0-18.23-8.15-18.23-18.23s8.15-18.23,18.23-18.23,18.23,8.2,18.23,18.23-8.15,18.23-18.23,18.23h0Z"/></g><g><path d="m192.56,292.78c-20.19,0-36.62-16.43-36.62-36.62s16.43-36.62,36.62-36.62,36.62,16.43,36.62,36.62-16.43,36.62-36.62,36.62Zm0-57.3c-5.52,0-10.72,2.15-14.64,6.06-3.93,3.92-6.09,9.13-6.08,14.66,0,11.43,9.3,20.72,20.73,20.72s20.73-9.3,20.73-20.73-9.3-20.73-20.73-20.73Z"/><path class="cls-1" d="m192.56,222.04c18.82,0,34.12,15.31,34.12,34.12s-15.31,34.12-34.12,34.12-34.12-15.31-34.12-34.12,15.31-34.12,34.12-34.12m0,57.39c12.81,0,23.23-10.42,23.23-23.23s-10.42-23.23-23.23-23.23c-6.19,0-12.02,2.41-16.41,6.79-4.4,4.39-6.82,10.23-6.82,16.43,0,12.81,10.42,23.23,23.23,23.23m0-62.39c-21.57,0-39.12,17.55-39.12,39.12s17.6,39.12,39.12,39.12,39.12-17.55,39.12-39.12-17.55-39.12-39.12-39.12h0Zm0,57.39c-10.08,0-18.23-8.15-18.23-18.23,0-10.08,8.2-18.23,18.23-18.23s18.23,8.15,18.23,18.23-8.15,18.23-18.23,18.23h0Z"/></g></svg>