<?xml version="1.0" encoding="UTF-8"?><svg id="Layer_1" xmlns="http://www.w3.org/2000/svg" viewBox="0 0 600 600"><path d="m545.73,550H225.11c-2.36,0-4.27-1.91-4.27-4.27V54.27c0-2.36,1.91-4.27,4.27-4.27h320.62c2.36,0,4.27,1.91,4.27,4.27v491.46c0,2.36-1.91,4.27-4.27,4.27Zm-316.91-9.11h312.07V57.97H228.82v482.92Z"/><path d="m387.14,251.32c-1.3,0-2.52-.59-3.33-1.6l-83.62-104.35c-1.32-1.65-1.24-4.02.2-5.58l41.81-45.14c.81-.87,1.94-1.37,3.13-1.37h83.62c1.19,0,2.33.5,3.13,1.37l41.81,45.14c1.44,1.55,1.53,3.92.2,5.58l-83.62,104.35c-.81,1.01-2.04,1.6-3.34,1.6h0Zm-77.98-108.99l77.98,97.32,77.98-97.32-38.04-41.07h-79.88l-38.04,41.07Z"/><path d="m461.88,147.95h-158.12c-1.94,0-3.74-1.21-4.29-3.07-.93-3.15,1.24-6.04,4.05-6.04h158.12c1.94,0,3.74,1.21,4.29,3.07.93,3.15-1.24,6.04-4.05,6.04Z"/><path d="m419.17,142.95c-1.14,0-2.25-.46-3.07-1.3l-28.29-29.2-18.44,28.55c-.79,1.22-2.14,1.95-3.59,1.95s-2.8-.74-3.59-1.95l-21.36-33.06c-1.28-1.98-.71-4.63,1.27-5.9,1.98-1.28,4.63-.71,5.9,1.27l17.77,27.51,17.77-27.51c.71-1.09,1.87-1.8,3.17-1.93,1.3-.13,2.58.34,3.49,1.28l27.08,27.96,8.49-26.3c.73-2.25,3.13-3.47,5.38-2.75,2.25.72,3.48,3.13,2.75,5.38l-10.68,33.06c-.46,1.43-1.64,2.51-3.1,2.85-.31.07-.64.11-.96.11h0Z"/><path d="m387.14,242.14c-.07,0-.14,0-.22,0-1.93-.1-3.55-1.48-3.96-3.37l-21.36-99.2c-.5-2.31.97-4.58,3.28-5.08,2.3-.5,4.58.97,5.08,3.28l18.01,83.63,27.14-84.05c.72-2.25,3.13-3.47,5.38-2.75,2.25.72,3.48,3.13,2.75,5.38l-32.03,99.2c-.58,1.78-2.22,2.96-4.07,2.96h0Z"/><path d="m503.85,198.06h-34.22c-1.74,0-3.4-.97-4.08-2.57-1.43-3.34.98-6.54,4.13-6.54h34.22c1.74,0,3.4.97,4.08,2.57,1.43,3.34-.98,6.54-4.13,6.54Z"/><path d="m503.85,240.21h-34.22c-1.74,0-3.4-.97-4.08-2.57-1.43-3.34.98-6.54,4.13-6.54h34.22c1.74,0,3.4.97,4.08,2.57,1.43,3.34-.98,6.54-4.13,6.54Z"/><path d="m502.79,283.49h-85.18c-1.94,0-3.74-1.21-4.29-3.07-.93-3.15,1.24-6.04,4.05-6.04h85.18c1.94,0,3.74,1.21,4.29,3.07.93,3.15-1.24,6.04-4.05,6.04Z"/><path d="m300.98,198.06h-34.22c-1.74,0-3.4-.97-4.08-2.57-1.43-3.34.98-6.54,4.13-6.54h34.22c1.74,0,3.4.97,4.08,2.57,1.43,3.34-.98,6.54-4.13,6.54Z"/><path d="m300.98,240.21h-34.22c-1.74,0-3.4-.97-4.08-2.57-1.43-3.34.98-6.54,4.13-6.54h34.22c1.74,0,3.4.97,4.08,2.57,1.43,3.34-.98,6.54-4.13,6.54Z"/><path d="m353.3,283.49h-85.18c-1.94,0-3.74-1.21-4.29-3.07-.93-3.15,1.24-6.04,4.05-6.04h85.18c1.94,0,3.74,1.21,4.29,3.07.93,3.15-1.24,6.04-4.05,6.04Z"/><path d="m502.45,400.8h-74.6c-2.36,0-4.27-1.91-4.27-4.27v-64.35c0-2.36,1.91-4.27,4.27-4.27h74.6c2.36,0,4.27,1.91,4.27,4.27v64.35c0,2.36-1.91,4.27-4.27,4.27Zm-69.76-9.11h66.06v-55.81h-66.06v55.81Z"/><path d="m502.79,400.24c-.98,0-1.97-.34-2.78-1.03l-74.74-64.07c-1.79-1.54-2-4.23-.47-6.02,1.54-1.79,4.23-2,6.02-.47l74.74,64.07c1.79,1.54,2,4.23.47,6.03-.84.98-2.04,1.49-3.24,1.49h0Z"/><path d="m502.45,506.72h-74.6c-2.36,0-4.27-1.91-4.27-4.27v-64.35c0-2.36,1.91-4.27,4.27-4.27h74.6c2.36,0,4.27,1.91,4.27,4.27v64.35c0,2.36-1.91,4.27-4.27,4.27Zm-69.76-7.97h66.06v-55.81h-66.06v55.81Z"/><path d="m502.79,507.02c-.98,0-1.97-.34-2.78-1.03l-74.74-64.07c-1.79-1.54-2-4.23-.47-6.02,1.54-1.79,4.23-2,6.02-.47l74.74,64.07c1.79,1.54,2,4.23.47,6.02-.84.99-2.04,1.49-3.24,1.49h0Z"/><path d="m331.94,485.66c-37.68,0-68.34-30.66-68.34-68.34s30.66-68.34,68.34-68.34,68.34,30.66,68.34,68.34-30.66,68.34-68.34,68.34Zm0-128.13c-32.97,0-59.79,26.82-59.79,59.79s26.82,59.79,59.79,59.79,59.79-26.82,59.79-59.79-26.82-59.79-59.79-59.79Z"/><path d="m310.59,432.27c-1.09,0-2.19-.42-3.02-1.25l-10.68-10.68c-1.67-1.67-1.67-4.37,0-6.04l10.68-10.68c1.67-1.67,4.37-1.67,6.04,0,1.67,1.67,1.67,4.37,0,6.04l-7.66,7.66,7.66,7.66c1.67,1.67,1.67,4.37,0,6.04-.84.84-1.93,1.25-3.02,1.25h0Z"/><path d="m353.3,432.27c-1.09,0-2.19-.42-3.02-1.25-1.67-1.67-1.67-4.37,0-6.04l7.66-7.66-7.66-7.66c-1.67-1.67-1.67-4.37,0-6.04,1.67-1.67,4.37-1.67,6.04,0l10.68,10.68c1.67,1.67,1.67,4.37,0,6.04l-10.68,10.68c-.84.84-1.93,1.25-3.02,1.25h0Z"/><path d="m128.59,549.72c-1.09,0-2.17-.42-3-1.25l-42.45-42.71c-.8-.8-1.24-1.88-1.24-3.01V54.27c0-2.36,1.91-4.27,4.27-4.27h84.85c2.36,0,4.27,1.91,4.27,4.27v448.47c0,1.13-.45,2.21-1.24,3.01l-42.45,42.71c-.83.84-1.91,1.25-3,1.25Zm-38.72-48.18l38.72,38.44,38.72-38.44V59.11h-77.45v442.42Z"/><path d="m54.33,197.37c-2.36,0-4.27-1.91-4.33-4.27v-96.1c.06-2.36,1.97-4.27,4.33-4.86h106.78c2.36.59,4.27,2.5,4.27,4.86s-1.91,4.27-4.27,4.25H59.11v91.84c-.51,2.36-2.42,4.27-4.78,4.27h0Z"/><path d="m161.1,507.86h-63.83c-1.94,0-3.74-1.21-4.29-3.07-.93-3.15,1.24-6.04,4.05-6.04h63.83c1.94,0,3.74,1.21,4.29,3.07.93,3.15-1.24,6.04-4.05,6.04Z"/><path d="m124.03,449.13V150.63c0-1.94,1.21-3.74,3.07-4.29,3.15-.93,6.04,1.24,6.04,4.05v298.97c0,2.81-2.89,4.98-6.04,4.05-1.86-.55-3.07-2.35-3.07-4.29Z"/></svg>