<?xml version="1.0" encoding="UTF-8"?>
<svg width="700pt" height="600pt" version="1.1" viewBox="0 0 700 700" xmlns="http://www.w3.org/2000/svg" xmlns:xlink="http://www.w3.org/1999/xlink">
 <defs>
  <symbol id="t" overflow="visible">
   <path d="m3.6562-0.21875c-0.1875 0.09375-0.38672 0.16797-0.59375 0.21875-0.19922 0.050781-0.40625 0.078125-0.625 0.078125-0.66797 0-1.1992-0.17969-1.5938-0.54688-0.38672-0.375-0.57812-0.87891-0.57812-1.5156 0-0.64453 0.19141-1.1484 0.57812-1.5156 0.39453-0.375 0.92578-0.5625 1.5938-0.5625 0.21875 0 0.42578 0.027344 0.625 0.078125 0.20703 0.054687 0.40625 0.125 0.59375 0.21875v0.82812c-0.1875-0.125-0.375-0.21875-0.5625-0.28125-0.17969-0.0625-0.37109-0.09375-0.57812-0.09375-0.36719 0-0.65625 0.12109-0.875 0.35938-0.21094 0.23047-0.3125 0.55469-0.3125 0.96875 0 0.40625 0.10156 0.73047 0.3125 0.96875 0.21875 0.23047 0.50781 0.34375 0.875 0.34375 0.20703 0 0.39844-0.023437 0.57812-0.078125 0.1875-0.0625 0.375-0.16016 0.5625-0.29688z"/>
  </symbol>
  <symbol id="c" overflow="visible">
   <path d="m2.6875-2.1719c-0.085938-0.039063-0.16797-0.070313-0.25-0.09375-0.085938-0.019531-0.16797-0.03125-0.25-0.03125-0.25 0-0.44531 0.085937-0.57812 0.25-0.125 0.15625-0.1875 0.38281-0.1875 0.67188v1.375h-0.96875v-2.9844h0.96875v0.48438c0.11328-0.19531 0.25-0.33594 0.40625-0.42188 0.16406-0.09375 0.35938-0.14062 0.57812-0.14062h0.10938c0.039063 0 0.09375 0.007812 0.15625 0.015625z"/>
  </symbol>
  <symbol id="b" overflow="visible">
   <path d="m3.4375-1.5v0.26562h-2.2344c0.03125 0.23047 0.11328 0.40234 0.25 0.51562 0.13281 0.10547 0.32812 0.15625 0.57812 0.15625 0.20703 0 0.41406-0.023438 0.625-0.078125 0.20703-0.0625 0.42188-0.15625 0.64062-0.28125v0.73438c-0.21875 0.09375-0.44531 0.16406-0.67188 0.20312-0.23047 0.039062-0.45312 0.0625-0.67188 0.0625-0.54297 0-0.96484-0.13281-1.2656-0.40625-0.30469-0.28125-0.45312-0.67188-0.45312-1.1719 0-0.47656 0.14453-0.85938 0.4375-1.1406 0.30078-0.28125 0.70703-0.42188 1.2188-0.42188 0.46875 0 0.84375 0.14062 1.125 0.42188s0.42188 0.66406 0.42188 1.1406zm-0.96875-0.32812c0-0.17578-0.058594-0.31641-0.17188-0.42188-0.10547-0.11328-0.24219-0.17188-0.40625-0.17188-0.1875 0-0.33984 0.054687-0.45312 0.15625-0.11719 0.10547-0.1875 0.25-0.21875 0.4375z"/>
  </symbol>
  <symbol id="d" overflow="visible">
   <path d="m1.7969-1.3438c-0.19922 0-0.35156 0.039062-0.45312 0.10938-0.09375 0.0625-0.14062 0.16406-0.14062 0.29688 0 0.11719 0.035156 0.21094 0.10938 0.28125 0.082031 0.0625 0.19531 0.09375 0.34375 0.09375 0.17578 0 0.32812-0.0625 0.45312-0.1875s0.1875-0.28516 0.1875-0.48438v-0.10938zm1.4688-0.35938v1.7031h-0.96875v-0.4375c-0.125 0.17969-0.27344 0.30859-0.4375 0.39062-0.15625 0.082031-0.35156 0.125-0.57812 0.125-0.3125 0-0.57031-0.085938-0.76562-0.26562-0.1875-0.1875-0.28125-0.42188-0.28125-0.70312 0-0.35156 0.11719-0.61328 0.35938-0.78125 0.23828-0.16406 0.61719-0.25 1.1406-0.25h0.5625v-0.0625c0-0.15625-0.0625-0.26562-0.1875-0.32812-0.11719-0.070312-0.29688-0.10938-0.54688-0.10938-0.21094 0-0.40234 0.023437-0.57812 0.0625-0.17969 0.042969-0.33984 0.10156-0.48438 0.17188v-0.71875c0.19531-0.050781 0.39844-0.085938 0.60938-0.10938 0.20703-0.03125 0.41406-0.046875 0.625-0.046875 0.53906 0 0.92969 0.10938 1.1719 0.32812 0.23828 0.21094 0.35938 0.55469 0.35938 1.0312z"/>
  </symbol>
  <symbol id="a" overflow="visible">
   <path d="m1.5-3.8438v0.85938h0.98438v0.67188h-0.98438v1.2812c0 0.13672 0.023438 0.23047 0.078125 0.28125 0.0625 0.042969 0.17578 0.0625 0.34375 0.0625h0.48438v0.6875h-0.8125c-0.38672 0-0.65625-0.078125-0.8125-0.23438s-0.23438-0.42188-0.23438-0.79688v-1.2812h-0.46875v-0.67188h0.46875v-0.85938z"/>
  </symbol>
  <symbol id="i" overflow="visible">
   <path d="m2.5-2.5469v-1.6094h0.95312v4.1562h-0.95312v-0.4375c-0.13672 0.17969-0.28125 0.30859-0.4375 0.39062-0.15625 0.082031-0.33984 0.125-0.54688 0.125-0.375 0-0.68359-0.14453-0.92188-0.4375-0.23047-0.28906-0.34375-0.67188-0.34375-1.1406 0-0.45703 0.11328-0.83203 0.34375-1.125 0.23828-0.28906 0.54688-0.4375 0.92188-0.4375 0.19531 0 0.375 0.042969 0.53125 0.125 0.16406 0.085938 0.31641 0.21484 0.45312 0.39062zm-0.64062 1.9375c0.20703 0 0.36328-0.070313 0.46875-0.21875 0.11328-0.15625 0.17188-0.37891 0.17188-0.67188 0-0.28125-0.058594-0.49219-0.17188-0.64062-0.10547-0.15625-0.26172-0.23438-0.46875-0.23438-0.19922 0-0.35547 0.078125-0.46875 0.23438-0.10547 0.14844-0.15625 0.35938-0.15625 0.64062 0 0.29297 0.050781 0.51562 0.15625 0.67188 0.11328 0.14844 0.26953 0.21875 0.46875 0.21875z"/>
  </symbol>
  <symbol id="h" overflow="visible">
   <path d="m2.0469-0.60938c0.20703 0 0.36328-0.070313 0.46875-0.21875 0.11328-0.15625 0.17188-0.37891 0.17188-0.67188 0-0.28125-0.058594-0.49219-0.17188-0.64062-0.10547-0.15625-0.26172-0.23438-0.46875-0.23438-0.19922 0-0.35547 0.078125-0.46875 0.23438-0.10547 0.14844-0.15625 0.35938-0.15625 0.64062 0 0.29297 0.050781 0.51562 0.15625 0.67188 0.11328 0.14844 0.26953 0.21875 0.46875 0.21875zm-0.625-1.9375c0.125-0.17578 0.26562-0.30469 0.42188-0.39062 0.16406-0.082031 0.35156-0.125 0.5625-0.125 0.36328 0 0.66406 0.14844 0.90625 0.4375 0.23828 0.29297 0.35938 0.66797 0.35938 1.125 0 0.46875-0.12109 0.85156-0.35938 1.1406-0.24219 0.29297-0.54297 0.4375-0.90625 0.4375-0.21094 0-0.39844-0.042969-0.5625-0.125-0.15625-0.082031-0.29688-0.21094-0.42188-0.39062v0.4375h-0.96875v-4.1562h0.96875z"/>
  </symbol>
  <symbol id="g" overflow="visible">
   <path d="m0.0625-2.9844h0.95312l0.8125 2.0156 0.6875-2.0156h0.95312l-1.2656 3.2656c-0.125 0.33203-0.27344 0.56641-0.4375 0.70312-0.16797 0.13281-0.39062 0.20312-0.67188 0.20312h-0.54688v-0.64062h0.29688c0.16406 0 0.28516-0.027344 0.35938-0.078125 0.070313-0.054688 0.12891-0.14062 0.17188-0.26562l0.03125-0.09375z"/>
  </symbol>
  <symbol id="f" overflow="visible">
   <path d="m0.5-3.9844h2.7812v0.78125h-1.75v0.73438h1.6406v0.78125h-1.6406v1.6875h-1.0312z"/>
  </symbol>
  <symbol id="s" overflow="visible">
   <path d="m0.45312-4.1562h0.96875v4.1562h-0.96875z"/>
  </symbol>
  <symbol id="r" overflow="visible">
   <path d="m2.4219-4.1562v0.625h-0.51562c-0.13672 0-0.23438 0.027344-0.29688 0.078125-0.054687 0.054687-0.078125 0.13672-0.078125 0.25v0.21875h0.82812v0.67188h-0.82812v2.3125h-0.95312v-2.3125h-0.46875v-0.67188h0.46875v-0.21875c0-0.32031 0.085937-0.5625 0.26562-0.71875 0.1875-0.15625 0.47266-0.23438 0.85938-0.23438z"/>
  </symbol>
  <symbol id="e" overflow="visible">
   <path d="m1.875-2.375c-0.21094 0-0.37109 0.078125-0.48438 0.23438-0.10547 0.14844-0.15625 0.35938-0.15625 0.64062 0 0.29297 0.050781 0.51562 0.15625 0.67188 0.11328 0.14844 0.27344 0.21875 0.48438 0.21875 0.20703 0 0.36719-0.070313 0.48438-0.21875 0.11328-0.15625 0.17188-0.37891 0.17188-0.67188 0-0.28125-0.058594-0.49219-0.17188-0.64062-0.11719-0.15625-0.27734-0.23438-0.48438-0.23438zm0-0.6875c0.51953 0 0.92188 0.14062 1.2031 0.42188 0.28906 0.27344 0.4375 0.65234 0.4375 1.1406 0 0.5-0.14844 0.89062-0.4375 1.1719-0.28125 0.27344-0.68359 0.40625-1.2031 0.40625-0.51172 0-0.91406-0.13281-1.2031-0.40625-0.29297-0.28125-0.4375-0.67188-0.4375-1.1719 0-0.48828 0.14453-0.86719 0.4375-1.1406 0.28906-0.28125 0.69141-0.42188 1.2031-0.42188z"/>
  </symbol>
  <symbol id="q" overflow="visible">
   <path d="m3.2344-2.5c0.11328-0.17578 0.25391-0.3125 0.42188-0.40625 0.16406-0.10156 0.35156-0.15625 0.5625-0.15625 0.33203 0 0.58594 0.10938 0.76562 0.32812 0.1875 0.21094 0.28125 0.51172 0.28125 0.90625v1.8281h-0.96875v-1.5625c0.007813-0.019531 0.015625-0.039062 0.015625-0.0625v-0.10938c0-0.21875-0.03125-0.375-0.09375-0.46875s-0.16406-0.14062-0.29688-0.14062c-0.1875 0-0.33594 0.078125-0.4375 0.23438-0.09375 0.14844-0.14062 0.35938-0.14062 0.64062v1.4688h-0.96875v-1.5625c0-0.33203-0.03125-0.54688-0.09375-0.64062-0.054688-0.09375-0.15234-0.14062-0.29688-0.14062-0.17969 0-0.32031 0.078125-0.42188 0.23438-0.09375 0.14844-0.14062 0.35938-0.14062 0.64062v1.4688h-0.96875v-2.9844h0.96875v0.4375c0.11328-0.17578 0.24219-0.30469 0.39062-0.39062 0.15625-0.082031 0.32812-0.125 0.51562-0.125 0.20703 0 0.39062 0.054688 0.54688 0.15625 0.15625 0.09375 0.27344 0.23047 0.35938 0.40625z"/>
  </symbol>
  <symbol id="p" overflow="visible">
   <path d="m3.4688-1.8281v1.8281h-0.96875v-1.3906c0-0.25781-0.007812-0.4375-0.015625-0.53125-0.011719-0.10156-0.03125-0.17578-0.0625-0.21875-0.03125-0.0625-0.085937-0.10938-0.15625-0.14062-0.0625-0.039062-0.13281-0.0625-0.20312-0.0625-0.21094 0-0.37109 0.078125-0.48438 0.23438-0.10547 0.15625-0.15625 0.37109-0.15625 0.64062v1.4688h-0.96875v-4.1562h0.96875v1.6094c0.13281-0.17578 0.28516-0.30469 0.45312-0.39062 0.16406-0.082031 0.34375-0.125 0.53125-0.125 0.34375 0 0.60156 0.10938 0.78125 0.32812 0.1875 0.21094 0.28125 0.51172 0.28125 0.90625z"/>
  </symbol>
  <symbol id="o" overflow="visible">
   <path d="m0.5-3.9844h1.1562l1.4375 2.7344v-2.7344h0.98438v3.9844h-1.1562l-1.4375-2.7344v2.7344h-0.98438z"/>
  </symbol>
  <symbol id="n" overflow="visible">
   <path d="m0.42188-1.1719v-1.8125h0.96875v0.29688 0.60938 0.48438c0 0.24219 0.003906 0.41797 0.015625 0.53125 0.007812 0.10547 0.03125 0.17969 0.0625 0.21875 0.039062 0.0625 0.09375 0.11719 0.15625 0.15625 0.0625 0.03125 0.13281 0.046875 0.21875 0.046875 0.19531 0 0.35156-0.078125 0.46875-0.23438 0.11328-0.15625 0.17188-0.36719 0.17188-0.64062v-1.4688h0.95312v2.9844h-0.95312v-0.4375c-0.14844 0.17969-0.30469 0.30859-0.46875 0.39062-0.15625 0.082031-0.33594 0.125-0.53125 0.125-0.34375 0-0.60938-0.10156-0.79688-0.3125-0.17969-0.21875-0.26562-0.53125-0.26562-0.9375z"/>
  </symbol>
  <symbol id="m" overflow="visible">
   <path d="m3.4688-1.8281v1.8281h-0.96875v-1.3906c0-0.25781-0.007812-0.4375-0.015625-0.53125-0.011719-0.10156-0.03125-0.17578-0.0625-0.21875-0.03125-0.0625-0.085937-0.10938-0.15625-0.14062-0.0625-0.039062-0.13281-0.0625-0.20312-0.0625-0.21094 0-0.37109 0.078125-0.48438 0.23438-0.10547 0.15625-0.15625 0.37109-0.15625 0.64062v1.4688h-0.96875v-2.9844h0.96875v0.4375c0.13281-0.17578 0.28516-0.30469 0.45312-0.39062 0.16406-0.082031 0.34375-0.125 0.53125-0.125 0.34375 0 0.60156 0.10938 0.78125 0.32812 0.1875 0.21094 0.28125 0.51172 0.28125 0.90625z"/>
  </symbol>
  <symbol id="l" overflow="visible">
   <path d="m0.5-3.9844h1.7031c0.50781 0 0.89844 0.11719 1.1719 0.34375 0.26953 0.21875 0.40625 0.53906 0.40625 0.95312 0 0.41797-0.13672 0.74219-0.40625 0.96875-0.27344 0.21875-0.66406 0.32812-1.1719 0.32812h-0.67188v1.3906h-1.0312zm1.0312 0.75v1.1094h0.5625c0.19531 0 0.34766-0.046875 0.45312-0.14062 0.11328-0.10156 0.17188-0.24219 0.17188-0.42188 0-0.17578-0.058594-0.3125-0.17188-0.40625-0.10547-0.09375-0.25781-0.14062-0.45312-0.14062z"/>
  </symbol>
  <symbol id="k" overflow="visible">
   <path d="m0.45312-2.9844h0.96875v2.9375c0 0.39453-0.10156 0.69531-0.29688 0.90625-0.1875 0.21875-0.46484 0.32812-0.82812 0.32812h-0.48438v-0.64062h0.17188c0.17578 0 0.29688-0.042969 0.35938-0.125 0.070312-0.074219 0.10938-0.23047 0.10938-0.46875zm0-1.1719h0.96875v0.78125h-0.96875z"/>
  </symbol>
  <symbol id="j" overflow="visible">
   <path d="m2.875-2.8906v0.76562c-0.125-0.082031-0.25781-0.14453-0.39062-0.1875-0.13672-0.039062-0.27344-0.0625-0.40625-0.0625-0.27344 0-0.48047 0.078125-0.625 0.23438-0.14844 0.15625-0.21875 0.37109-0.21875 0.64062 0 0.28125 0.070313 0.5 0.21875 0.65625 0.14453 0.15625 0.35156 0.23438 0.625 0.23438 0.14453 0 0.28516-0.019531 0.42188-0.0625 0.13281-0.039063 0.25781-0.10938 0.375-0.20312v0.78125c-0.14844 0.0625-0.29688 0.10156-0.45312 0.125-0.15625 0.03125-0.3125 0.046875-0.46875 0.046875-0.54297 0-0.96484-0.13281-1.2656-0.40625-0.30469-0.28125-0.45312-0.67188-0.45312-1.1719 0-0.48828 0.14844-0.86719 0.45312-1.1406 0.30078-0.28125 0.72266-0.42188 1.2656-0.42188 0.15625 0 0.3125 0.015625 0.46875 0.046875 0.15625 0.023437 0.30469 0.0625 0.45312 0.125z"/>
  </symbol>
 </defs>
 <g>
  <path d="m601.56 535.94h-328.12c-2.418 0-4.375-1.957-4.375-4.375v-503.12c0-2.418 1.957-4.375 4.375-4.375h328.12c2.418 0 4.375 1.957 4.375 4.375v503.12c0 2.418-1.957 4.375-4.375 4.375zm-323.75-8.75h319.38v-494.38h-319.38z"/>
  <path d="m439.35 229.69c-1.3281 0-2.582-0.60156-3.4141-1.6406l-85.652-106.89c-1.3555-1.6914-1.2695-4.1172 0.20312-5.7109l42.828-46.238c0.82812-0.89453 1.9883-1.4023 3.2109-1.4023h85.652c1.2188 0 2.3828 0.50781 3.2109 1.4023l42.824 46.238c1.4727 1.5898 1.5625 4.0195 0.20703 5.7109l-85.652 106.89c-0.83203 1.0391-2.0898 1.6406-3.418 1.6406zm-79.879-111.05 79.879 99.684 79.879-99.684-38.965-42.07h-81.828z"/>
  <path d="m515.91 123.75h-162.21c-2.418 0-4.375-1.957-4.375-4.375 0-2.418 1.957-4.375 4.375-4.375h162.21c2.418 0 4.375 1.957 4.375 4.375 0 2.418-1.957 4.375-4.375 4.375z"/>
  <path d="m472.16 119.26c-1.1719 0-2.3086-0.46875-3.1406-1.332l-28.98-29.914-18.891 29.246c-0.80469 1.2461-2.1914 2-3.6758 2s-2.8672-0.75391-3.6758-2l-21.875-33.867c-1.3086-2.0312-0.72656-4.7383 1.3008-6.0469 2.0312-1.3125 4.7383-0.72656 6.0469 1.3008l18.199 28.18 18.199-28.18c0.72266-1.1211 1.918-1.8477 3.2461-1.9805 1.3281-0.12891 2.6406 0.35156 3.5703 1.3086l27.742 28.637 8.6992-26.938c0.74609-2.3008 3.207-3.5586 5.5078-2.8203 2.3008 0.74219 3.5625 3.2109 2.8203 5.5078l-10.938 33.867c-0.47266 1.4609-1.6758 2.5664-3.1719 2.918-0.32031 0.074219-0.65234 0.11328-0.98438 0.11328z"/>
  <path d="m439.35 220.86c-0.074218 0-0.14844 0-0.22266-0.003906-1.9805-0.097657-3.6406-1.5156-4.0586-3.4492l-21.875-101.61c-0.50781-2.3633 0.99219-4.6875 3.3555-5.1992 2.3594-0.50781 4.6914 0.99609 5.1992 3.3555l18.445 85.668 27.805-86.094c0.74219-2.3008 3.207-3.5586 5.5078-2.8203 2.3008 0.74219 3.5625 3.2109 2.8203 5.5078l-32.812 101.61c-0.58984 1.8203-2.2773 3.0352-4.1641 3.0352z"/>
  <path d="m557.81 175h-32.812c-2.418 0-4.375-1.957-4.375-4.375s1.957-4.375 4.375-4.375h32.812c2.418 0 4.375 1.957 4.375 4.375s-1.957 4.375-4.375 4.375z"/>
  <path d="m557.81 218.75h-32.812c-2.418 0-4.375-1.957-4.375-4.375s1.957-4.375 4.375-4.375h32.812c2.418 0 4.375 1.957 4.375 4.375s-1.957 4.375-4.375 4.375z"/>
  <path d="m557.81 262.5h-87.5c-2.418 0-4.375-1.957-4.375-4.375s1.957-4.375 4.375-4.375h87.5c2.418 0 4.375 1.957 4.375 4.375s-1.957 4.375-4.375 4.375z"/>
  <path d="m350 175h-32.812c-2.418 0-4.375-1.957-4.375-4.375s1.957-4.375 4.375-4.375h32.812c2.418 0 4.375 1.957 4.375 4.375s-1.957 4.375-4.375 4.375z"/>
  <path d="m350 218.75h-32.812c-2.418 0-4.375-1.957-4.375-4.375s1.957-4.375 4.375-4.375h32.812c2.418 0 4.375 1.957 4.375 4.375s-1.957 4.375-4.375 4.375z"/>
  <path d="m404.69 262.5h-87.5c-2.418 0-4.375-1.957-4.375-4.375s1.957-4.375 4.375-4.375h87.5c2.418 0 4.375 1.957 4.375 4.375s-1.957 4.375-4.375 4.375z"/>
  <path d="m557.81 382.81h-76.562c-2.418 0-4.375-1.957-4.375-4.375v-65.625c0-2.418 1.957-4.375 4.375-4.375h76.562c2.418 0 4.375 1.957 4.375 4.375v65.625c0 2.418-1.957 4.375-4.375 4.375zm-72.188-8.75h67.812v-56.875h-67.812z"/>
  <path d="m557.81 382.81c-1.0078 0-2.0195-0.34375-2.8477-1.0547l-76.562-65.625c-1.8359-1.5742-2.0469-4.3359-0.47656-6.168 1.5742-1.8359 4.3359-2.0469 6.168-0.47656l76.562 65.625c1.8359 1.5742 2.0469 4.3359 0.47656 6.1719-0.85938 1.0078-2.0859 1.5273-3.3203 1.5273z"/>
  <path d="m557.81 492.19h-76.562c-2.418 0-4.375-1.957-4.375-4.375v-65.625c0-2.418 1.957-4.375 4.375-4.375h76.562c2.418 0 4.375 1.957 4.375 4.375v65.625c0 2.418-1.957 4.375-4.375 4.375zm-72.188-8.75h67.812v-56.875h-67.812z"/>
  <path d="m557.81 492.19c-1.0078 0-2.0195-0.34375-2.8477-1.0547l-76.562-65.625c-1.8359-1.5742-2.0469-4.3359-0.47656-6.168 1.5742-1.8359 4.3359-2.0469 6.168-0.47656l76.562 65.625c1.8359 1.5742 2.0469 4.3359 0.47656 6.168-0.85938 1.0117-2.0859 1.5312-3.3203 1.5312z"/>
  <path d="m382.81 470.31c-38.598 0-70-31.402-70-70s31.402-70 70-70 70 31.402 70 70-31.402 70-70 70zm0-131.25c-33.773 0-61.25 27.477-61.25 61.25s27.477 61.25 61.25 61.25 61.25-27.477 61.25-61.25-27.477-61.25-61.25-61.25z"/>
  <path d="m360.94 415.62c-1.1172 0-2.2383-0.42578-3.0938-1.2812l-10.938-10.938c-1.707-1.7109-1.707-4.4805 0-6.1875l10.938-10.938c1.707-1.7109 4.4805-1.7109 6.1875 0 1.7109 1.7109 1.7109 4.4805 0 6.1875l-7.8438 7.8438 7.8438 7.8438c1.7109 1.7109 1.7109 4.4805 0 6.1875-0.85547 0.85547-1.9766 1.2812-3.0938 1.2812z"/>
  <path d="m404.69 415.62c-1.1172 0-2.2383-0.42578-3.0938-1.2812-1.7109-1.7109-1.7109-4.4805 0-6.1875l7.8438-7.8438-7.8438-7.8438c-1.7109-1.7109-1.7109-4.4805 0-6.1875 1.707-1.7109 4.4805-1.7109 6.1875 0l10.938 10.938c1.7109 1.7109 1.7109 4.4805 0 6.1875l-10.938 10.938c-0.85547 0.85547-1.9766 1.2812-3.0938 1.2812z"/>
  <path d="m175 535.94c-1.1211 0-2.2383-0.42578-3.0938-1.2812l-43.75-43.75c-0.82031-0.82031-1.2812-1.9336-1.2812-3.0938v-459.38c0-2.418 1.957-4.375 4.375-4.375h87.5c2.418 0 4.375 1.957 4.375 4.375v459.38c0 1.1602-0.46094 2.2734-1.2812 3.0938l-43.75 43.75c-0.85547 0.85547-1.9727 1.2812-3.0938 1.2812zm-39.375-49.938 39.375 39.375 39.375-39.375v-453.19h-78.75z"/>
  <path d="m98.438 175c-2.418 0-4.375-1.957-4.375-4.375v-98.438c0-2.418 1.957-4.375 4.375-4.375h109.38c2.418 0 4.375 1.957 4.375 4.375s-1.957 4.375-4.375 4.375h-105v94.062c0 2.418-1.957 4.375-4.375 4.375z"/>
  <path d="m207.81 492.19h-65.625c-2.418 0-4.375-1.957-4.375-4.375s1.957-4.375 4.375-4.375h65.625c2.418 0 4.375 1.957 4.375 4.375s-1.957 4.375-4.375 4.375z"/>
  <path d="m175 437.5c-2.418 0-4.375-1.957-4.375-4.375v-306.25c0-2.418 1.957-4.375 4.375-4.375s4.375 1.957 4.375 4.375v306.25c0 2.418-1.957 4.375-4.375 4.375z"/>
 </g>
</svg>
