<?xml version="1.0" encoding="UTF-8"?><svg id="Layer_1" xmlns="http://www.w3.org/2000/svg" viewBox="0 0 600 600"><defs><style>.cls-1{fill:#fff;}</style></defs><g><path d="m183.81,447.3c-3.93,0-7.47-2.48-8.61-6.03-.93-2.88-.47-5.88,1.25-8.24,1.7-2.33,4.42-3.73,7.28-3.73h15.41c2.86,0,5.58,1.39,7.28,3.73,1.72,2.36,2.17,5.36,1.25,8.24-1.14,3.55-4.68,6.03-8.61,6.03h-15.24Z"/><path class="cls-1" d="m199.13,431.8c2.06,0,4.03,1.01,5.26,2.7.73,1,1.82,3.11.89,6-.81,2.53-3.38,4.3-6.23,4.3h-15.24c-2.85,0-5.42-1.77-6.23-4.3-.93-2.89.16-5,.89-6,1.23-1.69,3.2-2.7,5.26-2.7h15.41m0-5h-15.41c-7.54,0-13.44,7.35-10.9,15.23,1.51,4.7,6.05,7.77,10.99,7.77h15.24c4.94,0,9.48-3.07,10.99-7.77,2.54-7.89-3.37-15.23-10.9-15.23h0Z"/></g><g><path d="m254.16,447.3c-3.93,0-7.47-2.48-8.61-6.03-.93-2.88-.47-5.88,1.25-8.24,1.7-2.33,4.42-3.73,7.28-3.73h15.41c2.86,0,5.58,1.39,7.28,3.73,1.72,2.36,2.17,5.36,1.25,8.24-1.14,3.55-4.68,6.03-8.61,6.03h-15.24Z"/><path class="cls-1" d="m269.48,431.8c2.06,0,4.03,1.01,5.26,2.7.73,1,1.82,3.11.89,6-.81,2.53-3.38,4.3-6.23,4.3h-15.24c-2.85,0-5.42-1.77-6.23-4.3-.93-2.89.16-5,.89-6,1.23-1.69,3.2-2.7,5.26-2.7h15.41m0-5h-15.41c-7.54,0-13.44,7.35-10.9,15.23,1.51,4.7,6.05,7.77,10.99,7.77h15.24c4.94,0,9.48-3.07,10.99-7.77,2.54-7.89-3.37-15.23-10.9-15.23h0Z"/></g><g><path d="m332.33,447.3c-3.93,0-7.47-2.48-8.61-6.03-.93-2.88-.47-5.88,1.25-8.24,1.7-2.33,4.42-3.73,7.28-3.73h15.41c2.86,0,5.58,1.39,7.28,3.73,1.72,2.36,2.17,5.36,1.25,8.24-1.14,3.55-4.68,6.03-8.61,6.03h-15.24Z"/><path class="cls-1" d="m347.65,431.8c2.06,0,4.03,1.01,5.26,2.7.73,1,1.81,3.11.89,6-.81,2.53-3.38,4.3-6.23,4.3h-15.24c-2.85,0-5.42-1.77-6.23-4.3-.93-2.89.16-5,.89-6,1.23-1.69,3.2-2.7,5.26-2.7h15.41m0-5h-15.41c-7.54,0-13.44,7.35-10.9,15.23,1.51,4.7,6.05,7.77,10.99,7.77h15.24c4.94,0,9.48-3.07,10.99-7.77,2.54-7.89-3.37-15.23-10.9-15.23h0Z"/></g><g><path d="m402.64,447.3c-4.96,0-9-4.04-9-9s4.04-9,9-9h15.41c2.86,0,5.58,1.4,7.28,3.73,1.72,2.36,2.17,5.36,1.25,8.24-1.14,3.55-4.68,6.03-8.61,6.03h-15.33Z"/><path class="cls-1" d="m402.64,431.8h15.41c2.06,0,4.03,1.01,5.26,2.7.73,1,1.82,3.11.89,6-.81,2.53-3.38,4.3-6.23,4.3h-15.33c-3.58,0-6.5-2.92-6.5-6.5s2.92-6.5,6.5-6.5m0-5c-6.33,0-11.5,5.17-11.5,11.5s5.12,11.5,11.5,11.5h15.33c4.94,0,9.48-3.07,10.99-7.77,2.54-7.89-3.37-15.23-10.9-15.23h-15.41Z"/></g><g><path d="m471.55,526.91c-2.29,0-4.49-1.22-6.19-3.44-2.66-3.47-3.5-8.62-2.2-13.44,1.25-4.64,4.66-7.76,8.47-7.78,16.14-.06,29.26-16.71,29.26-37.13v-52.89c0-39.92,10.2-78.64,28.71-109.04l.86-1.41-.95-1.34c-19.1-26.91-29.62-62.54-29.62-100.32v-67.87c0-19.12-12.32-34.68-27.45-34.68-2.23,0-4.38-1.17-6.06-3.29-2.62-3.3-3.57-8.28-2.48-12.98,1.15-4.94,4.73-8.39,8.7-8.39,24.99.14,45.29,26.77,45.29,59.35v67.87c0,35.4,11.35,68.7,31.15,91.36,1.88,2.17,3.04,5.44,3.17,8.98.14,3.52-.8,6.95-2.58,9.4-19.83,27.43-30.75,63.81-30.75,102.44v52.81c0,34.07-21.24,61.79-47.35,61.79Z"/><path class="cls-1" d="m472.61,75.41h.02c23.58.13,42.77,25.64,42.77,56.85v67.87c0,36,11.58,69.9,31.76,92.98,1.5,1.73,2.46,4.51,2.57,7.45.11,2.93-.67,5.86-2.11,7.84-20.13,27.85-31.22,64.75-31.22,103.9v52.81c0,32.69-20.12,59.29-44.85,59.29-2.02,0-3.5-1.54-4.2-2.46-1.72-2.25-3.09-6.39-1.77-11.26.94-3.48,3.44-5.92,6.07-5.93,17.51-.06,31.75-17.84,31.75-39.63v-52.89c0-19.84,2.46-39.23,7.32-57.63,4.83-18.27,11.9-35.13,21.03-50.11l1.71-2.81-1.9-2.68c-18.8-26.49-29.15-61.61-29.15-98.87v-67.87c0-20.5-13.44-37.18-29.95-37.18-1.96,0-3.41-1.47-4.11-2.34-1.69-2.13-3.11-6.1-2-10.86.89-3.8,3.46-6.46,6.27-6.46m0-5c-5.05,0-9.68,4.08-11.14,10.33-2.34,10.05,3.52,19.33,10.97,19.33,13.74,0,24.95,14.46,24.95,32.18v67.87c0,38.36,10.85,74.67,30.08,101.77-18.8,30.87-29.08,69.52-29.08,110.34v52.89c0,19.1-12.03,34.57-26.77,34.63-4.82.02-9.29,3.76-10.88,9.63-2.79,10.31,3.17,20.03,10.8,20.03,27.49,0,49.85-28.84,49.85-64.29v-52.81c0-38.14,10.74-73.95,30.27-100.97,2.11-2.91,3.21-6.9,3.05-10.97-.16-4.07-1.53-7.92-3.79-10.53-19.43-22.23-30.54-54.92-30.54-89.71v-67.87c0-34.02-21.39-61.7-47.74-61.85-.02,0-.04,0-.05,0h0Z"/></g><g><path d="m129.14,525.6c-10.02,0-19.53-4.22-27.5-12.2-11.31-11.33-17.78-28.41-17.75-46.86v-54.33l-.03-.2c-.03-.19-3.07-18.87-8.64-40.6-7.52-29.36-15.83-50.06-24.71-61.5-1.88-2.49-2.89-5.9-2.74-9.33.1-3.47,1.33-6.71,3.39-8.94,8.87-9.51,17.07-27.76,24.38-54.22,5.4-19.55,8.29-36.6,8.32-36.77l.03-.21v-68.08c0-32.72,20.39-59.35,45.45-59.35,2.39,0,4.65,1.31,6.38,3.7,2.71,3.74,3.36,9.17,1.72,14.15-1.37,4.14-4.53,6.81-8.07,6.81-15.17,0-27.48,15.56-27.48,34.68v67.87c0,37.78-10.52,73.41-29.62,100.32l-.95,1.34.86,1.41c18.52,30.4,28.71,69.12,28.71,109.04v54.13c0,19.4,12.48,35.42,27.82,35.7,4.53.08,8.35,4.48,8.88,10.23.38,4.07-.81,8.04-3.18,10.64-1.07,1.17-2.85,2.57-5.28,2.57h0Z"/><path class="cls-1" d="m129.35,75.5c2.11,0,3.63,1.67,4.35,2.66,1.76,2.43,3.04,6.84,1.37,11.9-1.02,3.09-3.26,5.09-5.72,5.09-16.52,0-29.95,16.68-29.95,37.18v67.87c0,37.27-10.35,72.38-29.15,98.87l-1.9,2.68,1.71,2.81c9.13,14.98,16.2,31.84,21.03,50.11,4.86,18.39,7.32,37.78,7.32,57.63v54.13c0,9.85,3,19.2,8.44,26.33,5.73,7.5,13.48,11.72,21.83,11.87,2.81.05,5.98,3.04,6.44,7.96.31,3.38-.64,6.64-2.54,8.72-.73.8-1.92,1.76-3.43,1.76-9.34,0-18.24-3.97-25.73-11.47-10.85-10.86-17.05-27.3-17.02-45.1v-54.53l-.06-.4c-.5-3.07-12.4-75.55-33.82-103.21-1.52-2.03-2.36-4.91-2.24-7.72v-.04s0-.04,0-.04c.08-2.84,1.07-5.49,2.71-7.26,21.5-23.06,32.87-89.48,33.34-92.29l.07-.41v-68.29c0-31.35,19.27-56.85,42.95-56.85m0-5c-26.45,0-47.95,27.73-47.95,61.85v67.87s-11.34,67.48-32.07,89.71c-2.42,2.61-3.94,6.39-4.05,10.53-.17,4.07,1.07,8.06,3.27,10.97,20.89,26.95,32.85,100.97,32.85,100.97v54.13c-.06,33.91,21.39,61.57,47.75,61.57h0c6.5,0,11.74-7.36,10.95-15.94-.67-7.23-5.68-12.4-11.32-12.5-14.05-.26-25.37-15.09-25.37-33.2v-54.13c0-40.82-10.27-79.47-29.08-110.34,19.23-27.09,30.08-63.34,30.08-101.77v-67.87c0-17.72,11.21-32.18,24.95-32.18h.03c4.48,0,8.68-3.21,10.44-8.52,3.54-10.71-2.56-21.13-10.47-21.13h0Z"/></g><g><path d="m315.66,339.3c-4.83,0-8.76-3.93-8.76-8.76v-85.89c0-4.96-4.04-8.99-9-8.99-23.66,0-44.54-15.12-51.96-37.63l-.57-1.72h-22.27l-24.87,23.45c-1.65,1.61-3.83,2.48-6.16,2.48-2.5,0-4.81-1-6.5-2.82-3.4-3.63-3.24-9.35.35-12.76l20.05-18.9-18.06-14.85c-3.81-3.18-4.36-8.88-1.21-12.69,1.73-2.07,4.27-3.26,6.98-3.26,2.08,0,4.11.73,5.71,2.05l23.46,19.32h22.2l.19-2.29c2.31-27.87,25.99-49.71,53.93-49.71h53.81c35.79,0,64.92,29.12,64.92,64.92v139.48c-.13,4.72-4.05,8.55-8.86,8.6h-93.38Zm-8.35-122.29c9.7,0,17.58,7.87,17.58,17.54v86.75h76.01v-129.75c0-26.06-21.39-47.25-47.67-47.25h-54.66c-18.48,0-34.32,13.83-36.84,32.16l-.39,2.84h32.55c3.23,0,6.24,1.89,7.66,4.82,1.55,3.19.95,6.92-1.66,10.22-.97,1.23-2.55,1.96-4.24,1.96h-29.84l2.28,3.79c6.51,10.82,18.37,17.55,30.97,17.55,1.84,0,3.71-.14,5.56-.42.89-.13,1.8-.2,2.69-.2Z"/><path class="cls-1" d="m352.98,128.8c34.42,0,62.42,28,62.42,62.42v139.45c-.11,3.37-2.94,6.11-6.35,6.14h-93.39c-3.45,0-6.26-2.81-6.26-6.26v-85.89c0-6.34-5.16-11.49-11.5-11.49-22.58,0-42.51-14.43-49.58-35.91l-1.13-3.44h-25.07l-1.44,1.36-24.15,22.77-.03.03-.03.03c-1.16,1.12-2.71,1.74-4.39,1.74-1.8,0-3.46-.72-4.69-2.04-2.46-2.62-2.34-6.76.24-9.21l17.99-16.96,4.13-3.89-4.38-3.61-15.84-13.03c-2.77-2.31-3.17-6.44-.92-9.17,1.26-1.51,3.11-2.38,5.07-2.38,1.52,0,2.95.51,4.12,1.48l22.77,18.74,1.38,1.14h25.4l.38-4.59c1.07-12.88,6.89-24.83,16.4-33.65,9.56-8.87,22.01-13.76,35.04-13.76h53.81m-94.5,53h35.41c2.28,0,4.4,1.34,5.41,3.41,1.13,2.33.64,5.03-1.37,7.58-.5.63-1.35,1.01-2.27,1.01h-34.26l4.55,7.58c6.96,11.57,19.64,18.76,33.11,18.76,1.97,0,3.96-.15,5.93-.45.77-.12,1.55-.17,2.32-.17,8.32,0,15.09,6.75,15.09,15.04v89.25h81.01v-5s0-127.25,0-127.25c0-27.43-22.5-49.75-50.16-49.75h-54.66c-19.73,0-36.63,14.75-39.31,34.32l-.78,5.68m94.5-58h-53.81c-29.69,0-54.01,22.93-56.42,52h-19l-22.77-18.74c-2.14-1.76-4.72-2.62-7.3-2.62-3.32,0-6.62,1.42-8.91,4.17-4.02,4.88-3.33,12.13,1.55,16.21l15.87,13.05-17.99,16.96c-4.6,4.37-4.83,11.61-.46,16.27,2.24,2.42,5.29,3.62,8.34,3.62,2.82,0,5.69-1.03,7.88-3.16l24.15-22.77h19.47c7.51,22.81,29.03,39.35,54.33,39.35,3.56,0,6.5,2.88,6.5,6.49v85.89c0,6.19,5.07,11.26,11.26,11.26h93.39c6.26-.06,11.35-5.08,11.35-11.35h0s0-139.24,0-139.24c0-37.23-30.18-67.42-67.42-67.42h0Zm-88.77,53c2.32-16.92,16.81-30,34.36-30h54.66c24.88,0,45.16,20.05,45.16,44.75v127.25s-71,0-71,0v-84.25c0-11.26-9.2-20.04-20.09-20.04-1.01,0-2.03.08-3.06.23-1.75.26-3.48.39-5.19.39-12.21,0-22.94-6.55-28.82-16.34h25.42c2.4,0,4.72-1.03,6.2-2.91,7.08-8.98.68-19.09-7.96-19.09h-29.68Z"/></g></svg>