<?xml version="1.0" encoding="UTF-8"?>
<svg width="700pt" height="600pt" version="1.1" viewBox="0 0 700 700" xmlns="http://www.w3.org/2000/svg" xmlns:xlink="http://www.w3.org/1999/xlink">
 <defs>
  <symbol id="t" overflow="visible">
   <path d="m3.6562-0.21875c-0.1875 0.09375-0.38672 0.16797-0.59375 0.21875-0.19922 0.050781-0.40625 0.078125-0.625 0.078125-0.66797 0-1.1992-0.17969-1.5938-0.54688-0.38672-0.375-0.57812-0.87891-0.57812-1.5156 0-0.64453 0.19141-1.1484 0.57812-1.5156 0.39453-0.375 0.92578-0.5625 1.5938-0.5625 0.21875 0 0.42578 0.027344 0.625 0.078125 0.20703 0.054687 0.40625 0.125 0.59375 0.21875v0.82812c-0.1875-0.125-0.375-0.21875-0.5625-0.28125-0.17969-0.0625-0.37109-0.09375-0.57812-0.09375-0.36719 0-0.65625 0.12109-0.875 0.35938-0.21094 0.23047-0.3125 0.55469-0.3125 0.96875 0 0.40625 0.10156 0.73047 0.3125 0.96875 0.21875 0.23047 0.50781 0.34375 0.875 0.34375 0.20703 0 0.39844-0.023437 0.57812-0.078125 0.1875-0.0625 0.375-0.16016 0.5625-0.29688z"/>
  </symbol>
  <symbol id="c" overflow="visible">
   <path d="m2.6875-2.1719c-0.085938-0.039063-0.16797-0.070313-0.25-0.09375-0.085938-0.019531-0.16797-0.03125-0.25-0.03125-0.25 0-0.44531 0.085937-0.57812 0.25-0.125 0.15625-0.1875 0.38281-0.1875 0.67188v1.375h-0.96875v-2.9844h0.96875v0.48438c0.11328-0.19531 0.25-0.33594 0.40625-0.42188 0.16406-0.09375 0.35938-0.14062 0.57812-0.14062h0.10938c0.039063 0 0.09375 0.007812 0.15625 0.015625z"/>
  </symbol>
  <symbol id="b" overflow="visible">
   <path d="m3.4375-1.5v0.26562h-2.2344c0.03125 0.23047 0.11328 0.40234 0.25 0.51562 0.13281 0.10547 0.32812 0.15625 0.57812 0.15625 0.20703 0 0.41406-0.023438 0.625-0.078125 0.20703-0.0625 0.42188-0.15625 0.64062-0.28125v0.73438c-0.21875 0.09375-0.44531 0.16406-0.67188 0.20312-0.23047 0.039062-0.45312 0.0625-0.67188 0.0625-0.54297 0-0.96484-0.13281-1.2656-0.40625-0.30469-0.28125-0.45312-0.67188-0.45312-1.1719 0-0.47656 0.14453-0.85938 0.4375-1.1406 0.30078-0.28125 0.70703-0.42188 1.2188-0.42188 0.46875 0 0.84375 0.14062 1.125 0.42188s0.42188 0.66406 0.42188 1.1406zm-0.96875-0.32812c0-0.17578-0.058594-0.31641-0.17188-0.42188-0.10547-0.11328-0.24219-0.17188-0.40625-0.17188-0.1875 0-0.33984 0.054687-0.45312 0.15625-0.11719 0.10547-0.1875 0.25-0.21875 0.4375z"/>
  </symbol>
  <symbol id="d" overflow="visible">
   <path d="m1.7969-1.3438c-0.19922 0-0.35156 0.039062-0.45312 0.10938-0.09375 0.0625-0.14062 0.16406-0.14062 0.29688 0 0.11719 0.035156 0.21094 0.10938 0.28125 0.082031 0.0625 0.19531 0.09375 0.34375 0.09375 0.17578 0 0.32812-0.0625 0.45312-0.1875s0.1875-0.28516 0.1875-0.48438v-0.10938zm1.4688-0.35938v1.7031h-0.96875v-0.4375c-0.125 0.17969-0.27344 0.30859-0.4375 0.39062-0.15625 0.082031-0.35156 0.125-0.57812 0.125-0.3125 0-0.57031-0.085938-0.76562-0.26562-0.1875-0.1875-0.28125-0.42188-0.28125-0.70312 0-0.35156 0.11719-0.61328 0.35938-0.78125 0.23828-0.16406 0.61719-0.25 1.1406-0.25h0.5625v-0.0625c0-0.15625-0.0625-0.26562-0.1875-0.32812-0.11719-0.070312-0.29688-0.10938-0.54688-0.10938-0.21094 0-0.40234 0.023437-0.57812 0.0625-0.17969 0.042969-0.33984 0.10156-0.48438 0.17188v-0.71875c0.19531-0.050781 0.39844-0.085938 0.60938-0.10938 0.20703-0.03125 0.41406-0.046875 0.625-0.046875 0.53906 0 0.92969 0.10938 1.1719 0.32812 0.23828 0.21094 0.35938 0.55469 0.35938 1.0312z"/>
  </symbol>
  <symbol id="a" overflow="visible">
   <path d="m1.5-3.8438v0.85938h0.98438v0.67188h-0.98438v1.2812c0 0.13672 0.023438 0.23047 0.078125 0.28125 0.0625 0.042969 0.17578 0.0625 0.34375 0.0625h0.48438v0.6875h-0.8125c-0.38672 0-0.65625-0.078125-0.8125-0.23438s-0.23438-0.42188-0.23438-0.79688v-1.2812h-0.46875v-0.67188h0.46875v-0.85938z"/>
  </symbol>
  <symbol id="i" overflow="visible">
   <path d="m2.5-2.5469v-1.6094h0.95312v4.1562h-0.95312v-0.4375c-0.13672 0.17969-0.28125 0.30859-0.4375 0.39062-0.15625 0.082031-0.33984 0.125-0.54688 0.125-0.375 0-0.68359-0.14453-0.92188-0.4375-0.23047-0.28906-0.34375-0.67188-0.34375-1.1406 0-0.45703 0.11328-0.83203 0.34375-1.125 0.23828-0.28906 0.54688-0.4375 0.92188-0.4375 0.19531 0 0.375 0.042969 0.53125 0.125 0.16406 0.085938 0.31641 0.21484 0.45312 0.39062zm-0.64062 1.9375c0.20703 0 0.36328-0.070313 0.46875-0.21875 0.11328-0.15625 0.17188-0.37891 0.17188-0.67188 0-0.28125-0.058594-0.49219-0.17188-0.64062-0.10547-0.15625-0.26172-0.23438-0.46875-0.23438-0.19922 0-0.35547 0.078125-0.46875 0.23438-0.10547 0.14844-0.15625 0.35938-0.15625 0.64062 0 0.29297 0.050781 0.51562 0.15625 0.67188 0.11328 0.14844 0.26953 0.21875 0.46875 0.21875z"/>
  </symbol>
  <symbol id="h" overflow="visible">
   <path d="m2.0469-0.60938c0.20703 0 0.36328-0.070313 0.46875-0.21875 0.11328-0.15625 0.17188-0.37891 0.17188-0.67188 0-0.28125-0.058594-0.49219-0.17188-0.64062-0.10547-0.15625-0.26172-0.23438-0.46875-0.23438-0.19922 0-0.35547 0.078125-0.46875 0.23438-0.10547 0.14844-0.15625 0.35938-0.15625 0.64062 0 0.29297 0.050781 0.51562 0.15625 0.67188 0.11328 0.14844 0.26953 0.21875 0.46875 0.21875zm-0.625-1.9375c0.125-0.17578 0.26562-0.30469 0.42188-0.39062 0.16406-0.082031 0.35156-0.125 0.5625-0.125 0.36328 0 0.66406 0.14844 0.90625 0.4375 0.23828 0.29297 0.35938 0.66797 0.35938 1.125 0 0.46875-0.12109 0.85156-0.35938 1.1406-0.24219 0.29297-0.54297 0.4375-0.90625 0.4375-0.21094 0-0.39844-0.042969-0.5625-0.125-0.15625-0.082031-0.29688-0.21094-0.42188-0.39062v0.4375h-0.96875v-4.1562h0.96875z"/>
  </symbol>
  <symbol id="g" overflow="visible">
   <path d="m0.0625-2.9844h0.95312l0.8125 2.0156 0.6875-2.0156h0.95312l-1.2656 3.2656c-0.125 0.33203-0.27344 0.56641-0.4375 0.70312-0.16797 0.13281-0.39062 0.20312-0.67188 0.20312h-0.54688v-0.64062h0.29688c0.16406 0 0.28516-0.027344 0.35938-0.078125 0.070313-0.054688 0.12891-0.14062 0.17188-0.26562l0.03125-0.09375z"/>
  </symbol>
  <symbol id="f" overflow="visible">
   <path d="m0.5-3.9844h2.7812v0.78125h-1.75v0.73438h1.6406v0.78125h-1.6406v1.6875h-1.0312z"/>
  </symbol>
  <symbol id="s" overflow="visible">
   <path d="m0.45312-4.1562h0.96875v4.1562h-0.96875z"/>
  </symbol>
  <symbol id="r" overflow="visible">
   <path d="m2.4219-4.1562v0.625h-0.51562c-0.13672 0-0.23438 0.027344-0.29688 0.078125-0.054687 0.054687-0.078125 0.13672-0.078125 0.25v0.21875h0.82812v0.67188h-0.82812v2.3125h-0.95312v-2.3125h-0.46875v-0.67188h0.46875v-0.21875c0-0.32031 0.085937-0.5625 0.26562-0.71875 0.1875-0.15625 0.47266-0.23438 0.85938-0.23438z"/>
  </symbol>
  <symbol id="e" overflow="visible">
   <path d="m1.875-2.375c-0.21094 0-0.37109 0.078125-0.48438 0.23438-0.10547 0.14844-0.15625 0.35938-0.15625 0.64062 0 0.29297 0.050781 0.51562 0.15625 0.67188 0.11328 0.14844 0.27344 0.21875 0.48438 0.21875 0.20703 0 0.36719-0.070313 0.48438-0.21875 0.11328-0.15625 0.17188-0.37891 0.17188-0.67188 0-0.28125-0.058594-0.49219-0.17188-0.64062-0.11719-0.15625-0.27734-0.23438-0.48438-0.23438zm0-0.6875c0.51953 0 0.92188 0.14062 1.2031 0.42188 0.28906 0.27344 0.4375 0.65234 0.4375 1.1406 0 0.5-0.14844 0.89062-0.4375 1.1719-0.28125 0.27344-0.68359 0.40625-1.2031 0.40625-0.51172 0-0.91406-0.13281-1.2031-0.40625-0.29297-0.28125-0.4375-0.67188-0.4375-1.1719 0-0.48828 0.14453-0.86719 0.4375-1.1406 0.28906-0.28125 0.69141-0.42188 1.2031-0.42188z"/>
  </symbol>
  <symbol id="q" overflow="visible">
   <path d="m3.2344-2.5c0.11328-0.17578 0.25391-0.3125 0.42188-0.40625 0.16406-0.10156 0.35156-0.15625 0.5625-0.15625 0.33203 0 0.58594 0.10938 0.76562 0.32812 0.1875 0.21094 0.28125 0.51172 0.28125 0.90625v1.8281h-0.96875v-1.5625c0.007813-0.019531 0.015625-0.039062 0.015625-0.0625v-0.10938c0-0.21875-0.03125-0.375-0.09375-0.46875s-0.16406-0.14062-0.29688-0.14062c-0.1875 0-0.33594 0.078125-0.4375 0.23438-0.09375 0.14844-0.14062 0.35938-0.14062 0.64062v1.4688h-0.96875v-1.5625c0-0.33203-0.03125-0.54688-0.09375-0.64062-0.054688-0.09375-0.15234-0.14062-0.29688-0.14062-0.17969 0-0.32031 0.078125-0.42188 0.23438-0.09375 0.14844-0.14062 0.35938-0.14062 0.64062v1.4688h-0.96875v-2.9844h0.96875v0.4375c0.11328-0.17578 0.24219-0.30469 0.39062-0.39062 0.15625-0.082031 0.32812-0.125 0.51562-0.125 0.20703 0 0.39062 0.054688 0.54688 0.15625 0.15625 0.09375 0.27344 0.23047 0.35938 0.40625z"/>
  </symbol>
  <symbol id="p" overflow="visible">
   <path d="m3.4688-1.8281v1.8281h-0.96875v-1.3906c0-0.25781-0.007812-0.4375-0.015625-0.53125-0.011719-0.10156-0.03125-0.17578-0.0625-0.21875-0.03125-0.0625-0.085937-0.10938-0.15625-0.14062-0.0625-0.039062-0.13281-0.0625-0.20312-0.0625-0.21094 0-0.37109 0.078125-0.48438 0.23438-0.10547 0.15625-0.15625 0.37109-0.15625 0.64062v1.4688h-0.96875v-4.1562h0.96875v1.6094c0.13281-0.17578 0.28516-0.30469 0.45312-0.39062 0.16406-0.082031 0.34375-0.125 0.53125-0.125 0.34375 0 0.60156 0.10938 0.78125 0.32812 0.1875 0.21094 0.28125 0.51172 0.28125 0.90625z"/>
  </symbol>
  <symbol id="o" overflow="visible">
   <path d="m0.5-3.9844h1.1562l1.4375 2.7344v-2.7344h0.98438v3.9844h-1.1562l-1.4375-2.7344v2.7344h-0.98438z"/>
  </symbol>
  <symbol id="n" overflow="visible">
   <path d="m0.42188-1.1719v-1.8125h0.96875v0.29688 0.60938 0.48438c0 0.24219 0.003906 0.41797 0.015625 0.53125 0.007812 0.10547 0.03125 0.17969 0.0625 0.21875 0.039062 0.0625 0.09375 0.11719 0.15625 0.15625 0.0625 0.03125 0.13281 0.046875 0.21875 0.046875 0.19531 0 0.35156-0.078125 0.46875-0.23438 0.11328-0.15625 0.17188-0.36719 0.17188-0.64062v-1.4688h0.95312v2.9844h-0.95312v-0.4375c-0.14844 0.17969-0.30469 0.30859-0.46875 0.39062-0.15625 0.082031-0.33594 0.125-0.53125 0.125-0.34375 0-0.60938-0.10156-0.79688-0.3125-0.17969-0.21875-0.26562-0.53125-0.26562-0.9375z"/>
  </symbol>
  <symbol id="m" overflow="visible">
   <path d="m3.4688-1.8281v1.8281h-0.96875v-1.3906c0-0.25781-0.007812-0.4375-0.015625-0.53125-0.011719-0.10156-0.03125-0.17578-0.0625-0.21875-0.03125-0.0625-0.085937-0.10938-0.15625-0.14062-0.0625-0.039062-0.13281-0.0625-0.20312-0.0625-0.21094 0-0.37109 0.078125-0.48438 0.23438-0.10547 0.15625-0.15625 0.37109-0.15625 0.64062v1.4688h-0.96875v-2.9844h0.96875v0.4375c0.13281-0.17578 0.28516-0.30469 0.45312-0.39062 0.16406-0.082031 0.34375-0.125 0.53125-0.125 0.34375 0 0.60156 0.10938 0.78125 0.32812 0.1875 0.21094 0.28125 0.51172 0.28125 0.90625z"/>
  </symbol>
  <symbol id="l" overflow="visible">
   <path d="m0.5-3.9844h1.7031c0.50781 0 0.89844 0.11719 1.1719 0.34375 0.26953 0.21875 0.40625 0.53906 0.40625 0.95312 0 0.41797-0.13672 0.74219-0.40625 0.96875-0.27344 0.21875-0.66406 0.32812-1.1719 0.32812h-0.67188v1.3906h-1.0312zm1.0312 0.75v1.1094h0.5625c0.19531 0 0.34766-0.046875 0.45312-0.14062 0.11328-0.10156 0.17188-0.24219 0.17188-0.42188 0-0.17578-0.058594-0.3125-0.17188-0.40625-0.10547-0.09375-0.25781-0.14062-0.45312-0.14062z"/>
  </symbol>
  <symbol id="k" overflow="visible">
   <path d="m0.45312-2.9844h0.96875v2.9375c0 0.39453-0.10156 0.69531-0.29688 0.90625-0.1875 0.21875-0.46484 0.32812-0.82812 0.32812h-0.48438v-0.64062h0.17188c0.17578 0 0.29688-0.042969 0.35938-0.125 0.070312-0.074219 0.10938-0.23047 0.10938-0.46875zm0-1.1719h0.96875v0.78125h-0.96875z"/>
  </symbol>
  <symbol id="j" overflow="visible">
   <path d="m2.875-2.8906v0.76562c-0.125-0.082031-0.25781-0.14453-0.39062-0.1875-0.13672-0.039062-0.27344-0.0625-0.40625-0.0625-0.27344 0-0.48047 0.078125-0.625 0.23438-0.14844 0.15625-0.21875 0.37109-0.21875 0.64062 0 0.28125 0.070313 0.5 0.21875 0.65625 0.14453 0.15625 0.35156 0.23438 0.625 0.23438 0.14453 0 0.28516-0.019531 0.42188-0.0625 0.13281-0.039063 0.25781-0.10938 0.375-0.20312v0.78125c-0.14844 0.0625-0.29688 0.10156-0.45312 0.125-0.15625 0.03125-0.3125 0.046875-0.46875 0.046875-0.54297 0-0.96484-0.13281-1.2656-0.40625-0.30469-0.28125-0.45312-0.67188-0.45312-1.1719 0-0.48828 0.14844-0.86719 0.45312-1.1406 0.30078-0.28125 0.72266-0.42188 1.2656-0.42188 0.15625 0 0.3125 0.015625 0.46875 0.046875 0.15625 0.023437 0.30469 0.0625 0.45312 0.125z"/>
  </symbol>
 </defs>
 <g>
  <path d="m409.52 472.32h-20.605c-2.418 0-4.375-1.957-4.375-4.375 0-2.4062 1.957-4.375 4.375-4.375h20.605c2.418 0 4.375 1.9688 4.375 4.375 0 2.418-1.9609 4.375-4.375 4.375z"/>
  <path d="m409.52 485.21h-20.605c-2.418 0-4.375-1.957-4.375-4.375 0-2.4062 1.957-4.3633 4.375-4.3633h20.605c2.418 0 4.375 1.957 4.375 4.3633 0 2.4141-1.9609 4.375-4.375 4.375z"/>
  <path d="m349.32 511.56c-30.176 0-60.57-3.5117-90.355-10.434-1.9922-0.46094-3.3789-2.2188-3.3789-4.2656 0-7.3828-0.085938-13.77-0.16406-19.402-0.054687-4.4297-0.097656-8.2695-0.097656-11.77 0-8.6641 0.27344-14.723 1.6406-19.984 1.3242-5.2383 4.1328-9.7227 8.3555-13.312 5.1523-4.375 12.043-8.0508 22.465-13.605 6.3125-3.3594 14.164-7.5469 23.539-12.938 1.0078-0.57812 2.2422-0.72266 3.3672-0.41406 1.1172 0.31641 2.0898 1.0938 2.6484 2.1094l19.48 35.602 10.074-10.043c0.83203-0.82031 1.9258-1.2812 3.0938-1.2812 1.1055 0 2.1641 0.41406 2.9766 1.1719l8.8906 8.2695c1.7734 1.6406 1.8711 4.4062 0.23047 6.1797-0.83203 0.88672-1.9922 1.3984-3.2031 1.3984-1.1172 0-2.1641-0.41406-2.9844-1.1719l-5.8086-5.4023-11.223 11.188c-0.96094 0.96094-2.375 1.4219-3.707 1.2344-1.3555-0.19531-2.5586-1.0273-3.2148-2.2305l-20.148-36.816c-7.832 4.418-14.59 8.0391-20.027 10.938-2.9961 1.5977-5.5781 2.9766-7.9414 4.2773-8.1055 4.418-12.391 7.3594-14.832 10.16-1.7734 2.0234-2.8008 4.0234-3.5664 6.8906-0.96094 3.6328-1.3789 8.9492-1.3672 17.773 0 3.3906 0.054688 7.1758 0.10938 11.551 0.066406 4.7227 0.13281 10.086 0.15234 16.133 28.023 6.2656 56.625 9.4375 84.996 9.4375 28.426 0 57.453-3.1836 86.297-9.4609 0.023437-5.8828 0.085937-11.125 0.15234-15.75 0.042969-4.332 0.097657-8.082 0.097657-11.453 0.011718-8.9258-0.39453-14.305-1.3555-17.992-1.0703-3.9727-2.4844-6.2578-5.6211-9.0664-3.8945-3.4883-10.797-7.1953-21.25-12.809-5.6211-3.0195-12-6.4414-19.633-10.742l-1.4766 2.4297v0.011719c-0.80859 1.3242-2.2109 2.1133-3.75 2.1133-0.79688 0-1.5742-0.21875-2.2656-0.63281-2.0352-1.2344-2.7109-3.9141-1.4961-5.9727 0.011719-0.011718 0.023438-0.023437 0.03125-0.042968l3.6758-6.0586c0.79688-1.3242 2.1992-2.1094 3.7422-2.1094 0.75391 0 1.5078 0.19531 2.1758 0.57812 9.0781 5.1953 16.766 9.3086 22.938 12.609 3.3047 1.7734 6.1562 3.293 8.793 4.7461 8.2031 4.5508 13.367 7.8438 17.172 12.184 2.582 2.9414 4.4062 6.4961 5.4453 10.59 1.3438 5.3164 1.6172 11.418 1.6289 20.168 0 3.4883-0.054688 7.2852-0.10938 11.672-0.066407 5.5469-0.14062 11.812-0.14062 19.043 0 2.0664-1.3984 3.8164-3.4141 4.2773-30.625 6.9258-61.457 10.426-91.637 10.426zm22.105-72.777c-0.79688 0-1.5742-0.21875-2.2656-0.63281-2.0547-1.2461-2.7227-3.9492-1.4648-6.0039 0.79688-1.3242 2.1992-2.1094 3.7422-2.1094 0.79688 0 1.5859 0.21875 2.2656 0.63281 2.0664 1.2578 2.7227 3.9492 1.4766 6.0156-0.8125 1.3086-2.2109 2.0977-3.7539 2.0977z"/>
  <path d="m350.78 399.77c-7.6328 0-15.137-2.6797-21.711-7.7539-5.6758-4.375-10.773-10.469-15.137-18.102-7.4375-13.113-12.086-29.672-12.129-43.227 0-6.5938 1.3008-13.004 3.8516-19.043 2.4727-5.8398 5.9922-11.078 10.5-15.586 9.2539-9.2734 21.57-14.383 34.672-14.383 26.984 0.011719 48.957 21.996 48.969 49.012-0.023438 9.7031-2.5273 21.48-6.8789 32.309-5.1094 12.633-12.152 22.664-20.367 29.016-6.5625 5.0742-14.055 7.7539-21.676 7.7539zm0.042968-109.34c-10.75 0-20.867 4.1992-28.48 11.812-7.6016 7.625-11.789 17.719-11.789 28.449-0.011719 8.5 2.3203 19.348 6.2344 29.039 4.4531 11.059 10.695 20.07 17.609 25.352 5.2188 3.9805 10.586 5.9297 16.43 5.9414 5.8281-0.011719 11.188-1.957 16.383-5.9414 4.6914-3.6094 9.1328-8.9688 12.852-15.5 7.625-13.312 11.016-29.125 10.98-38.895-0.011718-10.719-4.1992-20.824-11.801-28.449-7.6133-7.6055-17.711-11.809-28.418-11.809z"/>
  <path d="m363 452.67c-1.1172 0-2.1641-0.41406-2.9844-1.1719l-13.016-12.098c-1.6172-1.5117-1.8594-4.0039-0.54688-5.7852l26.305-35.898c0.73438-0.99609 1.8594-1.6406 3.0938-1.7617 1.2344-0.12109 2.4727 0.28516 3.3906 1.125l10.172 9.3281c1.5312 1.4102 1.8711 3.7188 0.78906 5.5l-23.461 38.641c-0.6875 1.1367-1.8359 1.8828-3.1406 2.0664-0.19531 0.042968-0.39453 0.054687-0.60156 0.054687zm-7.1875-17.031 6.2344 5.7969 18.812-30.996-3.9375-3.6094z"/>
  <path d="m335.77 454.74c-0.20703 0-0.41406-0.023437-0.61328-0.042969-1.3555-0.19531-2.5586-1.0273-3.2148-2.2305l-22.281-40.719c-0.97266-1.7734-0.60156-3.9609 0.88672-5.3281l10.215-9.3398c0.91797-0.83203 2.1562-1.2461 3.3906-1.1172 1.2461 0.12109 2.3516 0.74609 3.0938 1.7617l26.262 35.898c1.2891 1.75 1.1055 4.1445-0.4375 5.6758l-14.207 14.164c-0.80859 0.80469-1.9336 1.2773-3.0938 1.2773zm-16.777-44.176 17.828 32.582 7.4141-7.3945-21.164-28.918z"/>
  <path d="m337.42 335.07c-4.6719 0-9.1562-1.0508-12.984-3.0195-4.418-2.2734-7.9609-5.8398-10.227-10.293v-0.011718c-0.52344-1.0391-0.625-2.2188-0.26172-3.3242 0.35938-1.1172 1.1367-2.0117 2.1758-2.5469 0.625-0.31641 1.2891-0.48047 1.9805-0.48047 1.6523 0 3.1484 0.91797 3.9062 2.3867 1.4766 2.875 3.5859 5.0078 6.4531 6.4961 2.5703 1.3359 5.6641 2.0469 8.9375 2.0469h0.023437 0.1875c4.7266 0 9.7578-1.6953 12.227-4.125 4.8125-4.5156 7.5039-6.9141 9.832-8.2891 0.085937-0.054687 0.1875-0.097656 0.27344-0.15234 0.73438-0.38281 1.4883-0.78906 3.0078-0.84375h0.023437c0.46094 0 1.3555 0.066407 2.2852 0.57031 0.74219 0.39453 1.4336 1.0508 1.8477 1.7734 0.67969 1.2031 0.71094 2.0469 0.73438 2.6602v0.15234c-0.011719 0.79688-0.10938 1.3984-0.19531 1.8828 2.9844-1.0273 7.4375-2.3828 11.988-2.4062 2.6133 0.011719 4.6914 0.46094 6.5508 1.4336 2.2969 1.1484 4.1445 3.4453 4.8359 5.9922 0.65625 2.3203-0.6875 4.7461-3.0078 5.4023-0.39453 0.12109-0.79688 0.17578-1.2031 0.17578-1.9453 0-3.6758-1.3008-4.2109-3.1719-0.16406-0.44922-0.16406-0.44922-0.37109-0.57812-0.03125-0.03125-0.078125-0.054687-0.13281-0.085937-0.35938-0.20703-1.2461-0.42578-2.3945-0.42578h-0.1875c-2.875 0-7.0859 1.2031-9.832 2.2305-1.9023 0.6875-3.2695 0.97266-4.6914 0.99609-1.5742 0.078125-3.9375-0.66797-5.207-2.418-0.33984-0.44922-0.61328-0.92969-0.82031-1.4336-0.92969 0.85156-1.9805 1.8281-3.1055 2.8984-4.4258 4.0781-11.141 6.4648-18.438 6.5078z"/>
  <path d="m555.05 239h-20.551c-2.418 0-4.375-1.957-4.375-4.375 0-2.418 1.957-4.375 4.375-4.375h20.551c2.418 0 4.375 1.957 4.375 4.375 0 2.418-1.9609 4.375-4.375 4.375z"/>
  <path d="m555.05 251.87h-20.551c-2.418 0-4.375-1.957-4.375-4.375 0-2.4062 1.957-4.375 4.375-4.375h20.551c2.418 0 4.375 1.9688 4.375 4.375 0 2.418-1.9609 4.375-4.375 4.375z"/>
  <path d="m494.95 278.23c-30.199 0-60.594-3.5117-90.355-10.434-1.9922-0.46875-3.3789-2.2188-3.3789-4.2656 0-7.4688-0.085938-13.902-0.16406-19.578-0.054687-4.4609-0.10938-8.3008-0.10938-11.812 0.011719-8.6172 0.28516-14.625 1.6523-19.863 1.3242-5.2188 4.1445-9.668 8.3672-13.234 5.1523-4.3633 12.043-8.0273 22.477-13.562 6.2891-3.3477 14.121-7.5039 23.473-12.863 1.0078-0.57812 2.2422-0.73438 3.3672-0.41406 1.1172 0.31641 2.0781 1.082 2.6484 2.1094l19.469 35.492 10.086-10.051c0.83203-0.82031 1.9258-1.2812 3.0859-1.2812 1.1172 0 2.1758 0.42578 2.9961 1.1914l9.0547 8.4766c0.86328 0.79688 1.3438 1.8828 1.3906 3.0508 0.03125 1.1719-0.38281 2.2734-1.1797 3.1289-0.82031 0.88672-1.9922 1.3906-3.1953 1.3906-1.1172 0-2.1758-0.41406-2.9844-1.1797l-5.9844-5.5898-11.211 11.18c-0.96094 0.95312-2.375 1.4336-3.707 1.2266-1.3555-0.1875-2.5586-1.0156-3.2148-2.2188l-20.148-36.719c-7.832 4.4062-14.578 8.0078-20.004 10.895-2.9844 1.5859-5.5664 2.9648-7.9297 4.2539-8.0938 4.3984-12.391 7.3281-14.82 10.105-1.7734 2.0117-2.8008 3.9922-3.5664 6.8477-0.97266 3.6094-1.3789 8.8828-1.3672 17.633 0 3.3906 0.054688 7.1758 0.10938 11.562 0.066407 4.7891 0.14062 10.215 0.16406 16.34 28 6.2578 56.59 9.4375 84.984 9.4375 28.438 0 57.465-3.1836 86.273-9.4609 0.023438-5.8633 0.085938-11.09 0.14453-15.707 0.054687-4.332 0.097656-8.0703 0.097656-11.43 0.011718-8.9375-0.39453-14.328-1.3555-18.004-1.0625-3.9609-2.4844-6.2461-5.6094-9.0469-3.8828-3.4688-10.73-7.1406-21.109-12.711-5.3828-2.8867-12.086-6.4766-19.797-10.816l-1.3789 2.2656c-0.79688 1.3125-2.1992 2.1016-3.7422 2.1016-0.79688 0-1.5742-0.21875-2.2656-0.63281-1.3242-0.79687-2.1094-2.1992-2.1094-3.7422 0-0.79688 0.21875-1.5859 0.63281-2.2734l3.5781-5.875c0.79688-1.3242 2.1992-2.1094 3.7422-2.1094 0.75391 0 1.5078 0.19531 2.1641 0.57813 9.1992 5.25 16.953 9.3945 23.188 12.73 3.2148 1.7188 5.9844 3.2031 8.5508 4.6172 8.4023 4.6484 13.367 7.8086 17.184 12.152 2.582 2.9414 4.418 6.4961 5.4453 10.578 1.3438 5.3047 1.6172 11.418 1.6289 20.191 0 3.4688-0.042969 7.2617-0.097657 11.648-0.066406 5.5234-0.15234 11.789-0.15234 19 0 2.0547-1.3984 3.8164-3.4023 4.2656-30.605 6.918-61.426 10.426-91.613 10.426zm22.168-72.852c-0.79688 0-1.5742-0.21875-2.2656-0.63281-0.99609-0.61328-1.6953-1.5625-1.9805-2.7031-0.27344-1.1367-0.097657-2.3086 0.51562-3.3125 0.79688-1.3125 2.1992-2.1016 3.7422-2.1016 0.79688 0 1.5859 0.21875 2.2656 0.63281 1.0078 0.60156 1.707 1.5625 1.9805 2.7031 0.28516 1.1367 0.097656 2.3086-0.50391 3.3047-0.8125 1.3203-2.1992 2.1094-3.7539 2.1094z"/>
  <path d="m496.3 166.43c-7.625 0-15.125-2.668-21.68-7.7344-5.6758-4.375-10.762-10.457-15.125-18.09-7.4375-13.102-12.086-29.672-12.117-43.246 0-6.6055 1.3008-13.016 3.8594-19.043 2.4609-5.8281 6.0039-11.059 10.5-15.555 4.4961-4.4844 9.7344-8.0156 15.562-10.477 6.0391-2.5469 12.438-3.8398 19.043-3.8516 13.102 0 25.406 5.0977 34.66 14.34 4.5039 4.4844 8.0391 9.7227 10.5 15.543 2.5586 6.0273 3.8516 12.438 3.8516 19.043-0.011719 9.7344-2.5156 21.523-6.8672 32.344-5.1211 12.633-12.172 22.652-20.398 28.996-6.5625 5.0625-14.066 7.7344-21.699 7.7344zm0.042969-109.25c-10.719 0-20.812 4.1875-28.426 11.77-7.6016 7.6016-11.789 17.688-11.789 28.406-0.011718 8.5195 2.3164 19.391 6.2344 29.07 4.4414 11.059 10.688 20.047 17.586 25.332 5.1953 3.9688 10.566 5.9062 16.395 5.918 5.8398-0.011719 11.211-1.9453 16.418-5.9297 4.7031-3.5859 9.1445-8.9453 12.863-15.477 7.6328-13.277 11.016-29.117 10.98-38.914 0-10.719-4.1758-20.805-11.781-28.406-7.6133-7.5781-17.73-11.77-28.48-11.77z"/>
  <path d="m508.61 219.43c-1.125 0-2.1875-0.42578-2.9961-1.1797l-13.039-12.195c-1.6172-1.5195-1.8477-4.0039-0.53516-5.7852l26.305-35.789c0.73438-1.0078 1.8594-1.6406 3.0938-1.7734 1.2227-0.12109 2.4727 0.29688 3.3906 1.1367l10.172 9.3516c1.5312 1.3984 1.8594 3.707 0.78906 5.4922l-23.449 38.633c-0.67969 1.1172-1.8477 1.8906-3.1406 2.0664-0.19531 0.019531-0.39453 0.042969-0.58984 0.042969zm-7.2188-17.117 6.2656 5.8633 18.789-30.965-3.9492-3.6211z"/>
  <path d="m481.35 221.4c-0.20703 0-0.41406-0.023438-0.61328-0.042969-1.3555-0.19531-2.5586-1.0273-3.2148-2.2305l-22.281-40.609c-0.97266-1.7734-0.60156-3.9609 0.88672-5.3281l10.238-9.3516c0.90625-0.83203 2.1445-1.2344 3.3789-1.125 1.2344 0.13281 2.3633 0.77734 3.0938 1.7734l26.25 35.789c1.293 1.7617 1.1055 4.1445-0.4375 5.6875l-14.207 14.164c-0.81641 0.80078-1.9453 1.2734-3.0938 1.2734zm-16.777-44.078 17.816 32.484 7.4258-7.3945-21.152-28.832z"/>
  <path d="m483.1 101.8c-4.6914-0.011719-9.1992-1.0625-13.047-3.0391-4.4531-2.2852-8.0078-5.8516-10.293-10.312-1.0938-2.1562-0.25-4.7891 1.8906-5.8945 0.63281-0.31641 1.3008-0.48047 2-0.48047 1.6523 0 3.1406 0.90625 3.8945 2.375 1.5 2.8984 3.6328 5.0312 6.5195 6.5391 2.6016 1.3555 5.7188 2.0664 9.0117 2.0664h0.023437 0.16406c4.7148 0 9.7031-1.6719 12.141-4.0703 4.8008-4.5508 7.5039-6.9688 9.8125-8.3555 0.097656-0.054688 0.1875-0.097656 0.28516-0.15234 0.72266-0.39453 1.4766-0.79688 3.0078-0.85156h0.03125c0.46094 0 1.3672 0.078125 2.3086 0.57812 0.73438 0.39453 1.4219 1.0625 1.8281 1.7812 0.66797 1.2031 0.6875 2.0234 0.71094 2.625 0 0.054687 0 0.10938 0.011719 0.16406-0.023438 0.82031-0.10938 1.4453-0.20703 1.9375 2.9648-1.0625 7.4062-2.4492 12.008-2.4844 2.625 0.011719 4.7148 0.48047 6.5742 1.4766 2.2852 1.1719 4.1133 3.5 4.7812 6.082 0.30469 1.125 0.15234 2.2969-0.42578 3.3125-0.57031 1.0156-1.5078 1.75-2.6367 2.0547-0.38281 0.10937-0.77734 0.15234-1.1719 0.15234-1.957 0-3.6953-1.3242-4.2109-3.2148-0.17578-0.48047-0.1875-0.49219-0.37109-0.61328-0.042969-0.023437-0.085937-0.054687-0.13281-0.085937-0.26172-0.15234-1.0508-0.41406-2.3398-0.41406h-0.17578c-2.7109 0-6.8672 1.1367-9.7773 2.2734l-0.054688 0.023437c-1.8594 0.66797-3.25 0.95312-4.6484 0.96094-1.5977 0.078125-3.9688-0.66797-5.25-2.4297-0.32812-0.44922-0.60156-0.91797-0.80859-1.4102-0.95312 0.875-2 1.8594-3.1289 2.9297-4.4453 4.125-10.953 6.4219-18.324 6.4766z"/>
  <path d="m263.95 239h-20.66c-2.4062 0-4.375-1.957-4.375-4.375 0-2.418 1.9688-4.375 4.375-4.375h20.66c2.418 0 4.375 1.957 4.375 4.375 0 2.418-1.9609 4.375-4.375 4.375z"/>
  <path d="m263.95 251.87h-20.66c-2.4062 0-4.375-1.957-4.375-4.375 0-2.4062 1.9688-4.375 4.375-4.375h20.66c2.418 0 4.3867 1.9688 4.3867 4.375-0.003906 2.418-1.9727 4.375-4.3867 4.375z"/>
  <path d="m203.78 278.23c-30.176 0-60.57-3.5117-90.332-10.434-1.9922-0.46875-3.3789-2.2188-3.3789-4.2656 0-7.4609-0.085937-13.891-0.16406-19.566-0.066406-4.4531-0.10938-8.3008-0.10938-11.812 0.011719-8.6094 0.28516-14.625 1.6523-19.875 1.3242-5.207 4.1445-9.668 8.3672-13.234 5.1641-4.3633 12.055-8.0156 22.488-13.551 6.3008-3.3477 14.141-7.5156 23.516-12.875 1.0078-0.57812 2.2422-0.72266 3.3594-0.41406 1.125 0.31641 2.0898 1.0938 2.6484 2.1094l19.426 35.492 10.074-10.051c0.83203-0.82031 1.9258-1.2695 3.0938-1.2695 1.1172 0 2.1758 0.41406 2.9961 1.1797l9.0469 8.5195c1.7617 1.6523 1.8477 4.418 0.19531 6.1797-0.84375 0.88672-1.9688 1.3789-3.1953 1.3789-1.1172 0-2.1758-0.42578-2.9961-1.1914l-5.9609-5.6016-11.211 11.168c-0.96094 0.96094-2.3633 1.4219-3.707 1.2266-1.3555-0.1875-2.5586-1.0273-3.2148-2.2188l-20.094-36.719c-7.832 4.4062-14.59 7.9961-20.016 10.883-2.9961 1.5977-5.5781 2.9766-7.9531 4.2656-8.1055 4.4062-12.402 7.3398-14.844 10.117-1.7617 2.0117-2.7891 3.9922-3.5664 6.8477-0.96094 3.5977-1.3672 8.8828-1.3555 17.633 0 3.4023 0.042969 7.1953 0.10938 11.582 0.066406 4.7812 0.13281 10.195 0.15234 16.309 28 6.2656 56.59 9.4375 84.973 9.4375 28.406 0 57.434-3.1836 86.273-9.4609 0.023438-5.8828 0.085938-11.125 0.14062-15.75 0.054688-4.332 0.097656-8.0703 0.097656-11.441 0.011719-8.9375-0.39453-14.305-1.3555-17.969-1.0625-3.9609-2.4844-6.2344-5.6094-9.0352-3.8828-3.4688-10.742-7.1406-21.109-12.711-5.3828-2.875-12.074-6.4648-19.785-10.805l-1.3672 2.2305v0.011719c-0.79688 1.3125-2.1992 2.1016-3.7422 2.1016-0.79687 0-1.5859-0.21875-2.2734-0.64453-0.03125-0.011718-0.066406-0.03125-0.085937-0.054687-0.042969-0.023438-0.078126-0.054688-0.12109-0.078125l-0.042969-0.03125c-0.14062-0.097656-0.27344-0.20703-0.41406-0.32812-1.5547-1.4102-1.8828-3.7305-0.78906-5.5117l3.5664-5.8633c0.78906-1.2891 2.2188-2.1016 3.7422-2.1016 0.75391 0 1.5078 0.19531 2.1641 0.57812 9.1875 5.25 16.93 9.3945 23.156 12.719 3.2148 1.7188 5.9922 3.2031 8.5742 4.625 8.3906 4.6367 13.355 7.7969 17.172 12.141 2.582 2.9297 4.418 6.4844 5.4453 10.566 1.3438 5.3164 1.6172 11.418 1.6289 20.156 0 3.4766-0.042969 7.2617-0.097657 11.66-0.078124 5.5352-0.15234 11.812-0.15234 19.043 0 2.0547-1.3984 3.8164-3.4141 4.2656-30.605 6.9297-61.426 10.438-91.602 10.438zm22.168-72.898c-0.79687 0-1.5859-0.21875-2.2734-0.63281-2.0547-1.2578-2.7109-3.9609-1.4531-6.0156 0.79688-1.3125 2.1992-2.1016 3.7422-2.1016 0.79687 0 1.5859 0.21875 2.2656 0.63281 1.0078 0.61328 1.707 1.5742 1.9805 2.7031 0.27344 1.1367 0.097657 2.3203-0.51562 3.3125-0.80078 1.3164-2.2031 2.1016-3.7461 2.1016z"/>
  <path d="m205.2 166.43c-7.6328 0-15.137-2.668-21.699-7.7344-5.6758-4.3633-10.762-10.457-15.117-18.09-7.4258-13.094-12.062-29.664-12.109-43.246 0-6.6055 1.3008-13.004 3.8516-19.043 2.4727-5.8203 5.9922-11.059 10.488-15.543 4.4961-4.4961 9.7344-8.0273 15.562-10.488 6.0391-2.5469 12.445-3.8516 19.062-3.8516 6.6172 0 13.027 1.3008 19.062 3.8516 5.8281 2.4609 11.07 5.9922 15.562 10.488 4.4961 4.4844 8.0156 9.7227 10.488 15.543 2.5469 6.0391 3.8398 12.438 3.8398 19.043-0.011718 9.7344-2.5156 21.523-6.8594 32.344-5.1172 12.621-12.164 22.652-20.375 28.996-6.5625 5.0625-14.055 7.7344-21.68 7.7344zm0.042969-109.25c-10.742 0.011718-20.836 4.1875-28.438 11.77-7.5898 7.5898-11.781 17.688-11.781 28.406-0.011719 8.5312 2.3203 19.402 6.2227 29.07 4.4297 11.059 10.676 20.047 17.578 25.32 5.207 3.9805 10.578 5.9297 16.418 5.9375 5.8281-0.011719 11.188-1.957 16.395-5.9297 4.6797-3.5977 9.1211-8.957 12.84-15.488 7.625-13.277 11.004-29.117 10.98-38.914-0.011719-10.719-4.1875-20.805-11.781-28.406-7.5977-7.5742-17.691-11.754-28.434-11.766z"/>
  <path d="m217.38 219.43c-1.125 0-2.1992-0.42578-3.0078-1.1914l-12.961-12.195c-1.6094-1.5078-1.8359-3.9922-0.53516-5.7734l26.25-35.789c0.73438-1.0078 1.8594-1.6406 3.0938-1.7734 1.2344-0.10938 2.4727 0.29688 3.3789 1.125l10.238 9.3516c1.543 1.3984 1.8711 3.7188 0.78906 5.5l-23.516 38.641c-0.67969 1.1172-1.8594 1.8828-3.1484 2.0547-0.19922 0.039063-0.39453 0.050782-0.58203 0.050782zm-7.1523-17.109 6.2109 5.8398 18.836-30.953-3.9688-3.6328z"/>
  <path d="m190.2 221.4c-0.20703 0-0.42578-0.023438-0.625-0.042969-1.3555-0.19531-2.5586-1.0391-3.2148-2.2305l-22.227-40.609c-0.96094-1.7734-0.60156-3.9609 0.875-5.3164l10.172-9.3516c0.90625-0.84375 2.1445-1.2578 3.3789-1.1367 1.2344 0.12109 2.3633 0.76562 3.1055 1.7734l26.262 35.789c1.2891 1.7617 1.1055 4.1445-0.4375 5.6875l-14.207 14.164c-0.80859 0.80078-1.9336 1.2734-3.082 1.2734zm-16.746-44.09 17.785 32.496 7.4141-7.3945-21.152-28.82z"/>
  <path d="m191.95 101.8c-4.6719-0.011719-9.1758-1.0625-13.027-3.0391-4.4531-2.2852-8.0156-5.8516-10.312-10.305-0.53516-1.0391-0.63281-2.2305-0.28516-3.3359 0.35938-1.1172 1.125-2.0234 2.1641-2.5586 0.61328-0.32812 1.3125-0.49219 2-0.49219 1.6523 0 3.1406 0.90625 3.8945 2.3633 1.5078 2.8984 3.6523 5.043 6.5508 6.5508 2.6016 1.3555 5.7188 2.0664 9.0117 2.0664 4.7891 0.042969 9.8203-1.6523 12.281-4.0781 4.8242-4.5508 7.5234-6.957 9.8438-8.3438 0.097656-0.054688 0.19531-0.10938 0.28516-0.15234 0.73438-0.39453 1.4883-0.79688 3.0078-0.85156h0.03125c0.46094 0 1.3672 0.078125 2.2969 0.57812 0.73438 0.38281 1.4219 1.0508 1.8359 1.7734 0.66797 1.2031 0.69922 2.0352 0.72266 2.6367v0.16406c-0.011718 0.80859-0.10938 1.4219-0.19531 1.9258 4.5625-1.6406 8.4766-2.4492 11.953-2.4727 2.6367 0.011719 4.7344 0.48047 6.5938 1.4648 2.2852 1.1797 4.125 3.5117 4.7812 6.0938 0.30469 1.125 0.16406 2.2969-0.41406 3.3125s-1.5195 1.75-2.6484 2.0547c-0.38281 0.10938-0.76562 0.15234-1.1602 0.15234-1.957 0-3.6953-1.3242-4.2109-3.2148-0.17578-0.46875-0.1875-0.48047-0.38281-0.61328-0.03125-0.023437-0.078124-0.054687-0.13281-0.085937-0.25-0.15234-1.0508-0.41406-2.3398-0.41406h-0.085937-0.12109c-2.7227 0-6.8594 1.1367-9.7461 2.2734l-0.066406 0.023438c-1.8828 0.67969-3.2266 0.95312-4.6367 0.96094-1.6172 0.085937-3.9609-0.66797-5.2383-2.418-0.32812-0.44922-0.61328-0.92969-0.82031-1.4219-0.92969 0.84375-1.9805 1.8281-3.1289 2.9219-4.4336 4.1289-10.93 6.4258-18.301 6.4805z"/>
  <path d="m350.78 399.77c-7.6328 0-15.137-2.6797-21.711-7.7539-5.6758-4.375-10.773-10.469-15.137-18.102-7.4375-13.113-12.086-29.672-12.129-43.227 0-6.5938 1.3008-13.004 3.8516-19.043 2.4727-5.8398 5.9922-11.078 10.5-15.586 9.2539-9.2734 21.57-14.383 34.672-14.383 6.6172 0 13.027 1.3008 19.062 3.8594 5.8281 2.4727 11.07 6.0156 15.562 10.523 4.4961 4.5078 8.0156 9.7461 10.488 15.586 2.5469 6.0391 3.8398 12.445 3.8516 19.043-0.023437 9.7031-2.5273 21.48-6.8789 32.309-5.1094 12.633-12.152 22.664-20.367 29.016-6.5625 5.0742-14.055 7.7539-21.676 7.7539zm0.042968-109.34c-10.75 0-20.867 4.1992-28.48 11.812-7.6016 7.625-11.789 17.719-11.789 28.449-0.011719 8.5 2.3203 19.348 6.2344 29.039 4.4531 11.059 10.695 20.07 17.609 25.352 5.2188 3.9805 10.586 5.9297 16.43 5.9414 5.8281-0.011719 11.188-1.957 16.383-5.9414 4.6914-3.6094 9.1328-8.9688 12.852-15.5 7.625-13.312 11.016-29.125 10.98-38.895-0.011718-10.73-4.1875-20.824-11.781-28.449-7.6133-7.6055-17.707-11.809-28.438-11.809z"/>
  <path d="m355.21 445.39c-1.0938 0-2.1758-0.41406-2.9766-1.1602l-5.2188-4.8125c-0.88672-0.82031-1.3984-1.9922-1.3984-3.1953-0.011719-1.1172 0.40625-2.1758 1.1602-2.9844 0.82031-0.89453 1.9922-1.4102 3.2148-1.4102 1.0938 0 2.1562 0.41406 2.9648 1.1602l5.2188 4.8125c0.84375 0.78906 1.3555 1.8906 1.3984 3.0391v0.16406c0 1.0938-0.41406 2.1875-1.1602 2.9844-0.77734 0.84375-1.8906 1.3555-3.0391 1.3984-0.054688 0.003907-0.10938 0.003907-0.16406 0.003907z"/>
  <path d="m349.99 440.57c-1.3984 0-2.7109-0.66797-3.5312-1.793l-23.383-31.949-6.6172 6.0469-0.76562 0.55859c-9.8984 5.6992-18.059 10.039-24.609 13.531-2.1016 1.125-4.0781 2.1758-5.875 3.1484-1.2148 0.65625-2.7031 0.6875-3.9492 0.10937-27.465-12.895-50.719-33.195-67.242-58.691-16.965-26.172-25.934-56.59-25.934-87.949 0-2.9766 0.078125-6.0703 0.25-10.02 0.097657-2.3945 2.0547-4.2539 4.4844-4.1875 3.4453 0.085938 6.9219 0.14062 10.324 0.14062 28.734-0.011719 57.969-3.2031 86.91-9.5039 0.011719-4.2969 0.054688-8.1719 0.085938-11.398 0.023437-2.3828 1.9922-4.332 4.375-4.332h0.042969c2.418 0.03125 4.3516 2.0234 4.332 4.4297-0.042969 4.1797-0.097657 9.1992-0.097657 14.809 0 2.0547-1.3984 3.8164-3.4141 4.2656-30.703 6.9453-61.73 10.469-92.203 10.469h-0.03125c-2.1016 0-4.1875-0.011718-6.2227-0.042968-0.066407 1.9375-0.085938 3.6953-0.085938 5.3711 0 59.074 33.02 111.86 86.176 137.77 1.2695-0.67969 2.6016-1.3906 4.0039-2.1328 6.3984-3.4023 14.352-7.6445 23.898-13.137l9.8555-9.0117c0.91797-0.83203 2.1562-1.2461 3.3906-1.1172 1.2461 0.12109 2.3516 0.74609 3.0938 1.7617l22.738 31.074 22.773-31.074c0.73438-0.99609 1.8594-1.6406 3.0938-1.7617 1.2344-0.12109 2.4727 0.28516 3.3906 1.125l9.8203 9.0117c8.5859 4.9336 15.664 8.707 21.898 12.031 2.3086 1.2344 4.4844 2.3945 6.4961 3.4883 1.6641 0.011719 3.2031 0.99609 3.9141 2.4922 0.28516 0.60156 0.42578 1.2461 0.42578 1.9023-0.011719 1.6719-0.99609 3.2148-2.5039 3.9258-0.12109 0.066406-0.24219 0.12109-0.35938 0.17578l-0.23047 0.10938c-1.2578 0.58984-2.7578 0.54688-3.9688-0.13281-2.375-1.3008-5.0625-2.7344-7.918-4.2656-6.082-3.2383-13.641-7.2734-22.531-12.391l-0.77734-0.57031-6.5859-6.0391-23.418 31.949c-0.81641 1.1367-2.1289 1.8047-3.5195 1.8047zm86.484-20.926c-1.4766 0-2.8438-0.74219-3.6523-1.9688-0.64453-0.98438-0.875-2.1445-0.63281-3.293 0.23047-1.1484 0.89844-2.1328 1.8828-2.7656 0.71094-0.48047 1.543-0.72266 2.3945-0.72266 1.4766 0 2.8438 0.73437 3.6641 1.9688 1.3242 2.0117 0.76562 4.7266-1.2578 6.0586-0.71484 0.47266-1.5469 0.72266-2.3984 0.72266zm17.379-13.254c-1.2578 0-2.4609-0.53516-3.293-1.4883-1.5859-1.8164-1.4102-4.582 0.40625-6.168 33.141-29.105 52.152-71.07 52.16-115.15 0-1.8711-0.03125-3.6523-0.085938-5.4453-2.7891 0.066407-5.5547 0.085938-8.2344 0.085938-30.023 0-60.375-3.5117-90.203-10.434-1.9922-0.46875-3.3906-2.2188-3.3906-4.2656 0-7.4688-0.085938-13.902-0.16406-19.578-0.054687-4.4609-0.10938-8.3008-0.10938-11.812 0.011719-8.6172 0.28516-14.625 1.6523-19.863 1.3359-5.2188 4.1445-9.668 8.3672-13.234 5.1523-4.3633 12.031-8.0156 22.453-13.551 6.082-3.2383 13.648-7.25 22.629-12.383-28.656-27.52-66.316-42.668-106.05-42.68-39.727 0.011718-77.395 15.16-106.07 42.68 8.7734 4.9883 16.23 8.9805 22.234 12.184 3.6523 1.957 6.8047 3.6406 9.6562 5.2266 8.2461 4.6172 13.422 8.0156 17.129 12.766l0.03125 0.042969c0.58984 0.77734 0.90625 1.6953 0.90625 2.668 0 1.3672-0.625 2.6367-1.707 3.4688-0.77734 0.60156-1.6953 0.90625-2.668 0.90625-1.3672 0-2.6367-0.625-3.4688-1.707-2.2969-3.0391-6.4844-6.0703-14.469-10.488-2.7461-1.5312-5.8516-3.1953-9.4492-5.1172-6.2773-3.3594-14.098-7.5352-23.395-12.852-0.31641-0.17578-0.55859-0.35156-0.83203-0.60156l-3.3477-3.1484c-0.85156-0.80859-1.3555-1.9375-1.3789-3.1055-0.023437-1.1719 0.42578-2.3203 1.2461-3.1484 7.3398-7.4805 15.445-14.273 24.074-20.203 8.7188-5.9727 18.059-11.113 27.75-15.27 20.18-8.6523 41.629-13.047 63.742-13.047h0.011719c22.125 0 43.562 4.3984 63.742 13.047 9.6914 4.1562 19.02 9.2969 27.738 15.27 8.6289 5.9297 16.734 12.719 24.062 20.203 0.82031 0.84375 1.2812 1.9805 1.2578 3.1484-0.023437 1.1719-0.52344 2.2969-1.3789 3.0938l-3.3242 3.1484c-0.27344 0.25-0.51562 0.4375-0.84375 0.61328-9.5391 5.457-17.488 9.6914-23.867 13.082-2.9961 1.5977-5.5781 2.9766-7.9414 4.2656-8.0938 4.4062-12.391 7.3281-14.82 10.117-1.7734 2-2.8008 3.9805-3.5664 6.8359-0.96094 3.5977-1.3789 8.8711-1.3672 17.633 0 3.3906 0.054688 7.1758 0.10938 11.562 0.066406 4.7812 0.14062 10.203 0.16406 16.34 28.066 6.2656 56.613 9.4375 84.844 9.4375 4.0234 0 8.1602-0.066407 12.273-0.19531 2.3633-0.078125 4.3633 1.7617 4.5078 4.125 0.19922 3.3789 0.29688 6.7031 0.29688 10.184 0 11.922-1.3008 23.801-3.8594 35.328-2.4922 11.211-6.2109 22.18-11.035 32.613-4.7344 10.238-10.586 20.016-17.367 29.07-6.7383 8.9805-14.426 17.293-22.871 24.707-0.79688 0.69922-1.8242 1.082-2.8867 1.082zm-159.25-175.21c-2.3516 0-4.3086-1.9023-4.375-4.2539v-0.011719c-0.066406-2.4062 1.8477-4.418 4.2539-4.4844 2.4727-0.066406 4.4297 1.8281 4.4961 4.2539 0.054688 2.4062-1.8477 4.4297-4.2656 4.4844-0.03125 0.011719-0.078126 0.011719-0.10938 0.011719z"/>
  <path d="m350.78 399.77c-7.6328 0-15.137-2.6797-21.711-7.7539-5.6758-4.375-10.773-10.469-15.137-18.102-7.4375-13.113-12.086-29.672-12.129-43.227 0-6.5938 1.3008-13.004 3.8516-19.043 2.4727-5.8398 5.9922-11.078 10.5-15.586 9.2539-9.2734 21.57-14.383 34.672-14.383 6.6172 0 13.027 1.3008 19.062 3.8594 5.8281 2.4727 11.07 6.0156 15.562 10.523 4.4961 4.5078 8.0156 9.7461 10.488 15.586 2.5469 6.0391 3.8398 12.445 3.8516 19.043-0.023437 9.7031-2.5273 21.48-6.8789 32.309-5.1094 12.633-12.152 22.664-20.367 29.016-6.5625 5.0742-14.055 7.7539-21.676 7.7539zm0.042968-109.34c-10.75 0-20.867 4.1992-28.48 11.812-7.6016 7.625-11.789 17.719-11.789 28.449-0.011719 8.5 2.3203 19.348 6.2344 29.039 4.4531 11.059 10.695 20.07 17.609 25.352 5.2188 3.9805 10.586 5.9297 16.43 5.9414 5.8281-0.011719 11.188-1.957 16.383-5.9414 4.6914-3.6094 9.1328-8.9688 12.852-15.5 7.625-13.312 11.016-29.125 10.98-38.895-0.011718-10.73-4.1875-20.824-11.781-28.449-7.6133-7.6055-17.707-11.809-28.438-11.809z"/>
  <path d="m438.82 451.69c-0.61328 0-1.2031-0.13281-1.7617-0.37109-1.2461-0.54688-2.1562-1.6172-2.4844-2.9531-0.75391-2.9766-1.7812-5.043-3.543-7.1094-1.7266-2.0234-4.3203-4.0703-8.1484-6.4414-3.7734-2.3516-8.6953-4.9883-14.941-8.3359-6.332-3.4023-14.23-7.625-23.656-13.039l-0.77734-0.57031-6.5859-6.0391-23.418 31.949c-0.82031 1.125-2.1328 1.793-3.5234 1.793s-2.7109-0.66797-3.5312-1.793l-23.383-31.949-6.6172 6.0391-0.76562 0.57031c-9.625 5.5117-17.621 9.7773-24.039 13.211-3.0391 1.6172-5.6641 3.0195-8.0625 4.332-8.082 4.418-12.348 7.3711-14.742 10.191-1.7383 2.0586-2.7578 4.1016-3.5 7.0781-0.32812 1.3359-1.2344 2.4062-2.4844 2.9648-1.2266 0.53516-2.6797 0.48047-3.8594-0.16406-9.375-5.1094-18.398-11.059-26.82-17.688-0.91797-0.72266-1.5-1.7617-1.6406-2.9219-0.14062-1.1602 0.1875-2.3086 0.90625-3.2266 0.83203-1.0625 2.0898-1.6641 3.4453-1.6641 0.98438 0 1.9258 0.31641 2.7031 0.92969 6.6719 5.2617 13.77 10.086 21.109 14.359 0.92969-1.957 2.1094-3.7617 3.5-5.3711 2.3828-2.7656 5.4141-5.1953 10.148-8.1172 4.1133-2.5352 9.0547-5.1719 15.324-8.5195 6.2344-3.3242 13.988-7.457 23.23-12.754l9.8555-9.0117c0.91797-0.83203 2.1562-1.2461 3.3906-1.1172 1.2266 0.12109 2.3633 0.76562 3.0938 1.7734l22.738 31.062 22.773-31.074c0.73438-0.99609 1.8594-1.6406 3.0938-1.7617 1.2344-0.12109 2.4727 0.28516 3.3906 1.125l9.8203 9.0117c9.0547 5.1836 16.723 9.2969 22.883 12.59 3.2031 1.7188 5.9609 3.2031 8.5312 4.6172 8.4102 4.6719 13.375 7.8555 17.184 12.238 1.4102 1.6172 2.5938 3.4453 3.5312 5.4023 55.891-32.516 90.605-92.816 90.605-157.36 0-4.0703-0.1875-8.3242-0.35156-11.582-0.066406-1.1602 0.33984-2.2852 1.1172-3.1484 0.78906-0.86328 1.8594-1.3789 3.0312-1.4336 2.4062-0.14062 4.4609 1.7383 4.5938 4.1445 0.16406 3.3125 0.35938 7.6875 0.35938 12.02 0 17.73-2.4375 35.273-7.2305 52.16-4.6484 16.363-11.496 32.059-20.344 46.637-17.523 28.855-42.449 52.633-72.066 68.766-0.62891 0.35938-1.3594 0.54688-2.082 0.54688zm-220.29-31.895c-1.1602 0-2.2656-0.44922-3.0859-1.2695-0.83203-0.83203-1.2891-1.9258-1.2891-3.0938 0-1.168 0.44922-2.2734 1.2812-3.0938 1.6406-1.6641 4.5273-1.6641 6.1914-0.011719v0.011719c0.82031 0.82031 1.2812 1.9141 1.2812 3.082 0 1.1602-0.44922 2.2656-1.2812 3.0938-0.82422 0.83203-1.9258 1.2812-3.0977 1.2812zm-14.547-16.309c-1.3438 0-2.6016-0.60156-3.4336-1.6641-13.059-16.473-23.219-34.824-30.219-54.555-7.2422-20.41-10.914-41.836-10.914-63.68 0-3.543 0.10938-7.3398 0.35156-11.922 0.12109-2.4062 2.1641-4.2773 4.5938-4.1445 1.1602 0.054688 2.2305 0.57031 3.0195 1.4336 0.78906 0.86328 1.1797 1.9922 1.125 3.1484-0.23047 4.4414-0.33984 8.0938-0.33984 11.484 0 41.398 13.574 80.402 39.242 112.81 0.61328 0.77734 0.94141 1.707 0.94141 2.6914 0.011719 1.3555-0.58984 2.6133-1.6523 3.4453-0.78906 0.625-1.7188 0.95312-2.7148 0.95312z"/>
  <path d="m266.84 121.3c-1.6719 0-3.1719-0.92969-3.9141-2.4297-0.52344-1.0391-0.61328-2.2305-0.24219-3.3359 0.37109-1.1172 1.1484-2.0117 2.1992-2.5273 12.961-6.4648 26.645-11.453 40.676-14.809 28.219-6.75 58.32-6.9336 86.656-0.50391 13.387 3.0312 26.492 7.5352 38.926 13.398 2.1758 1.0273 3.1172 3.6328 2.0898 5.8203-0.71094 1.5195-2.2617 2.5156-3.9609 2.5156-0.64453 0-1.2695-0.14062-1.8594-0.42578-24.359-11.461-50.41-17.27-77.426-17.27-28.469 0-55.793 6.4297-81.199 19.098-0.61328 0.30469-1.2695 0.46875-1.9453 0.46875z"/>
  <path d="m212.76 446.17c-1.0625 0-2.0781-0.38281-2.875-1.082-17.008-14.887-31.477-32.277-42.996-51.68-11.746-19.797-20.148-41.211-24.98-63.68-0.24219-1.1367-0.03125-2.3086 0.60156-3.293 0.63281-0.98438 1.6172-1.6523 2.7578-1.9023 0.30469-0.066406 0.61328-0.097656 0.92969-0.097656 2.0469 0 3.8398 1.4531 4.2656 3.457 9.1445 42.523 32.289 81.812 65.176 110.61h0.011719c1.8164 1.5977 2 4.3633 0.40625 6.1797-0.82813 0.95312-2.0312 1.4883-3.2969 1.4883z"/>
  <path d="m471.77 458.47c-1.4102 0-2.7344-0.67969-3.5547-1.8047-0.6875-0.95312-0.96094-2.1094-0.77734-3.2578 0.1875-1.1602 0.80859-2.1641 1.7617-2.8555 24.367-17.621 44.875-40.699 59.305-66.719 0 0 0-0.011719 0.011719-0.011719 0.76562-1.3789 2.2305-2.2422 3.8164-2.2422 0.73438 0 1.4648 0.1875 2.1211 0.54688 1.0156 0.57031 1.7617 1.5 2.0781 2.625 0.32812 1.1172 0.1875 2.2969-0.38281 3.3242-7.5586 13.641-16.68 26.5-27.102 38.215-10.359 11.625-22.039 22.18-34.715 31.348-0.75781 0.54688-1.6406 0.83203-2.5625 0.83203z"/>
  <path d="m549.25 350.5c-0.4375 0-0.86328-0.066406-1.2891-0.19531-2.2969-0.71094-3.5977-3.1602-2.8867-5.4688 5.9414-19.371 8.957-39.52 8.957-59.871v-0.023438c0.011719-2.3945 1.9688-4.3516 4.375-4.3516s4.375 1.957 4.375 4.375c0 21.219-3.1484 42.23-9.3516 62.441-0.57031 1.8438-2.2461 3.0938-4.1797 3.0938z"/>
  <path d="m438.77 100.75c-0.65625 0-1.293-0.14062-1.8906-0.42578-10.566-5.0625-22.016-9.2734-34.004-12.512-1.125-0.30469-2.0781-1.0273-2.6562-2.0469-0.57812-1.0156-0.73438-2.1875-0.42578-3.3242 0.51562-1.9023 2.2539-3.2266 4.2227-3.2266 0.38281 0 0.76562 0.042968 1.1367 0.15234 12.512 3.3789 24.457 7.7773 35.516 13.059 2.1758 1.0391 3.0938 3.6641 2.0547 5.8398-0.72656 1.5117-2.2812 2.4844-3.9531 2.4844z"/>
  <path d="m293.44 88.648c-1.957 0-3.6875-1.3125-4.2109-3.1953-0.64453-2.3281 0.71094-4.7461 3.0312-5.3906 18.824-5.2617 38.238-7.9297 57.727-7.9297 2.4062 0 4.375 1.957 4.375 4.375 0 2.4062-1.9688 4.375-4.375 4.375-18.672 0-37.297 2.5586-55.355 7.6016h-0.011718c-0.37891 0.10938-0.78516 0.16406-1.1797 0.16406z"/>
 </g>
</svg>
