<?xml version="1.0" encoding="UTF-8"?><svg id="Layer_1" xmlns="http://www.w3.org/2000/svg" viewBox="0 0 600 600"><path d="m362.91,499.9h-23.09c-1.79,0-3.48-.99-4.23-2.62-1.64-3.56.94-7.08,4.35-7.08h22.86c3.41,0,5.99,3.52,4.35,7.08-.75,1.62-2.44,2.62-4.23,2.62Z"/><path d="m361.13,513.22h-19.53c-2.1,0-4.06-1.41-4.43-3.47-.48-2.68,1.58-5.01,4.18-5.01h20.03c2.61,0,4.66,2.34,4.18,5.01-.37,2.07-2.33,3.47-4.43,3.47Z"/><path d="m299.48,540.5c-31.38,0-62.99-3.65-93.97-10.84-2.07-.48-3.51-2.3-3.51-4.43,0-7.67-.09-14.3-.17-20.15-.06-4.6-.1-8.59-.1-12.22,0-9,.28-15.29,1.71-20.76,1.38-5.44,4.3-10.1,8.69-13.83,5.36-4.54,12.52-8.36,23.36-14.13,6.56-3.49,14.73-7.84,24.48-13.44,1.05-.6,2.33-.75,3.5-.43,1.16.33,2.17,1.14,2.75,2.19l20.26,36.98,10.48-10.43c.87-.85,2-1.33,3.22-1.33,1.15,0,2.25.43,3.1,1.22l9.25,8.59c1.84,1.7,1.95,4.58.24,6.42-.87.92-2.07,1.45-3.33,1.45-1.16,0-2.25-.43-3.1-1.22l-6.04-5.61-11.67,11.62c-1,1-2.47,1.48-3.86,1.28-1.41-.2-2.66-1.07-3.34-2.32l-20.95-38.24c-8.15,4.59-15.17,8.35-20.83,11.36-3.12,1.66-5.8,3.09-8.26,4.44-8.43,4.59-12.89,7.64-15.42,10.55-1.84,2.1-2.91,4.18-3.71,7.16-1,3.77-1.43,9.29-1.42,18.46,0,3.52.06,7.45.11,12,.07,4.9.14,10.48.16,16.76,29.14,6.51,58.89,9.8,88.39,9.8s59.75-3.31,89.75-9.83c.02-6.11.09-11.55.16-16.36.04-4.5.1-8.39.1-11.89.01-9.27-.41-14.86-1.41-18.69-1.11-4.13-2.58-6.5-5.85-9.42-4.05-3.62-11.23-7.47-22.1-13.3-5.85-3.14-12.48-6.69-20.42-11.16l-1.54,2.52h0c-.84,1.39-2.3,2.21-3.9,2.21-.83,0-1.64-.23-2.36-.66-2.12-1.28-2.82-4.07-1.56-6.2.01-.01.02-.02.03-.04l3.82-6.29c.83-1.38,2.29-2.19,3.89-2.19.78,0,1.57.2,2.26.6,9.44,5.4,17.44,9.67,23.85,13.1,3.44,1.84,6.4,3.42,9.14,4.93,8.53,4.73,13.9,8.15,17.86,12.65,2.69,3.05,4.58,6.75,5.66,11,1.4,5.52,1.68,11.86,1.69,20.95,0,3.62-.06,7.57-.11,12.12-.07,5.76-.15,12.27-.15,19.78,0,2.15-1.45,3.96-3.55,4.44-31.85,7.19-63.91,10.83-95.3,10.83h0Zm22.98-75.59c-.83,0-1.64-.23-2.36-.66-2.14-1.29-2.83-4.1-1.52-6.24.83-1.38,2.29-2.19,3.89-2.19.83,0,1.65.23,2.36.66,2.15,1.31,2.83,4.1,1.54,6.25-.84,1.36-2.3,2.18-3.9,2.18h0Z"/><path d="m300.99,424.39c-7.94,0-15.74-2.78-22.58-8.05-5.9-4.54-11.2-10.87-15.74-18.8-7.73-13.62-12.57-30.82-12.61-44.89,0-6.85,1.35-13.51,4.01-19.78,2.57-6.07,6.23-11.51,10.92-16.19,9.62-9.63,22.43-14.94,36.06-14.94,28.06.01,50.91,22.84,50.93,50.9-.02,10.08-2.63,22.31-7.15,33.56-5.31,13.12-12.64,23.54-21.18,30.14-6.82,5.27-14.62,8.05-22.54,8.05h-.1Zm.04-113.55c-11.18,0-21.7,4.36-29.62,12.27-7.91,7.92-12.26,18.4-12.26,29.55-.01,8.83,2.41,20.09,6.48,30.16,4.63,11.49,11.12,20.84,18.31,26.33,5.43,4.13,11.01,6.16,17.09,6.17,6.06-.01,11.64-2.03,17.04-6.17,4.88-3.75,9.5-9.31,13.37-16.1,7.93-13.83,11.46-30.25,11.42-40.4-.01-11.13-4.37-21.63-12.27-29.55-7.92-7.9-18.42-12.26-29.55-12.26h0Z"/><path d="m313.7,479.34c-1.16,0-2.25-.43-3.1-1.22l-13.54-12.56c-1.68-1.57-1.93-4.16-.57-6.01l27.36-37.28c.76-1.03,1.93-1.7,3.22-1.83s2.57.3,3.53,1.17l10.58,9.69c1.59,1.46,1.95,3.86.82,5.71l-24.4,40.13c-.71,1.18-1.91,1.96-3.27,2.15-.2.04-.41.06-.63.06h0Zm-7.47-17.69l6.48,6.02,19.56-32.19-4.09-3.75-21.95,29.92Z"/><path d="m285.38,481.48c-.22,0-.43-.02-.64-.04-1.41-.2-2.66-1.07-3.34-2.32l-23.17-42.29c-1.01-1.84-.63-4.11.92-5.53l10.62-9.7c.95-.86,2.24-1.29,3.53-1.16,1.3.13,2.45.77,3.22,1.83l27.31,37.28c1.34,1.82,1.15,4.3-.45,5.89l-14.77,14.71c-.84.84-2.01,1.33-3.22,1.33h0Zm-17.45-45.88l18.54,33.84,7.71-7.68-22.01-30.03-4.24,3.87Z"/><path d="m287.11,355.97c-4.86,0-9.53-1.05-13.51-3.01-4.6-2.27-8.28-5.82-10.64-10.26v-.03c-.52-1.03-.62-2.21-.26-3.3.36-1.11,1.13-2,2.17-2.53.7-.36,1.46-.52,2.24-.47,1.59.1,2.97,1.15,3.71,2.55,1.46,2.76,3.53,4.82,6.32,6.27,2.56,1.33,5.64,2.03,8.89,2.03h.21c4.7,0,9.71-1.68,12.17-4.1,4.79-4.49,7.47-6.87,9.79-8.24.09-.05.19-.1.27-.15.73-.38,1.48-.78,2.99-.84h2.24c.48,0,1.41.07,2.38.57.77.39,1.49,1.05,1.92,1.77.71,1.2.74,2.04.76,2.65v.15c-.01.79-.11,1.39-.2,1.88,3.11-1.02,7.74-2.37,12.47-2.4,2.72.01,4.88.46,6.82,1.43,2.39,1.14,4.31,3.43,5.03,5.97.68,2.31-.72,4.73-3.13,5.38-.41.12-.83.18-1.25.18-2.02,0-3.83-1.3-4.38-3.16q-.17-.45-.39-.58s-.08-.05-.14-.09c-.37-.21-1.3-.42-2.49-.42h-.2c-2.99,0-7.37,1.2-10.23,2.22-1.98.69-3.4.97-4.88.99-1.64.08-4.1-.67-5.42-2.41-.35-.45-.64-.93-.85-1.43-.97.85-2.06,1.82-3.23,2.89-4.61,4.06-11.59,6.44-19.19,6.49h0Z"/><path d="m514.14,257.56h-22.85c-1.85,0-3.62-1.03-4.35-2.73-1.52-3.55,1.04-6.96,4.4-6.96h22.85c1.85,0,3.62,1.03,4.35,2.73,1.53,3.55-1.04,6.96-4.4,6.96Z"/><path d="m514.25,270.89h-23.03c-1.79,0-3.48-.99-4.23-2.62-1.64-3.56.94-7.08,4.35-7.08h22.8c3.41,0,5.99,3.52,4.35,7.08-.75,1.62-2.44,2.62-4.23,2.62Z"/><path d="m450.92,298.16c-31.41,0-63.02-3.65-93.97-10.84-2.07-.49-3.51-2.3-3.51-4.43,0-7.76-.09-14.44-.17-20.33-.06-4.63-.11-8.62-.11-12.27.01-8.95.3-15.19,1.72-20.63,1.38-5.42,4.31-10.04,8.7-13.74,5.36-4.53,12.52-8.34,23.38-14.09,6.54-3.48,14.69-7.79,24.41-13.36,1.05-.6,2.33-.76,3.5-.43,1.16.33,2.16,1.12,2.75,2.19l20.25,36.86,10.49-10.44c.87-.85,2-1.33,3.21-1.33s2.26.44,3.12,1.24l9.42,8.8c.9.83,1.4,1.96,1.45,3.17.03,1.22-.4,2.36-1.23,3.25-.85.92-2.07,1.44-3.32,1.44-1.16,0-2.26-.43-3.1-1.23l-6.22-5.81-11.66,11.61c-1,.99-2.47,1.49-3.86,1.27-1.41-.19-2.66-1.05-3.34-2.3l-20.95-38.14c-8.15,4.58-15.16,8.32-20.8,11.32-3.1,1.65-5.79,3.08-8.25,4.42-8.42,4.57-12.89,7.61-15.41,10.49-1.84,2.09-2.91,4.15-3.71,7.11-1.01,3.75-1.43,9.23-1.42,18.31,0,3.52.06,7.45.11,12.01.07,4.97.15,10.61.17,16.97,29.12,6.5,58.85,9.8,88.38,9.8s59.76-3.31,89.72-9.83c.02-6.09.09-11.52.15-16.31.06-4.5.1-8.38.1-11.87.01-9.28-.41-14.88-1.41-18.7-1.1-4.11-2.58-6.49-5.83-9.4-4.04-3.6-11.16-7.42-21.95-13.2-5.6-3-12.57-6.73-20.59-11.23l-1.43,2.35c-.83,1.36-2.29,2.18-3.89,2.18-.83,0-1.64-.23-2.36-.66-1.38-.83-2.19-2.28-2.19-3.89,0-.83.23-1.65.66-2.36l3.72-6.1c.83-1.38,2.29-2.19,3.89-2.19.78,0,1.57.2,2.25.6,9.57,5.45,17.63,9.76,24.11,13.22,3.34,1.79,6.22,3.33,8.89,4.8,8.74,4.83,13.9,8.11,17.87,12.62,2.69,3.05,4.59,6.75,5.66,10.99,1.4,5.51,1.68,11.86,1.69,20.97,0,3.6-.04,7.54-.1,12.1-.07,5.74-.16,12.24-.16,19.73,0,2.13-1.45,3.96-3.54,4.43-31.83,7.18-63.88,10.83-95.27,10.83h0Zm23.05-75.66c-.83,0-1.64-.23-2.36-.66-1.04-.64-1.76-1.62-2.06-2.81-.28-1.18-.1-2.4.54-3.44.83-1.36,2.29-2.18,3.89-2.18.83,0,1.65.23,2.36.66,1.05.62,1.78,1.62,2.06,2.81.3,1.18.1,2.4-.52,3.43-.84,1.37-2.29,2.19-3.9,2.19h0Z"/><path d="m452.33,182.05c-7.93,0-15.73-2.77-22.55-8.03-5.9-4.54-11.19-10.86-15.73-18.79-7.73-13.61-12.57-30.82-12.6-44.91,0-6.86,1.35-13.52,4.01-19.78,2.56-6.05,6.24-11.49,10.92-16.16,4.68-4.66,10.12-8.32,16.18-10.88,6.28-2.65,12.94-3.99,19.8-4,13.63,0,26.42,5.29,36.05,14.89,4.68,4.66,8.36,10.1,10.92,16.14,2.66,6.26,4.01,12.92,4.01,19.78-.01,10.11-2.62,22.35-7.14,33.59-5.33,13.12-12.66,23.53-21.21,30.11-6.82,5.26-14.63,8.03-22.57,8.03h-.09Zm.04-113.47c-11.15,0-21.64,4.35-29.56,12.22-7.91,7.89-12.26,18.37-12.26,29.5-.01,8.85,2.41,20.14,6.48,30.19,4.62,11.49,11.12,20.82,18.29,26.31,5.4,4.12,10.99,6.13,17.05,6.15,6.07-.01,11.66-2.02,17.07-6.16,4.89-3.72,9.51-9.29,13.38-16.07,7.94-13.79,11.46-30.24,11.42-40.42,0-11.13-4.34-21.61-12.25-29.5-7.92-7.87-18.44-12.22-29.62-12.22h0Z"/><path d="m465.13,237.1c-1.17,0-2.27-.44-3.12-1.23l-13.56-12.67c-1.68-1.58-1.92-4.16-.56-6.01l27.36-37.17c.76-1.05,1.93-1.7,3.22-1.84,1.27-.13,2.57.31,3.53,1.18l10.58,9.71c1.59,1.45,1.93,3.85.82,5.7l-24.39,40.12c-.71,1.16-1.92,1.96-3.27,2.15-.2.02-.41.04-.61.04h0Zm-7.51-17.78l6.52,6.09,19.54-32.16-4.11-3.76-21.95,29.83Z"/><path d="m436.78,239.14c-.22,0-.43-.02-.64-.04-1.41-.2-2.66-1.07-3.34-2.32l-23.17-42.18c-1.01-1.84-.63-4.11.92-5.53l10.65-9.71c.94-.86,2.23-1.28,3.51-1.17,1.28.14,2.46.81,3.22,1.84l27.3,37.17c1.34,1.83,1.15,4.3-.45,5.91l-14.77,14.71c-.85.83-2.02,1.32-3.22,1.32h0Zm-17.45-45.78l18.53,33.74,7.72-7.68-22-29.94-4.25,3.89Z"/><path d="m438.6,114.93c-4.88-.01-9.57-1.1-13.57-3.16-4.63-2.37-8.33-6.08-10.7-10.71-1.14-2.24-.26-4.97,1.97-6.12.66-.33,1.35-.5,2.08-.5,1.72,0,3.27.94,4.05,2.47,1.56,3.01,3.78,5.23,6.78,6.79,2.71,1.41,9.37,2.4,9.37,2.4h-.54.18c5.11,0,10.52-1.81,13.16-4.41,5.2-4.93,8.14-7.55,10.64-9.05.11-.06.2-.11.31-.16.78-.43,1.6-.86,3.26-.92h.04c.46,0,1.37.08,2.31.58.73.39,1.42,1.06,1.83,1.78.67,1.2.69,2.02.71,2.62,0,.05,0,.11.01.16-.02.82-.11,1.44-.21,1.93,2.96-1.06,7.4-2.44,12-2.48,2.62.01,4.71.48,6.57,1.47,2.28,1.17,4.11,3.49,4.78,6.07.3,1.12.15,2.29-.43,3.31-.57,1.01-1.51,1.75-2.64,2.05-.38.11-.78.15-1.17.15-1.96,0-3.69-1.32-4.21-3.21-.18-.48-.19-.49-.37-.61-.04-.02-.09-.05-.13-.09-.26-.15-1.05-.41-2.34-.41h-.08s-7.14,2.06-10.17,3.24l-.06.02c-1.93.69-3.38.99-4.83,1-1.66.08-4.13-.69-5.46-2.52-.34-.47-.63-.95-.84-1.46-.99.91-2.08,1.93-3.25,3.04-4.62,4.28-11.39,6.67-19.06,6.73h0Z"/><path d="m215.81,254.83c-.73,1.7-2.5,2.73-4.35,2.73h-22.97c-2.67,0-4.85-2.17-4.85-4.85s2.18-4.85,4.85-4.85h22.92c3.36,0,5.92,3.41,4.4,6.96Z"/><path d="m215.76,268.28c-.75,1.62-2.45,2.61-4.24,2.61h-23.03c-3.37,0-5.97-3.46-4.37-7.04.74-1.64,2.44-2.65,4.24-2.65h23.04c3.41,0,6.01,3.52,4.35,7.08Z"/><path d="m147.74,298.16c-31.38,0-62.99-3.65-93.94-10.84-2.07-.49-3.51-2.3-3.51-4.43,0-7.75-.09-14.43-.17-20.32-.07-4.62-.11-8.62-.11-12.27.01-8.94.3-15.19,1.72-20.64,1.38-5.41,4.31-10.04,8.7-13.74,5.37-4.53,12.54-8.32,23.39-14.07,6.55-3.48,14.71-7.81,24.46-13.37,1.05-.6,2.33-.75,3.49-.43,1.17.33,2.17,1.14,2.75,2.19l20.2,36.86,10.48-10.44c.87-.85,2-1.32,3.22-1.32s2.26.43,3.12,1.23l9.41,8.85c1.83,1.72,1.92,4.59.2,6.42-.88.92-2.05,1.43-3.32,1.43-1.16,0-2.26-.44-3.12-1.24l-6.2-5.82-11.66,11.6c-1,1-2.46,1.48-3.86,1.27-1.41-.19-2.66-1.07-3.34-2.3l-20.9-38.14c-8.15,4.58-15.17,8.3-20.82,11.3-3.12,1.66-5.8,3.09-8.27,4.43-8.43,4.58-12.9,7.62-15.44,10.51-1.83,2.09-2.9,4.15-3.71,7.11-1,3.74-1.42,9.23-1.41,18.31,0,3.53.04,7.47.11,12.03.07,4.97.14,10.59.16,16.94,29.12,6.51,58.85,9.8,88.37,9.8s59.73-3.31,89.72-9.83c.02-6.11.09-11.55.15-16.36.06-4.5.1-8.38.1-11.88.01-9.28-.41-14.86-1.41-18.66-1.1-4.11-2.58-6.47-5.83-9.38-4.04-3.6-11.17-7.42-21.95-13.2-5.6-2.99-12.56-6.71-20.58-11.22l-1.42,2.32h0c-.83,1.38-2.29,2.19-3.89,2.19-.83,0-1.65-.23-2.36-.67-.03-.01-.07-.03-.09-.06-.04-.02-.08-.06-.13-.08l-.04-.03c-.15-.1-.28-.22-.43-.34-1.62-1.46-1.96-3.87-.82-5.72l3.71-6.09c.82-1.34,2.31-2.18,3.89-2.18.78,0,1.57.2,2.25.6,9.55,5.45,17.61,9.76,24.08,13.21,3.34,1.79,6.23,3.33,8.92,4.8,8.73,4.82,13.89,8.1,17.86,12.61,2.69,3.04,4.59,6.73,5.66,10.97,1.4,5.52,1.68,11.86,1.69,20.93,0,3.61-.04,7.54-.1,12.11-.08,5.75-.16,12.27-.16,19.78,0,2.13-1.45,3.96-3.55,4.43-31.83,7.2-63.88,10.84-95.26,10.84h0Zm23.43-75.71c-.83,0-1.65-.23-2.36-.66-2.14-1.31-2.82-4.11-1.51-6.25.83-1.36,2.29-2.18,3.89-2.18.83,0,1.65.23,2.36.66,1.05.64,1.78,1.63,2.06,2.81.28,1.18.1,2.41-.54,3.44-.83,1.37-2.29,2.18-3.9,2.18h0Z"/><path d="m149.59,182.05c-7.94,0-15.74-2.77-22.57-8.03-5.9-4.53-11.19-10.86-15.72-18.79-7.72-13.6-12.54-30.81-12.59-44.91,0-6.86,1.35-13.51,4.01-19.78,2.57-6.04,6.23-11.49,10.91-16.14,4.68-4.67,10.12-8.34,16.18-10.89,6.28-2.65,12.94-4,19.82-4s13.55,1.35,19.82,4c6.06,2.56,11.51,6.22,16.18,10.89,4.68,4.66,8.34,10.1,10.91,16.14,2.65,6.27,3.99,12.92,3.99,19.78-.01,10.11-2.62,22.35-7.13,33.59-5.32,13.11-12.65,23.53-21.19,30.11-6.82,5.26-14.62,8.03-22.55,8.03h-.08Zm.04-113.47c-11.17.01-21.67,4.35-29.57,12.22-7.89,7.88-12.25,18.37-12.25,29.5-.01,8.86,2.41,20.15,6.47,30.19,4.61,11.49,11.1,20.82,18.28,26.3,5.42,4.13,11,6.16,17.07,6.17,6.06-.01,11.64-2.03,17.05-6.16,4.87-3.74,9.49-9.3,13.35-16.09,7.93-13.79,11.44-30.24,11.42-40.42-.01-11.13-4.35-21.61-12.25-29.5-7.9-7.87-18.4-12.21-29.57-12.22h0Z"/><path d="m162.26,237.1c-1.17,0-2.29-.44-3.13-1.24l-13.48-12.67c-1.67-1.57-1.91-4.15-.56-6l27.3-37.17c.76-1.05,1.93-1.7,3.22-1.84,1.28-.11,2.57.31,3.51,1.17l10.65,9.71c1.6,1.45,1.95,3.86.82,5.71l-24.46,40.13c-.71,1.16-1.93,1.96-3.27,2.13-.21.04-.41.05-.61.05h0Zm-7.44-17.77l6.46,6.07,19.59-32.15-4.13-3.77-21.92,29.86Z"/><path d="m133.99,239.14c-.22,0-.44-.02-.65-.04-1.41-.2-2.66-1.08-3.34-2.32l-23.12-42.18c-1-1.84-.63-4.11.91-5.52l10.58-9.71c.94-.88,2.23-1.31,3.51-1.18s2.46.8,3.23,1.84l27.31,37.17c1.34,1.83,1.15,4.3-.45,5.91l-14.77,14.71c-.84.83-2.01,1.32-3.21,1.32h0Zm-17.42-45.79l18.5,33.75,7.71-7.68-22-29.93-4.21,3.86Z"/><path d="m136.82,114.9c-4.67-.01-9.17-1.06-13.02-3.03-4.31-2.21-7.78-5.61-10.08-9.86-.53-.99-.86-2.68-.51-3.75s1.12-2.02,2.16-2.56c.61-.33,1.31-.49,2-.49,1.65,0,3.14.9,3.89,2.36,1.51,2.89,3.65,5.03,6.55,6.54,2.6,1.35,5.71,2.06,9.01,2.06,4.79.04,9.81-1.65,12.27-4.07,4.82-4.54,7.52-6.94,9.84-8.33.1-.05.2-.11.28-.15.73-.39,1.49-.8,3.01-.85h.03c.46,0,1.37.08,2.3.58.73.38,1.42,1.05,1.83,1.77.67,1.2.7,2.03.72,2.63v.16c-.01.81-.11,1.42-.2,1.92,4.56-1.64,8.47-2.44,11.94-2.47,2.63.01,4.73.48,6.59,1.46,2.28,1.18,4.12,3.5,4.78,6.08.3,1.12.16,2.29-.41,3.31s-1.52,1.75-2.65,2.05c-.38.11-.77.15-1.16.15-1.96,0-3.69-1.32-4.21-3.21-.18-.47-.19-.48-.38-.61-.03-.02-.08-.05-.13-.09-.25-.15-1.05-.41-2.34-.41h-.21c-2.72,0-6.85,1.13-9.74,2.27l-.07.02c-1.88.68-3.22.95-4.63.96-1.62.09-3.96-.67-5.23-2.41-.33-.45-.61-.93-.82-1.42-.93.84-1.98,1.82-3.13,2.92-4.43,4.12-10.92,6.41-18.29,6.47h0Z"/><path d="m300.99,424.39c-7.94,0-15.74-2.78-22.58-8.05-5.9-4.54-11.2-10.87-15.74-18.8-7.73-13.62-12.57-30.82-12.61-44.89,0-6.85,1.35-13.51,4.01-19.78,2.57-6.07,6.23-11.51,10.92-16.19,9.62-9.63,22.43-14.94,36.06-14.94,6.88,0,13.55,1.35,19.82,4.01,6.06,2.57,11.51,6.25,16.18,10.93,4.68,4.68,8.34,10.12,10.91,16.19,2.65,6.27,3.99,12.93,4.01,19.78-.02,10.08-2.63,22.31-7.15,33.56-5.31,13.12-12.64,23.54-21.18,30.14-6.82,5.27-14.62,8.05-22.54,8.05h-.09Zm.04-113.55c-11.18,0-21.7,4.36-29.62,12.27-7.91,7.92-12.26,18.4-12.26,29.55-.01,8.83,2.41,20.09,6.48,30.16,4.63,11.49,11.12,20.84,18.31,26.33,5.43,4.13,11.01,6.16,17.09,6.17,6.06-.01,11.64-2.03,17.04-6.17,4.88-3.75,9.5-9.31,13.37-16.1,7.93-13.83,11.46-30.25,11.42-40.4-.01-11.14-4.35-21.63-12.25-29.55-7.92-7.9-18.41-12.26-29.57-12.26h0Z"/><path d="m305.73,471.77c-1.14,0-2.26-.43-3.1-1.2l-5.43-5c-.92-.85-1.45-2.07-1.45-3.32-.01-1.16.42-2.26,1.21-3.1.85-.93,2.07-1.46,3.34-1.46,1.14,0,2.24.43,3.08,1.2l5.43,5c.88.82,1.41,1.96,1.45,3.16v.17c0,1.14-.43,2.27-1.21,3.1-.81.88-1.97,1.41-3.16,1.45-.06,0-.11,0-.17,0h0Z"/><path d="m299.98,465.43c-1.45,0-2.81-.69-3.66-1.85l-24.22-33.05-6.85,6.25-.79.58c-10.25,5.89-18.7,10.38-25.49,14-2.18,1.16-4.22,2.25-6.08,3.26-1.26.68-2.8.71-4.09.11-28.45-13.34-52.53-34.33-69.64-60.7-17.57-27.07-26.86-58.53-26.86-90.97,0-3.08.08-6.28.26-10.36.1-2.48,2.13-4.4,4.64-4.33,3.57.09,7.17.15,10.69.15,29.76-.01,60.04-3.31,90.01-9.83.01-4.44.06-8.44.09-11.77.02-2.47,2.07-4.5,4.55-4.5h.03c2.5.03,4.51,2.09,4.49,4.58-.04,4.32-.1,9.51-.1,15.32,0,2.13-1.45,3.95-3.54,4.41-31.8,7.18-63.93,10.83-95.49,10.83h-.03c-2.18,0-4.34-.01-6.44-.04-.07,2-.09,3.82-.09,5.56,0,61.1,34.2,115.7,89.25,142.5,1.31-.7,2.69-1.44,4.15-2.21,6.63-3.52,14.86-7.91,24.75-13.59l10.21-9.32c.95-.86,2.23-1.29,3.51-1.16,1.29.13,2.44.77,3.2,1.82l23.55,32.14,23.59-32.14c.76-1.03,1.93-1.7,3.2-1.82s2.56.29,3.51,1.16l10.17,9.32c8.89,5.1,16.22,9.01,22.68,12.44,2.39,1.28,4.64,2.48,6.73,3.61,1.72.01,3.32,1.03,4.05,2.58.3.62.44,1.29.44,1.97-.01,1.73-1.03,3.33-2.59,4.06-.13.07-.25.13-.37.18l-.24.11c-1.3.61-2.86.57-4.11-.14-2.46-1.35-5.24-2.83-8.2-4.41-6.3-3.35-14.13-7.52-23.34-12.82l-.81-.59-6.82-6.25-24.25,33.05c-.85,1.18-2.2,1.87-3.65,1.87h0Zm90.13-20.39c-1.54,0-2.96-.77-3.8-2.04-.67-1.02-.91-2.23-.66-3.42.24-1.19.93-2.22,1.96-2.87.74-.5,1.6-.75,2.49-.75,1.54,0,2.96.76,3.81,2.04,1.38,2.09.8,4.91-1.31,6.29-.74.49-1.61.75-2.49.75h0Zm18.07-14.16c-1.31,0-2.56-.56-3.42-1.55-1.65-1.89-1.47-4.76.42-6.41,34.47-30.23,54.24-73.81,54.24-119.59,0-1.94-.03-3.79-.09-5.66-2.9.07-5.78.09-8.56.09-31.22,0-62.79-3.65-93.81-10.84-2.07-.49-3.53-2.3-3.53-4.43,0-7.76-.09-14.44-.17-20.33-.06-4.63-.11-8.62-.11-12.27.01-8.95.3-15.19,1.72-20.63,1.39-5.42,4.31-10.04,8.7-13.74,5.36-4.53,12.51-8.32,23.35-14.07,6.33-3.36,14.19-7.53,23.53-12.86-29.8-28.58-68.97-44.31-110.29-44.33-41.31.01-80.49,15.74-110.31,44.33,9.12,5.18,16.88,9.33,23.12,12.65,3.8,2.03,7.08,3.78,10.04,5.43,8.58,4.8,13.96,8.32,17.81,13.26l.03.04c.61.81.94,1.76.94,2.77,0,1.42-.65,2.74-1.78,3.6-.81.62-1.76.94-2.77.94-1.42,0-2.74-.65-3.61-1.77-2.39-3.16-6.74-6.3-15.05-10.89-2.86-1.59-6.09-3.32-9.83-5.31-6.53-3.49-14.66-7.83-24.33-13.35-.33-.18-.58-.37-.87-.62l-3.48-3.27c-.89-.84-1.41-2.01-1.43-3.23-.02-1.22.44-2.41,1.3-3.27,7.63-7.77,16.06-14.82,25.04-20.98,9.07-6.2,18.78-11.54,28.86-15.86,20.99-8.99,43.29-13.55,66.29-13.55h.01c23.01,0,45.3,4.57,66.29,13.55,10.08,4.32,19.78,9.66,28.85,15.86,8.97,6.16,17.4,13.21,25.02,20.98.85.88,1.33,2.06,1.31,3.27-.02,1.22-.54,2.39-1.43,3.21l-3.46,3.27c-.28.26-.54.45-.88.64-9.92,5.67-18.19,10.07-24.82,13.59-3.12,1.66-5.8,3.09-8.26,4.43-8.42,4.58-12.89,7.61-15.41,10.51-1.84,2.08-2.91,4.13-3.71,7.1-1,3.74-1.43,9.21-1.42,18.31,0,3.52.06,7.45.11,12.01.07,4.97.15,10.6.17,16.97,29.19,6.51,58.88,9.8,88.24,9.8,4.18,0,8.49-.07,12.76-.2,2.46-.08,4.54,1.83,4.69,4.28.21,3.51.31,6.96.31,10.58,0,12.38-1.35,24.72-4.01,36.69-2.59,11.64-6.46,23.04-11.48,33.87-4.92,10.63-11.01,20.79-18.06,30.19-7.01,9.33-15,17.96-23.79,25.66-.83.73-1.9,1.12-3,1.12h0Zm-170.71-186.12h0c0-1.98,1.25-3.81,3.16-4.35,3.14-.88,5.86,1.3,5.94,4.22.06,2.5-1.92,4.6-4.44,4.66-.03.01-.08.01-.11.01h0c-2.51,0-4.55-2.03-4.55-4.54Z"/><path d="m300.99,424.39c-7.94,0-15.74-2.78-22.58-8.05-5.9-4.54-11.2-10.87-15.74-18.8-7.73-13.62-12.57-30.82-12.61-44.89,0-6.85,1.35-13.51,4.01-19.78,2.57-6.07,6.23-11.51,10.92-16.19,9.62-9.63,22.43-14.94,36.06-14.94,6.88,0,13.55,1.35,19.82,4.01,6.06,2.57,11.51,6.25,16.18,10.93,4.68,4.68,8.34,10.12,10.91,16.19,2.65,6.27,3.99,12.93,4.01,19.78-.02,10.08-2.63,22.31-7.15,33.56-5.31,13.12-12.64,23.54-21.18,30.14-6.82,5.27-14.62,8.05-22.54,8.05h-.09Zm.04-113.55c-11.18,0-21.7,4.36-29.62,12.27-7.91,7.92-12.26,18.4-12.26,29.55-.01,8.83,2.41,20.09,6.48,30.16,4.63,11.49,11.12,20.84,18.31,26.33,5.43,4.13,11.01,6.16,17.09,6.17,6.06-.01,11.64-2.03,17.04-6.17,4.88-3.75,9.5-9.31,13.37-16.1,7.93-13.83,11.46-30.25,11.42-40.4-.01-11.14-4.35-21.63-12.25-29.55-7.92-7.9-18.41-12.26-29.57-12.26h0Z"/><path d="m392.55,478.32c-.64,0-1.25-.14-1.83-.39-1.3-.57-2.24-1.68-2.58-3.07-.78-3.09-1.85-5.24-3.68-7.38-1.8-2.1-4.49-4.23-8.47-6.69-3.92-2.44-9.04-5.18-15.54-8.66-6.59-3.53-14.8-7.92-24.6-13.54l-.81-.59-6.85-6.27-24.35,33.18c-.85,1.17-2.22,1.86-3.66,1.86s-2.82-.69-3.67-1.86l-24.32-33.18-6.88,6.27-.8.59c-10.01,5.72-18.33,10.15-25,13.72-3.16,1.68-5.89,3.14-8.38,4.5-8.41,4.59-12.84,7.66-15.33,10.58-1.81,2.14-2.87,4.26-3.64,7.35-.34,1.39-1.28,2.5-2.58,3.08-1.28.56-2.79.5-4.01-.17-9.75-5.31-19.13-11.49-27.89-18.37-.95-.75-1.56-1.83-1.71-3.03-.15-1.2.19-2.4.94-3.35.87-1.1,2.17-1.73,3.58-1.73,1.02,0,2,.33,2.81.97,6.94,5.46,14.32,10.48,21.95,14.91.97-2.03,2.19-3.91,3.64-5.58,2.48-2.87,5.63-5.4,10.55-8.43,4.28-2.63,9.42-5.37,15.94-8.85,6.48-3.45,14.55-7.74,24.16-13.25l10.25-9.36c.95-.86,2.24-1.29,3.53-1.16,1.28.13,2.46.8,3.22,1.84l23.65,32.26,23.68-32.27c.76-1.03,1.93-1.7,3.22-1.83s2.57.3,3.53,1.17l10.21,9.36c9.42,5.38,17.39,9.66,23.8,13.08,3.33,1.79,6.2,3.33,8.87,4.8,8.75,4.85,13.91,8.16,17.87,12.71,1.47,1.68,2.7,3.58,3.67,5.61,58.12-33.77,94.23-96.4,94.23-163.43,0-4.23-.19-8.65-.37-12.03-.07-1.2.35-2.37,1.16-3.27.82-.9,1.93-1.43,3.15-1.49,2.5-.15,4.64,1.81,4.78,4.3.17,3.44.37,7.98.37,12.48,0,18.41-2.53,36.63-7.52,54.17-4.83,16.99-11.96,33.3-21.16,48.44-18.22,29.97-44.15,54.66-74.95,71.42-.65.37-1.41.57-2.17.57h0Zm-228.67-33.12c-1.21,0-2.36-.47-3.21-1.32-.87-.86-1.34-2-1.34-3.21s.47-2.36,1.33-3.21c1.71-1.73,4.71-1.73,6.44-.01h0c.85.86,1.33,2,1.33,3.21s-.47,2.35-1.33,3.21c-.86.86-2,1.33-3.22,1.33h0Zm-15.55-16.94c-1.4,0-2.71-.62-3.57-1.73-13.58-17.11-24.15-36.17-31.43-56.66-7.53-21.2-11.35-43.45-11.35-66.14,0-3.68.11-7.62.37-12.38.13-2.5,2.25-4.44,4.78-4.3,1.21.06,2.32.59,3.14,1.49.82.9,1.23,2.07,1.17,3.27-.24,4.61-.35,8.41-.35,11.93,0,43,14.12,83.5,40.81,117.16.64.81.98,1.77.98,2.8.01,1.41-.61,2.71-1.72,3.58-.82.65-1.79.99-2.82.99h0Z"/><path d="m213.7,135.18c-1.74,0-3.3-.97-4.07-2.52-.54-1.08-.64-2.32-.25-3.46.39-1.16,1.19-2.09,2.29-2.62,13.48-6.71,27.71-11.89,42.3-15.38,29.35-7.01,60.65-7.2,90.12-.52,13.92,3.15,27.55,7.83,40.48,13.91,2.26,1.07,3.24,3.77,2.17,6.04-.74,1.58-2.35,2.61-4.12,2.61-.67,0-1.32-.15-1.93-.44-25.33-11.9-52.42-17.94-80.52-17.94-29.61,0-58.02,6.68-84.44,19.83-.64.32-1.32.49-2.02.49h0Z"/><path d="m157.46,472.72c-1.1,0-2.16-.4-2.99-1.12-17.69-15.46-32.74-33.52-44.71-53.67-12.22-20.56-20.95-42.8-25.98-66.14-.25-1.18-.03-2.4.63-3.42.66-1.02,1.68-1.72,2.87-1.98.32-.07.64-.1.97-.1,2.13,0,3.99,1.51,4.44,3.59,9.51,44.16,33.58,84.97,67.78,114.88h.01c1.89,1.66,2.08,4.53.42,6.42-.86.99-2.11,1.55-3.43,1.55h0Z"/><path d="m426.82,485.36c-1.47,0-2.84-.71-3.7-1.87-.71-.99-1-2.19-.81-3.38.19-1.2.84-2.25,1.83-2.97,25.34-18.3,46.67-42.27,61.68-69.29,0,0,0-.01.01-.01.8-1.43,2.32-2.33,3.97-2.33.76,0,1.52.19,2.21.57,1.06.59,1.83,1.56,2.16,2.73.34,1.16.19,2.39-.4,3.45-7.86,14.17-17.35,27.52-28.19,39.69-10.77,12.07-22.92,23.04-36.1,32.56-.79.57-1.71.86-2.66.86h0Z"/><path d="m507.92,373.22c-.45,0-.9-.07-1.34-.2-2.39-.74-3.74-3.28-3-5.68,6.18-20.12,9.31-41.04,9.31-62.18v-.02c0-1.73.95-3.38,2.53-4.08,3.32-1.47,6.57.94,6.57,4.1,0,22.04-3.27,43.86-9.73,64.85-.59,1.91-2.34,3.21-4.35,3.21h0Z"/><path d="m392.5,113.84c-.68,0-1.34-.15-1.97-.44-10.99-5.26-22.9-9.63-35.36-12.99-1.17-.32-2.16-1.07-2.76-2.13-.6-1.05-.76-2.27-.44-3.45.54-1.98,2.34-3.35,4.39-3.35.4,0,.8.04,1.18.16,13.01,3.51,25.43,8.08,36.94,13.56,2.26,1.08,3.22,3.81,2.14,6.07-.76,1.57-2.37,2.58-4.11,2.58h0Z"/><path d="m241.28,101.42c-1.88-.13-3.62-1.29-4.23-3.07-.84-2.49.58-5.15,3.08-5.84,19.58-5.46,39.77-8.24,60.03-8.24,2.97,0,5.31,2.87,4.32,6.01-.59,1.89-2.45,3.08-4.43,3.08-19.38.01-38.71,2.67-57.45,7.89h-.01c-.39.11-.82.17-1.23.17h-.08Z"/></svg>