<?xml version="1.0" encoding="UTF-8"?><svg id="Layer_1" xmlns="http://www.w3.org/2000/svg" viewBox="0 0 600 600"><path d="m224.21,404.01c1.8,1.12,2.36,3.49,1.24,5.3-1.11,1.81-3.48,2.36-5.3,1.24-20.73-12.87-37.56-31.24-48.59-52.94-10.19-20.05-15.44-42.9-14.26-66.82-1.63-.74-3.06-1.83-4.2-3.16-2.05-2.38-3.19-5.55-2.94-8.94.26-3.39,1.85-6.35,4.23-8.41,2.38-2.05,5.54-3.2,8.93-2.95,3.38.26,6.34,1.85,8.39,4.24,2.05,2.38,3.19,5.55,2.94,8.94-.26,3.39-1.85,6.35-4.23,8.4-1.54,1.33-3.4,2.27-5.43,2.71-1.03,22.42,3.9,43.78,13.42,62.5,10.39,20.43,26.25,37.75,45.79,49.88h0Zm-111.53-24.57c1.57.12,2.94.86,3.9,1.98h0c.95,1.1,1.49,2.58,1.37,4.16-.12,1.56-.86,2.93-1.98,3.9l-.02.02c-1.11.95-2.59,1.49-4.14,1.37-1.57-.12-2.96-.86-3.91-1.98h0c-.96-1.12-1.49-2.6-1.38-4.17.12-1.58.86-2.96,1.98-3.91,1.11-.95,2.58-1.49,4.16-1.37h0Zm-1.84,6.93c.3.08,1.04.46,1.28.66l.14-1.87-1.41,1.22h-.01Zm-7.56-30.24c1.57.12,2.94.86,3.91,1.98h0c.95,1.1,1.49,2.58,1.37,4.16-.12,1.56-.86,2.93-1.98,3.9l-.02.02c-1.11.95-2.59,1.49-4.14,1.37-1.57-.12-2.96-.86-3.91-1.98h0c-.96-1.12-1.49-2.6-1.38-4.17.12-1.58.86-2.96,1.98-3.91,1.11-.95,2.58-1.49,4.16-1.37h0Zm-1.84,6.93c.3.08,1.04.46,1.28.66l.14-1.87-1.41,1.22h-.01Zm-5.81-31.35c1.57.12,2.94.86,3.9,1.98h0c.95,1.1,1.49,2.58,1.37,4.16-.12,1.56-.86,2.93-1.98,3.9l-.02.02c-1.11.95-2.59,1.49-4.14,1.37-1.57-.12-2.96-.86-3.91-1.98h0c-.96-1.12-1.49-2.6-1.38-4.17.12-1.58.86-2.96,1.98-3.91,1.11-.95,2.58-1.49,4.16-1.37h0Zm-1.84,6.93c.3.08,1.04.46,1.28.66l.14-1.87-1.41,1.22h-.01Zm423.57,14.77c.77-1.26.95-2.72.63-4.05-.32-1.33-1.14-2.54-2.4-3.31-1.26-.77-2.72-.95-4.04-.63-1.32.32-2.53,1.15-3.29,2.4h0c-.77,1.27-.95,2.73-.63,4.06.32,1.33,1.14,2.54,2.4,3.3h0c1.26.77,2.72.95,4.04.63,1.32-.32,2.53-1.15,3.3-2.4h-.02Zm8.01-5.38c.78,3.24.33,6.78-1.55,9.85-1.88,3.08-4.82,5.11-8.06,5.89-2.92.71-6.09.4-8.94-1.04h-.09s-.82-.51-.82-.51c-3.07-1.88-5.1-4.83-5.88-8.07-.7-2.92-.4-6.1,1.04-8.95v-.09s.51-.82.51-.82c1.88-3.08,4.82-5.11,8.06-5.89,3.24-.79,6.77-.33,9.84,1.55,3.07,1.88,5.1,4.83,5.88,8.07h0Zm3.2-37.94c1.2-1.96,1.48-4.22.98-6.3-.5-2.07-1.78-3.95-3.74-5.14-1.96-1.2-4.22-1.48-6.3-.98-2.07.5-3.94,1.79-5.13,3.74-1.2,1.96-1.48,4.22-.98,6.3.5,2.07,1.78,3.95,3.74,5.14,1.96,1.2,4.22,1.48,6.3.98,2.07-.5,3.94-1.79,5.13-3.74Zm8.46-8.11c.96,3.97.4,8.32-1.9,12.11-2.31,3.78-5.92,6.26-9.9,7.24-3.97.96-8.32.4-12.1-1.9-3.78-2.31-6.26-5.93-7.23-9.91-.96-3.97-.4-8.32,1.9-12.11,2.31-3.78,5.92-6.26,9.9-7.24,3.97-.96,8.32-.4,12.1,1.9,3.78,2.31,6.26,5.93,7.23,9.91Zm-4.77-35.42c1.68-2.77,2.09-5.96,1.38-8.88-.7-2.92-2.52-5.57-5.28-7.25-2.76-1.69-5.95-2.1-8.88-1.38-2.92.71-5.56,2.53-7.24,5.29-1.68,2.77-2.09,5.96-1.38,8.88.7,2.92,2.52,5.57,5.28,7.25h0c2.76,1.69,5.95,2.1,8.88,1.38,2.92-.71,5.56-2.52,7.24-5.29h0s0,0,0,0Zm8.67-10.88c1.1,4.52.57,9.44-1.8,13.81v.05l-.5.82c-2.8,4.59-7.18,7.6-12.01,8.77-4.52,1.1-9.43.57-13.8-1.81h-.05l-.82-.5c-4.58-2.8-7.59-7.19-8.76-12.02-1.17-4.83-.49-10.11,2.31-14.69,2.35-3.86,5.83-6.6,9.75-8.08-3.78-15.42-9.1-30.29-15.82-44.39l-21.45,10.68-.4-.82c4.75,9.91,8.73,20.23,11.87,30.89,6.93,23.51,9.83,48.63,7.9,74.49-.16,2.12-2.01,3.73-4.14,3.56-2.12-.16-3.72-2.02-3.56-4.14,1.86-24.94-.92-49.13-7.59-71.74-6.93-23.49-18.07-45.28-32.59-64.42-1.28-1.69-.95-4.1.73-5.39,1.69-1.28,4.1-.95,5.39.73,7.49,9.88,14.12,20.43,19.77,31.54l-.8-1.61,21.44-10.67c-2.6-5.02-5.37-9.93-8.31-14.73-12.61-20.55-28.34-39.05-46.6-54.78-3.55,2.51-7.97,3.85-12.64,3.5-5.35-.4-10.04-2.93-13.28-6.7-3.25-3.77-5.05-8.78-4.66-14.14.4-5.36,2.93-10.05,6.7-13.29,3.77-3.25,8.77-5.06,14.13-4.66,5.35.4,10.04,2.93,13.28,6.7,3.25,3.77,5.05,8.78,4.66,14.14-.25,3.25-1.27,6.26-2.89,8.85,18.74,16.2,34.9,35.23,47.87,56.36,12.93,21.08,22.67,44.26,28.62,68.81,3.19.13,6.39,1.05,9.31,2.84,4.58,2.8,7.59,7.19,8.76,12.02h-.01ZM351.53,50.04c3.6.26,6.74,1.97,8.91,4.51,2.18,2.54,3.39,5.9,3.13,9.5s-1.97,6.74-4.5,8.92c-2.53,2.18-5.89,3.4-9.49,3.13-3.6-.26-6.74-1.97-8.91-4.51-2.18-2.54-3.39-5.9-3.13-9.5.26-3.6,1.97-6.74,4.5-8.92,2.53-2.18,5.89-3.4,9.49-3.13Zm3.06,9.54c-.89-1.03-2.18-1.73-3.64-1.84-1.46-.11-2.84.38-3.87,1.27-1.03.89-1.73,2.18-1.84,3.64-.11,1.46.38,2.84,1.27,3.87.89,1.03,2.18,1.73,3.64,1.84,1.46.11,2.84-.38,3.87-1.27s1.73-2.18,1.84-3.64c.11-1.46-.38-2.84-1.27-3.87Zm39.29,3.9c4.41.33,8.27,2.42,10.94,5.53,2.67,3.11,4.16,7.24,3.83,11.66-.33,4.42-2.42,8.28-5.53,10.95-3.11,2.68-7.24,4.17-11.65,3.84-4.41-.33-8.27-2.42-10.94-5.53-2.67-3.11-4.16-7.24-3.83-11.66.33-4.42,2.42-8.28,5.53-10.95,3.11-2.68,7.24-4.17,11.65-3.84Zm5.1,10.57c-1.38-1.61-3.38-2.69-5.67-2.87-2.29-.17-4.43.61-6.03,1.99-1.61,1.38-2.69,3.39-2.86,5.68-.17,2.29.61,4.43,1.98,6.04,1.38,1.61,3.38,2.69,5.67,2.87,2.29.17,4.43-.61,6.03-1.99,1.61-1.38,2.69-3.39,2.86-5.68.17-2.29-.61-4.43-1.98-6.04Zm40.18,23.57c-1.96-2.27-4.77-3.8-8.01-4.04-3.23-.24-6.24.85-8.52,2.81-2.27,1.96-3.8,4.78-4.04,8.01-.24,3.23.85,6.25,2.81,8.52,1.96,2.27,4.77,3.8,8.01,4.04,3.23.24,6.24-.85,8.52-2.81,2.27-1.96,3.8-4.78,4.04-8.01.24-3.23-.85-6.25-2.81-8.52Zm-63,194.79c1.68.13,3.17.92,4.19,2.12h.02c1.03,1.2,1.6,2.78,1.47,4.48s-.92,3.18-2.12,4.21c-1.2,1.03-2.78,1.6-4.47,1.48s-3.17-.92-4.21-2.12v-.02c-1.03-1.2-1.6-2.77-1.47-4.47.13-1.69.92-3.17,2.12-4.19l.02-.02c1.2-1.03,2.77-1.6,4.46-1.48h-.01Zm-.55,5.87l-1.11.96c.23.05.8.35,1,.5l.11-1.46h0Zm-1.11.94l1.11-.96h0s-1.46-.12-1.46-.12c.12.21.32.84.35,1.07h0Zm1.5-.96l.11-1.46c-.21.12-.83.32-1.07.35l.96,1.11Zm1.46.12l-1.46-.11,1.11-.95c.03.23.23.85.35,1.06h0Zm-1.85-.4l1.11-.96c-.23-.05-.82-.35-1.01-.5l-.11,1.46h0s0,0,0,0Zm-.58-.82c-.05.23-.35.82-.5,1.01l1.46.11-.95-1.12h0Zm.96,1.12l-.11,1.46c.21-.12.83-.33,1.06-.35l-.95-1.11Zm1.9-19.35c5.34.4,10.02,2.93,13.25,6.69,2.48,2.89,4.13,6.52,4.58,10.46l43.65,1.97c.07-12.14-1.32-23.98-4.03-35.32-3.6-15.08-9.52-29.33-17.39-42.34-1.1-1.82-.52-4.18,1.3-5.28,1.82-1.1,4.17-.52,5.28,1.3,8.26,13.65,14.48,28.65,18.28,44.55,2.88,12.06,4.36,24.6,4.27,37.43l15.23.68c.02-1.29.02-2.59,0-3.87-.05-5-.33-9.95-.8-14.82-4.02-41.07-22.66-78.32-50.97-105.96-27.01-26.37-62.81-44.02-103.12-47.92l-1.13,15.21c7,.7,13.88,1.86,20.63,3.45,8.12,1.92,15.96,4.45,23.46,7.55,1.96.8,2.91,3.05,2.1,5.02-.8,1.97-3.05,2.91-5.02,2.1-7.18-2.96-14.63-5.38-22.31-7.19-6.28-1.48-12.77-2.58-19.44-3.24l-1.17,15.73c17.72,1.84,34.31,7.11,49.17,15.12,16.53,8.9,30.89,21.18,42.2,35.85,1.3,1.68.99,4.11-.68,5.4-1.68,1.3-4.1.99-5.4-.7-10.68-13.83-24.2-25.41-39.77-33.79-14.97-8.06-31.85-13.18-49.94-14.54-2.12-.16-3.72-2.01-3.55-4.13l1.45-19.51c-6.51-.32-12.91-.23-19.15.28-6.77.54-13.42,1.53-19.92,2.96h0c-.34,4.54-2.48,8.52-5.68,11.27-3.2,2.75-7.43,4.29-11.97,3.95-4.53-.34-8.5-2.49-11.25-5.69-2.75-3.2-4.29-7.44-3.94-11.98.34-4.54,2.48-8.51,5.68-11.26,3.2-2.75,7.43-4.29,11.97-3.95,4.54.34,8.5,2.49,11.25,5.69,1.12,1.31,2.04,2.78,2.71,4.38,6.71-1.45,13.57-2.47,20.55-3.03,6.72-.53,13.52-.64,20.33-.3l1.43-19.1c.16-2.12,2.01-3.72,4.13-3.55,43.73,3.26,82.63,21.98,111.73,50.43,29.58,28.9,49.07,67.82,53.27,110.76.5,5.13.78,10.29.84,15.49.03,2.34,0,4.69-.05,7.04.08.35.12.71.1,1.09-.02.34-.07.67-.17.98-.08,2.14-.2,4.29-.37,6.44-1.41,18.82-5.67,36.76-12.34,53.42l52.23,20.97h0s.03.02.03.02c1.96.8,2.91,3.05,2.1,5.02-7.03,17.05-16.22,33.28-27.18,48.28-10.57,14.46-22.79,27.77-36.34,39.59,1.98,3.32,3,7.25,2.68,11.39-.4,5.35-2.92,10.03-6.69,13.27-3.76,3.24-8.76,5.05-14.1,4.65-5.34-.4-10.02-2.93-13.25-6.69-3.24-3.76-5.04-8.77-4.65-14.11.4-5.35,2.92-10.03,6.69-13.27,3.76-3.24,8.76-5.05,14.1-4.65,3.77.28,7.22,1.63,10.06,3.72,13.15-11.46,25.03-24.39,35.3-38.43,9.84-13.46,18.18-27.93,24.76-43.08l-48.75-19.57c-3.66,8.11-7.9,15.89-12.67,23.27-16.28,25.25-38.67,46.02-64.91,60.36-1.86,1.03-4.19.34-5.21-1.53-1.02-1.86-.34-4.2,1.53-5.22,25.13-13.74,46.57-33.62,62.15-57.79,5.16-8,9.68-16.48,13.47-25.36.02-.05.04-.09.05-.15.04-.1.08-.19.13-.28,7.14-16.84,11.7-35.12,13.14-54.4.08-1.12.16-2.24.22-3.36l-15.22-.68c-.05.97-.12,1.94-.19,2.91-1.26,16.91-5.17,33.01-11.3,47.91-6.35,15.43-15.06,29.56-25.67,41.99-1.38,1.62-3.81,1.81-5.42.43-1.62-1.38-1.81-3.81-.43-5.42,10.08-11.8,18.37-25.24,24.4-39.9,5.82-14.15,9.53-29.45,10.73-45.57.06-.9.13-1.79.17-2.68l-44.06-1.98c-1.07,3.67-3.18,6.86-5.96,9.26-3.76,3.24-8.76,5.05-14.1,4.65-5.34-.4-10.02-2.93-13.25-6.69-3.24-3.76-5.04-8.77-4.65-14.11.4-5.35,2.92-10.03,6.69-13.27,3.76-3.24,8.76-5.05,14.1-4.65v-.02Zm6.97,11.69c-1.96-2.27-4.77-3.8-8.01-4.04-3.23-.24-6.24.85-8.52,2.81-2.27,1.96-3.8,4.78-4.04,8.01-.24,3.23.85,6.25,2.81,8.52,1.96,2.27,4.77,3.8,8.01,4.04,3.23.24,6.24-.85,8.52-2.81,2.27-1.96,3.8-4.78,4.04-8.01.24-3.23-.85-6.25-2.81-8.52Zm-241.45-90.75c1.91.94,2.7,3.24,1.77,5.16-.09.18-.2.37-.31.53-7.36,11.66-13.37,24.3-17.79,37.72-4.31,13.06-7.11,26.88-8.18,41.26-.16,2.12-2.01,3.73-4.14,3.56-2.12-.16-3.72-2.02-3.56-4.14,1.11-14.97,4.04-29.4,8.55-43.07,4.19-12.69,9.75-24.74,16.48-35.96l-18.79-9.29c-14.53,24.69-23.97,52.87-26.76,83.2,4.21.92,7.86,3.2,10.54,6.31,3.25,3.77,5.05,8.78,4.66,14.14-.4,5.36-2.93,10.05-6.7,13.29-3.77,3.25-8.77,5.06-14.13,4.66-5.35-.4-10.04-2.93-13.28-6.7-3.25-3.77-5.05-8.78-4.66-14.14.4-5.36,2.93-10.05,6.7-13.29,2.56-2.21,5.7-3.76,9.12-4.38,2.82-31.53,12.54-60.83,27.56-86.51l-21.53-10.63c-9.87,17.17-17.64,35.76-22.9,55.44-.55,2.06-2.65,3.28-4.71,2.74-2.06-.55-3.27-2.66-2.73-4.72,9.17-34.29,25.64-65.35,47.54-91.55,21.6-25.85,48.5-46.99,78.88-61.86-.28-1.42-.37-2.89-.26-4.4.34-4.55,2.49-8.52,5.69-11.28,3.2-2.76,7.45-4.3,11.99-3.96,4.55.34,8.52,2.49,11.27,5.7,2.75,3.2,4.29,7.45,3.95,12-.34,4.54-2.49,8.52-5.69,11.28-3.2,2.76-7.45,4.3-11.99,3.96-4.54-.34-8.52-2.49-11.27-5.7-.16-.19-.33-.39-.49-.59-29.31,14.39-55.28,34.82-76.16,59.8-6.97,8.34-13.38,17.2-19.15,26.49l21.59,10.67c11.01-17.31,24.48-32.84,39.89-46.12,40.36-34.78,93.97-54.16,151.28-49.88,2.12.16,3.72,2.02,3.56,4.14-.16,2.12-2.01,3.73-4.14,3.56-55.18-4.12-106.81,14.53-145.67,48.02-14.63,12.61-27.44,27.32-37.96,43.7l21.92,10.84h0Zm105.06-55.04c-1.46-1.7-3.58-2.85-6-3.03-2.42-.18-4.68.64-6.38,2.11-1.7,1.46-2.85,3.58-3.03,6.01-.18,2.42.64,4.68,2.11,6.38,1.46,1.7,3.58,2.85,6,3.03,2.42.18,4.68-.64,6.38-2.11,1.7-1.46,2.85-3.58,3.03-6.01.18-2.42-.64-4.68-2.11-6.38Zm-40.58-72.11c-1.46-1.7-3.58-2.85-6-3.03-2.42-.18-4.68.64-6.38,2.11-1.7,1.46-2.84,3.58-3.03,6.01-.18,2.42.64,4.68,2.11,6.38,1.46,1.7,3.58,2.85,6,3.03,2.42.18,4.68-.64,6.38-2.11,1.7-1.46,2.84-3.58,3.03-6.01.18-2.42-.64-4.68-2.11-6.38Zm-92.53,330.25l40.39-25.52c-15.96-26.74-24.13-58.49-21.65-91.91.16-2.12,2.01-3.73,4.14-3.56,2.12.16,3.72,2.02,3.56,4.14-3.06,41.02,10.79,79.4,35.63,108.28,24.85,28.88,60.71,48.28,101.69,51.35,2.12.16,3.72,2.02,3.56,4.14-.16,2.12-2.01,3.73-4.14,3.56-43.1-3.22-80.82-23.62-106.97-54-4.22-4.91-8.14-10.07-11.73-15.47l-37.11,23.45c16.47,25.03,38.43,46.24,64.3,61.81,25.97,15.63,55.91,25.58,88.23,27.99,9.81.73,19.48.75,28.8.13,8.5-.57,16.75-1.67,24.6-3.23l-2.79-72.52h-.05c-7.44-.56-13.94-4.07-18.44-9.31-4.51-5.24-7.02-12.21-6.47-19.64.56-7.45,4.07-13.96,9.3-18.46,5.23-4.51,12.2-7.03,19.62-6.47,7.44.56,13.94,4.07,18.44,9.31,4.51,5.24,7.02,12.21,6.47,19.64-.56,7.45-4.07,13.96-9.3,18.46-3.36,2.89-7.43,4.97-11.89,5.93l2.92,76.04c.07,1.9-1.24,3.52-3.03,3.9-9.14,2-18.84,3.38-28.88,4.06-9.75.65-19.78.64-29.89-.12-33.53-2.51-64.62-12.84-91.63-29.09-28.01-16.86-51.61-40.09-68.93-67.54-1.13-1.79-.59-4.18,1.2-5.31l.02-.03Zm-28.44-110.83c1.57.12,2.94.86,3.9,1.98h0c.95,1.1,1.49,2.58,1.37,4.16-.12,1.56-.86,2.93-1.98,3.9l-.02.02c-1.11.95-2.59,1.49-4.14,1.37-1.57-.12-2.96-.86-3.91-1.98h0c-.96-1.12-1.49-2.6-1.38-4.17.12-1.58.86-2.96,1.98-3.91,1.11-.95,2.58-1.49,4.16-1.37h0Zm-1.84,6.93c.3.08,1.04.46,1.28.66l.14-1.87-1.41,1.22h-.01Zm10.29-8.88c-1.96-2.27-4.77-3.8-8.01-4.04-3.23-.24-6.24.85-8.52,2.81-2.27,1.96-3.8,4.78-4.04,8.01-.24,3.23.85,6.25,2.81,8.52,1.96,2.27,4.77,3.8,8.01,4.04,3.23.24,6.24-.85,8.52-2.81,2.27-1.96,3.8-4.78,4.04-8.01.24-3.23-.85-6.25-2.81-8.52Zm65.44-5.95c.28-.05.57-.05.86-.03.44.04.86.14,1.24.3.94-.1,1.81-.49,2.51-1.08.89-.76,1.48-1.87,1.57-3.12.09-1.25-.33-2.44-1.09-3.32-.76-.89-1.86-1.48-3.12-1.58-1.25-.09-2.44.33-3.32,1.09-.89.76-1.48,1.87-1.57,3.12-.09,1.25.33,2.44,1.09,3.32.49.57,1.11,1.02,1.84,1.29h0Zm126.87,177.43c3.38.26,6.34,1.85,8.4,4.24,2.05,2.38,3.19,5.55,2.94,8.94-.26,3.39-1.85,6.35-4.24,8.4-2.38,2.05-5.54,3.2-8.93,2.95-3.38-.26-6.34-1.85-8.39-4.24-1.32-1.54-2.27-3.41-2.71-5.44-19.04-1.64-37.16-6.23-53.96-13.27-18-7.55-34.45-17.94-48.84-30.56-1.6-1.4-1.77-3.83-.37-5.43,1.4-1.6,3.83-1.77,5.43-.37,13.77,12.08,29.51,22.02,46.76,29.26,16.07,6.74,33.49,11.13,51.82,12.68.74-1.63,1.83-3.07,3.17-4.21,2.38-2.05,5.54-3.2,8.93-2.95h-.02Zm2.54,9.1c-.76-.89-1.86-1.48-3.12-1.58-1.25-.09-2.44.33-3.32,1.09-.89.76-1.48,1.87-1.57,3.12-.09,1.25.33,2.44,1.09,3.32.76.89,1.86,1.48,3.12,1.58,1.25.09,2.44-.33,3.32-1.09.89-.76,1.48-1.87,1.57-3.12.09-1.25-.33-2.44-1.09-3.32Zm52.23-88.61c-3.22-3.74-7.87-6.26-13.18-6.65-5.31-.39-10.27,1.4-14.01,4.63-3.74,3.22-6.25,7.88-6.64,13.19-.39,5.31,1.4,10.28,4.62,14.03,3.22,3.75,7.87,6.26,13.18,6.65.72.05,1.44.07,2.14.05.29-.08.59-.13.91-.14.21,0,.41,0,.61.03,3.91-.45,7.49-2.08,10.36-4.55,3.74-3.22,6.25-7.88,6.64-13.19.39-5.31-1.4-10.28-4.62-14.03h0Zm-224.72,58.04c4.55.34,8.52,2.49,11.27,5.7,2.75,3.2,4.29,7.45,3.95,12-.21,2.89-1.15,5.53-2.63,7.79,18.67,17.78,40.36,32.53,64.31,43.35,24.05,10.88,50.39,17.79,78.28,19.88.15,0,.28.03.42.05.9-3.18,2.71-5.94,5.12-8.01,3.2-2.76,7.45-4.3,11.99-3.96,4.55.34,8.52,2.49,11.27,5.7,2.75,3.2,4.29,7.45,3.95,12-.34,4.55-2.49,8.52-5.69,11.28-3.2,2.76-7.45,4.3-11.99,3.96-4.54-.34-8.52-2.49-11.27-5.7-1.85-2.14-3.15-4.76-3.7-7.63-.22.02-.45.03-.68,0-28.76-2.15-55.98-9.31-80.86-20.56-24.86-11.24-47.37-26.58-66.74-45.09-2.77,1.6-6.03,2.41-9.46,2.15-4.54-.34-8.52-2.49-11.27-5.7-2.75-3.2-4.29-7.45-3.95-12,.34-4.54,2.49-8.52,5.69-11.28,3.2-2.76,7.45-4.3,11.99-3.96h0Zm5.43,10.74c-1.46-1.7-3.58-2.85-6-3.03-2.42-.18-4.68.64-6.38,2.11-1.7,1.46-2.84,3.58-3.03,6.01-.18,2.42.64,4.68,2.11,6.38,1.46,1.7,3.58,2.85,6,3.03,2.42.18,4.68-.64,6.38-2.11,1.7-1.46,2.84-3.58,3.03-6.01.18-2.42-.64-4.68-2.11-6.38Zm172.7,76.8c-1.46-1.7-3.58-2.85-6-3.03-2.42-.18-4.68.64-6.38,2.11-1.7,1.46-2.85,3.58-3.03,6.01-.18,2.42.64,4.68,2.11,6.38,1.46,1.7,3.58,2.85,6,3.03,2.42.18,4.68-.64,6.38-2.11,1.7-1.46,2.85-3.58,3.03-6.01.18-2.42-.64-4.68-2.11-6.38Zm143.97-47.16c-1.96-2.27-4.77-3.8-8.01-4.04-3.23-.24-6.24.85-8.52,2.81-2.27,1.96-3.8,4.78-4.04,8.01-.24,3.23.85,6.25,2.81,8.52,1.96,2.27,4.77,3.8,8.01,4.04,3.23.24,6.24-.85,8.52-2.81,2.27-1.96,3.8-4.78,4.04-8.01.24-3.23-.85-6.25-2.81-8.52Z"/></svg>