<?xml version="1.0" encoding="UTF-8"?>
<svg width="700pt" height="600pt" version="1.1" viewBox="0 0 700 700" xmlns="http://www.w3.org/2000/svg" xmlns:xlink="http://www.w3.org/1999/xlink">
 <defs>
  <symbol id="w" overflow="visible">
   <path d="m0.03125 0h-0.015625-0.015625v-0.015625-0.015625h0.015625 0.015625-0.015625v0.015625 0.015625h0.015625v-0.015625z"/>
  </symbol>
  <symbol id="e" overflow="visible">
   <path d="m0.015625-0.015625v0.015625h-0.015625v-0.03125h0.015625v0.015625-0.015625z"/>
  </symbol>
  <symbol id="b" overflow="visible">
   <path d="m0.03125-0.015625h-0.015625v0.015625c0.0078125 0 0.015625-0.0039062 0.015625-0.015625v0.015625h-0.015625-0.015625v-0.015625l0.015625-0.015625v0.015625h0.015625z"/>
  </symbol>
  <symbol id="a" overflow="visible">
   <path d="m0.015625-0.015625v0.015625-0.015625zm0.015625 0v0.015625h-0.015625-0.015625v-0.015625h0.015625-0.015625v-0.015625h0.015625v0.015625h0.015625z"/>
  </symbol>
  <symbol id="d" overflow="visible">
   <path d="m0.015625-0.03125v0.015625 0.015625h-0.015625v-0.015625-0.015625z"/>
  </symbol>
  <symbol id="l" overflow="visible">
   <path d="m0.015625-0.015625v-0.015625h0.015625v0.03125h-0.015625-0.015625v-0.015625l0.015625-0.015625v0.015625zm0 0.015625v-0.015625 0.015625z"/>
  </symbol>
  <symbol id="k" overflow="visible">
   <path d="m0.015625 0v-0.015625 0.015625zm0-0.015625v-0.015625c0.0078125 0 0.015625 0.0078125 0.015625 0.015625v0.015625h-0.015625-0.015625v-0.03125h0.015625z"/>
  </symbol>
  <symbol id="j" overflow="visible">
   <path d="m0-0.03125h0.015625v0.015625-0.015625h0.015625l-0.015625 0.03125v0.015625h-0.015625v-0.015625h0.015625z"/>
  </symbol>
  <symbol id="i" overflow="visible">
   <path d="m0.015625-0.03125v0.015625 0.015625h0.015625v-0.015625c0-0.0078125-0.0078125-0.015625-0.015625-0.015625zm0 0h0.015625v0.015625 0.015625h-0.015625-0.015625v-0.015625-0.015625h0.015625z"/>
  </symbol>
  <symbol id="v" overflow="visible">
   <path d="m0-0.03125h0.015625v0.03125h-0.015625z"/>
  </symbol>
  <symbol id="f" overflow="visible">
   <path d="m0.03125-0.015625v0.015625h-0.015625v-0.015625 0.015625h-0.015625v-0.03125h0.015625v0.015625-0.015625c0.0078125 0 0.015625 0.0078125 0.015625 0.015625z"/>
  </symbol>
  <symbol id="h" overflow="visible">
   <path d="m0-0.03125h0.015625 0.015625v0.015625h-0.015625v0.015625h-0.015625zm0.015625 0v0.015625-0.015625z"/>
  </symbol>
  <symbol id="g" overflow="visible">
   <path d="m0.03125-0.03125v0.015625h-0.015625c0.0078125 0 0.015625 0.0078125 0.015625 0.015625h-0.015625-0.015625 0.015625v-0.015625h-0.015625l0.015625-0.015625h0.015625z"/>
  </symbol>
  <symbol id="c" overflow="visible">
   <path d="m0.015625-0.015625v0.015625-0.015625zm0-0.015625v0.015625h0.015625c0 0.011719-0.0078125 0.015625-0.015625 0.015625h-0.015625v-0.015625l0.015625-0.015625z"/>
  </symbol>
  <symbol id="u" overflow="visible">
   <path d="m0-0.03125h0.015625v0.015625-0.015625h0.015625l-0.015625 0.03125z"/>
  </symbol>
  <symbol id="t" overflow="visible">
   <path d="m0-0.03125h0.015625v0.015625-0.015625h0.015625l-0.015625 0.015625 0.015625 0.015625h-0.015625v-0.015625 0.015625h-0.015625z"/>
  </symbol>
  <symbol id="s" overflow="visible">
   <path d="m0.015625-0.03125v0.03125h-0.015625v-0.03125h0.015625z"/>
  </symbol>
  <symbol id="r" overflow="visible">
   <path d="m0.03125-0.015625v-0.015625c0.0078125 0 0.015625 0.0078125 0.015625 0.015625v0.015625h-0.015625v-0.015625 0.015625h-0.015625v-0.015625 0.015625h-0.015625v-0.03125h0.015625v0.015625-0.015625 0.015625h0.015625z"/>
  </symbol>
  <symbol id="q" overflow="visible">
   <path d="m0.03125-0.015625v0.015625h-0.015625v-0.015625 0.015625h-0.015625v-0.03125h0.015625v0.015625-0.015625c0.0078125 0 0.015625 0.0078125 0.015625 0.015625z"/>
  </symbol>
  <symbol id="p" overflow="visible">
   <path d="m0-0.03125h0.015625l0.015625 0.015625v-0.015625 0.03125l-0.015625-0.015625v0.015625h-0.015625z"/>
  </symbol>
  <symbol id="o" overflow="visible">
   <path d="m0-0.015625v-0.015625h0.015625v0.015625 0.015625-0.015625-0.015625h0.015625v0.03125h-0.015625-0.015625v-0.015625z"/>
  </symbol>
  <symbol id="n" overflow="visible">
   <path d="m0-0.03125h0.015625v0.03125h-0.015625v0.015625zm0 0h0.015625z"/>
  </symbol>
  <symbol id="m" overflow="visible">
   <path d="m0.03125-0.03125v0.015625h-0.015625v0.015625h0.015625-0.015625-0.015625v-0.015625l0.015625-0.015625h0.015625z"/>
  </symbol>
 </defs>
 <g>
  <path d="m272.5 386.01c1.8398 1.1367 2.4062 3.5547 1.2617 5.4023-1.1367 1.8398-3.5547 2.4062-5.4023 1.2617-21.148-13.113-38.312-31.844-49.57-53.957-10.398-20.43-15.754-43.719-14.543-68.105-1.6602-0.75781-3.1172-1.8672-4.2852-3.2188-2.0898-2.4258-3.2578-5.6562-3.0039-9.1094 0.26172-3.4531 1.8867-6.4688 4.3203-8.5664 2.4258-2.0898 5.6562-3.2578 9.1094-3.0039 3.4531 0.26172 6.4688 1.8867 8.5586 4.3203 2.0898 2.4258 3.2578 5.6562 3.0039 9.1094-0.26172 3.4531-1.8867 6.4688-4.3203 8.5586-1.5664 1.3516-3.4727 2.3164-5.543 2.7617-1.0547 22.848 3.9766 44.621 13.691 63.699 10.602 20.824 26.777 38.473 46.715 50.84zm-113.78-25.051c1.5977 0.12109 2.9961 0.87891 3.9766 2.0156l0.007812-0.007812c0.96875 1.1289 1.5195 2.6328 1.3984 4.2461-0.12109 1.5859-0.87891 2.9883-2.0156 3.9766l-0.019532 0.019531c-1.1367 0.96875-2.6406 1.5195-4.2266 1.3984-1.6055-0.12109-3.0156-0.87891-3.9844-2.0156l0.007813-0.007813c-0.98047-1.1367-1.5195-2.6406-1.4102-4.2383 0.12109-1.6055 0.87891-3.0156 2.0156-3.9844 1.1289-0.96875 2.6328-1.5195 4.2461-1.3984zm-1.875 7.0664c0.30859 0.085937 1.0625 0.46484 1.3086 0.67187l0.14062-1.9023-1.4375 1.2422zm-7.7109-30.809c1.5977 0.12109 2.9961 0.87891 3.9844 2.0156l0.007812-0.007813c0.96875 1.1289 1.5195 2.6328 1.3984 4.2461-0.12109 1.5859-0.87891 2.9883-2.0156 3.9766l-0.019531 0.019532c-1.1367 0.96875-2.6406 1.5195-4.2266 1.3984-1.6055-0.12109-3.0156-0.87891-3.9844-2.0156l0.007812-0.007812c-0.98047-1.1367-1.5195-2.6406-1.4102-4.2383 0.12109-1.6055 0.87891-3.0156 2.0156-3.9844 1.1289-0.96875 2.6328-1.5195 4.2461-1.3984zm-1.875 7.0664c0.30859 0.085938 1.0625 0.46484 1.3086 0.67188l0.14063-1.9023-1.4375 1.2422zm-5.9258-31.938c1.5977 0.12109 2.9961 0.87891 3.9766 2.0156l0.007812-0.007813c0.96875 1.1289 1.5195 2.6328 1.3984 4.2461-0.12109 1.5859-0.87891 2.9883-2.0156 3.9766l-0.019531 0.019531c-1.1367 0.96875-2.6406 1.5195-4.2266 1.3984-1.6055-0.12109-3.0156-0.87891-3.9844-2.0156l0.007813-0.007812c-0.98047-1.1367-1.5195-2.6406-1.4102-4.2383 0.12109-1.6055 0.87891-3.0156 2.0156-3.9844 1.1289-0.96875 2.6328-1.5195 4.2461-1.3984zm-1.875 7.0664c0.30859 0.085938 1.0625 0.46484 1.3086 0.67188l0.14062-1.9023-1.4375 1.2422zm432 15.539c0.78516-1.2891 0.96875-2.7734 0.64453-4.125-0.32812-1.3516-1.168-2.5859-2.4453-3.3711-1.2891-0.78516-2.7734-0.96875-4.125-0.64453-1.3516 0.32812-2.5859 1.168-3.3594 2.4453v0.007813c-0.78516 1.2891-0.96875 2.7734-0.64453 4.125 0.32812 1.3516 1.168 2.5859 2.4453 3.3594h0.007812c1.2891 0.78516 2.7734 0.96875 4.125 0.64453 1.3516-0.32812 2.5859-1.168 3.3711-2.4453zm8.2773-5.9648c0.80078 3.3047 0.33594 6.9062-1.5781 10.043-1.9141 3.1367-4.918 5.207-8.2227 6-2.9766 0.71875-6.2148 0.41016-9.1172-1.0625l-0.09375-0.007813-0.83203-0.51172c-3.1367-1.9141-5.207-4.918-6-8.2227-0.71875-2.9766-0.41016-6.2148 1.0625-9.1172l0.007812-0.09375 0.51172-0.83203c1.9141-3.1367 4.918-5.207 8.2227-6 3.3047-0.80078 6.9062-0.33594 10.043 1.5781 3.1367 1.9141 5.207 4.918 6 8.2227zm3.2656-38.668c1.2227-1.9961 1.5117-4.3008 1-6.4219-0.51172-2.1094-1.8203-4.0234-3.8164-5.2344-1.9961-1.2227-4.3008-1.5117-6.4219-1-2.1094 0.51172-4.0234 1.8203-5.2344 3.8164-1.2227 1.9961-1.5117 4.3008-1 6.4219 0.51172 2.1094 1.8203 4.0234 3.8164 5.2344 1.9961 1.2227 4.3008 1.5117 6.4219 1 2.1094-0.51172 4.0234-1.8203 5.2344-3.8164zm8.6328-8.2617c0.98047 4.0508 0.41016 8.4844-1.9336 12.34-2.3516 3.8555-6.0391 6.3828-10.098 7.375-4.0508 0.98047-8.4844 0.41016-12.34-1.9336-3.8555-2.3516-6.3828-6.0391-7.375-10.098-0.98047-4.0508-0.41016-8.4844 1.9336-12.34 2.3516-3.8555 6.0391-6.3828 10.098-7.375 4.0508-0.98047 8.4844-0.41016 12.34 1.9336 3.8555 2.3516 6.3828 6.0391 7.375 10.098zm-4.6562-36.418c1.7188-2.8203 2.1367-6.0742 1.4102-9.0547-0.71875-2.9766-2.5742-5.6758-5.3867-7.3906-2.8203-1.7188-6.0742-2.1367-9.0547-1.4102-2.9766 0.71875-5.6758 2.5742-7.3906 5.3867-1.7188 2.8203-2.1367 6.0742-1.4102 9.0547 0.71875 2.9766 2.5664 5.6758 5.3867 7.3906h0.007813c2.8203 1.7188 6.0742 2.1367 9.0547 1.4102 2.9766-0.71875 5.6758-2.5664 7.3906-5.3867v-0.007813zm9.043-10.891c1.1211 4.6094 0.57812 9.6211-1.8398 14.074v0.054688l-0.51172 0.83203c-2.8555 4.6758-7.3281 7.7461-12.254 8.9414-4.6094 1.1211-9.6211 0.57812-14.074-1.8398h-0.054687l-0.83203-0.51172c-4.6758-2.8555-7.7461-7.3281-8.9414-12.254-1.1953-4.918-0.50391-10.305 2.3516-14.969 2.3984-3.9297 5.9453-6.7305 9.9492-8.2305-3.8555-15.719-9.2852-30.867-16.137-45.238l-21.887 10.883-0.41016-0.83984c4.8438 10.098 8.9023 20.617 12.113 31.48 7.0742 23.957 10.023 49.559 8.0547 75.918-0.16016 2.1641-2.0547 3.7969-4.2188 3.6289-2.1641-0.16016-3.7969-2.0547-3.6289-4.2188 1.8945-25.414-0.93359-50.074-7.7383-73.117-7.0742-23.941-18.434-46.145-33.246-65.652-1.3086-1.7266-0.96875-4.1797 0.74609-5.4961 1.7266-1.3086 4.1797-0.96875 5.4961 0.74609 7.6445 10.07 14.402 20.824 20.168 32.145l-0.8125-1.6445 21.867-10.875c-2.6523-5.1133-5.4805-10.117-8.4766-15.008-12.863-20.945-28.914-39.797-47.535-55.832-3.6211 2.5586-8.1289 3.9219-12.898 3.5664-5.4609-0.41016-10.238-2.9883-13.543-6.832-3.3125-3.8438-5.1523-8.9492-4.75-14.41 0.41016-5.4609 2.9883-10.238 6.832-13.543 3.8438-3.3125 8.9492-5.1523 14.41-4.75 5.4609 0.41016 10.238 2.9883 13.543 6.832 3.3125 3.8438 5.1523 8.9492 4.75 14.41-0.25391 3.3125-1.2969 6.3828-2.9492 9.0156 19.113 16.512 35.605 35.906 48.832 57.445 13.188 21.484 23.129 45.109 29.195 70.129 3.2578 0.12891 6.5234 1.0742 9.5 2.8945 4.6758 2.8555 7.7461 7.3281 8.9414 12.254zm-193.64-209.5c3.668 0.26953 6.8711 2.0078 9.0898 4.5938 2.2227 2.5859 3.4609 6.0117 3.1914 9.6797s-2.0078 6.8711-4.5938 9.0898c-2.5859 2.2227-6.0117 3.4609-9.6797 3.1914-3.668-0.26953-6.8711-2.0078-9.0898-4.5938-2.2227-2.5859-3.4609-6.0117-3.1914-9.6797 0.26953-3.668 2.0078-6.8711 4.5938-9.0898 2.5859-2.2227 6.0117-3.4609 9.6797-3.1914zm3.125 9.7266c-0.90625-1.0547-2.2227-1.7656-3.7148-1.875-1.4922-0.11328-2.8945 0.39062-3.9492 1.2969-1.0547 0.90625-1.7656 2.2227-1.875 3.7148-0.11328 1.4922 0.39063 2.8945 1.2969 3.9492 0.90625 1.0547 2.2227 1.7656 3.7148 1.875 1.4922 0.11328 2.8945-0.39063 3.9492-1.2969s1.7656-2.2227 1.875-3.7148c0.11328-1.4922-0.39062-2.8945-1.2969-3.9492zm40.078 3.9766c4.5 0.33594 8.4375 2.4648 11.164 5.6367 2.7266 3.1719 4.2461 7.3828 3.9102 11.883-0.33594 4.5-2.4648 8.4375-5.6367 11.164-3.1719 2.7266-7.3828 4.2461-11.883 3.9102-4.5-0.33594-8.4375-2.4648-11.164-5.6367s-4.2461-7.3828-3.9102-11.883c0.33594-4.5 2.4648-8.4375 5.6367-11.164 3.1719-2.7266 7.3828-4.2461 11.883-3.9102zm5.1992 10.77c-1.4102-1.6445-3.4531-2.7422-5.7852-2.9219-2.332-0.17578-4.5156 0.61719-6.1523 2.0234-1.6445 1.4102-2.7422 3.4531-2.9219 5.7852-0.17578 2.332 0.61719 4.5156 2.0234 6.1523 1.4102 1.6445 3.4531 2.7422 5.7852 2.9219 2.332 0.17578 4.5156-0.61719 6.1523-2.0234 1.6445-1.4102 2.7422-3.4531 2.9219-5.7852 0.17578-2.332-0.61719-4.5156-2.0234-6.1523zm40.992 24.023c-1.9961-2.3164-4.8711-3.875-8.168-4.1172-3.293-0.24219-6.3672 0.86719-8.6875 2.8672-2.3164 1.9961-3.875 4.8711-4.1172 8.168-0.24219 3.293 0.86719 6.3672 2.8672 8.6875 1.9961 2.3164 4.8711 3.875 8.168 4.1172 3.293 0.24219 6.3672-0.86719 8.6875-2.8672 2.3164-1.9961 3.875-4.8711 4.1172-8.168 0.24219-3.293-0.86719-6.3672-2.8672-8.6875zm-63.969 198.23c1.7188 0.12891 3.2305 0.94141 4.2734 2.1641h0.019531c1.0469 1.2227 1.6328 2.8359 1.5039 4.5625-0.12891 1.7266-0.94141 3.2383-2.1641 4.293-1.2227 1.0469-2.8359 1.6328-4.5625 1.5039-1.7266-0.12891-3.2383-0.94141-4.293-2.1641v-0.019531c-1.0469-1.2227-1.6328-2.8281-1.5039-4.5547 0.12891-1.7188 0.94141-3.2305 2.1641-4.2734l0.019532-0.019531c1.2227-1.0469 2.8281-1.6328 4.5547-1.5039zm-0.46484 6.2734-1.1289 0.98047c0.23438 0.054688 0.82031 0.35547 1.0156 0.51172l0.11328-1.4844zm-1.1367 0.96875 1.1367-0.98047v-0.007813l-1.4844-0.11328c0.12109 0.21484 0.32812 0.85938 0.35547 1.0938zm1.1367-0.98828 0.11328-1.4844c-0.21484 0.12109-0.84766 0.32812-1.0938 0.35547zm1.4922 0.12109-1.4844-0.11328 1.1289-0.96875c0.027344 0.23438 0.23438 0.86719 0.35547 1.082zm-1.4922-0.11328 1.1367-0.98047c-0.23438-0.054688-0.83203-0.35547-1.0273-0.51172l-0.11328 1.4844v0.007813zm-0.98828-1.1367c-0.054687 0.23438-0.35547 0.83203-0.51172 1.0273l1.4844 0.11328-0.96875-1.1367zm0.98047 1.1484-0.11328 1.4844c0.21484-0.12109 0.84766-0.33594 1.082-0.35547zm1.4766-19.777c5.4609 0.41016 10.238 2.9883 13.543 6.832 2.5391 2.9492 4.2188 6.6562 4.6758 10.676l44.605 2.0078c0.074219-12.395-1.3516-24.48-4.1172-36.055-3.6758-15.391-9.7266-29.941-17.77-43.223-1.1211-1.8555-0.53125-4.2656 1.3242-5.3945 1.8555-1.1211 4.2656-0.53125 5.3945 1.3242 8.4453 13.934 14.801 29.25 18.684 45.48 2.9414 12.312 4.4531 25.117 4.3594 38.211l15.566 0.69922c0.019531-1.3164 0.019531-2.6406 0-3.9492-0.054688-5.1055-0.33594-10.156-0.82031-15.129-4.1055-41.934-23.156-79.957-52.09-108.18-27.598-26.926-64.184-44.941-105.38-48.926l-1.1562 15.531c7.1484 0.71094 14.188 1.8945 21.086 3.5273 8.2969 1.9609 16.305 4.5469 23.977 7.7109 2.0078 0.82031 2.9688 3.1172 2.1484 5.125-0.82031 2.0078-3.1172 2.9688-5.125 2.1484-7.3359-3.0234-14.953-5.4883-22.801-7.3438-6.4219-1.5117-13.047-2.6328-19.863-3.3125l-1.1953 16.055c18.105 1.875 35.066 7.2617 50.25 15.438 16.895 9.0898 31.566 21.625 43.129 36.598 1.3242 1.7188 1.0156 4.1914-0.69922 5.5156-1.7188 1.3242-4.1914 1.0156-5.5156-0.71094-10.91-14.121-24.734-25.938-40.637-34.496-15.297-8.2305-32.547-13.457-51.035-14.84-2.1641-0.16016-3.7969-2.0547-3.6289-4.2188l1.4844-19.918c-6.6562-0.32812-13.188-0.23438-19.57 0.28125-6.9141 0.55078-13.719 1.5664-20.355 3.0234v0.007812c-0.34375 4.6289-2.5391 8.6875-5.8047 11.5-3.2656 2.8086-7.5977 4.3789-12.234 4.0312-4.6289-0.34375-8.6875-2.5391-11.5-5.8047-2.8086-3.2656-4.3789-7.5977-4.0312-12.234 0.34375-4.6367 2.5391-8.6875 5.8047-11.5 3.2656-2.8086 7.5977-4.3789 12.234-4.0312 4.6367 0.34375 8.6875 2.5391 11.5 5.8047 1.1484 1.3359 2.082 2.8359 2.7734 4.4688 6.8594-1.4844 13.871-2.5195 21-3.0898 6.8711-0.54297 13.812-0.65234 20.777-0.30859l1.457-19.496c0.16016-2.1641 2.0547-3.7969 4.2188-3.6289 44.688 3.332 84.438 22.445 114.18 51.484 30.23 29.504 50.148 69.242 54.441 113.08 0.51172 5.2344 0.80078 10.508 0.85938 15.812 0.027344 2.3906 0.007813 4.7891-0.054687 7.1875 0.085937 0.35547 0.12109 0.72656 0.10156 1.1094-0.019531 0.34375-0.074219 0.67969-0.17578 1-0.085938 2.1836-0.20703 4.3789-0.375 6.5703-1.4375 19.219-5.7969 37.531-12.609 54.535l53.379 21.41v0.007813l0.027344 0.007812c2.0078 0.82031 2.9688 3.1172 2.1484 5.125-7.1875 17.406-16.574 33.973-27.777 49.289-10.797 14.758-23.285 28.355-37.137 40.422 2.0234 3.3867 3.0625 7.4023 2.7422 11.629-0.41016 5.4609-2.9883 10.238-6.832 13.543-3.8438 3.3125-8.9492 5.1523-14.41 4.75-5.4609-0.41016-10.238-2.9883-13.543-6.832-3.3125-3.8438-5.1523-8.9492-4.75-14.41 0.41016-5.4609 2.9883-10.238 6.832-13.543 3.8438-3.3125 8.9492-5.1523 14.41-4.75 3.8555 0.28906 7.375 1.6602 10.277 3.7969 13.441-11.695 25.582-24.902 36.074-39.238 10.051-13.738 18.582-28.512 25.301-43.98l-49.82-19.984c-3.7422 8.2773-8.0742 16.223-12.945 23.762-16.633 25.777-39.516 46.984-66.332 61.629-1.9023 1.0469-4.2852 0.34375-5.3281-1.5586-1.0469-1.9023-0.34375-4.2852 1.5586-5.3281 25.684-14.027 47.59-34.328 63.512-59.004 5.2734-8.168 9.8945-16.828 13.766-25.891 0.019531-0.046875 0.039062-0.09375 0.054687-0.14844 0.039063-0.10156 0.085938-0.19531 0.12891-0.28906 7.2969-17.191 11.957-35.859 13.43-55.543 0.085938-1.1484 0.16016-2.2852 0.22266-3.4336l-15.551-0.69922c-0.054687 0.98828-0.12109 1.9805-0.19531 2.9688-1.2891 17.266-5.2812 33.703-11.547 48.914-6.4883 15.754-15.391 30.184-26.234 42.867-1.4102 1.6523-3.8906 1.8477-5.5352 0.4375-1.6523-1.4102-1.8477-3.8906-0.4375-5.5352 10.305-12.051 18.77-25.77 24.93-40.738 5.9453-14.449 9.7422-30.07 10.965-46.527 0.066406-0.91406 0.12891-1.8281 0.17578-2.7344l-45.023-2.0234c-1.0938 3.7422-3.2461 7-6.0938 9.4531-3.8438 3.3125-8.9492 5.1523-14.41 4.75-5.4609-0.41016-10.238-2.9883-13.543-6.832-3.3125-3.8438-5.1523-8.9492-4.75-14.41 0.41016-5.4609 2.9883-10.238 6.832-13.543 3.8438-3.3125 8.9492-5.1523 14.41-4.75zm7.5781 11.977c-1.9961-2.3164-4.8711-3.875-8.168-4.1172-3.293-0.24219-6.3672 0.86719-8.6875 2.8672-2.3164 1.9961-3.875 4.8711-4.1172 8.168-0.24219 3.293 0.86719 6.3672 2.8672 8.6875 1.9961 2.3164 4.8711 3.875 8.168 4.1172 3.293 0.24219 6.3672-0.86719 8.6875-2.8672 2.3164-1.9961 3.875-4.8711 4.1172-8.168 0.24219-3.293-0.86719-6.3672-2.8672-8.6875zm-246.31-92.492c1.9492 0.95312 2.7539 3.3047 1.8008 5.2539-0.09375 0.1875-0.20703 0.375-0.31641 0.54297-7.5039 11.883-13.637 24.762-18.152 38.445-4.3945 13.309-7.2539 27.395-8.3438 42.047-0.16016 2.1641-2.0547 3.7969-4.2188 3.6289-2.1641-0.16016-3.7969-2.0547-3.6289-4.2188 1.1367-15.262 4.125-29.961 8.7266-43.895 4.2734-12.938 9.9414-25.211 16.809-36.652l-19.172-9.4648c-14.82 25.164-24.453 53.883-27.301 84.801 4.293 0.94141 8.0156 3.2578 10.754 6.4297 3.3125 3.8438 5.1523 8.9492 4.75 14.41-0.41016 5.4609-2.9883 10.238-6.832 13.543-3.8438 3.3125-8.9492 5.1523-14.41 4.75-5.4609-0.41016-10.238-2.9883-13.543-6.832-3.3125-3.8438-5.1523-8.9492-4.75-14.41 0.41016-5.4609 2.9883-10.238 6.832-13.543 2.6133-2.25 5.8164-3.8281 9.3047-4.4688 2.875-32.133 12.797-61.992 28.113-88.172l-21.961-10.836c-10.07 17.5-17.996 36.445-23.363 56.504-0.55859 2.1016-2.707 3.3398-4.8086 2.7891-2.1016-0.55859-3.3398-2.707-2.7891-4.8086 9.3516-34.945 26.16-66.602 48.496-93.305 22.035-26.348 49.477-47.891 80.473-63.047-0.28125-1.4453-0.375-2.9492-0.26172-4.4805 0.34375-4.6367 2.5391-8.6875 5.8047-11.5 3.2656-2.8086 7.5977-4.3789 12.234-4.0312 4.6367 0.34375 8.6875 2.5391 11.5 5.8047 2.8086 3.2656 4.3789 7.5977 4.0312 12.234-0.34375 4.6289-2.5391 8.6875-5.8047 11.5-3.2656 2.8086-7.5977 4.3789-12.234 4.0312-4.6289-0.34375-8.6875-2.5391-11.5-5.8047-0.16797-0.19531-0.33594-0.40234-0.49609-0.60547-29.902 14.664-56.391 35.484-77.699 60.945-7.1133 8.5039-13.645 17.527-19.535 27l22.027 10.875c11.227-17.641 24.977-33.469 40.691-47.004 41.168-35.449 95.863-55.199 154.33-50.84 2.1641 0.16016 3.7969 2.0547 3.6289 4.2188-0.16016 2.1641-2.0547 3.7969-4.2188 3.6289-56.289-4.1992-108.96 14.812-148.6 48.945-14.926 12.852-27.992 27.84-38.723 44.539l22.363 11.043zm107.18-56.102c-1.4922-1.7344-3.6484-2.9023-6.1211-3.0898-2.4648-0.1875-4.7695 0.65234-6.5039 2.1484-1.7344 1.4922-2.9023 3.6484-3.0898 6.1211-0.1875 2.4648 0.65234 4.7695 2.1484 6.5039 1.4922 1.7344 3.6484 2.9023 6.1211 3.0898 2.4648 0.1875 4.7695-0.65234 6.5039-2.1484 1.7344-1.4922 2.9023-3.6484 3.0898-6.1211 0.1875-2.4648-0.65234-4.7695-2.1484-6.5039zm-41.402-73.492c-1.4922-1.7344-3.6484-2.9023-6.1211-3.0898-2.4648-0.1875-4.7695 0.65234-6.5039 2.1484-1.7344 1.4922-2.9023 3.6484-3.0898 6.1211-0.1875 2.4648 0.65234 4.7695 2.1484 6.5039 1.4922 1.7344 3.6484 2.9023 6.1211 3.0898 2.4648 0.1875 4.7695-0.65234 6.5039-2.1484 1.7344-1.4922 2.9023-3.6484 3.0898-6.1211 0.1875-2.4648-0.65234-4.7695-2.1484-6.5039zm-94.398 336.71 41.207-26.012c-16.285-27.254-24.621-59.613-22.082-93.668 0.16016-2.1641 2.0547-3.7969 4.2188-3.6289 2.1641 0.16016 3.7969 2.0547 3.6289 4.2188-3.1172 41.805 11.004 80.922 36.352 110.36 25.348 29.438 61.938 49.207 103.74 52.332 2.1641 0.16016 3.7969 2.0547 3.6289 4.2188-0.16016 2.1641-2.0547 3.7969-4.2188 3.6289-43.969-3.2852-82.449-24.078-109.12-55.039-4.3008-5.0039-8.3086-10.266-11.965-15.766l-37.855 23.895c16.801 25.508 39.199 47.125 65.594 63 26.496 15.934 57.035 26.066 90.012 28.531 10.004 0.74609 19.871 0.76563 29.383 0.12891 8.6719-0.57812 17.09-1.6992 25.098-3.293l-2.8477-73.91h-0.054688c-7.5898-0.57031-14.223-4.1523-18.816-9.4922-4.6016-5.3398-7.1602-12.441-6.5977-20.02 0.57031-7.5898 4.1523-14.223 9.4922-18.816 5.3398-4.6016 12.441-7.1602 20.02-6.5977 7.5898 0.57031 14.223 4.1523 18.816 9.4922 4.6016 5.3398 7.1602 12.441 6.5977 20.02-0.57031 7.5898-4.1523 14.223-9.4922 18.816-3.4258 2.9492-7.5781 5.0664-12.125 6.0469l2.9766 77.496c0.066406 1.9336-1.2695 3.5859-3.0898 3.9766-9.3242 2.043-19.219 3.4453-29.465 4.1328-9.9414 0.66406-20.18 0.65234-30.492-0.12109-34.207-2.5586-65.922-13.086-93.473-29.652-28.578-17.184-52.648-40.863-70.316-68.832-1.1562-1.8281-0.60547-4.2578 1.2227-5.4141zm-29.016-113.09c1.5977 0.12109 2.9961 0.87891 3.9766 2.0156l0.007812-0.007812c0.96875 1.1289 1.5195 2.6328 1.3984 4.2461-0.12109 1.5859-0.87891 2.9883-2.0156 3.9766l-0.019531 0.019531c-1.1367 0.96875-2.6406 1.5195-4.2266 1.3984-1.6055-0.12109-3.0156-0.87891-3.9844-2.0156l0.007812-0.007813c-0.98047-1.1367-1.5195-2.6406-1.4102-4.2383 0.12109-1.6055 0.87891-3.0156 2.0156-3.9844 1.1289-0.96875 2.6328-1.5195 4.2461-1.3984zm-1.875 7.0664c0.30859 0.085938 1.0625 0.46484 1.3086 0.67188l0.14062-1.9023-1.4375 1.2422zm10.5-9.043c-1.9961-2.3164-4.8711-3.875-8.168-4.1172-3.293-0.24219-6.3672 0.86719-8.6875 2.8672-2.3164 1.9961-3.875 4.8711-4.1172 8.168-0.24219 3.293 0.86719 6.3672 2.8672 8.6875 1.9961 2.3164 4.8711 3.875 8.168 4.1172 3.293 0.24219 6.3672-0.86719 8.6875-2.8672 2.3164-1.9961 3.875-4.8711 4.1172-8.168 0.24219-3.293-0.86719-6.3672-2.8672-8.6875zm66.754-6.4297c0.28125-0.046875 0.57812-0.054687 0.87891-0.027344 0.44922 0.039063 0.87891 0.14063 1.2617 0.30859 0.96094-0.10156 1.8477-0.49609 2.5586-1.1016 0.90625-0.77344 1.5117-1.9023 1.6055-3.1836 0.09375-1.2773-0.33594-2.4844-1.1094-3.3867-0.77344-0.90625-1.9023-1.5117-3.1836-1.6055-1.2773-0.09375-2.4844 0.33594-3.3867 1.1094-0.90625 0.77344-1.5117 1.9023-1.6055 3.1836-0.09375 1.2773 0.33594 2.4844 1.1094 3.3867 0.50391 0.57812 1.1367 1.0352 1.875 1.3164zm129.43 181.02c3.4531 0.26172 6.4688 1.8867 8.5664 4.3203 2.0898 2.4258 3.2578 5.6562 3.0039 9.1094-0.26172 3.4531-1.8867 6.4688-4.3203 8.5586-2.4258 2.0898-5.6562 3.2578-9.1094 3.0039-3.4531-0.26172-6.4688-1.8867-8.5586-4.3203-1.3516-1.5664-2.3164-3.4727-2.7617-5.543-19.422-1.6719-37.91-6.3477-55.047-13.523-18.367-7.6992-35.148-18.285-49.82-31.145-1.6328-1.4297-1.8008-3.9023-0.375-5.5352 1.4297-1.6328 3.9023-1.8008 5.5352-0.375 14.047 12.312 30.109 22.445 47.703 29.82 16.398 6.8711 34.16 11.34 52.863 12.926 0.75781-1.6602 1.8672-3.125 3.2305-4.293 2.4258-2.0898 5.6562-3.2578 9.1094-3.0039zm2.5938 9.4531c-0.77344-0.90625-1.9023-1.5117-3.1836-1.6055-1.2773-0.09375-2.4844 0.33594-3.3867 1.1094-0.90625 0.77344-1.5117 1.9023-1.6055 3.1836-0.09375 1.2773 0.33594 2.4844 1.1094 3.3867 0.77344 0.90625 1.9023 1.5117 3.1836 1.6055 1.2773 0.09375 2.4844-0.33594 3.3867-1.1094 0.90625-0.77344 1.5117-1.9023 1.6055-3.1836 0.09375-1.2773-0.33594-2.4844-1.1094-3.3867zm53.285-90.309c-3.2852-3.8164-8.0273-6.375-13.441-6.7773-5.4141-0.40234-10.48 1.4297-14.297 4.7148-3.8164 3.2852-6.375 8.0273-6.7773 13.441-0.40234 5.4141 1.4297 10.48 4.7148 14.297s8.0273 6.375 13.441 6.7773c0.73828 0.054687 1.4648 0.066406 2.1836 0.046875 0.29688-0.085938 0.60547-0.12891 0.92578-0.14062 0.21484-0.007813 0.42187 0 0.625 0.027344 3.9844-0.45703 7.6445-2.1172 10.566-4.6367 3.8164-3.2852 6.375-8.0273 6.7773-13.441 0.40234-5.4141-1.4297-10.48-4.7148-14.297zm-229.25 59.164c4.6367 0.34375 8.6875 2.5391 11.5 5.8047 2.8086 3.2656 4.3789 7.5977 4.0312 12.234-0.21484 2.9414-1.1758 5.6367-2.6875 7.9414 19.051 18.125 41.168 33.152 65.605 44.184 24.539 11.09 51.406 18.133 79.855 20.262 0.14844 0.007813 0.28906 0.027344 0.42969 0.054688 0.91406-3.2383 2.7617-6.0586 5.2188-8.168 3.2656-2.8086 7.5977-4.3789 12.234-4.0312 4.6367 0.34375 8.6875 2.5391 11.5 5.8047 2.8086 3.2656 4.3789 7.5977 4.0312 12.234-0.34375 4.6367-2.5391 8.6875-5.8047 11.5-3.2656 2.8086-7.5977 4.3789-12.234 4.0312-4.6289-0.34375-8.6875-2.5391-11.5-5.8047-1.8867-2.1836-3.2109-4.8516-3.7695-7.7734-0.22266 0.019531-0.45703 0.027343-0.69141 0.007812-29.344-2.1914-57.109-9.4844-82.488-20.953-25.359-11.453-48.328-27.086-68.086-45.957-2.8281 1.6328-6.1523 2.4531-9.6523 2.1914-4.6289-0.34375-8.6875-2.5391-11.5-5.8047-2.8086-3.2656-4.3789-7.5977-4.0312-12.234 0.34375-4.6289 2.5391-8.6875 5.8047-11.5 3.2656-2.8086 7.5977-4.3789 12.234-4.0312zm5.5352 10.938c-1.4922-1.7344-3.6484-2.9023-6.1211-3.0898-2.4648-0.1875-4.7695 0.65234-6.5039 2.1484-1.7344 1.4922-2.9023 3.6484-3.0898 6.1211-0.1875 2.4648 0.65234 4.7695 2.1484 6.5039 1.4922 1.7344 3.6484 2.9023 6.1211 3.0898 2.4648 0.1875 4.7695-0.65234 6.5039-2.1484 1.7344-1.4922 2.9023-3.6484 3.0898-6.1211 0.1875-2.4648-0.65234-4.7695-2.1484-6.5039zm176.18 78.277c-1.4922-1.7344-3.6484-2.9023-6.1211-3.0898-2.4648-0.1875-4.7695 0.65234-6.5039 2.1484-1.7344 1.4922-2.9023 3.6484-3.0898 6.1211-0.1875 2.4648 0.65234 4.7695 2.1484 6.5039 1.4922 1.7344 3.6484 2.9023 6.1211 3.0898 2.4648 0.1875 4.7695-0.65234 6.5039-2.1484 1.7344-1.4922 2.9023-3.6484 3.0898-6.1211 0.1875-2.4648-0.65234-4.7695-2.1484-6.5039zm146.87-48.066c-1.9961-2.3164-4.8711-3.875-8.168-4.1172-3.293-0.24219-6.3672 0.86719-8.6875 2.8672-2.3164 1.9961-3.875 4.8711-4.1172 8.168-0.24219 3.293 0.86719 6.3672 2.8672 8.6875 1.9961 2.3164 4.8711 3.875 8.168 4.1172 3.293 0.24219 6.3672-0.86719 8.6875-2.8672 2.3164-1.9961 3.875-4.8711 4.1172-8.168 0.24219-3.293-0.86719-6.3672-2.8672-8.6875z"/>
  <use x="70" y="560.140625" xlink:href="#w"/>
  <use x="70.035156" y="560.140625" xlink:href="#e"/>
  <use x="70.058594" y="560.140625" xlink:href="#b"/>
  <use x="70.089844" y="560.140625" xlink:href="#a"/>
  <use x="70.121094" y="560.140625" xlink:href="#d"/>
  <use x="70.144531" y="560.140625" xlink:href="#b"/>
  <use x="70.175781" y="560.140625" xlink:href="#l"/>
  <use x="70.222656" y="560.140625" xlink:href="#k"/>
  <use x="70.257812" y="560.140625" xlink:href="#j"/>
  <use x="70.304688" y="560.140625" xlink:href="#i"/>
  <use x="70.34375" y="560.140625" xlink:href="#v"/>
  <use x="70.359375" y="560.140625" xlink:href="#b"/>
  <use x="70.390625" y="560.140625" xlink:href="#f"/>
  <use x="70.425781" y="560.140625" xlink:href="#a"/>
  <use x="70.472656" y="560.140625" xlink:href="#h"/>
  <use x="70.507812" y="560.140625" xlink:href="#a"/>
  <use x="70.539062" y="560.140625" xlink:href="#f"/>
  <use x="70.570312" y="560.140625" xlink:href="#a"/>
  <use x="70.601562" y="560.140625" xlink:href="#g"/>
  <use x="70.628906" y="560.140625" xlink:href="#c"/>
  <use x="70.664062" y="560.140625" xlink:href="#u"/>
  <use x="70.691406" y="560.140625" xlink:href="#g"/>
  <use x="70.722656" y="560.140625" xlink:href="#t"/>
  <use x="70.75" y="560.140625" xlink:href="#a"/>
  <use x="70" y="560.1875" xlink:href="#s"/>
  <use x="70.019531" y="560.1875" xlink:href="#e"/>
  <use x="70.042969" y="560.1875" xlink:href="#c"/>
  <use x="70.074219" y="560.1875" xlink:href="#r"/>
  <use x="70.140625" y="560.1875" xlink:href="#d"/>
  <use x="70.164062" y="560.1875" xlink:href="#q"/>
  <use x="70.195312" y="560.1875" xlink:href="#b"/>
  <use x="70.242188" y="560.1875" xlink:href="#p"/>
  <use x="70.28125" y="560.1875" xlink:href="#c"/>
  <use x="70.316406" y="560.1875" xlink:href="#o"/>
  <use x="70.347656" y="560.1875" xlink:href="#f"/>
  <use x="70.398438" y="560.1875" xlink:href="#h"/>
  <use x="70.433594" y="560.1875" xlink:href="#e"/>
  <use x="70.453125" y="560.1875" xlink:href="#c"/>
  <use x="70.488281" y="560.1875" xlink:href="#n"/>
  <use x="70.503906" y="560.1875" xlink:href="#b"/>
  <use x="70.535156" y="560.1875" xlink:href="#m"/>
  <use x="70.5625" y="560.1875" xlink:href="#d"/>
 </g>
</svg>
