<svg width="391" height="510" viewBox="0 0 391 510" fill="none" xmlns="http://www.w3.org/2000/svg">
<g opacity="0.5" filter="url(#filter0_f_676_1763)">
<rect x="60" y="60" width="270.362" height="389.991" rx="13" fill="url(#paint0_linear_676_1763)"/>
<path d="M123.507 291.795L123.347 290.575C123.801 290.522 124.227 290.429 124.627 290.295C125.041 290.149 125.407 289.922 125.727 289.615C126.047 289.295 126.307 288.855 126.507 288.295C126.721 287.722 126.861 286.995 126.927 286.115L127.267 281.915H120.067V280.695H128.907L128.847 281.795L128.527 285.815C128.474 286.802 128.314 287.669 128.047 288.415C127.794 289.149 127.447 289.762 127.007 290.255C126.581 290.749 126.067 291.122 125.467 291.375C124.881 291.629 124.227 291.769 123.507 291.795ZM120.107 295.795V286.115L120.327 284.755H121.647V286.095V295.795H120.107ZM134.764 291.835L134.924 290.615C136.031 290.855 136.924 290.829 137.604 290.535C138.284 290.242 138.777 289.702 139.084 288.915C139.404 288.129 139.551 287.115 139.524 285.875C139.511 284.849 139.371 284.042 139.104 283.455C138.851 282.869 138.511 282.455 138.084 282.215C137.671 281.962 137.197 281.835 136.664 281.835C136.117 281.835 135.657 281.955 135.284 282.195C134.924 282.422 134.637 282.722 134.424 283.095C134.211 283.469 134.057 283.875 133.964 284.315L133.504 283.475C133.744 282.462 134.177 281.729 134.804 281.275C135.444 280.809 136.137 280.575 136.884 280.575C137.457 280.575 137.984 280.669 138.464 280.855C138.957 281.029 139.391 281.322 139.764 281.735C140.137 282.149 140.431 282.695 140.644 283.375C140.871 284.055 140.991 284.889 141.004 285.875C141.044 287.409 140.824 288.669 140.344 289.655C139.864 290.642 139.151 291.329 138.204 291.715C137.271 292.089 136.124 292.129 134.764 291.835ZM131.064 291.795L132.544 284.015L131.004 280.695H132.604L134.024 284.075L132.604 291.795H131.064ZM143.593 291.795V283.035L143.313 280.695H144.853L145.133 283.035V291.795H143.593ZM147.246 292.375L147.026 291.135L150.586 290.455C151.373 290.309 152.013 290.089 152.506 289.795C153.013 289.502 153.399 289.115 153.666 288.635C153.946 288.155 154.146 287.555 154.266 286.835C154.399 286.115 154.479 285.249 154.506 284.235C154.533 283.222 154.546 282.042 154.546 280.695H156.066C156.066 282.135 156.039 283.409 155.986 284.515C155.933 285.622 155.813 286.589 155.626 287.415C155.439 288.229 155.146 288.915 154.746 289.475C154.359 290.035 153.826 290.502 153.146 290.875C152.479 291.235 151.633 291.515 150.606 291.715L147.246 292.375ZM150.606 290.575L147.986 280.695H149.526L152.106 290.575H150.606ZM160.331 291.795L164.191 281.915H157.971V280.695H165.731V281.995L161.871 291.795H160.331ZM157.971 281.915V277.455H159.411V281.915H157.971ZM171.247 292.075L171.087 290.975C171.633 290.922 172.053 290.802 172.347 290.615C172.653 290.415 172.867 290.149 172.987 289.815C173.107 289.482 173.167 289.069 173.167 288.575V280.695H178.067C178.733 280.695 179.313 280.815 179.807 281.055C180.313 281.295 180.707 281.689 180.987 282.235C181.28 282.782 181.427 283.509 181.427 284.415V291.795H179.887V284.355C179.887 283.449 179.687 282.815 179.287 282.455C178.9 282.095 178.38 281.915 177.727 281.915H174.707V288.415C174.707 289.202 174.587 289.855 174.347 290.375C174.107 290.882 173.733 291.275 173.227 291.555C172.72 291.822 172.06 291.995 171.247 292.075ZM184.316 291.795V283.035L184.036 280.695H185.576L185.856 283.035V291.795H184.316ZM188.189 291.795V290.575H191.669V283.895C191.669 283.229 191.529 282.749 191.249 282.455C190.982 282.149 190.602 281.955 190.109 281.875L188.769 281.675L188.989 280.475L190.729 280.735C191.529 280.855 192.142 281.182 192.569 281.715C192.995 282.235 193.209 282.955 193.209 283.875V291.795H188.189ZM195.472 291.795V290.575H198.132C198.852 290.575 199.452 290.435 199.932 290.155C200.425 289.875 200.792 289.462 201.032 288.915C201.272 288.355 201.392 287.675 201.392 286.875V285.615C201.392 284.815 201.272 284.142 201.032 283.595C200.792 283.035 200.425 282.615 199.932 282.335C199.452 282.055 198.852 281.915 198.132 281.915H195.472V280.695H198.432C199.392 280.695 200.205 280.882 200.872 281.255C201.539 281.629 202.045 282.189 202.392 282.935C202.752 283.682 202.932 284.595 202.932 285.675V286.815C202.932 287.895 202.752 288.809 202.392 289.555C202.045 290.289 201.539 290.849 200.872 291.235C200.205 291.609 199.392 291.795 198.432 291.795H195.472ZM204.606 292.075L204.446 290.975C204.993 290.922 205.413 290.802 205.706 290.615C206.013 290.415 206.226 290.149 206.346 289.815C206.466 289.482 206.526 289.069 206.526 288.575V280.695H211.426C212.093 280.695 212.673 280.815 213.166 281.055C213.673 281.295 214.066 281.689 214.346 282.235C214.639 282.782 214.786 283.509 214.786 284.415V291.795H213.246V284.355C213.246 283.449 213.046 282.815 212.646 282.455C212.259 282.095 211.739 281.915 211.086 281.915H208.066V288.415C208.066 289.202 207.946 289.855 207.706 290.375C207.466 290.882 207.093 291.275 206.586 291.555C206.079 291.822 205.419 291.995 204.606 292.075ZM228.819 291.795V284.355C228.819 283.449 228.619 282.815 228.219 282.455C227.833 282.095 227.313 281.915 226.659 281.915H222.539V280.695H226.999C227.666 280.695 228.246 280.815 228.739 281.055C229.246 281.295 229.639 281.689 229.919 282.235C230.213 282.782 230.359 283.509 230.359 284.415V290.615V291.795H228.819ZM221.999 291.795V290.575H229.839L229.699 291.795H221.999ZM221.619 291.795V281.755V280.695H223.159V281.815V291.795H221.619ZM233.281 287.595V286.015V283.035L233.001 280.695H234.541L234.821 283.035V286.015L234.801 287.275L233.281 287.595ZM242.294 291.795V284.255C242.294 283.762 242.34 283.315 242.434 282.915C242.54 282.515 242.68 282.182 242.854 281.915H237.254V280.695H245.814V281.915H244.334C244.134 282.249 244 282.635 243.934 283.075C243.88 283.502 243.854 283.895 243.854 284.255V291.795H242.294ZM251.756 291.835L251.916 290.615C253.023 290.855 253.916 290.829 254.596 290.535C255.276 290.242 255.77 289.702 256.076 288.915C256.396 288.129 256.543 287.115 256.516 285.875C256.503 284.849 256.363 284.042 256.096 283.455C255.843 282.869 255.503 282.455 255.076 282.215C254.663 281.962 254.19 281.835 253.656 281.835C253.11 281.835 252.65 281.955 252.276 282.195C251.916 282.422 251.63 282.722 251.416 283.095C251.203 283.469 251.05 283.875 250.956 284.315L250.496 283.475C250.736 282.462 251.17 281.729 251.796 281.275C252.436 280.809 253.13 280.575 253.876 280.575C254.45 280.575 254.976 280.669 255.456 280.855C255.95 281.029 256.383 281.322 256.756 281.735C257.13 282.149 257.423 282.695 257.636 283.375C257.863 284.055 257.983 284.889 257.996 285.875C258.036 287.409 257.816 288.669 257.336 289.655C256.856 290.642 256.143 291.329 255.196 291.715C254.263 292.089 253.116 292.129 251.756 291.835ZM248.056 291.795L249.536 284.015L247.996 280.695H249.596L251.016 284.075L249.596 291.795H248.056ZM260.586 291.795V283.035L260.306 280.695H261.846L262.126 283.035V291.795H260.586ZM266.698 291.795L270.558 281.915H264.338V280.695H272.098V281.995L268.238 291.795H266.698ZM264.338 281.915V277.455H265.778V281.915H264.338Z" fill="url(#paint1_linear_676_1763)"/>
<path d="M108.67 331.491L108.542 330.611C108.98 330.568 109.316 330.472 109.55 330.323C109.796 330.163 109.966 329.949 110.062 329.683C110.158 329.416 110.206 329.085 110.206 328.691V322.387H114.126C114.66 322.387 115.124 322.483 115.518 322.675C115.924 322.867 116.238 323.181 116.462 323.619C116.697 324.056 116.814 324.637 116.814 325.363V331.267H115.582V325.315C115.582 324.589 115.422 324.083 115.102 323.795C114.793 323.507 114.377 323.363 113.854 323.363H111.438V328.563C111.438 329.192 111.342 329.715 111.15 330.131C110.958 330.536 110.66 330.851 110.254 331.075C109.849 331.288 109.321 331.427 108.67 331.491ZM119.094 331.267V330.291H121.718C122.102 330.291 122.459 330.243 122.79 330.147C123.12 330.04 123.408 329.875 123.654 329.651C123.899 329.416 124.091 329.107 124.23 328.723C124.379 328.339 124.454 327.864 124.454 327.299V326.323C124.454 325.683 124.368 325.144 124.198 324.707C124.038 324.259 123.787 323.923 123.446 323.699C123.115 323.475 122.699 323.363 122.198 323.363H120.518L120.102 325.139C119.974 325.747 119.984 326.216 120.134 326.547C120.294 326.867 120.678 327.091 121.286 327.219L121.03 328.067C120.4 328.003 119.915 327.843 119.574 327.587C119.243 327.331 119.035 326.989 118.95 326.563C118.864 326.136 118.875 325.629 118.982 325.043L119.606 322.387H122.406C123.088 322.387 123.67 322.536 124.15 322.835C124.64 323.133 125.019 323.576 125.286 324.163C125.552 324.749 125.686 325.48 125.686 326.355V327.251C125.686 327.987 125.584 328.611 125.382 329.123C125.19 329.635 124.918 330.051 124.566 330.371C124.224 330.68 123.824 330.909 123.366 331.059C122.918 331.197 122.438 331.267 121.926 331.267H119.094ZM128.438 331.427L127.318 322.387H128.502L129.462 330.339C130.294 330.285 131.025 330.136 131.654 329.891C132.294 329.645 132.827 329.293 133.254 328.835C133.681 328.376 134.001 327.805 134.214 327.123C134.427 326.44 134.529 325.64 134.518 324.723L134.502 322.387H135.734L135.75 324.675C135.761 326.189 135.494 327.443 134.95 328.435C134.417 329.427 133.606 330.173 132.518 330.675C131.43 331.165 130.07 331.416 128.438 331.427ZM128.934 327.971L128.646 327.107C129.222 326.84 129.675 326.557 130.006 326.259C130.337 325.96 130.577 325.581 130.726 325.123C130.875 324.664 130.955 324.077 130.966 323.363L130.982 322.419H132.166L132.15 323.347C132.139 324.147 132.027 324.835 131.814 325.411C131.601 325.987 131.259 326.477 130.79 326.883C130.331 327.288 129.713 327.651 128.934 327.971ZM140.871 333.923L140.567 333.219C141.005 333.027 141.346 332.76 141.591 332.419C141.837 332.077 141.959 331.683 141.959 331.235L141.799 330.115L142.423 331.027C142.349 331.133 142.253 331.208 142.135 331.251C142.029 331.283 141.917 331.299 141.799 331.299C141.554 331.299 141.341 331.224 141.159 331.075C140.989 330.925 140.903 330.712 140.903 330.435C140.903 330.168 140.994 329.96 141.175 329.811C141.367 329.661 141.581 329.587 141.815 329.587C142.146 329.587 142.402 329.715 142.583 329.971C142.765 330.227 142.855 330.579 142.855 331.027C142.855 331.688 142.674 332.269 142.311 332.771C141.959 333.272 141.479 333.656 140.871 333.923ZM147.13 334.083C146.48 333.005 145.962 331.88 145.578 330.707C145.205 329.523 145.018 328.227 145.018 326.819C145.018 325.411 145.205 324.115 145.578 322.931C145.962 321.747 146.48 320.621 147.13 319.555L147.85 319.907C147.232 320.92 146.768 322.019 146.458 323.203C146.149 324.387 145.994 325.592 145.994 326.819C145.994 328.045 146.149 329.251 146.458 330.435C146.768 331.608 147.232 332.707 147.85 333.731L147.13 334.083ZM149.912 331.267V320.755H152.824C153.603 320.755 154.286 320.856 154.872 321.059C155.459 321.251 155.912 321.571 156.232 322.019C156.563 322.456 156.728 323.053 156.728 323.811C156.728 324.536 156.568 325.133 156.248 325.603C155.928 326.072 155.48 326.424 154.904 326.659C154.328 326.893 153.656 327.011 152.888 327.011H151.096V331.267H149.912ZM151.096 326.035H152.712C153.672 326.035 154.382 325.859 154.84 325.507C155.31 325.144 155.544 324.579 155.544 323.811C155.544 323.021 155.299 322.477 154.808 322.179C154.328 321.869 153.608 321.715 152.648 321.715H151.096V326.035ZM158.801 334.659C158.63 334.659 158.47 334.643 158.321 334.611C158.171 334.579 158.038 334.541 157.921 334.499L158.145 333.555C158.23 333.587 158.326 333.613 158.433 333.635C158.55 333.667 158.657 333.683 158.753 333.683C159.201 333.683 159.574 333.512 159.873 333.171C160.171 332.84 160.401 332.419 160.561 331.907L160.753 331.315L157.617 323.507H158.817L160.481 327.955C160.609 328.285 160.737 328.643 160.865 329.027C161.003 329.4 161.131 329.768 161.249 330.131H161.313C161.43 329.779 161.547 329.416 161.665 329.043C161.782 328.659 161.889 328.296 161.985 327.955L163.441 323.507H164.577L161.633 331.987C161.451 332.477 161.238 332.925 160.993 333.331C160.747 333.736 160.443 334.056 160.081 334.291C159.729 334.536 159.302 334.659 158.801 334.659ZM168.48 331.459C167.68 331.459 167.12 331.224 166.8 330.755C166.491 330.285 166.336 329.677 166.336 328.931V324.467H165.168V323.587L166.384 323.507L166.528 321.315H167.504V323.507H169.632V324.467H167.504V328.963C167.504 329.443 167.59 329.821 167.76 330.099C167.942 330.365 168.267 330.499 168.736 330.499C168.875 330.499 169.024 330.477 169.184 330.435C169.355 330.392 169.504 330.344 169.632 330.291L169.872 331.171C169.659 331.245 169.43 331.309 169.184 331.363C168.939 331.427 168.704 331.459 168.48 331.459ZM171.425 331.267V319.843H172.577V323.011L172.545 324.643C172.919 324.269 173.313 323.955 173.729 323.699C174.145 323.443 174.615 323.315 175.137 323.315C175.959 323.315 176.556 323.571 176.929 324.083C177.313 324.595 177.505 325.347 177.505 326.339V331.267H176.337V326.483C176.337 325.736 176.215 325.192 175.969 324.851C175.735 324.509 175.345 324.339 174.801 324.339C174.396 324.339 174.028 324.445 173.697 324.659C173.367 324.861 172.993 325.171 172.577 325.587V331.267H171.425ZM183.026 331.459C182.397 331.459 181.81 331.299 181.266 330.979C180.722 330.659 180.285 330.2 179.954 329.603C179.623 328.995 179.458 328.259 179.458 327.395C179.458 326.531 179.623 325.795 179.954 325.187C180.285 324.579 180.722 324.115 181.266 323.795C181.81 323.475 182.397 323.315 183.026 323.315C183.655 323.315 184.237 323.475 184.77 323.795C185.314 324.115 185.751 324.579 186.082 325.187C186.423 325.795 186.594 326.531 186.594 327.395C186.594 328.259 186.423 328.995 186.082 329.603C185.751 330.2 185.314 330.659 184.77 330.979C184.237 331.299 183.655 331.459 183.026 331.459ZM183.026 330.483C183.495 330.483 183.906 330.355 184.258 330.099C184.621 329.843 184.898 329.485 185.09 329.027C185.293 328.557 185.394 328.013 185.394 327.395C185.394 326.787 185.293 326.248 185.09 325.779C184.898 325.309 184.621 324.947 184.258 324.691C183.906 324.424 183.495 324.291 183.026 324.291C182.567 324.291 182.157 324.424 181.794 324.691C181.442 324.947 181.165 325.309 180.962 325.779C180.77 326.248 180.674 326.787 180.674 327.395C180.674 328.013 180.77 328.557 180.962 329.027C181.165 329.485 181.442 329.843 181.794 330.099C182.157 330.355 182.567 330.483 183.026 330.483ZM188.707 331.267V323.507H189.667L189.763 324.659H189.811C190.184 324.275 190.579 323.955 190.995 323.699C191.421 323.443 191.896 323.315 192.419 323.315C193.24 323.315 193.837 323.571 194.211 324.083C194.595 324.595 194.787 325.347 194.787 326.339V331.267H193.619V326.483C193.619 325.736 193.496 325.192 193.251 324.851C193.016 324.509 192.627 324.339 192.083 324.339C191.677 324.339 191.309 324.445 190.979 324.659C190.648 324.861 190.275 325.171 189.859 325.587V331.267H188.707ZM197.346 334.083L196.626 333.731C197.245 332.707 197.709 331.608 198.018 330.435C198.327 329.251 198.482 328.045 198.482 326.819C198.482 325.592 198.327 324.387 198.018 323.203C197.709 322.019 197.245 320.92 196.626 319.907L197.346 319.555C198.007 320.621 198.525 321.747 198.898 322.931C199.271 324.115 199.458 325.411 199.458 326.819C199.458 328.227 199.271 329.523 198.898 330.707C198.525 331.88 198.007 333.005 197.346 334.083ZM205.235 334.467V324.259L205.011 322.387H206.243L206.467 324.259V334.467H205.235ZM208.813 331.267V324.259L208.589 322.387H209.821L210.045 324.259V331.267H208.813ZM211.623 331.491L211.495 330.611C211.933 330.568 212.269 330.472 212.503 330.323C212.749 330.163 212.919 329.949 213.015 329.683C213.111 329.416 213.159 329.085 213.159 328.691V322.387H217.079C217.613 322.387 218.077 322.483 218.471 322.675C218.877 322.867 219.191 323.181 219.415 323.619C219.65 324.056 219.767 324.637 219.767 325.363V331.267H218.535V325.315C218.535 324.589 218.375 324.083 218.055 323.795C217.746 323.507 217.33 323.363 216.807 323.363H214.391V328.563C214.391 329.192 214.295 329.715 214.103 330.131C213.911 330.536 213.613 330.851 213.207 331.075C212.802 331.288 212.274 331.427 211.623 331.491ZM222.079 327.907V326.643V324.259L221.855 322.387H223.087L223.311 324.259V326.643L223.295 327.651L222.079 327.907ZM225.657 327.907V326.643V324.259L225.433 322.387H226.665L226.889 324.259V326.643L226.873 327.651L225.657 327.907ZM229.203 331.267V330.291H231.827C232.211 330.291 232.569 330.243 232.899 330.147C233.23 330.04 233.518 329.875 233.763 329.651C234.009 329.416 234.201 329.107 234.339 328.723C234.489 328.339 234.563 327.864 234.563 327.299V326.323C234.563 325.683 234.478 325.144 234.307 324.707C234.147 324.259 233.897 323.923 233.555 323.699C233.225 323.475 232.809 323.363 232.307 323.363H230.627L230.211 325.139C230.083 325.747 230.094 326.216 230.243 326.547C230.403 326.867 230.787 327.091 231.395 327.219L231.139 328.067C230.51 328.003 230.025 327.843 229.683 327.587C229.353 327.331 229.145 326.989 229.059 326.563C228.974 326.136 228.985 325.629 229.091 325.043L229.715 322.387H232.515C233.198 322.387 233.779 322.536 234.259 322.835C234.75 323.133 235.129 323.576 235.395 324.163C235.662 324.749 235.795 325.48 235.795 326.355V327.251C235.795 327.987 235.694 328.611 235.491 329.123C235.299 329.635 235.027 330.051 234.675 330.371C234.334 330.68 233.934 330.909 233.475 331.059C233.027 331.197 232.547 331.267 232.035 331.267H229.203ZM246.807 331.267V325.315C246.807 324.589 246.647 324.083 246.327 323.795C246.017 323.507 245.601 323.363 245.079 323.363H241.783V322.387H245.351C245.884 322.387 246.348 322.483 246.743 322.675C247.148 322.867 247.463 323.181 247.687 323.619C247.921 324.056 248.039 324.637 248.039 325.363V330.323V331.267H246.807ZM241.351 331.267V330.291H247.623L247.511 331.267H241.351ZM241.047 331.267V323.235V322.387H242.279V323.283V331.267H241.047ZM250.376 327.907V326.643V324.259L250.152 322.387H251.384L251.608 324.259V326.643L251.592 327.651L250.376 327.907ZM257.586 331.267V325.235C257.586 324.84 257.623 324.483 257.698 324.163C257.783 323.843 257.895 323.576 258.034 323.363H253.554V322.387H260.402V323.363H259.218C259.058 323.629 258.951 323.939 258.898 324.291C258.855 324.632 258.834 324.947 258.834 325.235V331.267H257.586ZM265.156 331.299L265.284 330.323C266.169 330.515 266.884 330.493 267.428 330.259C267.972 330.024 268.367 329.592 268.612 328.963C268.868 328.333 268.985 327.523 268.964 326.531C268.953 325.709 268.841 325.064 268.628 324.595C268.425 324.125 268.153 323.795 267.812 323.603C267.481 323.4 267.103 323.299 266.676 323.299C266.239 323.299 265.871 323.395 265.572 323.587C265.284 323.768 265.055 324.008 264.884 324.307C264.713 324.605 264.591 324.931 264.516 325.283L264.148 324.611C264.34 323.8 264.687 323.213 265.188 322.851C265.7 322.477 266.255 322.291 266.852 322.291C267.311 322.291 267.732 322.365 268.116 322.515C268.511 322.653 268.857 322.888 269.156 323.219C269.455 323.549 269.689 323.987 269.86 324.531C270.041 325.075 270.137 325.741 270.148 326.531C270.18 327.757 270.004 328.765 269.62 329.555C269.236 330.344 268.665 330.893 267.908 331.203C267.161 331.501 266.244 331.533 265.156 331.299ZM262.196 331.267L263.38 325.043L262.148 322.387H263.428L264.564 325.091L263.428 331.267H262.196ZM272.22 331.267V324.259L271.996 322.387H273.228L273.452 324.259V331.267H272.22ZM277.11 331.267L280.198 323.363H275.222V322.387H281.43V323.427L278.342 331.267H277.11ZM275.222 323.363V319.795H276.374V323.363H275.222ZM121.957 357.923L121.653 357.219C122.091 357.027 122.432 356.76 122.677 356.419C122.923 356.077 123.045 355.683 123.045 355.235L122.885 354.115L123.509 355.027C123.435 355.133 123.339 355.208 123.221 355.251C123.115 355.283 123.003 355.299 122.885 355.299C122.64 355.299 122.427 355.224 122.245 355.075C122.075 354.925 121.989 354.712 121.989 354.435C121.989 354.168 122.08 353.96 122.261 353.811C122.453 353.661 122.667 353.587 122.901 353.587C123.232 353.587 123.488 353.715 123.669 353.971C123.851 354.227 123.941 354.579 123.941 355.027C123.941 355.688 123.76 356.269 123.397 356.771C123.045 357.272 122.565 357.656 121.957 357.923ZM131.736 355.267V349.315C131.736 348.589 131.576 348.083 131.256 347.795C130.947 347.507 130.531 347.363 130.008 347.363H126.712V346.387H130.28C130.814 346.387 131.278 346.483 131.672 346.675C132.078 346.867 132.392 347.181 132.616 347.619C132.851 348.056 132.968 348.637 132.968 349.363V354.323V355.267H131.736ZM126.28 355.267V354.291H132.552L132.44 355.267H126.28ZM125.976 355.267V347.235V346.387H127.208V347.283V355.267H125.976ZM136.618 355.267L139.706 347.363H134.73V346.387H140.938V347.427L137.85 355.267H136.618ZM134.73 347.363V343.795H135.882V347.363H134.73ZM142.915 355.267V348.259L142.691 346.387H143.923L144.147 348.259V355.267H142.915ZM145.837 355.731L145.661 354.739L148.509 354.195C149.138 354.077 149.65 353.901 150.045 353.667C150.45 353.432 150.76 353.123 150.973 352.739C151.197 352.355 151.357 351.875 151.453 351.299C151.56 350.723 151.624 350.029 151.645 349.219C151.666 348.408 151.677 347.464 151.677 346.387H152.893C152.893 347.539 152.872 348.557 152.829 349.443C152.786 350.328 152.69 351.101 152.541 351.763C152.392 352.413 152.157 352.963 151.837 353.411C151.528 353.859 151.101 354.232 150.557 354.531C150.024 354.819 149.346 355.043 148.525 355.203L145.837 355.731ZM148.525 354.291L146.429 346.387H147.661L149.725 354.291H148.525ZM159.169 355.267V349.315C159.169 348.589 159.009 348.083 158.689 347.795C158.38 347.507 157.964 347.363 157.441 347.363H154.561V346.387H157.713C158.246 346.387 158.716 346.483 159.121 346.675C159.526 346.867 159.841 347.181 160.065 347.619C160.289 348.056 160.401 348.637 160.401 349.363V355.267H159.169ZM154.561 355.267V354.291H161.537V355.267H154.561ZM165.85 355.491L165.722 354.611C166.159 354.568 166.495 354.472 166.73 354.323C166.975 354.163 167.146 353.949 167.242 353.683C167.338 353.416 167.386 353.085 167.386 352.691V346.387H171.306C171.839 346.387 172.303 346.483 172.698 346.675C173.103 346.867 173.418 347.181 173.642 347.619C173.877 348.056 173.994 348.637 173.994 349.363V355.267H172.762V349.315C172.762 348.589 172.602 348.083 172.282 347.795C171.973 347.507 171.557 347.363 171.034 347.363H168.618V352.563C168.618 353.192 168.522 353.715 168.33 354.131C168.138 354.536 167.839 354.851 167.434 355.075C167.029 355.288 166.501 355.427 165.85 355.491ZM176.962 355.427L175.842 346.387H177.026L177.986 354.339C178.818 354.285 179.548 354.136 180.178 353.891C180.818 353.645 181.351 353.293 181.778 352.835C182.204 352.376 182.524 351.805 182.738 351.123C182.951 350.44 183.052 349.64 183.042 348.723L183.026 346.387H184.258L184.274 348.675C184.284 350.189 184.018 351.443 183.474 352.435C182.94 353.427 182.13 354.173 181.042 354.675C179.954 355.165 178.594 355.416 176.962 355.427ZM177.458 351.971L177.17 351.107C177.746 350.84 178.199 350.557 178.53 350.259C178.86 349.96 179.1 349.581 179.25 349.123C179.399 348.664 179.479 348.077 179.49 347.363L179.506 346.419H180.69L180.674 347.347C180.663 348.147 180.551 348.835 180.338 349.411C180.124 349.987 179.783 350.477 179.314 350.883C178.855 351.288 178.236 351.651 177.458 351.971ZM188.784 355.267L188.656 354.291C189.018 354.248 189.36 354.173 189.68 354.067C190.01 353.949 190.304 353.768 190.56 353.523C190.816 353.267 191.024 352.915 191.184 352.467C191.354 352.008 191.466 351.427 191.52 350.723L191.792 347.363H186.032V346.387H193.104L193.056 347.267L192.8 350.483C192.757 351.272 192.629 351.965 192.416 352.563C192.213 353.149 191.936 353.64 191.584 354.035C191.242 354.429 190.832 354.728 190.352 354.931C189.882 355.133 189.36 355.245 188.784 355.267ZM186.064 358.467V350.723L186.24 349.635H187.296V350.707V358.467H186.064ZM195.165 355.267V348.259L194.941 346.387H196.173L196.397 348.259V355.267H195.165ZM202.919 355.267V349.315C202.919 348.589 202.759 348.083 202.439 347.795C202.13 347.507 201.714 347.363 201.191 347.363H198.311V346.387H201.463C201.996 346.387 202.466 346.483 202.871 346.675C203.276 346.867 203.591 347.181 203.815 347.619C204.039 348.056 204.151 348.637 204.151 349.363V355.267H202.919ZM198.311 355.267V354.291H205.287V355.267H198.311ZM209.789 355.299L209.917 354.323C210.802 354.515 211.517 354.493 212.061 354.259C212.605 354.024 213 353.592 213.245 352.963C213.501 352.333 213.618 351.523 213.597 350.531C213.586 349.709 213.474 349.064 213.261 348.595C213.058 348.125 212.786 347.795 212.445 347.603C212.114 347.4 211.736 347.299 211.309 347.299C210.872 347.299 210.504 347.395 210.205 347.587C209.917 347.768 209.688 348.008 209.517 348.307C209.346 348.605 209.224 348.931 209.149 349.283L208.781 348.611C208.973 347.8 209.32 347.213 209.821 346.851C210.333 346.477 210.888 346.291 211.485 346.291C211.944 346.291 212.365 346.365 212.749 346.515C213.144 346.653 213.49 346.888 213.789 347.219C214.088 347.549 214.322 347.987 214.493 348.531C214.674 349.075 214.77 349.741 214.781 350.531C214.813 351.757 214.637 352.765 214.253 353.555C213.869 354.344 213.298 354.893 212.541 355.203C211.794 355.501 210.877 355.533 209.789 355.299ZM206.829 355.267L208.013 349.043L206.781 346.387H208.061L209.197 349.091L208.061 355.267H206.829ZM222.036 355.267V349.315C222.036 348.589 221.876 348.083 221.556 347.795C221.247 347.507 220.836 347.363 220.324 347.363H216.564V346.387H220.596C221.13 346.387 221.594 346.483 221.988 346.675C222.394 346.867 222.708 347.181 222.932 347.619C223.167 348.056 223.284 348.637 223.284 349.363V355.267H222.036ZM216.548 355.267V350.947L216.724 349.875H217.796V350.947V355.267H216.548ZM228.022 355.491L227.894 354.611C228.331 354.568 228.667 354.472 228.902 354.323C229.147 354.163 229.318 353.949 229.414 353.683C229.51 353.416 229.558 353.085 229.558 352.691V346.387H233.478C234.011 346.387 234.475 346.483 234.87 346.675C235.275 346.867 235.59 347.181 235.814 347.619C236.049 348.056 236.166 348.637 236.166 349.363V355.267H234.934V349.315C234.934 348.589 234.774 348.083 234.454 347.795C234.145 347.507 233.729 347.363 233.206 347.363H230.79V352.563C230.79 353.192 230.694 353.715 230.502 354.131C230.31 354.536 230.011 354.851 229.606 355.075C229.201 355.288 228.673 355.427 228.022 355.491ZM238.477 355.267V348.259L238.253 346.387H239.485L239.709 348.259V355.267H238.477ZM241.576 355.267V354.291H244.36V348.947C244.36 348.413 244.248 348.029 244.024 347.795C243.81 347.549 243.506 347.395 243.112 347.331L242.04 347.171L242.216 346.211L243.608 346.419C244.248 346.515 244.738 346.776 245.08 347.203C245.421 347.619 245.592 348.195 245.592 348.931V355.267H241.576ZM247.402 355.267V354.291H249.53C250.106 354.291 250.586 354.179 250.97 353.955C251.365 353.731 251.658 353.4 251.85 352.963C252.042 352.515 252.138 351.971 252.138 351.331V350.323C252.138 349.683 252.042 349.144 251.85 348.707C251.658 348.259 251.365 347.923 250.97 347.699C250.586 347.475 250.106 347.363 249.53 347.363H247.402V346.387H249.77C250.538 346.387 251.189 346.536 251.722 346.835C252.255 347.133 252.661 347.581 252.938 348.179C253.226 348.776 253.37 349.507 253.37 350.371V351.283C253.37 352.147 253.226 352.877 252.938 353.475C252.661 354.061 252.255 354.509 251.722 354.819C251.189 355.117 250.538 355.267 249.77 355.267H247.402ZM254.709 355.491L254.581 354.611C255.019 354.568 255.355 354.472 255.589 354.323C255.835 354.163 256.005 353.949 256.101 353.683C256.197 353.416 256.245 353.085 256.245 352.691V346.387H260.165C260.699 346.387 261.163 346.483 261.557 346.675C261.963 346.867 262.277 347.181 262.501 347.619C262.736 348.056 262.853 348.637 262.853 349.363V355.267H261.621V349.315C261.621 348.589 261.461 348.083 261.141 347.795C260.832 347.507 260.416 347.363 259.893 347.363H257.477V352.563C257.477 353.192 257.381 353.715 257.189 354.131C256.997 354.536 256.699 354.851 256.293 355.075C255.888 355.288 255.36 355.427 254.709 355.491ZM270.349 355.267V349.315C270.349 348.589 270.189 348.083 269.869 347.795C269.56 347.507 269.149 347.363 268.637 347.363H264.877V346.387H268.909C269.442 346.387 269.906 346.483 270.301 346.675C270.706 346.867 271.021 347.181 271.245 347.619C271.48 348.056 271.597 348.637 271.597 349.363V355.267H270.349ZM264.861 355.267V350.947L265.037 349.875H266.109V350.947V355.267H264.861ZM112.538 379.491L112.41 378.611C112.847 378.568 113.183 378.472 113.418 378.323C113.663 378.163 113.834 377.949 113.93 377.683C114.026 377.416 114.074 377.085 114.074 376.691V370.387H117.994C118.527 370.387 118.991 370.483 119.386 370.675C119.791 370.867 120.106 371.181 120.33 371.619C120.564 372.056 120.682 372.637 120.682 373.363V379.267H119.45V373.315C119.45 372.589 119.29 372.083 118.97 371.795C118.66 371.507 118.244 371.363 117.722 371.363H115.306V376.563C115.306 377.192 115.21 377.715 115.018 378.131C114.826 378.536 114.527 378.851 114.122 379.075C113.716 379.288 113.188 379.427 112.538 379.491ZM123.617 379.427L122.641 371.363L123.793 370.739L124.705 378.291C125.142 378.248 125.564 378.179 125.969 378.083C126.385 377.976 126.764 377.827 127.105 377.635C127.446 377.432 127.745 377.176 128.001 376.867C128.257 376.557 128.449 376.179 128.577 375.731C128.705 375.272 128.753 374.728 128.721 374.099V373.715C128.721 373.267 128.646 372.867 128.497 372.515C128.358 372.163 128.145 371.885 127.857 371.683C127.569 371.469 127.217 371.363 126.801 371.363H122.641L122.529 370.387H126.897C127.857 370.387 128.593 370.685 129.105 371.283C129.628 371.88 129.905 372.664 129.937 373.635L129.953 374.131C129.985 375.101 129.841 375.923 129.521 376.595C129.212 377.256 128.764 377.789 128.177 378.195C127.59 378.589 126.902 378.883 126.113 379.075C125.334 379.267 124.502 379.384 123.617 379.427ZM135.672 379.267V373.235C135.672 372.84 135.709 372.483 135.784 372.163C135.869 371.843 135.981 371.576 136.12 371.363H131.64V370.387H138.488V371.363H137.304C137.144 371.629 137.037 371.939 136.984 372.291C136.941 372.632 136.92 372.947 136.92 373.235V379.267H135.672ZM140.138 379.267V378.291H142.922V372.947C142.922 372.413 142.81 372.029 142.586 371.795C142.373 371.549 142.069 371.395 141.674 371.331L140.602 371.171L140.778 370.211L142.17 370.419C142.81 370.515 143.301 370.776 143.642 371.203C143.983 371.619 144.154 372.195 144.154 372.931V379.267H140.138ZM151.693 379.267V373.315C151.693 372.589 151.533 372.083 151.213 371.795C150.903 371.507 150.493 371.363 149.981 371.363H146.221V370.387H150.253C150.786 370.387 151.25 370.483 151.645 370.675C152.05 370.867 152.365 371.181 152.589 371.619C152.823 372.056 152.941 372.637 152.941 373.363V379.267H151.693ZM146.205 379.267V374.947L146.381 373.875H147.453V374.947V379.267H146.205ZM159.419 379.267V373.315C159.419 372.589 159.259 372.083 158.939 371.795C158.63 371.507 158.214 371.363 157.691 371.363H154.811V370.387H157.963C158.496 370.387 158.966 370.483 159.371 370.675C159.776 370.867 160.091 371.181 160.315 371.619C160.539 372.056 160.651 372.637 160.651 373.363V379.267H159.419ZM154.811 379.267V378.291H161.787V379.267H154.811ZM166.1 379.491L165.972 378.611C166.409 378.568 166.745 378.472 166.98 378.323C167.225 378.163 167.396 377.949 167.492 377.683C167.588 377.416 167.636 377.085 167.636 376.691V370.387H171.556C172.089 370.387 172.553 370.483 172.948 370.675C173.353 370.867 173.668 371.181 173.892 371.619C174.127 372.056 174.244 372.637 174.244 373.363V379.267H173.012V373.315C173.012 372.589 172.852 372.083 172.532 371.795C172.223 371.507 171.807 371.363 171.284 371.363H168.868V376.563C168.868 377.192 168.772 377.715 168.58 378.131C168.388 378.536 168.089 378.851 167.684 379.075C167.279 379.288 166.751 379.427 166.1 379.491ZM176.556 379.267V372.259L176.332 370.387H177.564L177.788 372.259V379.267H176.556ZM179.654 379.267V378.291H182.438V372.947C182.438 372.413 182.326 372.029 182.102 371.795C181.888 371.549 181.584 371.395 181.19 371.331L180.118 371.171L180.294 370.211L181.686 370.419C182.326 370.515 182.816 370.776 183.158 371.203C183.499 371.619 183.67 372.195 183.67 372.931V379.267H179.654ZM186.024 379.267V372.259L185.8 370.387H187.032L187.256 372.259V379.267H186.024ZM193.57 379.267V373.315C193.57 372.589 193.41 372.083 193.09 371.795C192.781 371.507 192.365 371.363 191.842 371.363H189.01V370.387H192.114C192.648 370.387 193.117 370.483 193.522 370.675C193.928 370.867 194.242 371.181 194.466 371.619C194.69 372.056 194.802 372.637 194.802 373.363V379.267H193.57ZM199.565 379.267L199.437 378.291C199.8 378.248 200.141 378.173 200.461 378.067C200.792 377.949 201.085 377.768 201.341 377.523C201.597 377.267 201.805 376.915 201.965 376.467C202.136 376.008 202.248 375.427 202.301 374.723L202.573 371.363H196.813V370.387H203.885L203.837 371.267L203.581 374.483C203.538 375.272 203.41 375.965 203.197 376.563C202.994 377.149 202.717 377.64 202.365 378.035C202.024 378.429 201.613 378.728 201.133 378.931C200.664 379.133 200.141 379.245 199.565 379.267ZM196.845 382.467V374.723L197.021 373.635H198.077V374.707V382.467H196.845ZM205.29 379.731L205.114 378.739L207.962 378.195C208.591 378.077 209.103 377.901 209.498 377.667C209.903 377.432 210.213 377.123 210.426 376.739C210.65 376.355 210.81 375.875 210.906 375.299C211.013 374.723 211.077 374.029 211.098 373.219C211.119 372.408 211.13 371.464 211.13 370.387H212.346C212.346 371.539 212.325 372.557 212.282 373.443C212.239 374.328 212.143 375.101 211.994 375.763C211.845 376.413 211.61 376.963 211.29 377.411C210.981 377.859 210.554 378.232 210.01 378.531C209.477 378.819 208.799 379.043 207.978 379.203L205.29 379.731ZM207.978 378.291L205.882 370.387H207.114L209.178 378.291H207.978ZM218.622 379.267V373.315C218.622 372.589 218.462 372.083 218.142 371.795C217.833 371.507 217.417 371.363 216.894 371.363H214.014V370.387H217.166C217.699 370.387 218.169 370.483 218.574 370.675C218.979 370.867 219.294 371.181 219.518 371.619C219.742 372.056 219.854 372.637 219.854 373.363V379.267H218.622ZM214.014 379.267V378.291H220.99V379.267H214.014ZM231.783 379.267V373.315C231.783 372.589 231.623 372.083 231.303 371.795C230.994 371.507 230.578 371.363 230.055 371.363H226.759V370.387H230.327C230.86 370.387 231.324 370.483 231.719 370.675C232.124 370.867 232.439 371.181 232.663 371.619C232.898 372.056 233.015 372.637 233.015 373.363V378.323V379.267H231.783ZM226.327 379.267V378.291H232.599L232.487 379.267H226.327ZM226.023 379.267V371.235V370.387H227.255V371.283V379.267H226.023ZM235.352 375.907V374.643V372.259L235.128 370.387H236.36L236.584 372.259V374.643L236.568 375.651L235.352 375.907ZM241.331 379.267L241.203 378.291C241.565 378.248 241.907 378.173 242.227 378.067C242.557 377.949 242.851 377.768 243.107 377.523C243.363 377.267 243.571 376.915 243.731 376.467C243.901 376.008 244.013 375.427 244.067 374.723L244.339 371.363H238.579V370.387H245.651L245.603 371.267L245.347 374.483C245.304 375.272 245.176 375.965 244.963 376.563C244.76 377.149 244.483 377.64 244.131 378.035C243.789 378.429 243.379 378.728 242.899 378.931C242.429 379.133 241.907 379.245 241.331 379.267ZM238.611 382.467V374.723L238.787 373.635H239.843V374.707V382.467H238.611ZM247.712 375.907V374.643V372.259L247.488 370.387H248.72L248.944 372.259V374.643L248.928 375.651L247.712 375.907ZM253.914 379.299L254.042 378.323C254.927 378.515 255.642 378.493 256.186 378.259C256.73 378.024 257.125 377.592 257.37 376.963C257.626 376.333 257.743 375.523 257.722 374.531C257.711 373.709 257.599 373.064 257.386 372.595C257.183 372.125 256.911 371.795 256.57 371.603C256.239 371.4 255.861 371.299 255.434 371.299C254.997 371.299 254.629 371.395 254.33 371.587C254.042 371.768 253.813 372.008 253.642 372.307C253.471 372.605 253.349 372.931 253.274 373.283L252.906 372.611C253.098 371.8 253.445 371.213 253.946 370.851C254.458 370.477 255.013 370.291 255.61 370.291C256.069 370.291 256.49 370.365 256.874 370.515C257.269 370.653 257.615 370.888 257.914 371.219C258.213 371.549 258.447 371.987 258.618 372.531C258.799 373.075 258.895 373.741 258.906 374.531C258.938 375.757 258.762 376.765 258.378 377.555C257.994 378.344 257.423 378.893 256.666 379.203C255.919 379.501 255.002 379.533 253.914 379.299ZM250.954 379.267L252.138 373.043L250.906 370.387H252.186L253.322 373.091L252.186 379.267H250.954ZM260.321 379.731L260.145 378.739L262.993 378.195C263.623 378.077 264.135 377.901 264.529 377.667C264.935 377.432 265.244 377.123 265.457 376.739C265.681 376.355 265.841 375.875 265.937 375.299C266.044 374.723 266.108 374.029 266.129 373.219C266.151 372.408 266.161 371.464 266.161 370.387H267.377C267.377 371.539 267.356 372.557 267.313 373.443C267.271 374.328 267.175 375.101 267.025 375.763C266.876 376.413 266.641 376.963 266.321 377.411C266.012 377.859 265.585 378.232 265.041 378.531C264.508 378.819 263.831 379.043 263.009 379.203L260.321 379.731ZM263.009 378.291L260.913 370.387H262.145L264.209 378.291H263.009ZM272.101 379.299L272.229 378.323C273.115 378.515 273.829 378.493 274.373 378.259C274.917 378.024 275.312 377.592 275.557 376.963C275.813 376.333 275.931 375.523 275.909 374.531C275.899 373.709 275.787 373.064 275.573 372.595C275.371 372.125 275.099 371.795 274.757 371.603C274.427 371.4 274.048 371.299 273.621 371.299C273.184 371.299 272.816 371.395 272.517 371.587C272.229 371.768 272 372.008 271.829 372.307C271.659 372.605 271.536 372.931 271.461 373.283L271.093 372.611C271.285 371.8 271.632 371.213 272.133 370.851C272.645 370.477 273.2 370.291 273.797 370.291C274.256 370.291 274.677 370.365 275.061 370.515C275.456 370.653 275.803 370.888 276.101 371.219C276.4 371.549 276.635 371.987 276.805 372.531C276.987 373.075 277.083 373.741 277.093 374.531C277.125 375.757 276.949 376.765 276.565 377.555C276.181 378.344 275.611 378.893 274.853 379.203C274.107 379.501 273.189 379.533 272.101 379.299ZM269.141 379.267L270.325 373.043L269.093 370.387H270.373L271.509 373.091L270.373 379.267H269.141ZM279.165 379.267V372.259L278.941 370.387H280.173L280.397 372.259V379.267H279.165ZM131.72 403.459C131.485 403.459 131.277 403.373 131.096 403.203C130.925 403.032 130.84 402.808 130.84 402.531C130.84 402.243 130.925 402.013 131.096 401.843C131.277 401.672 131.485 401.587 131.72 401.587C131.965 401.587 132.173 401.672 132.344 401.843C132.515 402.013 132.6 402.243 132.6 402.531C132.6 402.808 132.515 403.032 132.344 403.203C132.173 403.373 131.965 403.459 131.72 403.459ZM139.083 403.267V397.315C139.083 396.589 138.923 396.083 138.603 395.795C138.294 395.507 137.878 395.363 137.355 395.363H134.475V394.387H137.627C138.16 394.387 138.63 394.483 139.035 394.675C139.44 394.867 139.755 395.181 139.979 395.619C140.203 396.056 140.315 396.637 140.315 397.363V403.267H139.083ZM134.475 403.267V402.291H141.451V403.267H134.475ZM143.985 403.427L142.865 394.387H144.049L145.009 402.339C145.841 402.285 146.572 402.136 147.201 401.891C147.841 401.645 148.374 401.293 148.801 400.835C149.228 400.376 149.548 399.805 149.761 399.123C149.974 398.44 150.076 397.64 150.065 396.723L150.049 394.387H151.281L151.297 396.675C151.308 398.189 151.041 399.443 150.497 400.435C149.964 401.427 149.153 402.173 148.065 402.675C146.977 403.165 145.617 403.416 143.985 403.427ZM144.481 399.971L144.193 399.107C144.769 398.84 145.222 398.557 145.553 398.259C145.884 397.96 146.124 397.581 146.273 397.123C146.422 396.664 146.502 396.077 146.513 395.363L146.529 394.419H147.713L147.697 395.347C147.686 396.147 147.574 396.835 147.361 397.411C147.148 397.987 146.806 398.477 146.337 398.883C145.878 399.288 145.26 399.651 144.481 399.971ZM158.847 403.267V397.539C158.847 396.088 158.271 395.363 157.119 395.363H153.167V394.387H157.391C157.956 394.387 158.436 394.504 158.831 394.739C159.236 394.963 159.546 395.315 159.759 395.795C159.972 396.264 160.079 396.861 160.079 397.587V403.267H158.847ZM153.167 403.267V394.803H154.399V403.267H153.167ZM165.047 403.299L165.175 402.323C166.06 402.515 166.775 402.493 167.319 402.259C167.863 402.024 168.257 401.592 168.503 400.963C168.759 400.333 168.876 399.523 168.855 398.531C168.844 397.709 168.732 397.064 168.519 396.595C168.316 396.125 168.044 395.795 167.703 395.603C167.372 395.4 166.993 395.299 166.567 395.299C166.129 395.299 165.761 395.395 165.463 395.587C165.175 395.768 164.945 396.008 164.775 396.307C164.604 396.605 164.481 396.931 164.407 397.283L164.039 396.611C164.231 395.8 164.577 395.213 165.079 394.851C165.591 394.477 166.145 394.291 166.743 394.291C167.201 394.291 167.623 394.365 168.007 394.515C168.401 394.653 168.748 394.888 169.047 395.219C169.345 395.549 169.58 395.987 169.751 396.531C169.932 397.075 170.028 397.741 170.039 398.531C170.071 399.757 169.895 400.765 169.511 401.555C169.127 402.344 168.556 402.893 167.799 403.203C167.052 403.501 166.135 403.533 165.047 403.299ZM162.087 403.267L163.271 397.043L162.039 394.387H163.319L164.455 397.091L163.319 403.267H162.087ZM177.294 403.267V397.315C177.294 396.589 177.134 396.083 176.814 395.795C176.505 395.507 176.094 395.363 175.582 395.363H171.822V394.387H175.854C176.388 394.387 176.852 394.483 177.246 394.675C177.652 394.867 177.966 395.181 178.19 395.619C178.425 396.056 178.542 396.637 178.542 397.363V403.267H177.294ZM171.806 403.267V398.947L171.982 397.875H173.054V398.947V403.267H171.806ZM184.048 399.907V398.643V396.259L183.824 394.387H185.056L185.28 396.259V398.643L185.264 399.651L184.048 399.907ZM186.97 403.731L186.794 402.739L189.642 402.195C190.271 402.077 190.783 401.901 191.178 401.667C191.583 401.432 191.892 401.123 192.106 400.739C192.33 400.355 192.49 399.875 192.586 399.299C192.692 398.723 192.756 398.029 192.778 397.219C192.799 396.408 192.81 395.464 192.81 394.387H194.026C194.026 395.539 194.004 396.557 193.962 397.443C193.919 398.328 193.823 399.101 193.674 399.763C193.524 400.413 193.29 400.963 192.97 401.411C192.66 401.859 192.234 402.232 191.69 402.531C191.156 402.819 190.479 403.043 189.658 403.203L186.97 403.731ZM189.658 402.291L187.562 394.387H188.794L190.858 402.291H189.658ZM199.758 403.267V397.235C199.758 396.84 199.795 396.483 199.87 396.163C199.955 395.843 200.067 395.576 200.206 395.363H195.726V394.387H202.574V395.363H201.39C201.23 395.629 201.123 395.939 201.07 396.291C201.027 396.632 201.006 396.947 201.006 397.235V403.267H199.758ZM207.328 403.299L207.456 402.323C208.341 402.515 209.056 402.493 209.6 402.259C210.144 402.024 210.539 401.592 210.784 400.963C211.04 400.333 211.157 399.523 211.136 398.531C211.125 397.709 211.013 397.064 210.8 396.595C210.597 396.125 210.325 395.795 209.984 395.603C209.653 395.4 209.275 395.299 208.848 395.299C208.411 395.299 208.043 395.395 207.744 395.587C207.456 395.768 207.227 396.008 207.056 396.307C206.885 396.605 206.763 396.931 206.688 397.283L206.32 396.611C206.512 395.8 206.859 395.213 207.36 394.851C207.872 394.477 208.427 394.291 209.024 394.291C209.483 394.291 209.904 394.365 210.288 394.515C210.683 394.653 211.029 394.888 211.328 395.219C211.627 395.549 211.861 395.987 212.032 396.531C212.213 397.075 212.309 397.741 212.32 398.531C212.352 399.757 212.176 400.765 211.792 401.555C211.408 402.344 210.837 402.893 210.08 403.203C209.333 403.501 208.416 403.533 207.328 403.299ZM204.368 403.267L205.552 397.043L204.32 394.387H205.6L206.736 397.091L205.6 403.267H204.368ZM218.567 403.267V397.315C218.567 396.589 218.407 396.083 218.087 395.795C217.778 395.507 217.362 395.363 216.839 395.363H213.959V394.387H217.111C217.645 394.387 218.114 394.483 218.519 394.675C218.925 394.867 219.239 395.181 219.463 395.619C219.687 396.056 219.799 396.637 219.799 397.363V403.267H218.567ZM213.959 403.267V402.291H220.935V403.267H213.959ZM222.813 403.267V396.259L222.589 394.387H223.821L224.045 396.259V403.267H222.813ZM234.779 403.267V397.315C234.779 396.589 234.619 396.083 234.299 395.795C233.989 395.507 233.579 395.363 233.067 395.363H229.307V394.387H233.339C233.872 394.387 234.336 394.483 234.731 394.675C235.136 394.867 235.451 395.181 235.675 395.619C235.909 396.056 236.027 396.637 236.027 397.363V403.267H234.779ZM229.291 403.267V398.947L229.467 397.875H230.539V398.947V403.267H229.291ZM237.849 403.267V402.291H240.633V396.947C240.633 396.413 240.521 396.029 240.297 395.795C240.084 395.549 239.78 395.395 239.385 395.331L238.313 395.171L238.489 394.211L239.881 394.419C240.521 394.515 241.012 394.776 241.353 395.203C241.694 395.619 241.865 396.195 241.865 396.931V403.267H237.849ZM243.676 403.267V402.291H245.804C246.38 402.291 246.86 402.179 247.244 401.955C247.638 401.731 247.932 401.4 248.124 400.963C248.316 400.515 248.412 399.971 248.412 399.331V398.323C248.412 397.683 248.316 397.144 248.124 396.707C247.932 396.259 247.638 395.923 247.244 395.699C246.86 395.475 246.38 395.363 245.804 395.363H243.676V394.387H246.044C246.812 394.387 247.462 394.536 247.996 394.835C248.529 395.133 248.934 395.581 249.212 396.179C249.5 396.776 249.644 397.507 249.644 398.371V399.283C249.644 400.147 249.5 400.877 249.212 401.475C248.934 402.061 248.529 402.509 247.996 402.819C247.462 403.117 246.812 403.267 246.044 403.267H243.676ZM251.751 403.267V396.259L251.527 394.387H252.759L252.983 396.259V403.267H251.751ZM254.561 403.491L254.433 402.611C254.87 402.568 255.206 402.472 255.441 402.323C255.686 402.163 255.857 401.949 255.953 401.683C256.049 401.416 256.097 401.085 256.097 400.691V394.387H260.017C260.55 394.387 261.014 394.483 261.409 394.675C261.814 394.867 262.129 395.181 262.353 395.619C262.588 396.056 262.705 396.637 262.705 397.363V403.267H261.473V397.315C261.473 396.589 261.313 396.083 260.993 395.795C260.684 395.507 260.268 395.363 259.745 395.363H257.329V400.563C257.329 401.192 257.233 401.715 257.041 402.131C256.849 402.536 256.55 402.851 256.145 403.075C255.74 403.288 255.212 403.427 254.561 403.491Z" fill="url(#paint2_linear_676_1763)"/>
<mask id="mask0_676_1763" style="mask-type:alpha" maskUnits="userSpaceOnUse" x="127" y="100" width="138" height="138">
<path d="M127.825 168.804C127.825 131.085 158.403 100.507 196.122 100.507C233.842 100.507 264.419 131.085 264.419 168.804C264.419 206.524 233.842 237.101 196.122 237.101C158.403 237.101 127.825 206.524 127.825 168.804Z" fill="url(#paint3_linear_676_1763)"/>
</mask>
<g mask="url(#mask0_676_1763)">
<path d="M127.825 168.804C127.825 131.085 158.403 100.507 196.122 100.507C233.842 100.507 264.419 131.085 264.419 168.804C264.419 206.524 233.842 237.101 196.122 237.101C158.403 237.101 127.825 206.524 127.825 168.804Z" fill="url(#paint4_linear_676_1763)"/>
</g>
</g>
<defs>
<filter id="filter0_f_676_1763" x="0" y="0" width="390.362" height="509.991" filterUnits="userSpaceOnUse" color-interpolation-filters="sRGB">
<feFlood flood-opacity="0" result="BackgroundImageFix"/>
<feBlend mode="normal" in="SourceGraphic" in2="BackgroundImageFix" result="shape"/>
<feGaussianBlur stdDeviation="30" result="effect1_foregroundBlur_676_1763"/>
</filter>
<linearGradient id="paint0_linear_676_1763" x1="195.181" y1="60" x2="195.181" y2="449.991" gradientUnits="userSpaceOnUse">
<stop stop-color="#EB7BA9"/>
<stop offset="0.494792" stop-color="#C671D8"/>
<stop offset="0.994792" stop-color="#7982F7"/>
</linearGradient>
<linearGradient id="paint1_linear_676_1763" x1="195.979" y1="271.795" x2="195.979" y2="292.531" gradientUnits="userSpaceOnUse">
<stop stop-color="#EB7BA9"/>
<stop offset="0.494792" stop-color="#C671D8"/>
<stop offset="0.994792" stop-color="#7982F7"/>
</linearGradient>
<linearGradient id="paint2_linear_676_1763" x1="196.776" y1="313.267" x2="196.776" y2="408.172" gradientUnits="userSpaceOnUse">
<stop stop-color="#EB7BA9"/>
<stop offset="0.494792" stop-color="#C671D8"/>
<stop offset="0.994792" stop-color="#7982F7"/>
</linearGradient>
<linearGradient id="paint3_linear_676_1763" x1="196.122" y1="100.507" x2="196.122" y2="237.101" gradientUnits="userSpaceOnUse">
<stop stop-color="#EB7BA9"/>
<stop offset="0.494792" stop-color="#C671D8"/>
<stop offset="0.994792" stop-color="#7982F7"/>
</linearGradient>
<linearGradient id="paint4_linear_676_1763" x1="196.122" y1="100.507" x2="196.122" y2="237.101" gradientUnits="userSpaceOnUse">
<stop stop-color="#EB7BA9"/>
<stop offset="0.494792" stop-color="#C671D8"/>
<stop offset="0.994792" stop-color="#7982F7"/>
</linearGradient>
</defs>
</svg>
