<svg width="134" height="118" viewBox="0 0 134 118" fill="none" xmlns="http://www.w3.org/2000/svg">
<circle cx="84.9232" cy="73.7279" r="31.8625" transform="rotate(-64.5088 84.9232 73.7279)" stroke="black"/>
<path d="M16.5057 38.2346C21.6792 27.4679 34.9304 23.059 46.1208 28.4361C57.3112 33.8132 62.1488 46.914 56.9753 57.6806C51.8018 68.4473 38.5506 72.8562 27.3602 67.4791C16.1698 62.102 11.3322 49.0012 16.5057 38.2346Z" stroke="black"/>
<path d="M56.4921 26.2797C59.4959 20.0286 66.9984 17.3961 73.2495 20.3998C79.5006 23.4035 82.1332 30.9061 79.1294 37.1572C76.1257 43.4083 68.6232 46.0408 62.372 43.0371C56.1209 40.0334 53.4884 32.5308 56.4921 26.2797Z" stroke="black"/>
</svg>
