<svg width="140" height="66" viewBox="0 0 140 66" fill="none" xmlns="http://www.w3.org/2000/svg">
<path d="M34.1853 64.9064C16.0365 64.9064 1.34416 50.539 1.34416 32.8406C1.34416 15.1422 16.0365 0.7749 34.1853 0.774901C52.3341 0.774902 67.0264 15.1422 67.0264 32.8406C67.0264 50.539 52.3341 64.9064 34.1853 64.9064Z" stroke="black"/>
<path d="M106.116 64.9064C87.9671 64.9064 73.2748 50.539 73.2748 32.8406C73.2748 15.1422 87.9671 0.7749 106.116 0.774901C124.265 0.774902 138.957 15.1422 138.957 32.8406C138.957 50.539 124.265 64.9064 106.116 64.9064Z" stroke="black"/>
<circle cx="70.0274" cy="33.983" r="21.9859" transform="rotate(51.4074 70.0274 33.983)" stroke="black"/>
</svg>
